<svg width="25" height="21" viewBox="0 0 25 21" fill="none" xmlns="http://www.w3.org/2000/svg">
<path d="M24.7273 10.5C24.7273 10.5 20.0909 2 12.3636 2C4.63636 2 0 10.5 0 10.5C0 10.5 4.63636 19 12.3636 19C20.0909 19 24.7273 10.5 24.7273 10.5ZM1.81282 10.5C2.56007 9.36428 3.41954 8.30651 4.37827 7.34264C6.36727 5.35054 9.08727 3.54545 12.3636 3.54545C15.64 3.54545 18.3585 5.35054 20.3505 7.34264C21.3093 8.30651 22.1687 9.36428 22.916 10.5C22.8264 10.6345 22.7275 10.7828 22.6146 10.9451C22.0969 11.6869 21.3319 12.676 20.3505 13.6574C18.3585 15.6495 15.6385 17.4545 12.3636 17.4545C9.08727 17.4545 6.36882 15.6495 4.37673 13.6574C3.418 12.6935 2.55853 11.6357 1.81127 10.5H1.81282Z" fill="#DBDCE2"/>
<path d="M12.3632 6.63627C11.3385 6.63627 10.3558 7.04334 9.63119 7.76791C8.90662 8.49248 8.49956 9.47521 8.49956 10.4999C8.49956 11.5246 8.90662 12.5073 9.63119 13.2319C10.3558 13.9565 11.3385 14.3635 12.3632 14.3635C13.3879 14.3635 14.3706 13.9565 15.0952 13.2319C15.8198 12.5073 16.2268 11.5246 16.2268 10.4999C16.2268 9.47521 15.8198 8.49248 15.0952 7.76791C14.3706 7.04334 13.3879 6.63627 12.3632 6.63627ZM6.9541 10.4999C6.9541 9.06533 7.52399 7.68951 8.53839 6.67511C9.55279 5.66071 10.9286 5.09082 12.3632 5.09082C13.7978 5.09082 15.1736 5.66071 16.188 6.67511C17.2024 7.68951 17.7723 9.06533 17.7723 10.4999C17.7723 11.9345 17.2024 13.3103 16.188 14.3247C15.1736 15.3391 13.7978 15.909 12.3632 15.909C10.9286 15.909 9.55279 15.3391 8.53839 14.3247C7.52399 13.3103 6.9541 11.9345 6.9541 10.4999Z" fill="#DBDCE2"/>
<path d="M1 19.5L23 1" stroke="#DBDCE2" stroke-width="1.5"/>
</svg>
