<svg width="30" height="31" viewBox="0 0 30 31" fill="none" xmlns="http://www.w3.org/2000/svg">
<path d="M4.29279 14.7807L11.2929 7.78071C11.4815 7.59855 11.7341 7.49776 11.9963 7.50004C12.2585 7.50232 12.5093 7.60749 12.6947 7.79289C12.8801 7.9783 12.9853 8.22911 12.9875 8.49131C12.9898 8.75351 12.889 9.00611 12.7069 9.19471L7.41382 14.4877H25C25.2652 14.4877 25.5196 14.5931 25.7071 14.7806C25.8946 14.9681 26 15.2225 26 15.4877C26 15.7529 25.8946 16.0073 25.7071 16.1948C25.5196 16.3824 25.2652 16.4877 25 16.4877H7.41382L12.7069 21.7807C12.8024 21.873 12.8786 21.9833 12.931 22.1053C12.9834 22.2273 13.011 22.3585 13.0121 22.4913C13.0133 22.6241 12.988 22.7558 12.9377 22.8787C12.8874 23.0016 12.8132 23.1132 12.7193 23.2071C12.6254 23.301 12.5137 23.3753 12.3908 23.4255C12.2679 23.4758 12.1362 23.5011 12.0035 23.5C11.8707 23.4988 11.7395 23.4712 11.6175 23.4188C11.4955 23.3664 11.3851 23.2902 11.2929 23.1947L4.29279 16.1947C4.10532 16.0072 4 15.7529 4 15.4877C4 15.2225 4.10532 14.9682 4.29279 14.7807Z" fill="#158466"/>
</svg>
