<svg width="50" height="18" viewBox="0 0 50 18" fill="none" xmlns="http://www.w3.org/2000/svg">
<path d="M9.45142 2.32079C8.8756 2.92774 7.95827 3.4087 7.04247 3.33825C6.92149 2.51995 7.37786 1.64338 7.90467 1.10011C8.47896 0.480958 9.48358 0.0365799 10.2983 0C10.3948 0.854885 10.0181 1.69487 9.45295 2.32079H9.45142ZM10.2891 3.49947C8.9583 3.42767 7.81585 4.17552 7.1849 4.17552C6.54016 4.17552 5.57383 3.5347 4.52173 3.55637C3.15722 3.57128 1.88154 4.26088 1.18779 5.37047C-0.256349 7.57745 0.812593 10.8452 2.20007 12.6444C2.8785 13.5332 3.69016 14.5073 4.76063 14.4802C5.77291 14.4436 6.18028 13.8882 7.40083 13.8882C8.6367 13.8882 8.9874 14.4802 10.0655 14.4585C11.1728 14.4436 11.8742 13.5698 12.5526 12.681C13.326 11.6717 13.6445 10.6827 13.6613 10.6339C13.6445 10.6122 11.5158 9.88604 11.5005 7.69803C11.4836 5.86226 13.1743 4.98841 13.2463 4.93828C12.2968 3.66882 10.7976 3.5347 10.2876 3.50083L10.2891 3.49947ZM17.9708 1.01475V14.3664H20.2909V9.80205H23.4993C26.4259 9.80205 28.4841 8.00286 28.4841 5.40569C28.4841 2.8031 26.4672 1.01611 23.5789 1.01611L17.9708 1.01475ZM20.2909 2.76517H22.9633C24.9725 2.76517 26.1226 3.72437 26.1226 5.41111C26.1226 7.09785 24.9725 8.06518 22.948 8.06518H20.2909V2.76517ZM32.7093 14.4653C34.1688 14.4653 35.5165 13.8096 36.1321 12.7637H36.1811V14.3664H38.3251V7.71835C38.3251 5.79994 36.6038 4.55216 33.9467 4.55216C31.4903 4.55216 29.671 5.81484 29.6082 7.54358H31.6894C31.8655 6.7185 32.7109 6.182 33.8839 6.182C35.3036 6.182 36.0938 6.77405 36.0938 7.86196V8.59491L33.2071 8.75071C30.5102 8.89839 29.0584 9.87927 29.0584 11.5945C29.0584 13.3232 30.5592 14.4667 32.7109 14.4667L32.7093 14.4653ZM33.3403 12.8842C32.1029 12.8842 31.3142 12.3545 31.3142 11.5443C31.3142 10.7043 32.0723 10.2098 33.5149 10.1313L36.0923 9.99037V10.745C36.0923 11.9955 34.9039 12.8842 33.3311 12.8842H33.3403ZM41.1889 18C43.4447 18 44.5075 17.2237 45.4325 14.888L49.5 4.68493H47.1477L44.4202 12.5659H44.3712L41.6437 4.68493H39.2195L43.1445 14.4016L42.9363 14.9937C42.5764 15.9895 42.0036 16.3756 40.9822 16.3756C40.7984 16.3756 40.4477 16.3553 40.3037 16.3417V17.9445C40.4385 17.9783 41.0143 17.9932 41.1812 17.9932L41.1889 18Z" fill="#4D5363"/>
</svg>
