<svg width="49" height="16" viewBox="0 0 49 16" fill="none" xmlns="http://www.w3.org/2000/svg">
<path d="M17.7852 15.1092L20.2487 1.24609H24.098L21.7115 15.1092H17.7852Z" fill="#3C58BF"/>
<path d="M17.7852 15.1092L20.9416 1.24609H24.098L21.7115 15.1092H17.7852Z" fill="#293688"/>
<path d="M35.6461 1.40129C34.8762 1.09322 33.6445 0.785156 32.1047 0.785156C28.2554 0.785156 25.4839 2.71058 25.4839 5.48319C25.4839 7.56265 27.4086 8.64089 28.9483 9.33404C30.488 10.0272 30.9499 10.4893 30.9499 11.1054C30.9499 12.0296 29.7182 12.4917 28.6403 12.4917C27.1006 12.4917 26.2538 12.2607 24.945 11.7216L24.4061 11.4905L23.8672 14.6482C24.791 15.0333 26.4847 15.4184 28.2554 15.4184C32.3357 15.4184 35.0302 13.493 35.0302 10.5663C35.0302 8.94896 34.0294 7.71669 31.7198 6.71546C30.334 6.02231 29.4872 5.63723 29.4872 4.94407C29.4872 4.32794 30.1801 3.7118 31.7198 3.7118C33.0286 3.7118 33.9524 3.94285 34.6453 4.25092L35.0302 4.40495L35.6461 1.40129Z" fill="#3C58BF"/>
<path d="M35.6461 1.40129C34.8762 1.09322 33.6445 0.785156 32.1047 0.785156C28.2554 0.785156 26.1768 2.71058 26.1768 5.48319C26.1768 7.56265 27.4086 8.64089 28.9483 9.33404C30.488 10.0272 30.9499 10.4893 30.9499 11.1054C30.9499 12.0296 29.7182 12.4917 28.6403 12.4917C27.1006 12.4917 26.2538 12.2607 24.945 11.7216L24.4061 11.4905L23.8672 14.6482C24.791 15.0333 26.4847 15.4184 28.2554 15.4184C32.3357 15.4184 35.0302 13.493 35.0302 10.5663C35.0302 8.94896 34.0294 7.71669 31.7198 6.71546C30.334 6.02231 29.4872 5.63723 29.4872 4.94407C29.4872 4.32794 30.1801 3.7118 31.7198 3.7118C33.0286 3.7118 33.9524 3.94285 34.6453 4.25092L35.0302 4.40495L35.6461 1.40129Z" fill="#293688"/>
<path d="M42.2639 1.24609C41.3401 1.24609 40.6472 1.32311 40.2623 2.24732L34.4883 15.1092H38.6455L39.4154 12.7986H44.3425L44.8045 15.1092H48.4998L45.2664 1.24609H42.2639ZM40.4932 10.4881C40.7242 9.79498 42.0329 6.40623 42.0329 6.40623C42.0329 6.40623 42.3409 5.55905 42.5719 5.01993L42.8028 6.32922C42.8028 6.32922 43.5727 9.79498 43.7266 10.5652H40.4932V10.4881Z" fill="#3C58BF"/>
<path d="M43.1877 1.24609C42.2639 1.24609 41.571 1.32311 41.1861 2.24732L34.4883 15.1092H38.6455L39.4154 12.7986H44.3425L44.8045 15.1092H48.4998L45.2664 1.24609H43.1877ZM40.4932 10.4881C40.8012 9.71796 42.0329 6.40623 42.0329 6.40623C42.0329 6.40623 42.3409 5.55905 42.5719 5.01993L42.8028 6.32922C42.8028 6.32922 43.5727 9.79498 43.7266 10.5652H40.4932V10.4881Z" fill="#293688"/>
<path d="M10.6998 10.9513L10.3148 8.9489C9.62195 6.63839 7.38935 4.09683 4.92578 2.86456L8.39017 15.1873H12.5474L18.7833 1.32422H14.6261L10.6998 10.9513Z" fill="#3C58BF"/>
<path d="M10.6998 10.9513L10.3148 8.9489C9.62195 6.63839 7.38935 4.09683 4.92578 2.86456L8.39017 15.1873H12.5474L18.7833 1.32422H15.3959L10.6998 10.9513Z" fill="#293688"/>
<path d="M0 1.24609L0.692878 1.40013C5.62001 2.55538 9.00741 5.48203 10.3162 8.94779L8.93042 2.40135C8.69946 1.47714 8.00659 1.24609 7.15974 1.24609H0Z" fill="#FFBC00"/>
<path d="M0 1.24609C4.92713 2.40135 9.00741 5.40501 10.3162 8.87078L9.00741 3.40257C8.77645 2.47837 8.00659 1.93925 7.15974 1.93925L0 1.24609Z" fill="#F7981D"/>
<path d="M0 1.24609C4.92713 2.40135 9.00741 5.40501 10.3162 8.87078L9.39234 5.86711C9.16138 4.94291 8.85344 4.01871 7.77563 3.63362L0 1.24609Z" fill="#ED7C00"/>
<path d="M14.5502 10.4869L11.9327 7.86828L10.7009 10.7949L10.393 8.8695C9.70008 6.55899 7.46747 4.01743 5.00391 2.78516L8.46829 15.1079H12.6256L14.5502 10.4869Z" fill="#051244"/>
<path d="M21.7115 15.1114L18.401 11.7227L17.7852 15.1114H21.7115Z" fill="#051244"/>
<path d="M30.565 10.332C30.873 10.6401 31.0269 10.8712 30.9499 11.1792C30.9499 12.1034 29.7182 12.5655 28.6403 12.5655C27.1006 12.5655 26.2538 12.3345 24.945 11.7954L24.4061 11.5643L23.8672 14.722C24.791 15.1071 26.4847 15.4922 28.2554 15.4922C30.719 15.4922 32.7206 14.799 33.8754 13.5667L30.565 10.332Z" fill="#051244"/>
<path d="M35.0312 15.1107H38.6496L39.4195 12.8002H44.3466L44.8085 15.1107H48.5039L47.1951 9.48847L42.5759 5.02148L42.8069 6.25376C42.8069 6.25376 43.5767 9.71952 43.7307 10.4897H40.4973C40.8052 9.71952 42.037 6.40779 42.037 6.40779C42.037 6.40779 42.345 5.5606 42.5759 5.02148" fill="#051244"/>
</svg>
