<svg width="29" height="32" viewBox="0 0 29 32" fill="none" xmlns="http://www.w3.org/2000/svg">
<path d="M19.1924 3.1995H9.59389C9.16961 3.1995 8.76271 3.03096 8.4627 2.73094C8.16269 2.43093 7.99414 2.02403 7.99414 1.59975C7.99414 1.17547 8.16269 0.768567 8.4627 0.468556C8.76271 0.168545 9.16961 0 9.59389 0H19.1924C19.6167 0 20.0236 0.168545 20.3236 0.468556C20.6236 0.768567 20.7921 1.17547 20.7921 1.59975C20.7921 2.02403 20.6236 2.43093 20.3236 2.73094C20.0236 3.03096 19.6167 3.1995 19.1924 3.1995Z" fill="white"/>
<path d="M19.1928 32.0003H9.59431C7.89719 32.0003 6.26958 31.3261 5.06954 30.1261C3.86949 28.926 3.19531 27.2984 3.19531 25.6013V6.4043H25.5918V25.6013C25.5918 27.2984 24.9176 28.926 23.7176 30.1261C22.5175 31.3261 20.8899 32.0003 19.1928 32.0003Z" fill="white"/>
<path d="M27.1958 9.6038H1.59975C1.17547 9.6038 0.768567 9.43525 0.468556 9.13524C0.168545 8.83523 0 8.42833 0 8.00405C0 7.57977 0.168545 7.17286 0.468556 6.87285C0.768567 6.57284 1.17547 6.4043 1.59975 6.4043H27.1958C27.62 6.4043 28.0269 6.57284 28.3269 6.87285C28.627 7.17286 28.7955 7.57977 28.7955 8.00405C28.7955 8.42833 28.627 8.83523 28.3269 9.13524C28.0269 9.43525 27.62 9.6038 27.1958 9.6038Z" fill="white"/>
<path d="M11.1994 25.591C10.7751 25.591 10.3682 25.4224 10.0682 25.1224C9.76815 24.8224 9.59961 24.4155 9.59961 23.9912V14.3927C9.59961 13.9684 9.76815 13.5615 10.0682 13.2615C10.3682 12.9615 10.7751 12.793 11.1994 12.793C11.6236 12.793 12.0305 12.9615 12.3306 13.2615C12.6306 13.5615 12.7991 13.9684 12.7991 14.3927V23.9912C12.7991 24.4155 12.6306 24.8224 12.3306 25.1224C12.0305 25.4224 11.6236 25.591 11.1994 25.591Z" fill="#EDEBEA"/>
<path d="M17.6037 25.591C17.1794 25.591 16.7725 25.4224 16.4725 25.1224C16.1725 24.8224 16.0039 24.4155 16.0039 23.9912V14.3927C16.0039 13.9684 16.1725 13.5615 16.4725 13.2615C16.7725 12.9615 17.1794 12.793 17.6037 12.793C18.0279 12.793 18.4348 12.9615 18.7349 13.2615C19.0349 13.5615 19.2034 13.9684 19.2034 14.3927V23.9912C19.2034 24.4155 19.0349 24.8224 18.7349 25.1224C18.4348 25.4224 18.0279 25.591 17.6037 25.591Z" fill="#EDEBEA"/>
</svg>
