<svg width="100" height="100" viewBox="0 0 100 100" fill="none" xmlns="http://www.w3.org/2000/svg">
<path d="M53.9062 21.4355V23.3887L48.0469 25.3418L42.1875 23.3887V21.4355C42.1875 18.1992 44.8105 15.5762 48.0469 15.5762C51.2832 15.5762 53.9062 18.1992 53.9062 21.4355Z" fill="#158466"/>
<path d="M12.8906 66.3574C15.0488 66.3574 16.7969 68.1055 16.7969 70.2637C16.7969 72.4219 15.0488 74.1699 12.8906 74.1699C10.7324 74.1699 8.98438 72.4219 8.98438 70.2637C8.98438 68.1055 10.7324 66.3574 12.8906 66.3574Z" fill="#0FD7A1"/>
<path d="M85.1562 40.9668C88.3923 40.9668 91.0156 38.3435 91.0156 35.1074C91.0156 31.8714 88.3923 29.248 85.1562 29.248C81.9202 29.248 79.2969 31.8714 79.2969 35.1074C79.2969 38.3435 81.9202 40.9668 85.1562 40.9668Z" fill="#0FD7A1"/>
<path d="M62.6953 39.0137L64.6484 56.5918L62.6953 74.1699L59.7656 76.123L56.8359 74.1699L54.8828 56.5918L56.8359 39.0137L59.7656 37.0605L62.6953 39.0137Z" fill="white"/>
<path d="M50.9766 39.0137L52.9297 56.5918L50.9766 74.1699L48.0469 76.123L45.1172 74.1699L43.1641 56.5918L45.1172 39.0137L48.0469 37.0605L50.9766 39.0137Z" fill="white"/>
<path d="M39.2578 39.0137L41.2109 56.5918L39.2578 74.1699L36.3281 76.123L33.3984 74.1699L31.4453 56.5918L33.3984 39.0137L36.3281 37.0605L39.2578 39.0137Z" fill="white"/>
<path d="M70.5078 39.0137V74.1699L66.6016 76.123L62.6953 74.1699C62.6953 72.2168 62.6953 40.9668 62.6953 39.0137L66.6016 37.0605L70.5078 39.0137Z" fill="#158466"/>
<path d="M56.8359 39.0137V74.1699L53.9062 76.123L50.9766 74.1699C50.9766 72.2168 50.9766 40.9668 50.9766 39.0137L53.9062 37.0605L56.8359 39.0137Z" fill="#158466"/>
<path d="M45.1172 39.0137V74.1699L42.1875 76.123L39.2578 74.1699C39.2578 72.2168 39.2578 40.9668 39.2578 39.0137L42.1875 37.0605L45.1172 39.0137Z" fill="#158466"/>
<path d="M33.3984 39.0137V74.1699L29.4922 76.123L25.5859 74.1699C25.5859 72.2168 25.5859 40.9668 25.5859 39.0137L29.4922 37.0605L33.3984 39.0137Z" fill="#158466"/>
<path d="M70.5078 32.1777V39.0137C66.4779 39.0137 57.4367 39.0137 48.0469 39.0137C39.7641 39.0137 31.2104 39.0137 25.5859 39.0137C25.5859 36.6229 25.5859 34.5686 25.5859 32.1777L48.0469 30.2246L70.5078 32.1777Z" fill="#158466"/>
<path d="M75.3906 27.7832C75.3906 30.2109 73.4238 32.1777 70.9961 32.1777C68.5988 32.1777 27.4238 32.1777 25.0977 32.1777C22.6729 32.1777 20.7031 30.2127 20.7031 27.7832C20.7031 25.3555 22.6699 23.3887 25.0977 23.3887H70.9961C73.4207 23.3887 75.3906 25.3537 75.3906 27.7832Z" fill="#179D79"/>
<path d="M84.668 56.5918C85.477 56.5918 86.1328 55.936 86.1328 55.127C86.1328 54.3179 85.477 53.6621 84.668 53.6621C83.859 53.6621 83.2031 54.3179 83.2031 55.127C83.2031 55.936 83.859 56.5918 84.668 56.5918Z" fill="#0FD7A1"/>
<path d="M82.7148 15.5762C83.5239 15.5762 84.1797 14.9203 84.1797 14.1113C84.1797 13.3023 83.5239 12.6465 82.7148 12.6465C81.9058 12.6465 81.25 13.3023 81.25 14.1113C81.25 14.9203 81.9058 15.5762 82.7148 15.5762Z" fill="#0FD7A1"/>
<path d="M76.8555 89.3066C77.6645 89.3066 78.3203 88.6508 78.3203 87.8418C78.3203 87.0328 77.6645 86.377 76.8555 86.377C76.0465 86.377 75.3906 87.0328 75.3906 87.8418C75.3906 88.6508 76.0465 89.3066 76.8555 89.3066Z" fill="#0FD7A1"/>
<path d="M34.8633 13.623C35.6723 13.623 36.3281 12.9672 36.3281 12.1582C36.3281 11.3492 35.6723 10.6934 34.8633 10.6934C34.0543 10.6934 33.3984 11.3492 33.3984 12.1582C33.3984 12.9672 34.0543 13.623 34.8633 13.623Z" fill="#0FD7A1"/>
<path d="M19.2383 88.8184C20.0473 88.8184 20.7031 88.1625 20.7031 87.3535C20.7031 86.5445 20.0473 85.8887 19.2383 85.8887C18.4293 85.8887 17.7734 86.5445 17.7734 87.3535C17.7734 88.1625 18.4293 88.8184 19.2383 88.8184Z" fill="#0FD7A1"/>
<path d="M15.332 50.7324C16.141 50.7324 16.7969 50.0766 16.7969 49.2676C16.7969 48.4586 16.141 47.8027 15.332 47.8027C14.523 47.8027 13.8672 48.4586 13.8672 49.2676C13.8672 50.0766 14.523 50.7324 15.332 50.7324Z" fill="#0FD7A1"/>
<path d="M10.4492 29.248C11.2582 29.248 11.9141 28.5922 11.9141 27.7832C11.9141 26.9742 11.2582 26.3184 10.4492 26.3184C9.64021 26.3184 8.98438 26.9742 8.98438 27.7832C8.98438 28.5922 9.64021 29.248 10.4492 29.248Z" fill="#0FD7A1"/>
<path d="M70.5078 74.1699V77.3594C70.5078 82.0701 66.6896 85.8887 61.9785 85.8887C60.6408 85.8887 32.9326 85.8887 34.1152 85.8887C29.4045 85.8887 25.5859 82.0705 25.5859 77.3594C25.5859 76.2439 25.5859 75.2854 25.5859 74.1699H70.5078Z" fill="#158466"/>
</svg>
