<svg width="16" height="16" viewBox="0 0 16 16" fill="none" xmlns="http://www.w3.org/2000/svg">
<path d="M14.0661 1.93286C13.8801 1.74439 13.6585 1.59475 13.4141 1.49262C13.1698 1.39048 12.9076 1.33789 12.6428 1.33789C12.378 1.33789 12.1158 1.39048 11.8714 1.49262C11.6271 1.59475 11.4055 1.74439 11.2195 1.93286L9.93945 3.23286L12.7661 6.05952L14.0461 4.77952C14.2359 4.59481 14.3871 4.37424 14.491 4.13063C14.5948 3.88701 14.6492 3.62519 14.6511 3.36037C14.653 3.09555 14.6022 2.83299 14.5018 2.58794C14.4014 2.34289 14.2533 2.12022 14.0661 1.93286Z" fill="#158466"/>
<path d="M8.99338 4.17969L3.40005 9.77302C3.3499 9.82457 3.30726 9.88292 3.27338 9.94635L1.42005 13.6864C1.36628 13.7873 1.33939 13.9004 1.34197 14.0147C1.34454 14.1291 1.37649 14.2409 1.43475 14.3393C1.493 14.4377 1.5756 14.5195 1.6746 14.5768C1.7736 14.6341 1.88568 14.6649 2.00005 14.6664C2.10163 14.6668 2.20196 14.644 2.29338 14.5997L6.03338 12.7464C6.09681 12.7125 6.15516 12.6698 6.20671 12.6197L11.8 7.02635L8.99338 4.17969Z" fill="#158466"/>
<path d="M14.0007 14.6663H8.00065C7.82384 14.6663 7.65427 14.5961 7.52925 14.4711C7.40422 14.3461 7.33398 14.1765 7.33398 13.9997C7.33398 13.8229 7.40422 13.6533 7.52925 13.5283C7.65427 13.4032 7.82384 13.333 8.00065 13.333H14.0007C14.1775 13.333 14.347 13.4032 14.4721 13.5283C14.5971 13.6533 14.6673 13.8229 14.6673 13.9997C14.6673 14.1765 14.5971 14.3461 14.4721 14.4711C14.347 14.5961 14.1775 14.6663 14.0007 14.6663Z" fill="#158466"/>
</svg>
