<svg width="28" height="28" viewBox="0 0 28 28" fill="none" xmlns="http://www.w3.org/2000/svg">
<path d="M23.6279 4.8997C18.3501 -0.378025 9.76336 -0.378025 4.48564 4.8997C-0.792087 10.1774 -0.792087 18.7642 4.48564 24.0419C9.76336 29.3197 18.3501 29.3197 23.6279 24.0419C28.9056 18.7642 28.9056 10.1774 23.6279 4.8997Z" fill="#158466"/>
<path d="M4.99586 5.40993C9.9918 0.413991 18.1217 0.413991 23.1176 5.40993C28.1136 10.4059 28.1136 18.5358 23.1176 23.5317C18.1217 28.5276 9.9918 28.5276 4.99586 23.5317C-7.11679e-05 18.5358 -7.11679e-05 10.4059 4.99586 5.40993Z" stroke="white" stroke-width="1.44314"/>
<g clip-path="url(#clip0_382_7859)">
<path d="M20.2193 10.3596H16.3993L15.628 9.0637C15.5525 8.937 15.416 8.85938 15.2685 8.85938H12.8424C12.695 8.85938 12.5584 8.937 12.483 9.0637L11.7116 10.3596H10.4581V10.074C10.4581 9.84297 10.2708 9.65569 10.0398 9.65569H8.49215C8.26111 9.65569 8.07387 9.84297 8.07387 10.074V10.3596H7.89167C7.31072 10.3596 6.83984 10.8305 6.83984 11.4114V19.0268C6.83984 19.6077 7.31072 20.0786 7.89162 20.0786H20.2193C20.8002 20.0786 21.2712 19.6077 21.2712 19.0268V11.4114C21.2712 10.8305 20.8002 10.3596 20.2193 10.3596ZM14.0555 18.2129C12.402 18.2129 11.0616 16.8725 11.0616 15.219C11.0616 13.5656 12.402 12.2251 14.0555 12.2251C15.709 12.2251 17.0494 13.5656 17.0494 15.219C17.0494 16.8725 15.709 18.2129 14.0555 18.2129ZM19.5631 12.528H18.2524C18.0214 12.528 17.8342 12.3408 17.8342 12.1097C17.8342 11.8787 18.0214 11.6914 18.2524 11.6914H19.5631C19.7942 11.6914 19.9814 11.8787 19.9814 12.1097C19.9814 12.3408 19.7942 12.528 19.5631 12.528Z" fill="white"/>
<path d="M14.0525 17.3081C15.2076 17.3081 16.144 16.3717 16.144 15.2165C16.144 14.0614 15.2076 13.125 14.0525 13.125C12.8973 13.125 11.9609 14.0614 11.9609 15.2165C11.9609 16.3717 12.8973 17.3081 14.0525 17.3081Z" fill="white"/>
</g>
<defs>
<clipPath id="clip0_382_7859">
<rect width="14.4314" height="14.4314" fill="white" transform="translate(6.83984 7.25391)"/>
</clipPath>
</defs>
</svg>
