<svg width="15" height="16" viewBox="0 0 15 16" fill="none" xmlns="http://www.w3.org/2000/svg">
<g clip-path="url(#clip0_382_7881)">
<path d="M7.5 0.5C3.35476 0.5 0 3.85438 0 8C0 12.1452 3.35438 15.5 7.5 15.5C11.6452 15.5 15 12.1456 15 8C15 3.85481 11.6456 0.5 7.5 0.5ZM8.27019 10.9772C8.27019 11.2141 7.92466 11.451 7.50015 11.451C7.05589 11.451 6.74001 11.2141 6.74001 10.9772V7.21584C6.74001 6.93942 7.05592 6.75181 7.50015 6.75181C7.92466 6.75181 8.27019 6.93942 8.27019 7.21584V10.9772ZM7.50018 5.84363C7.04605 5.84363 6.69067 5.50798 6.69067 5.1328C6.69067 4.75766 7.04607 4.43187 7.50018 4.43187C7.94443 4.43187 8.29986 4.75766 8.29986 5.1328C8.29986 5.50798 7.9444 5.84363 7.50018 5.84363Z" fill="#158466"/>
</g>
<defs>
<clipPath id="clip0_382_7881">
<rect width="15" height="15" fill="white" transform="translate(0 0.5)"/>
</clipPath>
</defs>
</svg>
