<svg width="55" height="56" viewBox="0 0 55 56" fill="none" xmlns="http://www.w3.org/2000/svg">
<path d="M0 10.5C0 4.97715 4.47715 0.5 10 0.5H45C50.5228 0.5 55 4.97715 55 10.5V45.5C55 51.0228 50.5228 55.5 45 55.5H10C4.47715 55.5 0 51.0228 0 45.5V10.5Z" fill="#13B052"/>
<path d="M39 20.7031V38.9949C39 39.739 38.3912 40.3478 37.6471 40.3478H17.3529C16.6088 40.3478 16 39.739 16 38.9949V20.7031H39Z" fill="white"/>
<path d="M38.7929 20.2191L34.7787 16.205C34.6474 16.0737 34.4702 16 34.2849 16H20.7142C20.5288 16 20.3509 16.0737 20.2204 16.205L16.2062 20.2191C15.7658 20.6595 16.0776 21.4118 16.7 21.4118H38.2997C38.9221 21.4118 39.2332 20.6595 38.7929 20.2191Z" fill="#EDEDED"/>
<path d="M30.8897 21.4148V26.15C30.8897 26.5235 30.5866 26.8265 30.2132 26.8265H24.8015C24.4281 26.8265 24.125 26.5235 24.125 26.15V21.4148L24.8015 20.7383H30.2132L30.8897 21.4148Z" fill="#334A5E"/>
<path d="M22.7698 34.2695H19.3874C19.0138 34.2695 18.7109 34.5724 18.7109 34.946V36.9754C18.7109 37.349 19.0138 37.6519 19.3874 37.6519H22.7698C23.1434 37.6519 23.4462 37.349 23.4462 36.9754V34.946C23.4462 34.5724 23.1434 34.2695 22.7698 34.2695Z" fill="#158466"/>
<path d="M30.8897 21.4118L28.8603 16H26.1544L24.125 21.4118H30.8897Z" fill="#334A5E"/>
<path d="M32.0345 33.7843C31.77 33.5198 31.3425 33.5198 31.078 33.7843L30.4015 34.4608C30.137 34.7253 30.137 35.1528 30.4015 35.4173C30.5334 35.5492 30.7066 35.6155 30.8798 35.6155V37.6449C30.8798 38.019 31.1821 38.3214 31.5562 38.3214C31.9303 38.3214 32.2327 38.019 32.2327 37.6449V35.6155C32.4059 35.6155 32.5791 35.5492 32.711 35.4173C32.9755 35.1528 32.9755 34.7253 32.711 34.4608L32.0345 33.7843Z" fill="#158466"/>
<path d="M36.7813 34.4608L36.1048 33.7843C35.8403 33.5198 35.4128 33.5198 35.1483 33.7843L34.4718 34.4608C34.2073 34.7253 34.2073 35.1528 34.4718 35.4173C34.6037 35.5492 34.7769 35.6155 34.9501 35.6155V37.6449C34.9501 38.019 35.2525 38.3214 35.6265 38.3214C36.0006 38.3214 36.303 38.019 36.303 37.6449V35.6155C36.4762 35.6155 36.6494 35.5492 36.7813 35.4173C37.0458 35.1528 37.0458 34.7253 36.7813 34.4608Z" fill="#158466"/>
</svg>
