<svg width="20" height="20" viewBox="0 0 20 20" fill="none" xmlns="http://www.w3.org/2000/svg">
<g clip-path="url(#clip0_567_12966)">
<path d="M10 0C4.48578 0 0 4.48578 0 10C0 15.5142 4.48578 20 10 20C15.5142 20 20 15.5142 20 10C20 4.48578 15.5142 0 10 0Z" fill="#158466"/>
<path d="M14.3743 10.8336H10.8326V14.3753C10.8326 14.8353 10.4594 15.2086 9.9993 15.2086C9.53925 15.2086 9.16602 14.8353 9.16602 14.3753V10.8336H5.6243C5.16425 10.8336 4.79102 10.4603 4.79102 10.0003C4.79102 9.54022 5.16425 9.16699 5.6243 9.16699H9.16602V5.62527C9.16602 5.16522 9.53925 4.79199 9.9993 4.79199C10.4594 4.79199 10.8326 5.16522 10.8326 5.62527V9.16699H14.3743C14.8344 9.16699 15.2076 9.54022 15.2076 10.0003C15.2076 10.4603 14.8344 10.8336 14.3743 10.8336Z" fill="#FAFAFA"/>
</g>
<defs>
<clipPath id="clip0_567_12966">
<rect width="20" height="20" fill="white"/>
</clipPath>
</defs>
</svg>
