<svg width="11" height="11" viewBox="0 0 11 11" fill="none" xmlns="http://www.w3.org/2000/svg">
<path d="M9.58328 6.04157H6.04157V9.58328C6.04157 10.0433 5.66834 10.4166 5.20828 10.4166C4.74823 10.4166 4.375 10.0433 4.375 9.58328V6.04157H0.833283C0.37323 6.04157 0 5.66834 0 5.20828C0 4.74823 0.37323 4.375 0.833283 4.375H4.375V0.833283C4.375 0.37323 4.74823 0 5.20828 0C5.66834 0 6.04157 0.37323 6.04157 0.833283V4.375H9.58328C10.0433 4.375 10.4166 4.74823 10.4166 5.20828C10.4166 5.66834 10.0433 6.04157 9.58328 6.04157Z" fill="#158466"/>
</svg>
