<svg width="20" height="21" viewBox="0 0 20 21" fill="none" xmlns="http://www.w3.org/2000/svg">
<path d="M15.601 5.19085V4.41731C15.601 3.0844 14.5166 2 13.1837 2H7.25324C5.92034 2 4.83594 3.0844 4.83594 4.41731V5.19085H15.601Z" fill="#158466"/>
<path d="M5.79883 12.2803V16.2124V17.0504V17.5339C5.79883 18.0679 6.23172 18.5008 6.76575 18.5008H13.6631C14.1972 18.5008 14.6301 18.0679 14.6301 17.5339V17.0504V16.2124V12.2803H5.79883ZM11.5037 16.4058H8.92521C8.65821 16.4058 8.44175 16.1893 8.44175 15.9223C8.44175 15.6553 8.65821 15.4389 8.92521 15.4389H11.5037C11.7707 15.4389 11.9871 15.6553 11.9871 15.9223C11.9871 16.1893 11.7707 16.4058 11.5037 16.4058ZM11.5037 14.343H8.92521C8.65821 14.343 8.44175 14.1266 8.44175 13.8596C8.44175 13.5926 8.65821 13.3761 8.92521 13.3761H11.5037C11.7707 13.3761 11.9871 13.5926 11.9871 13.8596C11.9871 14.1266 11.7707 14.343 11.5037 14.343Z" fill="#158466"/>
<path d="M16.0526 6.15918H4.41731C3.0844 6.15918 2 7.24358 2 8.57649V12.4442C2 13.7771 3.0844 14.8615 4.41731 14.8615H4.83631V12.283H4.54623C4.27923 12.283 4.06277 12.0666 4.06277 11.7996C4.06277 11.5326 4.27923 11.3161 4.54623 11.3161H5.31977H15.1179H15.8915C16.1585 11.3161 16.3749 11.5326 16.3749 11.7996C16.3749 12.0666 16.1585 12.283 15.8915 12.283H15.6014V14.8615H16.0526C17.3855 14.8615 18.4699 13.7771 18.4699 12.4442V8.57649C18.4699 7.24358 17.3855 6.15918 16.0526 6.15918ZM6.09331 9.18887H4.54623C4.27923 9.18887 4.06277 8.97241 4.06277 8.70541C4.06277 8.43841 4.27923 8.22195 4.54623 8.22195H6.09331C6.36031 8.22195 6.57677 8.43841 6.57677 8.70541C6.57677 8.97241 6.36031 9.18887 6.09331 9.18887Z" fill="#158466"/>
</svg>
