<svg width="25" height="24" viewBox="0 0 25 24" fill="none" xmlns="http://www.w3.org/2000/svg">
<g clip-path="url(#clip0_603_14330)">
<path d="M12.3145 0C5.68206 0 0.314453 5.367 0.314453 12C0.314453 18.6323 5.68145 24 12.3145 24C18.9468 24 24.3145 18.633 24.3145 12C24.3145 5.36761 18.9475 0 12.3145 0ZM11.9594 17.6165C11.2802 17.6165 10.7589 17.0479 10.7589 16.4002C10.7589 15.7368 11.296 15.184 11.9594 15.184C12.6228 15.184 13.1756 15.7368 13.1756 16.4002C13.1756 17.0478 12.6385 17.6165 11.9594 17.6165ZM13.76 11.472C12.8913 12.1512 12.8755 12.6251 12.8755 13.4464C12.8755 13.7466 12.7175 14.0941 11.9435 14.0941C11.2959 14.0941 11.0748 13.8571 11.0748 13.0358C11.0748 11.6774 11.675 11.0297 12.1331 10.6349C12.6543 10.1925 13.5389 9.70294 13.5389 8.85C13.5389 8.12334 12.9071 7.77586 12.1173 7.77586C10.5062 7.77586 10.8537 8.99217 10.0007 8.99217C9.57419 8.99217 9.05294 8.70778 9.05294 8.0918C9.05294 7.23886 10.0322 5.97516 12.1647 5.97516C14.1865 5.97516 15.5291 7.09669 15.5291 8.58145C15.5291 10.0662 14.1865 11.1403 13.76 11.472Z" fill="#158466"/>
</g>
<defs>
<clipPath id="clip0_603_14330">
<rect width="24" height="24" fill="white" transform="translate(0.316406)"/>
</clipPath>
</defs>
</svg>
