<svg width="40" height="40" viewBox="0 0 40 40" fill="none" xmlns="http://www.w3.org/2000/svg">
<path d="M12.8 30.661L14.6 32.461L16.4 30.661L18.2 32.461L20 30.661L21.8 32.461L23.6 30.661L25.4 32.461L27.2 30.661L29 32.461V8H11V32.461L12.8 30.661Z" fill="#E2E8EE"/>
<path d="M19.9977 19.9721C22.4268 19.9721 24.3959 18.0029 24.3959 15.5739C24.3959 13.1449 22.4268 11.1758 19.9977 11.1758C17.5687 11.1758 15.5996 13.1449 15.5996 15.5739C15.5996 18.0029 17.5687 19.9721 19.9977 19.9721Z" fill="#158466"/>
<path d="M15.7636 23.031H13.9159C13.8175 23.031 13.7232 22.9919 13.6536 22.9224C13.584 22.8528 13.5449 22.7584 13.5449 22.66C13.5449 22.5617 13.584 22.4673 13.6536 22.3977C13.7232 22.3281 13.8175 22.2891 13.9159 22.2891H15.7636C15.862 22.2891 15.9564 22.3281 16.0259 22.3977C16.0955 22.4673 16.1346 22.5617 16.1346 22.66C16.1346 22.7584 16.0955 22.8528 16.0259 22.9224C15.9564 22.9919 15.862 23.031 15.7636 23.031Z" fill="#158466"/>
<path d="M26.0744 23.031H17.5643C17.466 23.031 17.3716 22.9919 17.302 22.9224C17.2324 22.8528 17.1934 22.7584 17.1934 22.66C17.1934 22.5617 17.2324 22.4673 17.302 22.3977C17.3716 22.3281 17.466 22.2891 17.5643 22.2891H26.0744C26.1728 22.2891 26.2672 22.3281 26.3368 22.3977C26.4063 22.4673 26.4454 22.5617 26.4454 22.66C26.4454 22.7584 26.4063 22.8528 26.3368 22.9224C26.2672 22.9919 26.1728 23.031 26.0744 23.031Z" fill="#158466"/>
<path d="M15.7636 25.4412H13.9159C13.8175 25.4412 13.7232 25.4021 13.6536 25.3325C13.584 25.263 13.5449 25.1686 13.5449 25.0702C13.5449 24.9718 13.584 24.8774 13.6536 24.8079C13.7232 24.7383 13.8175 24.6992 13.9159 24.6992H15.7636C15.862 24.6992 15.9564 24.7383 16.0259 24.8079C16.0955 24.8774 16.1346 24.9718 16.1346 25.0702C16.1346 25.1686 16.0955 25.263 16.0259 25.3325C15.9564 25.4021 15.862 25.4412 15.7636 25.4412Z" fill="#158466"/>
<path d="M26.0744 25.4412H17.5643C17.466 25.4412 17.3716 25.4021 17.302 25.3325C17.2324 25.263 17.1934 25.1686 17.1934 25.0702C17.1934 24.9718 17.2324 24.8774 17.302 24.8079C17.3716 24.7383 17.466 24.6992 17.5643 24.6992H26.0744C26.1728 24.6992 26.2672 24.7383 26.3368 24.8079C26.4063 24.8774 26.4454 24.9718 26.4454 25.0702C26.4454 25.1686 26.4063 25.263 26.3368 25.3325C26.2672 25.4021 26.1728 25.4412 26.0744 25.4412Z" fill="#158466"/>
<path d="M15.7636 27.8572H13.9159C13.8175 27.8572 13.7232 27.8181 13.6536 27.7485C13.584 27.679 13.5449 27.5846 13.5449 27.4862C13.5449 27.3878 13.584 27.2935 13.6536 27.2239C13.7232 27.1543 13.8175 27.1152 13.9159 27.1152H15.7636C15.862 27.1152 15.9564 27.1543 16.0259 27.2239C16.0955 27.2935 16.1346 27.3878 16.1346 27.4862C16.1346 27.5846 16.0955 27.679 16.0259 27.7485C15.9564 27.8181 15.862 27.8572 15.7636 27.8572Z" fill="#158466"/>
<path d="M26.0744 27.8572H17.5643C17.466 27.8572 17.3716 27.8181 17.302 27.7485C17.2324 27.679 17.1934 27.5846 17.1934 27.4862C17.1934 27.3878 17.2324 27.2935 17.302 27.2239C17.3716 27.1543 17.466 27.1152 17.5643 27.1152H26.0744C26.1728 27.1152 26.2672 27.1543 26.3368 27.2239C26.4063 27.2935 26.4454 27.3878 26.4454 27.4862C26.4454 27.5846 26.4063 27.679 26.3368 27.7485C26.2672 27.8181 26.1728 27.8572 26.0744 27.8572Z" fill="#158466"/>
<path d="M20.2988 17.8505V18.2633H19.712V17.8312C19.1501 17.7679 18.6233 17.5261 18.209 17.1412L18.6735 16.5672C18.963 16.8428 19.3221 17.0345 19.7122 17.1217V15.8644C18.9185 15.6581 18.3832 15.3743 18.3832 14.6137C18.3832 13.9171 18.9185 13.3818 19.7122 13.2851V12.8906H20.2988V13.2904C20.8023 13.3424 21.2764 13.5524 21.6532 13.8904L21.2148 14.4839C20.9545 14.2486 20.6397 14.0819 20.2988 13.9989V15.2115C21.1823 15.4114 21.7696 15.7145 21.7696 16.5014C21.77 17.2442 21.2341 17.7861 20.2988 17.8505ZM19.712 15.0589V13.987C19.5759 14.0076 19.4508 14.0736 19.3571 14.1744C19.2634 14.2751 19.2065 14.4046 19.1958 14.5418C19.1958 14.7998 19.3635 14.9353 19.712 15.0589ZM20.9627 16.5809C20.9627 16.2841 20.7562 16.1489 20.2983 16.0134V17.1616C20.7374 17.109 20.9631 16.8637 20.9631 16.5799L20.9627 16.5809Z" fill="white"/>
</svg>
