<svg width="30" height="31" viewBox="0 0 30 31" fill="none" xmlns="http://www.w3.org/2000/svg">
<path d="M20.7449 15.8635V7.28455C20.7449 7.05316 20.653 6.83126 20.4894 6.66764C20.3258 6.50403 20.1039 6.41211 19.8725 6.41211H12.3224C12.0953 6.4122 11.8771 6.50088 11.7143 6.6593L9.52216 8.78995C9.43855 8.87121 9.37209 8.96841 9.32668 9.0758C9.28128 9.1832 9.25786 9.2986 9.25781 9.41519V15.8635H20.7449Z" fill="#E2E8EE"/>
<path d="M11.288 9.31938C11.5194 9.31938 11.7413 9.22746 11.9049 9.06384C12.0685 8.90023 12.1604 8.67832 12.1604 8.44693V6.42578C11.9901 6.45681 11.8329 6.5378 11.7088 6.65843L9.51664 8.78908C9.37139 8.93041 9.27987 9.11791 9.25781 9.31938H11.288Z" fill="#ACB3BA"/>
<path d="M11.5089 11.8655C11.79 11.8655 12.0178 11.6377 12.0178 11.3566C12.0178 11.0755 11.79 10.8477 11.5089 10.8477C11.2279 10.8477 11 11.0755 11 11.3566C11 11.6377 11.2279 11.8655 11.5089 11.8655Z" fill="#334A5E"/>
<path d="M11.5089 14.6272C11.79 14.6272 12.0178 14.3994 12.0178 14.1183C12.0178 13.8372 11.79 13.6094 11.5089 13.6094C11.2279 13.6094 11 13.8372 11 14.1183C11 14.3994 11.2279 14.6272 11.5089 14.6272Z" fill="#334A5E"/>
<path d="M7.58594 16.2995V23.279C7.58594 23.6261 7.72381 23.959 7.96924 24.2044C8.21466 24.4498 8.54752 24.5877 8.8946 24.5877H21.1088C21.4558 24.5877 21.7887 24.4498 22.0341 24.2044C22.2795 23.959 22.4174 23.6261 22.4174 23.279V16.2995C22.4174 16.1838 22.3715 16.0729 22.2897 15.991C22.2079 15.9092 22.0969 15.8633 21.9812 15.8633H8.02216C7.90646 15.8633 7.79551 15.9092 7.7137 15.991C7.6319 16.0729 7.58594 16.1838 7.58594 16.2995Z" fill="#158466"/>
<path d="M17.3281 15.8633V24.5877H21.1087C21.4558 24.5877 21.7886 24.4498 22.0341 24.2044C22.2795 23.959 22.4174 23.6261 22.4174 23.279V16.2995C22.4174 16.1838 22.3714 16.0729 22.2896 15.991C22.2078 15.9092 22.0968 15.8633 21.9811 15.8633H17.3281Z" fill="#067557"/>
<path d="M6.10287 17.6176L7.32167 16.173C7.40356 16.076 7.50565 15.998 7.6208 15.9445C7.73595 15.891 7.86139 15.8633 7.98836 15.8633H17.3257L15.6317 17.8706C15.5088 18.0162 15.3557 18.1332 15.1829 18.2134C15.0102 18.2936 14.822 18.3352 14.6316 18.3352H6.43614C6.353 18.3352 6.2716 18.3114 6.20152 18.2667C6.13144 18.2219 6.07561 18.1581 6.04059 18.0827C6.00557 18.0073 5.99283 17.9235 6.00386 17.8411C6.01489 17.7587 6.04925 17.6811 6.10287 17.6176Z" fill="#13B086"/>
<path d="M23.8979 17.6176L22.6791 16.173C22.5972 16.076 22.4951 15.998 22.38 15.9445C22.2648 15.891 22.1394 15.8633 22.0124 15.8633H17.3281L19.0221 17.8706C19.145 18.0162 19.2981 18.1332 19.4708 18.2134C19.6436 18.2936 19.8318 18.3352 20.0222 18.3352H23.5646C23.6478 18.3352 23.7292 18.3114 23.7992 18.2667C23.8693 18.2219 23.9252 18.1581 23.9602 18.0827C23.9952 18.0073 24.0079 17.9235 23.9969 17.8411C23.9859 17.7587 23.9515 17.6811 23.8979 17.6176Z" fill="#158466"/>
<path d="M10.999 22.1172H9.10874C8.98828 22.1172 8.89062 22.2148 8.89062 22.3353V23.0623C8.89062 23.1828 8.98828 23.2804 9.10874 23.2804H10.999C11.1195 23.2804 11.2171 23.1828 11.2171 23.0623V22.3353C11.2171 22.2148 11.1195 22.1172 10.999 22.1172Z" fill="#334A5E"/>
<path d="M19.0708 8.375H13.6908C13.6329 8.375 13.5774 8.39798 13.5365 8.43888C13.4956 8.47979 13.4727 8.53526 13.4727 8.59311C13.4727 8.65096 13.4956 8.70643 13.5365 8.74734C13.5774 8.78824 13.6329 8.81122 13.6908 8.81122H19.0708C19.1287 8.81122 19.1841 8.78824 19.225 8.74734C19.2659 8.70643 19.2889 8.65096 19.2889 8.59311C19.2889 8.53526 19.2659 8.47979 19.225 8.43888C19.1841 8.39798 19.1287 8.375 19.0708 8.375Z" fill="#ACB3BA"/>
<path d="M19.0708 11.1387H13.6908C13.6329 11.1387 13.5774 11.1617 13.5365 11.2026C13.4956 11.2435 13.4727 11.2989 13.4727 11.3568C13.4727 11.4146 13.4956 11.4701 13.5365 11.511C13.5774 11.5519 13.6329 11.5749 13.6908 11.5749H19.0708C19.1287 11.5749 19.1841 11.5519 19.225 11.511C19.2659 11.4701 19.2889 11.4146 19.2889 11.3568C19.2889 11.2989 19.2659 11.2435 19.225 11.2026C19.1841 11.1617 19.1287 11.1387 19.0708 11.1387Z" fill="#ACB3BA"/>
<path d="M19.0708 13.9004H13.6908C13.6329 13.9004 13.5774 13.9234 13.5365 13.9643C13.4956 14.0052 13.4727 14.0607 13.4727 14.1185C13.4727 14.1763 13.4956 14.2318 13.5365 14.2727C13.5774 14.3136 13.6329 14.3366 13.6908 14.3366H19.0708C19.1287 14.3366 19.1841 14.3136 19.225 14.2727C19.2659 14.2318 19.2889 14.1763 19.2889 14.1185C19.2889 14.0607 19.2659 14.0052 19.225 13.9643C19.1841 13.9234 19.1287 13.9004 19.0708 13.9004Z" fill="#ACB3BA"/>
<path d="M16.0893 22.9883H14.7806C14.7228 22.9883 14.6673 23.0113 14.6264 23.0522C14.5855 23.0931 14.5625 23.1485 14.5625 23.2064C14.5625 23.2642 14.5855 23.3197 14.6264 23.3606C14.6673 23.4015 14.7228 23.4245 14.7806 23.4245H16.0893C16.1471 23.4245 16.2026 23.4015 16.2435 23.3606C16.2844 23.3197 16.3074 23.2642 16.3074 23.2064C16.3074 23.1485 16.2844 23.0931 16.2435 23.0522C16.2026 23.0113 16.1471 22.9883 16.0893 22.9883Z" fill="#334A5E"/>
<path d="M16.0893 21.8242H14.7806C14.7228 21.8242 14.6673 21.8472 14.6264 21.8881C14.5855 21.929 14.5625 21.9845 14.5625 22.0423C14.5625 22.1002 14.5855 22.1557 14.6264 22.1966C14.6673 22.2375 14.7228 22.2604 14.7806 22.2604H16.0893C16.1471 22.2604 16.2026 22.2375 16.2435 22.1966C16.2844 22.1557 16.3074 22.1002 16.3074 22.0423C16.3074 21.9845 16.2844 21.929 16.2435 21.8881C16.2026 21.8472 16.1471 21.8242 16.0893 21.8242Z" fill="#334A5E"/>
</svg>
