<svg width="30" height="31" viewBox="0 0 30 31" fill="none" xmlns="http://www.w3.org/2000/svg">
<path d="M8.6189 23.8811L10.2378 25.5L11.8567 23.8811L13.4756 25.5L15.0945 23.8811L16.7134 25.5L18.3323 23.8811L19.9512 25.5L21.5701 23.8811L23.189 25.5V3.5H7V25.5L8.6189 23.8811Z" fill="#E2E8EE"/>
<path d="M15.0924 14.2668C17.277 14.2668 19.048 12.4958 19.048 10.3111C19.048 8.12647 17.277 6.35547 15.0924 6.35547C12.9077 6.35547 11.1367 8.12647 11.1367 10.3111C11.1367 12.4958 12.9077 14.2668 15.0924 14.2668Z" fill="#158466"/>
<path d="M11.2845 17.0189H9.62272C9.53423 17.0189 9.44936 16.9837 9.38679 16.9211C9.32422 16.8586 9.28906 16.7737 9.28906 16.6852C9.28906 16.5967 9.32422 16.5119 9.38679 16.4493C9.44936 16.3867 9.53423 16.3516 9.62272 16.3516H11.2845C11.373 16.3516 11.4579 16.3867 11.5205 16.4493C11.583 16.5119 11.6182 16.5967 11.6182 16.6852C11.6182 16.7737 11.583 16.8586 11.5205 16.9211C11.4579 16.9837 11.373 17.0189 11.2845 17.0189Z" fill="#158466"/>
<path d="M20.5579 17.0189H12.904C12.8155 17.0189 12.7306 16.9837 12.668 16.9211C12.6055 16.8586 12.5703 16.7737 12.5703 16.6852C12.5703 16.5967 12.6055 16.5119 12.668 16.4493C12.7306 16.3867 12.8155 16.3516 12.904 16.3516H20.5579C20.6464 16.3516 20.7312 16.3867 20.7938 16.4493C20.8564 16.5119 20.8915 16.5967 20.8915 16.6852C20.8915 16.7737 20.8564 16.8586 20.7938 16.9211C20.7312 16.9837 20.6464 17.0189 20.5579 17.0189Z" fill="#158466"/>
<path d="M11.2845 19.1868H9.62272C9.53423 19.1868 9.44936 19.1517 9.38679 19.0891C9.32422 19.0265 9.28906 18.9417 9.28906 18.8532C9.28906 18.7647 9.32422 18.6798 9.38679 18.6173C9.44936 18.5547 9.53423 18.5195 9.62272 18.5195H11.2845C11.373 18.5195 11.4579 18.5547 11.5205 18.6173C11.583 18.6798 11.6182 18.7647 11.6182 18.8532C11.6182 18.9417 11.583 19.0265 11.5205 19.0891C11.4579 19.1517 11.373 19.1868 11.2845 19.1868Z" fill="#158466"/>
<path d="M20.5579 19.1868H12.904C12.8155 19.1868 12.7306 19.1517 12.668 19.0891C12.6055 19.0265 12.5703 18.9417 12.5703 18.8532C12.5703 18.7647 12.6055 18.6798 12.668 18.6173C12.7306 18.5547 12.8155 18.5195 12.904 18.5195H20.5579C20.6464 18.5195 20.7312 18.5547 20.7938 18.6173C20.8564 18.6798 20.8915 18.7647 20.8915 18.8532C20.8915 18.9417 20.8564 19.0265 20.7938 19.0891C20.7312 19.1517 20.6464 19.1868 20.5579 19.1868Z" fill="#158466"/>
<path d="M11.2845 21.3587H9.62272C9.53423 21.3587 9.44936 21.3236 9.38679 21.261C9.32422 21.1984 9.28906 21.1136 9.28906 21.0251C9.28906 20.9366 9.32422 20.8517 9.38679 20.7891C9.44936 20.7266 9.53423 20.6914 9.62272 20.6914H11.2845C11.373 20.6914 11.4579 20.7266 11.5205 20.7891C11.583 20.8517 11.6182 20.9366 11.6182 21.0251C11.6182 21.1136 11.583 21.1984 11.5205 21.261C11.4579 21.3236 11.373 21.3587 11.2845 21.3587Z" fill="#158466"/>
<path d="M20.5579 21.3587H12.904C12.8155 21.3587 12.7306 21.3236 12.668 21.261C12.6055 21.1984 12.5703 21.1136 12.5703 21.0251C12.5703 20.9366 12.6055 20.8517 12.668 20.7891C12.7306 20.7266 12.8155 20.6914 12.904 20.6914H20.5579C20.6464 20.6914 20.7312 20.7266 20.7938 20.7891C20.8564 20.8517 20.8915 20.9366 20.8915 21.0251C20.8915 21.1136 20.8564 21.1984 20.7938 21.261C20.7312 21.3236 20.6464 21.3587 20.5579 21.3587Z" fill="#158466"/>
<path d="M15.3639 12.3593V12.7306H14.8362V12.342C14.3308 12.285 13.857 12.0675 13.4844 11.7214L13.9021 11.2051C14.1625 11.453 14.4855 11.6254 14.8364 11.7038V10.573C14.1225 10.3875 13.6411 10.1322 13.6411 9.44813C13.6411 8.82162 14.1225 8.3402 14.8364 8.25326V7.89844H15.3639V8.25802C15.8167 8.30477 16.2431 8.49365 16.582 8.7976L16.1878 9.33145C15.9537 9.11978 15.6705 8.96985 15.3639 8.89521V9.9858C16.1586 10.1656 16.6867 10.4382 16.6867 11.146C16.6871 11.814 16.2051 12.3014 15.3639 12.3593ZM14.8362 9.84852V8.88454C14.7138 8.90303 14.6013 8.96242 14.517 9.05302C14.4327 9.14363 14.3815 9.26011 14.3719 9.3835C14.3719 9.61553 14.5227 9.73736 14.8362 9.84852ZM15.9611 11.2175C15.9611 10.9505 15.7754 10.8289 15.3635 10.7071V11.7397C15.7584 11.6924 15.9614 11.4718 15.9614 11.2165L15.9611 11.2175Z" fill="white"/>
</svg>
