<svg width="30" height="31" viewBox="0 0 30 31" fill="none" xmlns="http://www.w3.org/2000/svg">
<path d="M24.4609 6.03965C24.1133 5.69164 23.6509 5.5 23.1589 5.5H16.1476C15.6558 5.5 15.1934 5.69156 14.8455 6.03941L5.53949 15.3455C5.19156 15.6934 5 16.1557 5 16.6475C5 17.1393 5.19164 17.6016 5.53949 17.9493L12.5506 24.9604C12.8983 25.3084 13.3607 25.5 13.8525 25.5C14.3443 25.5 14.8066 25.3084 15.1545 24.9605L24.4606 15.6545C24.8084 15.3066 25 14.8442 25 14.3524V7.34113C25 6.84906 24.8084 6.38664 24.4609 6.03965ZM21.2761 9.80988C20.9526 9.80988 20.6901 9.54738 20.6901 9.22395C20.6901 8.90051 20.9526 8.63801 21.2761 8.63801C21.5995 8.63801 21.862 8.90051 21.862 9.22395C21.862 9.54738 21.5995 9.80988 21.2761 9.80988Z" fill="#13B086"/>
<path d="M12.5523 24.9601C12.9001 25.308 13.3625 25.4997 13.8543 25.4997C14.346 25.4997 14.8084 25.3081 15.1563 24.9602L24.4623 15.6541C24.8102 15.3063 25.0018 14.8439 25.0018 14.3521V7.34082C25.0018 6.84871 24.8101 6.38633 24.4626 6.03934C24.4625 6.03926 24.4624 6.03918 24.4623 6.03906L21.6921 8.80934C21.7981 8.91539 21.8638 9.06188 21.8638 9.22359C21.8638 9.54703 21.6012 9.80953 21.2778 9.80953C21.1161 9.80953 20.9696 9.74391 20.8636 9.63785L9.04688 21.4546L12.5523 24.9601Z" fill="#158466"/>
<path d="M14.9974 13.7916C16.0126 13.7916 16.8385 12.9657 16.8385 11.9505C16.8385 10.9353 16.0126 10.1094 14.9974 10.1094C13.9822 10.1094 13.1562 10.9353 13.1562 11.9505C13.1562 12.9657 13.9822 13.7916 14.9974 13.7916ZM14.9974 11.2812C15.3664 11.2812 15.6666 11.5814 15.6666 11.9505C15.6666 12.3195 15.3664 12.6197 14.9974 12.6197C14.6284 12.6197 14.3281 12.3195 14.3281 11.9505C14.3281 11.5814 14.6284 11.2812 14.9974 11.2812Z" fill="#FAF0FA"/>
<path d="M14.9974 17.209C13.9822 17.209 13.1562 18.0349 13.1562 19.0501C13.1562 20.0653 13.9822 20.8912 14.9974 20.8912C16.0126 20.8912 16.8385 20.0653 16.8385 19.0501C16.8385 18.0349 16.0126 17.209 14.9974 17.209ZM14.9974 19.7194C14.6284 19.7194 14.3281 19.4192 14.3281 19.0502C14.3281 18.6811 14.6284 18.3809 14.9974 18.3809C15.3664 18.3809 15.6666 18.6811 15.6666 19.0502C15.6666 19.4192 15.3664 19.7194 14.9974 19.7194Z" fill="#E1E6F5"/>
<path d="M18.7655 14.9141H11.2344C10.9108 14.9141 10.6484 15.1764 10.6484 15.5C10.6484 15.8236 10.9108 16.0859 11.2344 16.0859H18.7655C19.0891 16.0859 19.3515 15.8236 19.3515 15.5C19.3515 15.1764 19.0892 14.9141 18.7655 14.9141Z" fill="#FAF0FA"/>
<path d="M18.7656 16.0859C19.0892 16.0859 19.3515 15.8236 19.3515 15.5C19.3515 15.1764 19.0892 14.9141 18.7656 14.9141H15.5859L14.4141 16.0859H18.7656Z" fill="#E1E6F5"/>
</svg>
