<svg width="30" height="31" viewBox="0 0 30 31" fill="none" xmlns="http://www.w3.org/2000/svg">
<path d="M24.6538 17.6917L22.766 16.2542C22.7899 16.0325 22.8105 15.7734 22.8105 15.4992C22.8105 15.225 22.7908 14.9659 22.766 14.7442L24.6555 13.3059C25.0064 13.0359 25.1022 12.5567 24.8789 12.1575L22.9157 8.85C22.706 8.47668 22.2465 8.285 21.7801 8.4525L19.5526 9.32332C19.1256 9.02332 18.678 8.77 18.215 8.5675L17.8761 6.26668C17.8205 5.83 17.4303 5.5 16.969 5.5H15.0008L15.0008 12.1667C16.8886 12.1667 18.4238 13.6617 18.4238 15.5C18.4238 17.3383 16.8886 18.8333 15.0008 18.8333L15.0016 25.5H16.9699C17.4311 25.5 17.8214 25.17 17.8761 24.74L18.2159 22.4317C18.6643 22.2342 19.1041 21.985 19.5508 21.675L21.7844 22.5483C21.8922 22.5891 22.0043 22.61 22.1199 22.61C22.4519 22.61 22.7574 22.4333 22.9114 22.1583L24.8831 18.8333C25.1022 18.4433 25.0063 17.9642 24.6538 17.6917Z" fill="#13B086"/>
<path d="M13.0325 5.5C12.5713 5.5 12.1819 5.83 12.1271 6.26L11.7874 8.56918C11.339 8.76586 10.8983 9.01586 10.4524 9.325L8.21885 8.45168C7.80034 8.29418 7.29972 8.47082 7.09177 8.8425L5.12611 12.1542C4.89421 12.5359 4.99004 13.0317 5.34862 13.3084L7.23642 14.7459C7.20646 15.0267 7.19194 15.2709 7.19194 15.5C7.19194 15.7292 7.2065 15.9734 7.23642 16.255L5.34689 17.6934C4.99602 17.9642 4.90103 18.4434 5.12438 18.8417L7.08752 22.1492C7.2972 22.5217 7.75245 22.715 8.22311 22.5467L10.4507 21.6759C10.8768 21.975 11.3244 22.2284 11.7874 22.4317L12.1263 24.7317C12.1819 25.17 12.5713 25.5 13.0334 25.5H15.0016L15.0008 18.8333C13.113 18.8333 11.5777 17.3383 11.5777 15.5C11.5777 13.6617 13.113 12.1667 15.0008 12.1667L15.0008 5.5H13.0325Z" fill="#158466"/>
</svg>
