<svg width="30" height="31" viewBox="0 0 30 31" fill="none" xmlns="http://www.w3.org/2000/svg">
<path d="M20.1731 23.4313V8.25828C20.1731 7.49962 19.5524 6.87891 18.7937 6.87891H6.37937C5.62072 6.87891 5 7.49962 5 8.25828V23.4313C5 24.19 5.62072 24.8107 6.37937 24.8107H18.7937C19.5555 24.8107 20.1731 24.1931 20.1731 23.4313Z" fill="#067557"/>
<path d="M18.4484 8.25977H6.72375C6.5333 8.25977 6.37891 8.41416 6.37891 8.60461V23.088C6.37891 23.2784 6.5333 23.4328 6.72375 23.4328H18.4484C18.6388 23.4328 18.7932 23.2784 18.7932 23.088V8.60461C18.7932 8.41416 18.6388 8.25977 18.4484 8.25977Z" fill="#E2E8EE"/>
<path d="M15.3456 6.87937V7.9139C15.3456 8.29322 15.0352 8.60358 14.6559 8.60358H10.5178C10.1385 8.60358 9.82812 8.29322 9.82812 7.9139V6.87937C9.82812 6.68971 9.9833 6.53453 10.173 6.53453H11.2523C11.4041 5.93795 11.9455 5.5 12.5869 5.5C13.2283 5.5 13.7697 5.93795 13.9214 6.53453H15.0008C15.1904 6.53453 15.3456 6.68971 15.3456 6.87937Z" fill="#13B086"/>
<path d="M24.9981 15.4863V24.8109C24.9981 25.1902 24.6877 25.5006 24.3084 25.5006H13.9631C13.5838 25.5006 13.2734 25.1902 13.2734 24.8109V15.4863H24.9981Z" fill="#158466"/>
<path d="M24.8925 15.2367L22.8462 13.1904C22.7793 13.1235 22.6889 13.0859 22.5945 13.0859H15.6766C15.5821 13.0859 15.4914 13.1235 15.4248 13.1904L13.3785 15.2367C13.154 15.4612 13.313 15.8447 13.6303 15.8447H24.6411C24.9583 15.8447 25.117 15.4612 24.8925 15.2367Z" fill="#13B086"/>
<path d="M20.8625 15.8448V18.2587C20.8625 18.4491 20.708 18.6036 20.5176 18.6036H17.7589C17.5686 18.6036 17.4141 18.4491 17.4141 18.2587V15.8448L17.7589 15.5H20.5176L20.8625 15.8448Z" fill="#334A5E"/>
<path d="M16.7253 22.3984H15.0011C14.8106 22.3984 14.6562 22.5528 14.6562 22.7433V23.7778C14.6562 23.9683 14.8106 24.1226 15.0011 24.1226H16.7253C16.9158 24.1226 17.0701 23.9683 17.0701 23.7778V22.7433C17.0701 22.5528 16.9158 22.3984 16.7253 22.3984Z" fill="white"/>
<path d="M20.8625 15.8447L19.828 13.0859H18.4486L17.4141 15.8447H20.8625Z" fill="#334A5E"/>
<path d="M21.4531 22.1539C21.3183 22.019 21.1003 22.019 20.9655 22.1539L20.6207 22.4987C20.4858 22.6335 20.4858 22.8515 20.6207 22.9863C20.6879 23.0536 20.7762 23.0873 20.8645 23.0873V24.1219C20.8645 24.3126 21.0186 24.4667 21.2093 24.4667C21.4 24.4667 21.5541 24.3126 21.5541 24.1219V23.0873C21.6424 23.0873 21.7307 23.0536 21.7979 22.9863C21.9328 22.8515 21.9328 22.6335 21.7979 22.4987L21.4531 22.1539Z" fill="white"/>
<path d="M23.8644 22.4987L23.5195 22.1539C23.3847 22.019 23.1667 22.019 23.0319 22.1539L22.6871 22.4987C22.5522 22.6335 22.5522 22.8515 22.6871 22.9863C22.7543 23.0536 22.8426 23.0873 22.9309 23.0873V24.1219C22.9309 24.3126 23.085 24.4667 23.2757 24.4667C23.4664 24.4667 23.6206 24.3126 23.6206 24.1219V23.0873C23.7088 23.0873 23.7971 23.0536 23.8644 22.9863C23.9992 22.8515 23.9992 22.6335 23.8644 22.4987Z" fill="white"/>
<path d="M9.48383 13.0848C9.39279 13.0848 9.30486 13.0489 9.24003 12.9837L8.55034 12.294C8.41551 12.1592 8.41551 11.9413 8.55034 11.8064C8.68518 11.6716 8.90312 11.6716 9.03795 11.8064L9.43038 12.1989L10.5763 10.4798C10.6818 10.3212 10.8956 10.2784 11.0546 10.3843C11.2132 10.4902 11.256 10.704 11.1501 10.8626L9.77074 12.9317C9.7135 13.0175 9.62039 13.0734 9.51797 13.0834C9.50659 13.0844 9.49521 13.0848 9.48383 13.0848Z" fill="#13B086"/>
<path d="M9.48383 17.2215C9.39279 17.2215 9.30486 17.1856 9.24003 17.1204L8.55034 16.4308C8.41551 16.2959 8.41551 16.078 8.55034 15.9432C8.68518 15.8083 8.90312 15.8083 9.03795 15.9432L9.43038 16.3356L10.5763 14.6165C10.6818 14.4579 10.8956 14.4152 11.0546 14.521C11.2132 14.6269 11.256 14.8407 11.1501 14.9993L9.77074 17.0684C9.7135 17.1542 9.62039 17.2101 9.51797 17.2201C9.50659 17.2211 9.49521 17.2215 9.48383 17.2215Z" fill="#13B086"/>
<path d="M9.48383 21.36C9.39279 21.36 9.30486 21.3241 9.24003 21.259L8.55034 20.5693C8.41551 20.4344 8.41551 20.2165 8.55034 20.0817C8.68518 19.9468 8.90312 19.9468 9.03795 20.0817L9.43038 20.4741L10.5763 18.7551C10.6818 18.5964 10.8956 18.554 11.0546 18.6595C11.2132 18.7654 11.256 18.9792 11.1501 19.1378L9.77074 21.2069C9.7135 21.2928 9.62039 21.3486 9.51797 21.3586C9.50659 21.3597 9.49521 21.36 9.48383 21.36Z" fill="#13B086"/>
</svg>
