<svg width="40" height="40" viewBox="0 0 40 40" fill="none" xmlns="http://www.w3.org/2000/svg">
<path d="M26.8968 30.5748V10.344C26.8968 9.3325 26.0692 8.50488 25.0576 8.50488H8.50518C7.49364 8.50488 6.66602 9.3325 6.66602 10.344V30.5748C6.66602 31.5863 7.49364 32.414 8.50518 32.414H25.0576C26.0733 32.414 26.8968 31.5905 26.8968 30.5748Z" fill="#067557"/>
<path d="M24.5966 10.3457H8.9637C8.70976 10.3457 8.50391 10.5516 8.50391 10.8055V30.1167C8.50391 30.3706 8.70976 30.5765 8.9637 30.5765H24.5966C24.8505 30.5765 25.0563 30.3706 25.0563 30.1167V10.8055C25.0563 10.5516 24.8505 10.3457 24.5966 10.3457Z" fill="#E2E8EE"/>
<path d="M20.4602 8.50518V9.88455C20.4602 10.3903 20.0463 10.8041 19.5406 10.8041H14.0231C13.5173 10.8041 13.1035 10.3903 13.1035 9.88455V8.50518C13.1035 8.25229 13.3104 8.04539 13.5633 8.04539H15.0024C15.2048 7.24995 15.9266 6.66602 16.7818 6.66602C17.637 6.66602 18.3589 7.24995 18.5612 8.04539H20.0004C20.2532 8.04539 20.4602 8.25229 20.4602 8.50518Z" fill="#13B086"/>
<path d="M33.3321 19.9805V32.4132C33.3321 32.919 32.9183 33.3328 32.4125 33.3328H18.6188C18.113 33.3328 17.6992 32.919 17.6992 32.4132V19.9805H33.3321Z" fill="#158466"/>
<path d="M33.1913 19.649L30.4629 16.9206C30.3737 16.8314 30.2532 16.7812 30.1272 16.7812H20.9034C20.7774 16.7812 20.6565 16.8314 20.5677 16.9206L17.8394 19.649C17.54 19.9483 17.752 20.4596 18.175 20.4596H32.8561C33.2791 20.4596 33.4906 19.9483 33.1913 19.649Z" fill="#13B086"/>
<path d="M27.8166 20.4598V23.6783C27.8166 23.9321 27.6107 24.1381 27.3569 24.1381H23.6785C23.4247 24.1381 23.2188 23.9321 23.2188 23.6783V20.4598L23.6785 20H27.3569L27.8166 20.4598Z" fill="#334A5E"/>
<path d="M22.2998 29.1963H20.0008C19.7469 29.1963 19.541 29.4021 19.541 29.6561V31.0354C19.541 31.2894 19.7469 31.4952 20.0008 31.4952H22.2998C22.5537 31.4952 22.7595 31.2894 22.7595 31.0354V29.6561C22.7595 29.4021 22.5537 29.1963 22.2998 29.1963Z" fill="white"/>
<path d="M27.8166 20.4596L26.4373 16.7812H24.5981L23.2188 20.4596H27.8166Z" fill="#334A5E"/>
<path d="M28.6041 28.8712C28.4244 28.6914 28.1338 28.6914 27.954 28.8712L27.4942 29.331C27.3144 29.5107 27.3144 29.8013 27.4942 29.9811C27.5839 30.0708 27.7016 30.1158 27.8193 30.1158V31.4952C27.8193 31.7494 28.0248 31.955 28.2791 31.955C28.5333 31.955 28.7389 31.7494 28.7389 31.4952V30.1158C28.8566 30.1158 28.9743 30.0708 29.0639 29.9811C29.2437 29.8013 29.2437 29.5107 29.0639 29.331L28.6041 28.8712Z" fill="white"/>
<path d="M31.8217 29.331L31.362 28.8712C31.1822 28.6914 30.8916 28.6914 30.7118 28.8712L30.252 29.331C30.0722 29.5107 30.0722 29.8013 30.252 29.9811C30.3417 30.0708 30.4594 30.1158 30.5771 30.1158V31.4952C30.5771 31.7494 30.7826 31.955 31.0369 31.955C31.2911 31.955 31.4967 31.7494 31.4967 31.4952V30.1158C31.6144 30.1158 31.7321 30.0708 31.8217 29.9811C32.0015 29.8013 32.0015 29.5107 31.8217 29.331Z" fill="white"/>
<path d="M12.6451 16.7797C12.5237 16.7797 12.4065 16.7319 12.32 16.645L11.4005 15.7254C11.2207 15.5456 11.2207 15.255 11.4005 15.0752C11.5802 14.8955 11.8708 14.8955 12.0506 15.0752L12.5738 15.5985L14.1017 13.3064C14.2424 13.0949 14.5275 13.0379 14.7395 13.1791C14.951 13.3202 15.008 13.6053 14.8668 13.8168L13.0277 16.5755C12.9513 16.69 12.8272 16.7645 12.6906 16.7778C12.6755 16.7792 12.6603 16.7797 12.6451 16.7797Z" fill="#13B086"/>
<path d="M12.6451 22.2963C12.5237 22.2963 12.4065 22.2485 12.32 22.1616L11.4005 21.242C11.2207 21.0622 11.2207 20.7716 11.4005 20.5918C11.5802 20.4121 11.8708 20.4121 12.0506 20.5918L12.5738 21.1151L14.1017 18.823C14.2424 18.6115 14.5275 18.5545 14.7395 18.6957C14.951 18.8368 15.008 19.1219 14.8668 19.3334L13.0277 22.0921C12.9513 22.2066 12.8272 22.2811 12.6906 22.2944C12.6755 22.2958 12.6603 22.2963 12.6451 22.2963Z" fill="#13B086"/>
<path d="M12.6451 27.8146C12.5237 27.8146 12.4065 27.7668 12.32 27.6799L11.4005 26.7603C11.2207 26.5806 11.2207 26.29 11.4005 26.1102C11.5802 25.9304 11.8708 25.9304 12.0506 26.1102L12.5738 26.6334L14.1017 24.3414C14.2424 24.1299 14.5275 24.0733 14.7395 24.214C14.951 24.3552 15.008 24.6402 14.8668 24.8518L13.0277 27.6105C12.9513 27.725 12.8272 27.7995 12.6906 27.8128C12.6755 27.8142 12.6603 27.8146 12.6451 27.8146Z" fill="#13B086"/>
</svg>
