<svg width="24" height="24" viewBox="0 0 24 24" fill="none" xmlns="http://www.w3.org/2000/svg">
<g clip-path="url(#clip0_603_14328)">
<path d="M23.2788 14.63L21.0729 12.905C21.1008 12.639 21.1248 12.328 21.1248 11.999C21.1248 11.67 21.1018 11.359 21.0729 11.093L23.2809 9.36703C23.6909 9.04303 23.8029 8.46802 23.5419 7.98905L21.2478 4.02C21.0028 3.57202 20.4658 3.342 19.9209 3.543L17.3178 4.58798C16.8189 4.22798 16.2958 3.924 15.7548 3.681L15.3588 0.920016C15.2938 0.396 14.8378 0 14.2989 0H11.9989L11.9988 8.00002C14.2048 8.00002 15.9988 9.79401 15.9988 12C15.9988 14.206 14.2048 16 11.9988 16L11.9999 24H14.2998C14.8389 24 15.2949 23.604 15.3588 23.088L15.7558 20.318C16.2798 20.081 16.7938 19.782 17.3158 19.41L19.9258 20.458C20.0518 20.507 20.1828 20.532 20.3178 20.532C20.7058 20.532 21.0628 20.32 21.2428 19.99L23.5468 16C23.8029 15.532 23.6908 14.957 23.2788 14.63Z" fill="#13B086"/>
<path d="M9.69888 0C9.15986 0 8.70489 0.396 8.64086 0.912L8.24388 3.68302C7.71986 3.91903 7.20489 4.21903 6.68388 4.59L4.07388 3.54202C3.58483 3.35302 2.99983 3.56498 2.75683 4.011L0.459862 7.98502C0.188878 8.44303 0.300862 9.03801 0.719878 9.37003L2.92586 11.095C2.89085 11.432 2.87388 11.725 2.87388 12C2.87388 12.2751 2.89089 12.568 2.92586 12.906L0.717862 14.632C0.307847 14.957 0.196847 15.532 0.457847 16.01L2.75186 19.979C2.99688 20.426 3.52886 20.658 4.07885 20.456L6.68186 19.411C7.17986 19.77 7.70285 20.074 8.24388 20.318L8.63988 23.078C8.70485 23.604 9.15986 24 9.69986 24H11.9999L11.9988 16C9.79286 16 7.99886 14.206 7.99886 12C7.99886 9.79401 9.79286 8.00002 11.9988 8.00002L11.9989 0H9.69888Z" fill="#158466"/>
</g>
<defs>
<clipPath id="clip0_603_14328">
<rect width="24" height="24" fill="white"/>
</clipPath>
</defs>
</svg>
