<svg width="100" height="100" viewBox="0 0 100 100" fill="none" xmlns="http://www.w3.org/2000/svg">
<g clip-path="url(#clip0_382_8648)">
<path d="M58.332 54.1658C51.4405 54.1658 45.8322 48.5575 45.8322 41.666C45.8322 34.7744 51.4405 29.1661 58.332 29.1661H66.6648V12.4999C66.6648 5.60831 61.0565 0 54.1649 0H9.37396C8.00298 0 6.71973 0.674431 5.94077 1.80357C5.16563 2.93271 4.99092 4.37083 5.48225 5.64951L35.6905 84.8159C36.3032 86.4325 37.8527 87.4991 39.5822 87.4991H54.1649C61.0565 87.4991 66.6648 81.8908 66.6648 74.9992V54.1658H58.332Z" fill="#158466"/>
<path d="M77.5685 62.1826C76.0144 61.5364 74.9974 60.0159 74.9974 58.3321V45.8323H58.3312C56.031 45.8323 54.1641 43.9661 54.1641 41.6659C54.1641 39.3657 56.031 37.4995 58.3312 37.4995H74.9974V24.9997C74.9974 23.3159 76.0144 21.7954 77.5685 21.1491C79.1264 20.5037 80.9185 20.8623 82.1095 22.054L98.7765 38.7202C100.405 40.3491 100.405 42.9827 98.7765 44.6116L82.1095 61.2786C80.9185 62.4695 79.1264 62.8281 77.5685 62.1826Z" fill="#607D8B"/>
<path d="M36.0249 8.76044L10.9877 0.414729C5.33747 -1.32247 0 2.84848 0 8.33548V83.3347C0 86.8976 2.26667 90.0767 5.64188 91.2432L30.6744 99.5889C31.5953 99.872 32.4414 100.002 33.3332 100.002C37.9291 100.002 41.666 96.2641 41.666 91.6682V16.669C41.666 13.1069 39.3993 9.92772 36.0249 8.76044Z" fill="#13B086"/>
</g>
<defs>
<clipPath id="clip0_382_8648">
<rect width="100" height="100" fill="white"/>
</clipPath>
</defs>
</svg>
