<svg width="20" height="19" viewBox="0 0 20 19" fill="none" xmlns="http://www.w3.org/2000/svg">
<path d="M18.3488 8.96932L12.8071 3.71932C12.6578 3.5827 12.4578 3.50711 12.2502 3.50882C12.0427 3.51053 11.8441 3.5894 11.6973 3.72846C11.5506 3.86752 11.4673 4.05562 11.4655 4.25227C11.4637 4.44892 11.5435 4.63837 11.6877 4.77982L15.878 8.74957H1.95573C1.74577 8.74957 1.5444 8.82859 1.39594 8.96924C1.24747 9.1099 1.16406 9.30066 1.16406 9.49957C1.16406 9.69849 1.24747 9.88925 1.39594 10.0299C1.5444 10.1706 1.74577 10.2496 1.95573 10.2496H15.878L11.6877 14.2193C11.6121 14.2885 11.5518 14.3713 11.5103 14.4628C11.4688 14.5543 11.4469 14.6527 11.446 14.7523C11.4451 14.8519 11.4651 14.9506 11.505 15.0428C11.5448 15.135 11.6035 15.2187 11.6779 15.2891C11.7522 15.3595 11.8406 15.4152 11.9379 15.4529C12.0352 15.4907 12.1394 15.5096 12.2445 15.5088C12.3497 15.5079 12.4535 15.4872 12.5501 15.4479C12.6467 15.4086 12.7341 15.3515 12.8071 15.2798L18.3488 10.0298C18.4972 9.88918 18.5806 9.69845 18.5806 9.49957C18.5806 9.3007 18.4972 9.10997 18.3488 8.96932Z" fill="#158466"/>
</svg>
