<svg width="18" height="20" viewBox="0 0 18 20" fill="none" xmlns="http://www.w3.org/2000/svg">
<path d="M9.00004 11.4099C10.2891 11.4099 11.4805 11.0466 12.4336 10.4294C13.1719 9.95678 14.1329 10.0349 14.7813 10.6248C16.5821 12.2576 17.6055 14.574 17.6016 17.0076V18.0505C17.6016 19.1287 16.7266 19.9998 15.6485 19.9998H2.35161C1.27348 19.9998 0.398482 19.1287 0.398482 18.0505V17.0076C0.390669 14.5779 1.41411 12.2576 3.21489 10.6287C3.86333 10.0388 4.82817 9.96069 5.56254 10.4333C6.51958 11.0466 7.70708 11.4099 9.00004 11.4099Z" fill="#158466"/>
<path d="M9 9.67188C11.6708 9.67188 13.8359 7.50675 13.8359 4.83594C13.8359 2.16512 11.6708 0 9 0C6.32919 0 4.16406 2.16512 4.16406 4.83594C4.16406 7.50675 6.32919 9.67188 9 9.67188Z" fill="#179D79"/>
</svg>
