<svg width="21" height="21" viewBox="0 0 21 21" fill="none" xmlns="http://www.w3.org/2000/svg">
<path d="M17.8996 6.75879H13.5635V14.6178H20.6679V11.0805L19.8393 8.21685C19.5896 7.3533 18.7986 6.75879 17.8996 6.75879Z" fill="#FF810D"/>
<path d="M19.6301 11.0446L18.8916 8.49198C18.7643 8.05319 18.3562 7.74609 17.899 7.74609H14.5498V11.0446H19.6301Z" fill="#84DBFF"/>
<path d="M19.6307 11.0426H14.5479V7.74414L19.6307 11.0426Z" fill="#CDD6E0"/>
<path d="M19.6301 11.0446L18.8916 8.49198C18.7643 8.05319 18.3562 7.74609 17.899 7.74609H14.5498L19.6301 11.0446Z" fill="#F2F2F2"/>
<path d="M1.31239 2.81348H12.2507C12.9751 2.81348 13.5631 3.40098 13.5631 4.12587V14.6176H0V4.12587C0 3.40102 0.587499 2.81348 1.31239 2.81348Z" fill="#158466"/>
<path d="M8.88892 2.81543V6.28317L8.38143 5.77573L7.84951 6.3077L7.31799 5.77573L6.78647 6.3077L6.25405 5.77573L5.71556 6.3077L5.18445 5.77573L4.6709 6.28932V2.81543H8.88892Z" fill="#F2F2F2"/>
<path d="M21.0002 14.617V16.1H0.00195312V14.617H2.19364C2.70548 13.6984 3.68977 13.0771 4.81842 13.0771C5.94269 13.0771 6.92698 13.6984 7.4432 14.617H14.4951C15.007 13.6984 15.9864 13.0771 17.1151 13.0771C18.2438 13.0771 19.2237 13.6984 19.7399 14.617H21.0002Z" fill="#334A5E"/>
<path d="M19.2104 16.091C19.2104 17.2485 18.2721 18.1869 17.1146 18.1869C15.957 18.1869 15.0195 17.2485 15.0195 16.091C15.0195 14.9335 15.9574 13.9951 17.1146 13.9951C18.2725 13.9951 19.2104 14.9335 19.2104 16.091Z" fill="#40596B"/>
<path d="M17.9577 16.0907C17.9577 16.5558 17.5806 16.9324 17.116 16.9324C16.651 16.9324 16.2734 16.5558 16.2734 16.0907C16.2734 15.6257 16.6505 15.249 17.116 15.249C17.5806 15.2486 17.9577 15.6257 17.9577 16.0907Z" fill="#ACB3BA"/>
<path d="M6.91248 16.091C6.91248 17.2485 5.97367 18.1869 4.81659 18.1869C3.65906 18.1869 2.7207 17.2485 2.7207 16.091C2.7207 14.9335 3.65906 13.9951 4.81659 13.9951C5.97367 13.9951 6.91248 14.9335 6.91248 16.091Z" fill="#40596B"/>
<path d="M5.65841 16.0907C5.65841 16.5558 5.28175 16.9324 4.81671 16.9324C4.35168 16.9324 3.97461 16.5558 3.97461 16.0907C3.97461 15.6257 4.35172 15.249 4.81671 15.249C5.28171 15.249 5.65841 15.6257 5.65841 16.0907Z" fill="#ACB3BA"/>
</svg>
