<svg width="28" height="21" viewBox="0 0 28 21" fill="none" xmlns="http://www.w3.org/2000/svg">
<g clip-path="url(#clip0_248_2940)">
<path d="M21.9844 13.8305L22.6596 7.875H20.8818L18.4297 18.2786L27.1508 17.775L27.8653 15.075L21.9844 13.8305Z" fill="#FF810D"/>
<path d="M20.7539 15.0762H18.9761L18.0234 18.6762H26.0235C26.5144 18.6762 27.019 18.2732 27.1505 17.7762H20.9283C20.4373 17.7762 20.146 17.3732 20.2775 16.8762L20.7539 15.0762Z" fill="#F17300"/>
<path d="M27.741 13.9128L26.2382 12.825L24.5271 11.6964L26.2234 9.675L26.218 8.53818C26.2161 8.14665 25.9368 7.875 25.5359 7.875H22.6593L20.7539 15.075H27.865L27.9683 14.6846C28.052 14.3684 27.9657 14.0755 27.741 13.9128Z" fill="#FF810D"/>
<path d="M17.7169 6.97461H21.565C21.8105 6.97461 21.9561 7.1761 21.8904 7.42461L19.1513 17.7746L6.32608 18.5366C6.08064 18.5366 5.98685 18.416 6.05264 18.1675L8.5045 8.83746L17.7169 6.97461Z" fill="#158466"/>
<path d="M7.15178 17.7746C6.90629 17.7746 6.76066 17.5731 6.82645 17.3246L7.4757 14.8713C7.54345 14.6153 7.81569 14.469 8.05888 14.5671C8.86635 14.8928 9.74523 15.0746 10.6677 15.0746C14.595 15.0746 17.7788 11.8511 17.7788 7.87461C17.7788 7.56913 17.7539 7.27007 17.7174 6.97461H9.12108C8.87559 6.97461 8.62331 7.17605 8.55753 7.42461L5.69939 18.2246C5.6336 18.4731 5.77929 18.6746 6.02473 18.6746H18.9136L19.1518 17.7746H7.15178V17.7746Z" fill="#067557"/>
<path d="M24.8477 19.8579C25.6927 19.1091 25.9187 17.9712 25.3526 17.3162C24.7865 16.6613 23.6426 16.7373 22.7976 17.4861C21.9526 18.2348 21.7265 19.3727 22.2926 20.0277C22.8588 20.6827 24.0027 20.6066 24.8477 19.8579Z" fill="#40596B"/>
<path d="M24.334 19.2659C24.7565 18.8915 24.8696 18.3226 24.5865 17.9951C24.3034 17.6676 23.7314 17.7056 23.3089 18.0799C22.8864 18.4543 22.7734 19.0233 23.0565 19.3508C23.3396 19.6783 23.9115 19.6403 24.334 19.2659Z" fill="#DAD8DB"/>
<path d="M11.0635 19.8647C11.9085 19.116 12.1346 17.978 11.5684 17.3231C11.0023 16.6681 9.85838 16.7441 9.01339 17.4929C8.1684 18.2417 7.94233 19.3796 8.50846 20.0345C9.07458 20.6895 10.2185 20.6135 11.0635 19.8647Z" fill="#40596B"/>
<path d="M10.5508 19.2718C10.9733 18.8974 11.0864 18.3284 10.8033 18.0009C10.5202 17.6734 9.94823 17.7114 9.52574 18.0858C9.10324 18.4602 8.99022 19.0292 9.27329 19.3566C9.55636 19.6841 10.1283 19.6461 10.5508 19.2718Z" fill="#DAD8DB"/>
<path d="M26.2246 9.67383H23.962L23.1748 10.5738L23.4824 12.5327L26.2395 11.9238L26.2246 9.67383Z" fill="#F2F2F2"/>
<path d="M24.2547 11.9238C23.7637 11.9238 23.4724 11.5209 23.6039 11.0238L23.9612 9.67383C23.4703 9.67383 22.9657 10.0768 22.8342 10.5738L22.4769 11.9238C22.3454 12.4209 22.6367 12.8238 23.1276 12.8238H26.2387L26.2345 11.9238H24.2547Z" fill="#CDD6E0"/>
<path d="M10.6666 14.1752C14.103 14.1752 16.8888 11.3546 16.8888 7.87521C16.8888 4.39581 14.103 1.5752 10.6666 1.5752C7.23013 1.5752 4.44434 4.39581 4.44434 7.87521C4.44434 11.3546 7.23013 14.1752 10.6666 14.1752Z" fill="#CDD6E0"/>
<path d="M10.6664 13.2737C13.6119 13.2737 15.9997 10.856 15.9997 7.87364C15.9997 4.8913 13.6119 2.47363 10.6664 2.47363C7.72083 2.47363 5.33301 4.8913 5.33301 7.87364C5.33301 10.856 7.72083 13.2737 10.6664 13.2737Z" fill="white"/>
<path d="M10.6681 4.27481C10.4224 4.27481 10.2236 4.07331 10.2236 3.82481V3.37481C10.2236 3.1263 10.4224 2.9248 10.6681 2.9248C10.9137 2.9248 11.1125 3.1263 11.1125 3.37481V3.82481C11.1125 4.07331 10.9137 4.27481 10.6681 4.27481Z" fill="#ACB3BA"/>
<path d="M10.6681 12.8256C10.4224 12.8256 10.2236 12.6241 10.2236 12.3756V11.9256C10.2236 11.6771 10.4224 11.4756 10.6681 11.4756C10.9137 11.4756 11.1125 11.6771 11.1125 11.9256V12.3756C11.1125 12.6241 10.9137 12.8256 10.6681 12.8256Z" fill="#ACB3BA"/>
<path d="M15.1125 8.32481H14.6681C14.4224 8.32481 14.2236 8.12331 14.2236 7.87481C14.2236 7.6263 14.4224 7.4248 14.6681 7.4248H15.1125C15.3582 7.4248 15.557 7.6263 15.557 7.87481C15.557 8.12331 15.3582 8.32481 15.1125 8.32481Z" fill="#ACB3BA"/>
<path d="M6.66721 8.32481H6.22277C5.97711 8.32481 5.77832 8.12331 5.77832 7.87481C5.77832 7.6263 5.97711 7.4248 6.22277 7.4248H6.66721C6.91287 7.4248 7.11166 7.6263 7.11166 7.87481C7.11166 8.12331 6.91287 8.32481 6.66721 8.32481Z" fill="#ACB3BA"/>
<path d="M4.8889 14.1764H0.444445C0.198789 14.1764 0 13.9749 0 13.7264C0 13.4779 0.198789 13.2764 0.444445 13.2764H4.8889C5.13456 13.2764 5.33334 13.4779 5.33334 13.7264C5.33334 13.9749 5.13456 14.1764 4.8889 14.1764Z" fill="#CDD6E0"/>
<path d="M4.4451 15.9762H1.77843C1.53277 15.9762 1.33398 15.7747 1.33398 15.5262C1.33398 15.2777 1.53277 15.0762 1.77843 15.0762H4.4451C4.69076 15.0762 4.88955 15.2777 4.88955 15.5262C4.88955 15.7747 4.69076 15.9762 4.4451 15.9762Z" fill="#CDD6E0"/>
<path d="M4.00033 17.776H3.11144C2.86578 17.776 2.66699 17.5745 2.66699 17.326C2.66699 17.0775 2.86578 16.876 3.11144 16.876H4.00033C4.24598 16.876 4.44477 17.0775 4.44477 17.326C4.44477 17.5745 4.24598 17.776 4.00033 17.776Z" fill="#CDD6E0"/>
<path d="M9.33313 9.67597C9.21944 9.67597 9.10569 9.63201 9.0189 9.54414C8.84526 9.36833 8.84526 9.08361 9.0189 8.90781L13.2411 4.63283C13.4147 4.45703 13.6959 4.45703 13.8696 4.63283C14.0432 4.80863 14.0432 5.09335 13.8696 5.26915L9.64736 9.54414C9.56052 9.63201 9.44683 9.67597 9.33313 9.67597Z" fill="#E5646E"/>
<path d="M10.6672 8.77461C11.1581 8.77461 11.5561 8.37167 11.5561 7.87461C11.5561 7.37755 11.1581 6.97461 10.6672 6.97461C10.1763 6.97461 9.77832 7.37755 9.77832 7.87461C9.77832 8.37167 10.1763 8.77461 10.6672 8.77461Z" fill="#40596B"/>
</g>
<defs>
<clipPath id="clip0_248_2940">
<rect width="28" height="21" fill="white"/>
</clipPath>
</defs>
</svg>
