<svg width="20" height="20" viewBox="0 0 20 20" fill="none" xmlns="http://www.w3.org/2000/svg">
<path d="M6.092 3.01326C6.092 2.47379 5.64463 2.03958 5.11832 2.03958L2.42095 2.03958C1.88147 2.03958 1.44726 2.47379 1.44726 3.01326L1.44726 10.658C1.44727 11.1975 1.88148 11.6317 2.42095 11.6317L5.10516 11.6317C5.64463 11.6317 6.07884 11.1975 6.07884 10.658L6.07884 3.01326L6.092 3.01326ZM17.5131 9.01326C18.092 8.55273 18.1841 7.71063 17.7236 7.13168C17.5394 6.89484 17.2762 6.73694 16.9867 6.67115C17.5657 6.21063 17.6578 5.36852 17.1973 4.80273C17.0131 4.56589 16.7499 4.408 16.4473 4.32905C17.0262 3.86852 17.1183 3.02642 16.6446 2.44747C16.3946 2.13168 16.0131 1.94747 15.6052 1.94747L8.03937 2.02642C7.4999 2.02642 7.06569 2.46063 7.06569 3.0001L7.06569 10.658C7.06569 11.8685 10.9341 14.0922 11.1315 15.2896C11.2631 16.079 11.092 18.0527 11.6183 18.0527C12.5262 18.0527 13.671 17.7106 13.671 15.7106C13.671 13.9475 12.5131 11.658 12.5131 11.658L17.1973 11.658C17.9341 11.658 18.5262 11.0659 18.5262 10.329C18.5525 9.68431 18.1183 9.14484 17.5131 9.01326Z" fill="#158466"/>
</svg>
