<svg width="20" height="20" viewBox="0 0 20 20" fill="none" xmlns="http://www.w3.org/2000/svg">
<g clip-path="url(#clip0_248_2992)">
<path d="M19.0626 0.3125H13.7501C13.5843 0.3125 13.4253 0.378348 13.3081 0.495558C13.1909 0.612769 13.1251 0.77174 13.1251 0.9375C13.1251 1.10326 13.1909 1.26223 13.3081 1.37944C13.4253 1.49665 13.5843 1.5625 13.7501 1.5625H17.5026L11.756 7.04781C11.6966 7.10449 11.649 7.1723 11.6158 7.24738C11.5826 7.32247 11.5646 7.40335 11.5627 7.48542C11.5608 7.56748 11.575 7.64912 11.6047 7.72567C11.6343 7.80222 11.6787 7.87218 11.7354 7.93156C11.7921 7.99094 11.8599 8.03858 11.935 8.07176C12.01 8.10493 12.0909 8.12299 12.173 8.12491C12.2551 8.12682 12.3367 8.11255 12.4132 8.08292C12.4898 8.05328 12.5598 8.00886 12.6191 7.95219L18.4376 2.39812V6.25C18.4376 6.41576 18.5034 6.57473 18.6206 6.69194C18.7378 6.80915 18.8968 6.875 19.0626 6.875C19.2283 6.875 19.3873 6.80915 19.5045 6.69194C19.6217 6.57473 19.6876 6.41576 19.6876 6.25V0.9375C19.6876 0.77174 19.6217 0.612769 19.5045 0.495558C19.3873 0.378348 19.2283 0.3125 19.0626 0.3125Z" fill="#158466"/>
<path d="M19.0626 13.1251C18.8969 13.1251 18.7379 13.191 18.6207 13.3082C18.5035 13.4254 18.4376 13.5844 18.4376 13.7501V17.5539L12.6295 11.7458C12.5116 11.6319 12.3538 11.5689 12.1899 11.5703C12.026 11.5718 11.8693 11.6375 11.7534 11.7534C11.6375 11.8693 11.5718 12.026 11.5703 12.1899C11.5689 12.3538 11.6319 12.5116 11.7458 12.6295L17.5539 18.4376H13.7501C13.5844 18.4376 13.4254 18.5035 13.3082 18.6207C13.191 18.7379 13.1251 18.8969 13.1251 19.0626C13.1251 19.2284 13.191 19.3874 13.3082 19.5046C13.4254 19.6218 13.5844 19.6876 13.7501 19.6876H19.0626C19.2284 19.6876 19.3874 19.6218 19.5046 19.5046C19.6218 19.3874 19.6876 19.2284 19.6876 19.0626V13.7501C19.6876 13.5844 19.6218 13.4254 19.5046 13.3082C19.3874 13.191 19.2284 13.1251 19.0626 13.1251Z" fill="#158466"/>
<path d="M7.05813 12.0583L1.5625 17.5539V13.7501C1.5625 13.5844 1.49665 13.4254 1.37944 13.3082C1.26223 13.191 1.10326 13.1251 0.9375 13.1251C0.77174 13.1251 0.612769 13.191 0.495558 13.3082C0.378348 13.4254 0.3125 13.5844 0.3125 13.7501V19.0626C0.3125 19.2284 0.378348 19.3874 0.495558 19.5046C0.612769 19.6218 0.77174 19.6876 0.9375 19.6876H6.25C6.41576 19.6876 6.57473 19.6218 6.69194 19.5046C6.80915 19.3874 6.875 19.2284 6.875 19.0626C6.875 18.8969 6.80915 18.7379 6.69194 18.6207C6.57473 18.5035 6.41576 18.4376 6.25 18.4376H2.44625L7.94187 12.942C8.05572 12.8241 8.11872 12.6663 8.1173 12.5024C8.11587 12.3385 8.05014 12.1818 7.93426 12.0659C7.81838 11.95 7.66162 11.8843 7.49775 11.8828C7.33388 11.8814 7.176 11.9444 7.05813 12.0583Z" fill="#158466"/>
<path d="M2.44625 1.5625H6.25C6.41576 1.5625 6.57473 1.49665 6.69194 1.37944C6.80915 1.26223 6.875 1.10326 6.875 0.9375C6.875 0.77174 6.80915 0.612769 6.69194 0.495558C6.57473 0.378348 6.41576 0.3125 6.25 0.3125H0.9375C0.77174 0.3125 0.612769 0.378348 0.495558 0.495558C0.378348 0.612769 0.3125 0.77174 0.3125 0.9375V6.25C0.3125 6.41576 0.378348 6.57473 0.495558 6.69194C0.612769 6.80915 0.77174 6.875 0.9375 6.875C1.10326 6.875 1.26223 6.80915 1.37944 6.69194C1.49665 6.57473 1.5625 6.41576 1.5625 6.25V2.44625L7.05813 7.94187C7.176 8.05572 7.33388 8.11872 7.49775 8.1173C7.66162 8.11587 7.81838 8.05014 7.93426 7.93426C8.05014 7.81838 8.11587 7.66162 8.1173 7.49775C8.11872 7.33388 8.05572 7.176 7.94187 7.05813L2.44625 1.5625Z" fill="#158466"/>
</g>
<defs>
<clipPath id="clip0_248_2992">
<rect width="20" height="20" fill="white"/>
</clipPath>
</defs>
</svg>
