<svg width="20" height="20" viewBox="0 0 20 20" fill="none" xmlns="http://www.w3.org/2000/svg">
<path d="M6.092 16.9867C6.092 17.5262 5.64463 17.9604 5.11832 17.9604H2.42095C1.88148 17.9604 1.44727 17.5262 1.44727 16.9867V9.342C1.44727 8.80253 1.88148 8.36832 2.42095 8.36832H5.10516C5.64463 8.36832 6.07885 8.80253 6.07885 9.342V16.9867H6.092ZM17.5131 10.9867C18.092 11.4473 18.1841 12.2894 17.7236 12.8683C17.5394 13.1052 17.2762 13.2631 16.9867 13.3288C17.5657 13.7894 17.6578 14.6315 17.1973 15.1973C17.0131 15.4341 16.7499 15.592 16.4473 15.6709C17.0262 16.1315 17.1183 16.9736 16.6446 17.5525C16.3946 17.8683 16.0131 18.0525 15.6052 18.0525L8.03937 17.9736C7.4999 17.9736 7.06569 17.5394 7.06569 16.9999V9.342C7.06569 8.13148 10.9341 5.90779 11.1315 4.71042C11.2631 3.92095 11.092 1.94727 11.6183 1.94727C12.5262 1.94727 13.671 2.28937 13.671 4.28937C13.671 6.05253 12.5131 8.342 12.5131 8.342H17.1973C17.9341 8.342 18.5262 8.93411 18.5262 9.67095C18.5525 10.3157 18.1183 10.8552 17.5131 10.9867Z" fill="#158466"/>
</svg>
