<svg width="18" height="18" viewBox="0 0 18 18" fill="none" xmlns="http://www.w3.org/2000/svg">
<g clip-path="url(#clip0_2181_21031)">
<path d="M17.6907 11.3285C18.978 6.52768 16.1297 1.5923 11.3289 0.305003C6.52815 -0.982297 1.59277 1.86596 0.305471 6.66676C-0.981828 11.4676 1.86643 16.4029 6.66723 17.6902C11.468 18.9775 16.4034 16.1293 17.6907 11.3285Z" fill="#158466"/>
<path fill-rule="evenodd" clip-rule="evenodd" d="M9.06869 13.7154H7.08017C7.00979 13.7154 6.95699 13.6652 6.95699 13.5982V12.5519C6.95699 12.4849 7.00979 12.4347 7.08017 12.4347H9.06869C10.8812 12.4347 12.3594 11.0285 12.3594 9.30415C12.3594 7.57985 10.8812 6.1736 9.06869 6.1736L6.50827 6.17362V7.51289C6.50827 7.55472 6.48186 7.59658 6.43788 7.6217C6.39389 7.63843 6.34109 7.63843 6.30589 7.61333L3.48149 5.62955C3.44629 5.60442 3.42871 5.57094 3.42871 5.52909C3.42871 5.48725 3.44629 5.45377 3.48149 5.42865L6.30589 3.45321C6.34109 3.42811 6.39389 3.41973 6.43788 3.44486C6.48186 3.46159 6.50827 3.50344 6.50827 3.5453V4.88455L9.06869 4.88458C11.6291 4.88458 13.7144 6.85999 13.7144 9.29578C13.7144 11.7316 11.6291 13.7154 9.06869 13.7154Z" fill="white"/>
</g>
<defs>
<clipPath id="clip0_2181_21031">
<rect width="18" height="18" fill="white"/>
</clipPath>
</defs>
</svg>
