<svg width="18" height="18" viewBox="0 0 18 18" fill="none" xmlns="http://www.w3.org/2000/svg">
<g clip-path="url(#clip0_248_2933)">
<path d="M17.6907 11.3285C18.978 6.52768 16.1297 1.5923 11.3289 0.305003C6.52815 -0.982297 1.59277 1.86596 0.305471 6.66676C-0.981828 11.4676 1.86643 16.4029 6.66723 17.6902C11.468 18.9775 16.4034 16.1293 17.6907 11.3285Z" fill="#158466"/>
<path fill-rule="evenodd" clip-rule="evenodd" d="M9.06869 13.7144H7.08017C7.00979 13.7144 6.95699 13.6642 6.95699 13.5972V12.5509C6.95699 12.4839 7.00979 12.4337 7.08017 12.4337H9.06869C10.8812 12.4337 12.3594 11.0275 12.3594 9.30318C12.3594 7.57888 10.8812 6.17262 9.06869 6.17262L6.50827 6.17264V7.51191C6.50827 7.55375 6.48186 7.5956 6.43788 7.62073C6.39389 7.63746 6.34109 7.63746 6.30589 7.61235L3.48149 5.62857C3.44629 5.60344 3.42871 5.56996 3.42871 5.52811C3.42871 5.48628 3.44629 5.4528 3.48149 5.42767L6.30589 3.45224C6.34109 3.42713 6.39389 3.41876 6.43788 3.44388C6.48186 3.46061 6.50827 3.50247 6.50827 3.54432V4.88358L9.06869 4.8836C11.6291 4.8836 13.7144 6.85901 13.7144 9.2948C13.7144 11.7306 11.6291 13.7144 9.06869 13.7144Z" fill="white"/>
</g>
<defs>
<clipPath id="clip0_248_2933">
<rect width="18" height="18" fill="white"/>
</clipPath>
</defs>
</svg>
