<svg width="35" height="35" viewBox="0 0 35 35" fill="none" xmlns="http://www.w3.org/2000/svg">
<circle cx="17.5" cy="17.5" r="17.5" fill="white"/>
<g clip-path="url(#clip0_175_2242)">
<path d="M10.191 22.8192C9.55615 22.8192 8.93589 22.6572 8.37375 22.3416C8.08453 22.1926 7.9725 21.82 8.14529 21.5396C8.71937 20.6223 8.92667 19.5009 8.66382 18.4464C8.39139 17.3531 7.99719 16.4323 8.00002 15.2749C8.0098 11.2144 11.3895 7.92261 15.4459 8.00138C19.3638 8.0803 22.5928 11.3738 22.5928 15.2928C22.5929 20.4111 17.2289 24.0045 12.4934 22.0281C11.8407 22.5404 11.0203 22.8192 10.191 22.8192ZM9.41958 21.5696C10.3116 21.8466 11.3149 21.6253 12.0028 20.9603C12.1723 20.7964 12.4258 20.7551 12.6385 20.8569C16.6927 22.7952 21.4641 19.757 21.4641 15.2928C21.4641 11.9616 18.7541 9.1969 15.4232 9.12984C11.9904 9.06165 9.13698 11.8418 9.1287 15.2777C9.12602 16.377 9.55492 17.2555 9.78931 18.2969C10.0363 19.3943 9.90618 20.5547 9.41958 21.5696Z" fill="#158466"/>
<path d="M24.8081 27C23.9789 27 23.1585 26.7212 22.5058 26.2089C19.9875 27.26 16.9918 26.7813 14.9269 24.9981C14.691 24.7944 14.665 24.438 14.8687 24.2021C15.0724 23.9662 15.4287 23.9401 15.6646 24.1439C17.496 25.7254 20.1781 26.0812 22.3608 25.0377C22.5734 24.936 22.8269 24.9773 22.9964 25.1411C23.6843 25.8061 24.6876 26.0276 25.5796 25.7504C25.0056 24.5531 24.9261 23.1814 25.3709 21.9115C25.3749 21.9001 25.3793 21.8889 25.384 21.8777C25.7089 21.1118 25.8726 20.2979 25.8706 19.4585C25.867 17.9786 25.3747 16.6096 24.4468 15.4995C24.2469 15.2603 24.2788 14.9045 24.5179 14.7046C24.757 14.5047 25.113 14.5366 25.3128 14.7757C26.3962 16.0719 26.9951 17.7339 26.9992 19.4558C27.0016 20.442 26.8103 21.3991 26.4305 22.3009C26.0316 23.4556 26.2151 24.692 26.8539 25.7204C27.0268 26.0007 26.9147 26.3734 26.6254 26.5225C26.0633 26.838 25.4429 27 24.8081 27Z" fill="#158466"/>
<path d="M15.2963 16.2137C15.7895 16.2137 16.1893 15.8141 16.1893 15.3212C16.1893 14.8283 15.7895 14.4287 15.2963 14.4287C14.8031 14.4287 14.4033 14.8283 14.4033 15.3212C14.4033 15.8141 14.8031 16.2137 15.2963 16.2137Z" fill="#158466"/>
<path d="M12.0063 16.2137C12.4994 16.2137 12.8992 15.8141 12.8992 15.3212C12.8992 14.8283 12.4994 14.4287 12.0063 14.4287C11.5131 14.4287 11.1133 14.8283 11.1133 15.3212C11.1133 15.8141 11.5131 16.2137 12.0063 16.2137Z" fill="#158466"/>
<path d="M18.5863 16.2137C19.0795 16.2137 19.4793 15.8141 19.4793 15.3212C19.4793 14.8283 19.0795 14.4287 18.5863 14.4287C18.0932 14.4287 17.6934 14.8283 17.6934 15.3212C17.6934 15.8141 18.0932 16.2137 18.5863 16.2137Z" fill="#158466"/>
</g>
<defs>
<clipPath id="clip0_175_2242">
<rect width="19" height="19" fill="white" transform="translate(8 8)"/>
</clipPath>
</defs>
</svg>
