<svg width="70" height="70" viewBox="0 0 70 70" fill="none" xmlns="http://www.w3.org/2000/svg">
<path d="M54.6386 23.1456L42.2041 35.5L54.6386 47.8544C54.8633 47.3846 54.9997 46.8652 54.9997 46.3105V24.6895C54.9997 24.1348 54.8633 23.6154 54.6386 23.1456Z" fill="#158466"/>
<path d="M51.3964 21.0859H17.6034C17.0487 21.0859 16.5294 21.2223 16.0596 21.4471L31.9521 37.2596C33.3573 38.6648 35.6424 38.6648 37.0476 37.2596L52.9402 21.4471C52.4704 21.2223 51.9511 21.0859 51.3964 21.0859Z" fill="#158466"/>
<path d="M14.3612 23.1456C14.1364 23.6154 14 24.1348 14 24.6895V46.3105C14 46.8652 14.1364 47.3846 14.3612 47.8544L26.7956 35.5L14.3612 23.1456Z" fill="#158466"/>
<path d="M40.5057 37.1982L38.7462 38.9578C36.4048 41.2992 32.5949 41.2992 30.2535 38.9578L28.494 37.1982L16.0596 49.5526C16.5294 49.7774 17.0487 49.9138 17.6034 49.9138H51.3964C51.9511 49.9138 52.4704 49.7774 52.9402 49.5526L40.5057 37.1982Z" fill="#158466"/>
</svg>
