<svg width="35" height="35" viewBox="0 0 35 35" fill="none" xmlns="http://www.w3.org/2000/svg">
<circle cx="17.5" cy="17.5" r="17.5" fill="white"/>
<g clip-path="url(#clip0_175_2276)">
<path d="M18.1024 7.9541C12.6068 7.9541 8.15918 12.4012 8.15918 17.8973C8.15918 23.3928 12.6063 27.8405 18.1024 27.8405C23.598 27.8405 28.0455 23.3934 28.0455 17.8973C28.0455 12.4017 23.5985 7.9541 18.1024 7.9541ZM18.1024 26.453C13.3847 26.453 9.5466 22.615 9.5466 17.8973C9.5466 13.1796 13.3847 9.34153 18.1024 9.34153C22.8201 9.34153 26.6581 13.1796 26.6581 17.8973C26.6581 22.615 22.8201 26.453 18.1024 26.453Z" fill="#158466"/>
<path d="M17.8082 20.5352C17.2585 20.5352 16.8135 20.9932 16.8135 21.5429C16.8135 22.0796 17.2454 22.5507 17.8082 22.5507C18.371 22.5507 18.8159 22.0796 18.8159 21.5429C18.8159 20.9932 18.3579 20.5352 17.8082 20.5352Z" fill="#158466"/>
<path d="M17.9778 12.905C16.2109 12.905 15.3994 13.9521 15.3994 14.6589C15.3994 15.1693 15.8313 15.4049 16.1847 15.4049C16.8915 15.4049 16.6035 14.3971 17.9385 14.3971C18.5929 14.3971 19.1165 14.6851 19.1165 15.2871C19.1165 15.9939 18.3835 16.3996 17.9516 16.7661C17.572 17.0932 17.0747 17.6299 17.0747 18.7555C17.0747 19.436 17.258 19.6324 17.7946 19.6324C18.4359 19.6324 18.5667 19.3444 18.5667 19.0957C18.5667 18.4151 18.5798 18.0225 19.2997 17.4597C19.6531 17.1849 20.7655 16.2948 20.7655 15.0646C20.7655 13.8343 19.6531 12.905 17.9778 12.905Z" fill="#158466"/>
</g>
<defs>
<clipPath id="clip0_175_2276">
<rect width="19.8864" height="19.8864" fill="white" transform="translate(8.15918 7.9541)"/>
</clipPath>
</defs>
</svg>
