<svg width="70" height="70" viewBox="0 0 70 70" fill="none" xmlns="http://www.w3.org/2000/svg">
<path d="M49.4873 25.4062C48.0811 20.8594 44.3779 17.1562 39.8311 15.75C38.2373 15.2577 36.5967 15 35.0029 15C31.7451 15 28.6046 16.0078 25.9796 17.9766C22.0888 20.8359 19.7686 25.4062 19.7686 30.2344C19.7686 33.5624 20.8232 36.7266 22.8154 39.3751L35.0029 55L47.1904 39.3751C50.1669 35.3906 51.0107 30.3048 49.4873 25.4062ZM35.0029 38.4375C30.4795 38.4375 26.7998 34.7578 26.7998 30.2344C26.7998 25.7109 30.4795 22.0312 35.0029 22.0312C39.5264 22.0312 43.2061 25.7109 43.2061 30.2344C43.2061 34.7578 39.5264 38.4375 35.0029 38.4375Z" fill="#13B086"/>
<path d="M47.1904 39.3751L35.0029 55V38.4375C39.5264 38.4375 43.2061 34.7578 43.2061 30.2344C43.2061 25.7109 39.5264 22.0312 35.0029 22.0312V15C36.5967 15 38.2373 15.2578 39.8311 15.75C44.3779 17.1562 48.0811 20.8594 49.4873 25.4062C51.0107 30.3048 50.1669 35.3906 47.1904 39.3751Z" fill="#158466"/>
</svg>
