<svg width="70" height="70" viewBox="0 0 70 70" fill="none" xmlns="http://www.w3.org/2000/svg">
<g clip-path="url(#clip0_175_2206)">
<path d="M48.7419 42.448C46.4464 40.4846 44.1167 39.2953 41.8493 41.2557L40.4954 42.4406C39.5048 43.3007 37.663 47.3194 30.542 39.1277C23.4224 30.9464 27.6592 29.6726 28.6513 28.8199L30.0126 27.6335C32.2681 25.6687 31.4169 23.1951 29.7901 20.6489L28.8084 19.1067C27.1743 16.5664 25.3947 14.8982 23.1333 16.8601L21.9113 17.9278C20.9119 18.6559 18.118 21.0226 17.4403 25.5189C16.6247 30.9138 19.1976 37.0916 25.0922 43.8701C30.9794 50.6515 36.7436 54.0578 42.2037 53.9985C46.7415 53.9496 49.4819 51.5146 50.3391 50.6293L51.5654 49.5601C53.821 47.5997 52.4196 45.6036 50.1225 43.6358L48.7419 42.448Z" fill="#158466"/>
</g>
<defs>
<clipPath id="clip0_175_2206">
<rect width="38" height="38" fill="white" transform="translate(16 16)"/>
</clipPath>
</defs>
</svg>
