<svg width="26" height="20" viewBox="0 0 26 20" fill="none" xmlns="http://www.w3.org/2000/svg">
<path d="M13.7032 0.400782L20.5129 0.400781C21.1483 0.400781 21.6478 0.884882 21.6478 1.50075L21.6478 10.3008L12.5684 10.3008L12.5684 1.50075C12.5684 0.884882 13.0678 0.400782 13.7032 0.400782Z" fill="#FF810D"/>
<path d="M12.7939 4.71911C12.7939 4.11126 12.2865 3.61914 11.6591 3.61914H4.84973C4.22229 3.61914 3.71484 4.11126 3.71484 4.71911V9.11927C3.71484 9.72712 4.22229 10.2192 4.84973 10.2192H12.7939C12.7939 10.2192 12.7939 5.32724 12.7939 4.71911Z" fill="#F17300"/>
<path d="M25.4716 8.73242H0.52848C0.23659 8.73242 0 8.50311 0 8.2202V7.19581C0 6.91295 0.23659 6.68359 0.52848 6.68359H25.4716C25.7634 6.68359 26 6.9129 26 7.19581V8.2202C26 8.50311 25.7634 8.73242 25.4716 8.73242Z" fill="#158466"/>
<path d="M25.4716 6.68359H24.0977C24.3895 6.68359 24.6261 6.9129 24.6261 7.19581V8.2202C24.6261 8.50306 24.3895 8.73242 24.0977 8.73242H25.4716C25.7635 8.73242 26.0001 8.50311 26.0001 8.2202V7.19581C26.0001 6.9129 25.7635 6.68359 25.4716 6.68359Z" fill="#158466"/>
<path d="M1.40039 8.73247L3.05286 18.2081C3.1818 18.9472 3.84292 19.4885 4.61601 19.4885H21.3897C22.1607 19.4885 22.8197 18.9513 22.9519 18.2152L24.6524 8.73242H1.40039V8.73247ZM9.40651 16.5178C9.40651 16.8006 9.16977 17.03 8.87803 17.03H7.82112C7.52943 17.03 7.29264 16.8006 7.29264 16.5178V11.3959C7.29264 11.1132 7.52938 10.8837 7.82112 10.8837H8.87803C9.16972 10.8837 9.40651 11.1132 9.40651 11.3959V16.5178ZM14.0569 16.5178C14.0569 16.8006 13.8202 17.03 13.5284 17.03H12.4715C12.1798 17.03 11.943 16.8006 11.943 16.5178V11.3959C11.943 11.1132 12.1798 10.8837 12.4715 10.8837H13.5284C13.8201 10.8837 14.0569 11.1132 14.0569 11.3959V16.5178ZM18.7073 16.5178C18.7073 16.8006 18.4706 17.03 18.1789 17.03H17.122C16.8303 17.03 16.5935 16.8006 16.5935 16.5178V11.3959C16.5935 11.1132 16.8302 10.8837 17.122 10.8837H18.1789C18.4706 10.8837 18.7073 11.1132 18.7073 11.3959V16.5178Z" fill="#158466"/>
<path d="M23.2529 8.73242L21.5524 18.2152C21.4202 18.9512 20.7612 19.4885 19.9902 19.4885H21.3906C22.1616 19.4885 22.8206 18.9513 22.9528 18.2152L24.6533 8.73242H23.2529Z" fill="#158466"/>
</svg>
