<svg width="23" height="21" viewBox="0 0 23 21" fill="none" xmlns="http://www.w3.org/2000/svg">
<path d="M21.3454 9.88137L14.9287 3.75637C14.7558 3.59698 14.5242 3.50878 14.2839 3.51078C14.0436 3.51277 13.8136 3.60479 13.6437 3.76702C13.4737 3.92926 13.3773 4.14872 13.3752 4.37814C13.3731 4.60756 13.4655 4.82859 13.6325 4.99362L18.4844 9.62499H2.36393C2.12082 9.62499 1.88766 9.71718 1.71575 9.88127C1.54384 10.0454 1.44727 10.2679 1.44727 10.5C1.44727 10.7321 1.54384 10.9546 1.71575 11.1187C1.88766 11.2828 2.12082 11.375 2.36393 11.375H18.4844L13.6325 16.0064C13.545 16.0871 13.4751 16.1836 13.4271 16.2904C13.379 16.3971 13.3538 16.512 13.3527 16.6281C13.3516 16.7443 13.3748 16.8595 13.4209 16.9671C13.467 17.0746 13.5351 17.1723 13.6212 17.2545C13.7072 17.3366 13.8096 17.4016 13.9222 17.4456C14.0349 17.4896 14.1556 17.5117 14.2773 17.5107C14.399 17.5097 14.5193 17.4856 14.6311 17.4397C14.743 17.3938 14.8441 17.3272 14.9287 17.2436L21.3454 11.1186C21.5172 10.9545 21.6137 10.732 21.6137 10.5C21.6137 10.268 21.5172 10.0455 21.3454 9.88137Z" fill="white"/>
</svg>
