<svg width="19" height="19" viewBox="0 0 19 19" fill="none" xmlns="http://www.w3.org/2000/svg">
<path fill-rule="evenodd" clip-rule="evenodd" d="M11.6903 1.98293L11.2293 2.24912H8.22589C8.06194 2.24912 7.92901 2.38204 7.92901 2.54599C7.92901 2.70994 8.06194 2.84287 8.22589 2.84287H10.2008L9.63437 3.16991L16.2997 7.01819V9.86975C16.2997 9.98372 16.2433 10.0815 16.1445 10.1385L14.5995 11.0305C14.5502 11.059 14.4937 11.059 14.4443 11.0305C14.395 11.002 14.3667 10.9531 14.3667 10.8962V8.13418L7.70146 4.28587L5.81433 5.3754C5.78086 5.3623 5.74446 5.35514 5.70635 5.35514H0.630896C0.466947 5.35514 0.334021 5.48806 0.334021 5.65201C0.334021 5.81596 0.466947 5.94889 0.630896 5.94889H5.33804C5.33618 5.96907 5.33522 5.9896 5.33522 6.01038V9.20342H2.39797C2.23402 9.20342 2.1011 9.33634 2.1011 9.50029C2.1011 9.66424 2.23402 9.79717 2.39797 9.79717H5.33522V12.6806H0.630859C0.46691 12.6806 0.333984 12.8135 0.333984 12.9774C0.333984 13.1414 0.46691 13.2743 0.630859 13.2743H5.40149C5.45422 13.378 5.53716 13.4652 5.64556 13.5278L11.6903 17.0177C11.8877 17.1316 12.1136 17.1316 12.311 17.0177L18.3557 13.5278C18.5531 13.4138 18.666 13.2182 18.666 12.9902V6.01038C18.666 5.78249 18.5531 5.58681 18.3557 5.47285L12.3109 1.98293C12.1136 1.86897 11.8877 1.86897 11.6903 1.98293ZM5.99543 2.24908C6.15938 2.24908 6.2923 2.38201 6.2923 2.54596C6.2923 2.70991 6.15938 2.84283 5.99543 2.84283H2.02691C1.86296 2.84283 1.73004 2.70991 1.73004 2.54596C1.73004 2.38201 1.86296 2.24908 2.02691 2.24908H5.99543Z" fill="white"/>
</svg>
