<svg width="23" height="21" viewBox="0 0 23 21" fill="none" xmlns="http://www.w3.org/2000/svg">
<path d="M21.5016 9.88137L15.0849 3.75637C14.912 3.59698 14.6805 3.50878 14.4401 3.51078C14.1998 3.51277 13.9699 3.60479 13.7999 3.76702C13.63 3.92926 13.5336 4.14872 13.5315 4.37814C13.5294 4.60756 13.6218 4.82859 13.7888 4.99362L18.6407 9.62499H2.52018C2.27707 9.62499 2.04391 9.71718 1.872 9.88127C1.70009 10.0454 1.60352 10.2679 1.60352 10.5C1.60352 10.7321 1.70009 10.9546 1.872 11.1187C2.04391 11.2828 2.27707 11.375 2.52018 11.375H18.6407L13.7888 16.0064C13.7012 16.0871 13.6314 16.1836 13.5833 16.2904C13.5353 16.3971 13.51 16.512 13.509 16.6281C13.5079 16.7443 13.5311 16.8595 13.5772 16.9671C13.6233 17.0746 13.6913 17.1723 13.7774 17.2545C13.8635 17.3366 13.9658 17.4016 14.0785 17.4456C14.1911 17.4896 14.3118 17.5117 14.4335 17.5107C14.5553 17.5097 14.6755 17.4856 14.7874 17.4397C14.8992 17.3938 15.0004 17.3272 15.0849 17.2436L21.5016 11.1186C21.6734 10.9545 21.77 10.732 21.77 10.5C21.77 10.268 21.6734 10.0455 21.5016 9.88137Z" fill="#158466"/>
</svg>
