<svg width="20" height="20" viewBox="0 0 20 20" fill="none" xmlns="http://www.w3.org/2000/svg">
<g clip-path="url(#clip0_837_12397)">
<path d="M14.5289 9.81008L16.9011 5.76246H12.1567L9.78454 1.71484L7.41233 5.76246H2.66797L5.04013 9.81008L2.66797 13.8577H7.41233L9.78454 17.9053L12.1567 13.8577H16.9011L14.5289 9.81008Z" fill="#FFF5F5"/>
<path d="M12.1535 13.8577H16.8978L14.5257 9.81008L16.8978 5.76246H12.1535L9.78125 1.71484V17.9053L12.1535 13.8577Z" fill="#13B086" fill-opacity="0.2"/>
<path d="M15.3647 9.80952L17.5276 6.11905C17.6572 5.89805 17.6572 5.62576 17.5276 5.40476C17.3981 5.18376 17.1588 5.04762 16.8997 5.04762H12.5739L10.411 1.35714C10.2815 1.13614 10.0421 1 9.7831 1C9.52405 1 9.28468 1.13614 9.15518 1.35714L6.99228 5.04762H2.66648C2.40744 5.04762 2.16806 5.18376 2.03857 5.40476C1.90907 5.62576 1.90902 5.89805 2.03857 6.11905L4.20147 9.80952L2.03857 13.5C1.90902 13.721 1.90902 13.9933 2.03857 14.2143C2.16811 14.4353 2.40744 14.5714 2.66648 14.5714H6.99228L9.15518 18.2619C9.28473 18.4829 9.52405 18.619 9.7831 18.619C10.0421 18.619 10.2815 18.4829 10.411 18.2619L12.5739 14.5714H16.8997C17.1588 14.5714 17.3981 14.4353 17.5276 14.2143C17.6571 13.9933 17.6572 13.721 17.5276 13.5L15.3647 9.80952ZM15.6438 6.47619L14.5275 8.38095L13.4112 6.47619H15.6438ZM13.6902 9.80952L11.7366 13.1429H7.82945L5.87586 9.80952L7.82945 6.47619H11.7366L13.6902 9.80952ZM9.7831 3.14286L10.8994 5.04762H8.66677L9.7831 3.14286ZM3.92236 6.47619H6.15506L5.03874 8.38095L3.92236 6.47619ZM3.92236 13.1429L5.03869 11.2381L6.15501 13.1429H3.92236ZM9.7831 16.4762L8.66677 14.5714H10.8994L9.7831 16.4762ZM13.4111 13.1429L14.5275 11.2381L15.6438 13.1429H13.4111Z" fill="#13B086"/>
<path d="M10.8976 5.04762H9.78125V6.47619H11.7348L13.6884 9.80952L11.7348 13.1429H9.78125V14.5714H10.8976L9.78125 16.4762V18.619C10.0403 18.619 10.2797 18.4829 10.4092 18.2619L12.5721 14.5714H16.8979C17.1569 14.5714 17.3963 14.4353 17.5258 14.2143C17.6553 13.9933 17.6553 13.721 17.5258 13.5L15.3629 9.80952L17.5258 6.11905C17.6553 5.89805 17.6553 5.62576 17.5258 5.40476C17.3962 5.18376 17.1569 5.04762 16.8979 5.04762H12.5721L10.4092 1.35714C10.2797 1.13614 10.0403 1 9.78125 1V3.14286L10.8976 5.04762ZM15.642 13.1429H13.4093L14.5256 11.2381L15.642 13.1429ZM15.642 6.47619L14.5257 8.38095L13.4093 6.47619H15.642Z" fill="#158466"/>
</g>
<defs>
<clipPath id="clip0_837_12397">
<rect width="16" height="18" fill="white" transform="translate(2 1)"/>
</clipPath>
</defs>
</svg>
