<svg width="20" height="20" viewBox="0 0 20 20" fill="none" xmlns="http://www.w3.org/2000/svg">
<g clip-path="url(#clip0_901_9196)">
<path d="M11.8392 2.75317H8.145C6.84594 5.40267 6.53609 6.0347 5.9918 7.1447C5.59176 7.96056 5.38281 8.86677 5.38281 9.78638V18.694C5.38281 19.4153 5.93418 20.0001 6.61434 20.0001H13.3859C14.066 20.0001 14.6174 19.4153 14.6174 18.694V9.79329C14.6174 8.86923 14.4065 7.95888 14.0027 7.14001C13.7169 6.56021 13.4252 5.96888 11.8392 2.75317Z" fill="#CDE2FF"/>
<path d="M8.02266 20H6.61422C5.93414 20 5.38281 19.4153 5.38281 18.6937V9.78633C5.38281 8.8668 5.59168 7.96059 5.99168 7.14449C6.53613 6.03465 6.84602 5.40242 8.145 2.75293H9.55344C8.25445 5.40242 7.94457 6.03461 7.40012 7.14449C7.00012 7.96059 6.79125 8.86684 6.79125 9.78633V18.6937C6.79125 19.4153 7.34258 20 8.02266 20Z" fill="#C0DBFF"/>
<path d="M13.41 9.79322V18.6958C13.4096 18.7502 13.3625 18.7928 13.3082 18.7928H6.69164C6.6373 18.7928 6.59023 18.7502 6.58984 18.6958V9.78638C6.58984 9.054 6.75766 8.32443 7.07555 7.67611L8.19375 5.3954C8.23656 5.3081 8.32516 5.25244 8.42238 5.2513C9.0252 5.24435 9.51875 5.21845 10.0268 5.66845C10.3194 5.92825 10.7084 6.08415 11.1234 6.08415H11.9761C12.0738 6.08415 12.1632 6.13974 12.2068 6.22724C12.9567 7.73521 13.41 8.46376 13.41 9.79322Z" fill="#FFF5F4"/>
<path d="M11.9352 2.79328H8.06473C7.66438 2.79328 7.33984 2.46875 7.33984 2.0684V0.724883C7.33988 0.324531 7.66441 0 8.06477 0H11.9353C12.3356 0 12.6602 0.324531 12.6602 0.724883V2.0684C12.6601 2.46875 12.3356 2.79328 11.9352 2.79328Z" fill="#13B086"/>
<path d="M9.47301 2.79316H8.06457C7.66418 2.79316 7.33984 2.46883 7.33984 2.0684V0.724766C7.3398 0.324336 7.66414 0 8.06453 0H9.47297C9.07258 0 8.74824 0.324336 8.74824 0.724766V2.06844C8.74824 2.46883 9.07262 2.79316 9.47301 2.79316Z" fill="#158466"/>
<path d="M13.41 9.79327V18.6959C13.4096 18.7502 13.3625 18.7929 13.3082 18.7929H6.69164C6.6373 18.7929 6.59023 18.7502 6.58984 18.6959V9.78644C6.58984 9.05405 6.75766 8.32448 7.07555 7.67616L8.19387 5.39527C8.23652 5.30796 8.32504 5.25241 8.42242 5.2512C8.85742 5.24636 9.2357 5.23148 9.60352 5.39327C9.74516 5.45484 9.88559 5.54339 10.0268 5.66851C10.3194 5.92847 10.7085 6.08421 11.1234 6.08421H11.9761C12.0739 6.08421 12.1632 6.13976 12.2067 6.22745C12.9568 7.7353 13.41 8.4637 13.41 9.79327Z" fill="#EBE0DA"/>
<path d="M13.4097 9.79307V18.6957C13.4093 18.75 13.3622 18.7927 13.3079 18.7927H8.09984C8.04551 18.7927 7.99844 18.75 7.99805 18.6957V9.78623C7.99805 9.05385 8.16586 8.32428 8.48375 7.67596L9.60207 5.39506C9.60246 5.39424 9.60289 5.39385 9.60328 5.39307C9.74492 5.45463 9.88535 5.54318 10.0266 5.6683C10.3191 5.92826 10.7083 6.084 11.1232 6.084H11.9759C12.0737 6.084 12.163 6.13955 12.2064 6.22725C12.9566 7.7351 13.4097 8.4635 13.4097 9.79307Z" fill="#FFF5F4"/>
</g>
<defs>
<clipPath id="clip0_901_9196">
<rect width="20" height="20" fill="white"/>
</clipPath>
</defs>
</svg>
