<svg width="20" height="20" viewBox="0 0 20 20" fill="none" xmlns="http://www.w3.org/2000/svg">
<path d="M16.875 12.125C16.875 8.85105 14.2114 6.1875 10.9375 6.1875H9.0625C5.78855 6.1875 3.125 8.85105 3.125 12.125V12.4375H16.875V12.125Z" fill="#13B086"/>
<path d="M1.875 13.6875H18.125C18.2079 13.6874 18.2873 13.6545 18.3459 13.5959C18.4045 13.5373 18.4374 13.4579 18.4375 13.375V13.0625H1.5625V13.375C1.56259 13.4579 1.59555 13.5373 1.65413 13.5959C1.71272 13.6545 1.79215 13.6874 1.875 13.6875Z" fill="#158466"/>
<path d="M11.25 4.3125H8.75C8.66712 4.3125 8.58763 4.34542 8.52903 4.40403C8.47042 4.46263 8.4375 4.54212 8.4375 4.625C8.4375 4.70788 8.47042 4.78737 8.52903 4.84597C8.58763 4.90458 8.66712 4.9375 8.75 4.9375H9.375V5.5625H10.625V4.9375H11.25C11.3329 4.9375 11.4124 4.90458 11.471 4.84597C11.5296 4.78737 11.5625 4.70788 11.5625 4.625C11.5625 4.54212 11.5296 4.46263 11.471 4.40403C11.4124 4.34542 11.3329 4.3125 11.25 4.3125Z" fill="#158466"/>
</svg>
