<svg width="35" height="34" viewBox="0 0 35 34" fill="none" xmlns="http://www.w3.org/2000/svg">
<path fill-rule="evenodd" clip-rule="evenodd" d="M0.536272 5.05691C1.85847 2.81633 19.4643 -3.15813 27.6381 3.14007C30.8023 5.57401 32.1163 13.587 31.0024 23.5148C30.8185 25.1518 30.68 26.275 30.7344 27.8785C30.7342 27.9806 31.1169 27.321 31.5818 26.396C32.6827 24.206 33.5357 23.2887 34.4445 23.3281C34.8836 23.3528 34.873 23.5605 34.3982 24.2846C33.0321 26.3582 32.1726 28.7292 31.5285 32.2648C31.2737 33.6532 30.0111 35.0463 28.8915 31.6635C27.9444 28.8019 27.1479 27.1491 25.5258 24.7491C24.4772 23.1911 24.9051 22.0516 26.2585 22.783C26.7277 23.0359 27.8681 24.6656 28.8582 26.4924L29.3601 27.4262C29.8044 23.3897 29.8458 23.1379 29.9923 19.8803C30.3321 12.1364 29.084 6.75504 26.4569 4.67623C19.8094 -0.573615 7.76394 3.22039 0.637474 5.4997C0.443296 5.56396 0.382538 5.3119 0.536272 5.05691Z" fill="#21292F"/>
</svg>
