<svg width="40" height="40" viewBox="0 0 40 40" fill="none" xmlns="http://www.w3.org/2000/svg">
<path d="M20.7032 10.0004L27.5129 10.0004C28.1483 10.0004 28.6478 10.4845 28.6478 11.1004L28.6478 19.9004L19.5684 19.9004L19.5684 11.1004C19.5684 10.4845 20.0678 10.0004 20.7032 10.0004Z" fill="#FF810D"/>
<path d="M19.7939 14.3187C19.7939 13.7109 19.2865 13.2188 18.6591 13.2188H11.8497C11.2223 13.2188 10.7148 13.7109 10.7148 14.3187V18.7189C10.7148 19.3267 11.2223 19.8189 11.8497 19.8189H19.7939C19.7939 19.8189 19.7939 14.9269 19.7939 14.3187Z" fill="#F17300"/>
<path d="M32.4716 18.332H7.52848C7.23659 18.332 7 18.1027 7 17.8198V16.7954C7 16.5126 7.23659 16.2832 7.52848 16.2832H32.4716C32.7634 16.2832 33 16.5125 33 16.7954V17.8198C33 18.1027 32.7634 18.332 32.4716 18.332Z" fill="#158466"/>
<path d="M32.4716 16.2832H31.0977C31.3895 16.2832 31.6261 16.5125 31.6261 16.7954V17.8198C31.6261 18.1027 31.3895 18.332 31.0977 18.332H32.4716C32.7635 18.332 33.0001 18.1027 33.0001 17.8198V16.7954C33.0001 16.5125 32.7635 16.2832 32.4716 16.2832Z" fill="#158466"/>
<path d="M8.40039 18.3321L10.0529 27.8077C10.1818 28.5468 10.8429 29.0881 11.616 29.0881H28.3897C29.1607 29.0881 29.8197 28.5509 29.9519 27.8148L31.6524 18.332H8.40039V18.3321ZM16.4065 26.1175C16.4065 26.4002 16.1698 26.6296 15.878 26.6296H14.8211C14.5294 26.6296 14.2926 26.4002 14.2926 26.1175V20.9955C14.2926 20.7128 14.5294 20.4833 14.8211 20.4833H15.878C16.1697 20.4833 16.4065 20.7128 16.4065 20.9955V26.1175ZM21.0569 26.1175C21.0569 26.4002 20.8202 26.6296 20.5284 26.6296H19.4715C19.1798 26.6296 18.943 26.4002 18.943 26.1175V20.9955C18.943 20.7128 19.1798 20.4833 19.4715 20.4833H20.5284C20.8201 20.4833 21.0569 20.7128 21.0569 20.9955V26.1175ZM25.7073 26.1175C25.7073 26.4002 25.4706 26.6296 25.1789 26.6296H24.122C23.8303 26.6296 23.5935 26.4002 23.5935 26.1175V20.9955C23.5935 20.7128 23.8302 20.4833 24.122 20.4833H25.1789C25.4706 20.4833 25.7073 20.7128 25.7073 20.9955V26.1175Z" fill="#158466"/>
<path d="M30.2529 18.332L28.5524 27.8148C28.4202 28.5508 27.7612 29.0881 26.9902 29.0881H28.3906C29.1616 29.0881 29.8206 28.5509 29.9528 27.8148L31.6533 18.332H30.2529Z" fill="#158466"/>
</svg>
