<svg width="30" height="33" viewBox="0 0 30 33" fill="none" xmlns="http://www.w3.org/2000/svg">
<path fill-rule="evenodd" clip-rule="evenodd" d="M27.6931 13.6094L5.74927 0.940733C5.24187 0.64808 4.6664 0.494061 4.08065 0.494141C3.4949 0.494221 2.91948 0.648397 2.41215 0.941189C1.90483 1.23398 1.48346 1.65508 1.19035 2.16222C0.897233 2.66936 0.742693 3.24469 0.742242 3.83044V29.1703C0.73886 29.7568 0.891579 30.3336 1.18473 30.8416C1.47788 31.3496 1.90091 31.7705 2.41041 32.061C2.91698 32.357 3.49314 32.513 4.07984 32.513C4.66654 32.513 5.2427 32.357 5.74927 32.061L27.6931 19.3911C28.2003 19.0979 28.6214 18.6765 28.9142 18.1691C29.207 17.6617 29.3611 17.0862 29.3611 16.5004C29.3611 15.9145 29.207 15.339 28.9142 14.8316C28.6214 14.3242 28.2003 13.9028 27.6931 13.6096V13.6094Z" fill="white"/>
</svg>
