<svg width="19" height="20" viewBox="0 0 19 20" fill="none" xmlns="http://www.w3.org/2000/svg">
<path fill-rule="evenodd" clip-rule="evenodd" d="M17.23 8.19221L3.81175 0.278956C3.50148 0.0961556 3.14959 -4.99776e-05 2.79141 1.94773e-08C2.43324 5.00165e-05 2.08138 0.0963534 1.77116 0.279241C1.46094 0.462128 1.20327 0.725163 1.02404 1.04194C0.844808 1.35871 0.750309 1.71808 0.750034 2.08396V17.9121C0.747965 18.2784 0.84135 18.6387 1.02061 18.956C1.19986 19.2733 1.45854 19.5362 1.77009 19.7177C2.07985 19.9026 2.43216 20 2.79092 20C3.14968 20 3.50199 19.9026 3.81175 19.7177L17.23 11.8036C17.5402 11.6205 17.7977 11.3573 17.9767 11.0403C18.1558 10.7234 18.25 10.3639 18.25 9.99801C18.25 9.63209 18.1558 9.27261 17.9767 8.95567C17.7977 8.63873 17.5402 8.37548 17.23 8.19237V8.19221Z" fill="#13B086"/>
</svg>
