<svg width="34" height="34" viewBox="0 0 34 34" fill="none" xmlns="http://www.w3.org/2000/svg">
<path d="M21.9879 19.4728L18.0839 16.5449V10.5805C18.0839 9.98084 17.5992 9.49609 16.9995 9.49609C16.3998 9.49609 15.915 9.98084 15.915 10.5805V17.0872C15.915 17.4287 16.0755 17.7508 16.3488 17.9547L20.6865 21.208C20.8817 21.3544 21.1095 21.4249 21.3361 21.4249C21.6669 21.4249 21.9922 21.2763 22.2048 20.99C22.5649 20.5117 22.4673 19.8318 21.9879 19.4728Z" fill="white"/>
<path d="M17 3C9.27993 3 3 9.27993 3 17C3 24.7201 9.27993 31 17 31C24.7201 31 31 24.7201 31 17C31 9.27993 24.7201 3 17 3ZM17 28.8311C10.4771 28.8311 5.16885 23.5229 5.16885 17C5.16885 10.4771 10.4771 5.16885 17 5.16885C23.5239 5.16885 28.8311 10.4771 28.8311 17C28.8311 23.5229 23.5229 28.8311 17 28.8311Z" fill="white"/>
</svg>
