<svg width="34" height="34" viewBox="0 0 34 34" fill="none" xmlns="http://www.w3.org/2000/svg">
<path fill-rule="evenodd" clip-rule="evenodd" d="M14.5544 4.10098C15.9638 2.89993 18.0366 2.89993 19.446 4.10098L21.1757 5.57502C21.4433 5.80307 21.776 5.94088 22.1265 5.96885L24.3919 6.14963C26.2377 6.29693 27.7035 7.76268 27.8508 9.60852L28.0315 11.8739C28.0595 12.2244 28.1973 12.5571 28.4254 12.8247L29.8994 14.5544C31.1005 15.9638 31.1005 18.0366 29.8994 19.446L28.4254 21.1757C28.1973 21.4433 28.0595 21.776 28.0315 22.1265L27.8508 24.3919C27.7035 26.2377 26.2377 27.7035 24.3919 27.8508L22.1265 28.0315C21.776 28.0595 21.4433 28.1973 21.1757 28.4254L19.446 29.8994C18.0366 31.1005 15.9638 31.1005 14.5544 29.8994L12.8247 28.4254C12.5571 28.1973 12.2244 28.0595 11.8739 28.0315L9.60852 27.8508C7.76268 27.7035 6.29693 26.2377 6.14963 24.3919L5.96885 22.1265C5.94088 21.776 5.80307 21.4433 5.57502 21.1757L4.10098 19.446C2.89993 18.0366 2.89993 15.9638 4.10098 14.5544L5.57502 12.8247C5.80307 12.5571 5.94088 12.2244 5.96885 11.8739L6.14963 9.60852C6.29693 7.76268 7.76268 6.29693 9.60852 6.14963L11.8739 5.96885C12.2244 5.94088 12.5571 5.80307 12.8247 5.57502L14.5544 4.10098ZM18.0839 5.69932C17.4594 5.16715 16.541 5.16715 15.9165 5.69932L14.1868 7.17336C13.5828 7.68804 12.8319 7.99908 12.041 8.0622L9.77557 8.24298C8.9577 8.30824 8.30824 8.9577 8.24298 9.77557L8.0622 12.041C7.99908 12.8319 7.68804 13.5828 7.17336 14.1868L5.69932 15.9165C5.16715 16.541 5.16715 17.4594 5.69932 18.0839L7.17336 19.8136C7.68804 20.4175 7.99908 21.1685 8.0622 21.9594L8.24298 24.2248C8.30824 25.0427 8.9577 25.6921 9.77557 25.7574L12.0409 25.9382C12.8319 26.0013 13.5828 26.3124 14.1868 26.827L15.9165 28.3011C16.541 28.8332 17.4594 28.8332 18.0839 28.3011L19.8136 26.827C20.4175 26.3124 21.1685 26.0013 21.9594 25.9382L24.2248 25.7574C25.0427 25.6921 25.6921 25.0427 25.7574 24.2248L25.9382 21.9594C26.0013 21.1685 26.3124 20.4175 26.827 19.8136L28.3011 18.0839C28.8332 17.4594 28.8332 16.541 28.3011 15.9165L26.827 14.1868C26.3124 13.5828 26.0013 12.8319 25.9382 12.0409L25.7574 9.77557C25.6921 8.9577 25.0427 8.30824 24.2248 8.24298L21.9594 8.0622C21.1685 7.99908 20.4175 7.68804 19.8136 7.17336L18.0839 5.69932Z" fill="white"/>
<path d="M19.125 22.667C19.125 23.8406 18.1736 24.792 17 24.792C15.8264 24.792 14.875 23.8406 14.875 22.667C14.875 21.4934 15.8264 20.542 17 20.542C18.1736 20.542 19.125 21.4934 19.125 22.667Z" fill="white"/>
<path fill-rule="evenodd" clip-rule="evenodd" d="M16.9998 18.0498C16.4199 18.0498 15.9498 17.5797 15.9498 16.9998L15.9498 11.3331C15.9498 10.7532 16.4199 10.2831 16.9998 10.2831C17.5797 10.2831 18.0498 10.7532 18.0498 11.3331L18.0498 16.9998C18.0498 17.5797 17.5797 18.0498 16.9998 18.0498Z" fill="white"/>
<path fill-rule="evenodd" clip-rule="evenodd" d="M18.5498 16.9998C18.5498 17.8558 17.8558 18.5498 16.9998 18.5498C16.1438 18.5498 15.4498 17.8558 15.4498 16.9998L15.4498 11.3331C15.4498 10.4771 16.1438 9.78314 16.9998 9.78314C17.8558 9.78314 18.5498 10.4771 18.5498 11.3331L18.5498 16.9998ZM16.9998 17.5498C17.3036 17.5498 17.5498 17.3036 17.5498 16.9998L17.5498 11.3331C17.5498 11.0294 17.3036 10.7831 16.9998 10.7831C16.696 10.7831 16.4498 11.0294 16.4498 11.3331L16.4498 16.9998C16.4498 17.3036 16.696 17.5498 16.9998 17.5498Z" fill="white"/>
</svg>
