<svg width="34" height="34" viewBox="0 0 34 34" fill="none" xmlns="http://www.w3.org/2000/svg">
<path d="M28.6875 20.6123C28.6875 15.0466 24.1595 10.5186 18.5938 10.5186H15.4062C9.84054 10.5186 5.3125 15.0466 5.3125 20.6123V21.1436H28.6875V20.6123Z" fill="white"/>
<path d="M3.1875 23.2686H30.8125C30.9533 23.2684 31.0884 23.2124 31.188 23.1128C31.2876 23.0132 31.3436 22.8782 31.3438 22.7373V22.2061H2.65625V22.7373C2.65641 22.8782 2.71243 23.0132 2.81202 23.1128C2.91162 23.2124 3.04665 23.2684 3.1875 23.2686Z" fill="#D9DBDF"/>
<path d="M19.125 7.33105H14.875C14.7341 7.33105 14.599 7.38703 14.4993 7.48665C14.3997 7.58628 14.3438 7.72141 14.3438 7.8623C14.3438 8.0032 14.3997 8.13833 14.4993 8.23796C14.599 8.33758 14.7341 8.39355 14.875 8.39355H15.9375V9.45605H18.0625V8.39355H19.125C19.2659 8.39355 19.401 8.33758 19.5007 8.23796C19.6003 8.13833 19.6562 8.0032 19.6562 7.8623C19.6562 7.72141 19.6003 7.58628 19.5007 7.48665C19.401 7.38703 19.2659 7.33105 19.125 7.33105Z" fill="#D9DBDF"/>
</svg>
