<svg width="16" height="16" viewBox="0 0 16 16" fill="none" xmlns="http://www.w3.org/2000/svg">
<g clip-path="url(#clip0_360_8686)">
<path d="M6.33334 10.3337H9.66669C9.85094 10.3337 10 10.1846 10 10.0003C10 9.81609 9.85094 9.66699 9.66669 9.66699H6.33334C6.14909 9.66699 6 9.81609 6 10.0003C6 10.1846 6.14909 10.3337 6.33334 10.3337Z" fill="white"/>
<path d="M6.33334 11.6667H9.66669C9.85094 11.6667 10 11.5176 10 11.3333C10 11.1491 9.85091 11 9.66666 11H6.33334C6.14909 11 6 11.1491 6 11.3333C6 11.5176 6.14909 11.6667 6.33334 11.6667Z" fill="white"/>
<path d="M8 0C3.58887 0 0 3.58887 0 8C0 12.4111 3.58887 16 8 16C12.4111 16 16 12.4111 16 8C16 3.58887 12.4111 0 8 0ZM11.3333 12.3333C11.3333 12.5176 11.1842 12.6667 11 12.6667H5C4.81575 12.6667 4.66666 12.5176 4.66666 12.3333V8.66666H11.3333V12.3333H11.3333ZM13.3333 8.66666C13.3333 9.40203 12.7353 10 12 10V8.66666C12.1842 8.66666 12.3333 8.51756 12.3333 8.33331C12.3333 8.14906 12.1842 7.99997 12 7.99997H4C3.81575 7.99997 3.66666 8.14906 3.66666 8.33331C3.66666 8.51756 3.81575 8.66666 4 8.66666V10C3.26466 10 2.66666 9.40203 2.66666 8.66666V6.66666C2.66666 5.93131 3.26463 5.33331 4 5.33331H4.66666V3.66666C4.66666 3.48241 4.81575 3.33331 5 3.33331H11C11.1842 3.33331 11.3333 3.48241 11.3333 3.66666V5.33331H12C12.7353 5.33331 13.3333 5.93128 13.3333 6.66666V8.66666Z" fill="white"/>
<path d="M11.6664 6.66669C11.8505 6.66669 11.9997 6.51744 11.9997 6.33334C11.9997 6.14924 11.8505 6 11.6664 6C11.4823 6 11.333 6.14924 11.333 6.33334C11.333 6.51744 11.4823 6.66669 11.6664 6.66669Z" fill="white"/>
</g>
<defs>
<clipPath id="clip0_360_8686">
<rect width="16" height="16" fill="white"/>
</clipPath>
</defs>
</svg>
