<svg width="34" height="34" viewBox="0 0 34 34" fill="none" xmlns="http://www.w3.org/2000/svg">
<path d="M12.6434 6.7998C10.6761 6.7998 9.06641 8.40947 9.06641 10.3768V13.2102C9.06641 14.7021 9.99233 15.9875 11.2976 16.5221V28.3331H13.9894V16.5221C15.2947 15.9875 16.2206 14.7021 16.2206 13.2102V10.3768C16.2206 8.40947 14.6108 6.7998 12.6434 6.7998Z" fill="white"/>
<path d="M23.6686 6.7998V11.9529C23.6686 12.323 23.3658 12.6258 22.9957 12.6258C22.6257 12.6258 22.3228 12.323 22.3228 11.9529V6.7998H20.8176V11.9529C20.8176 12.323 20.5148 12.6258 20.1447 12.6258C19.7746 12.6258 19.4718 12.323 19.4718 11.9529V6.7998H17.9932V13.2102C17.9932 14.7021 18.9191 15.9875 20.2244 16.5221V28.3331H22.9161V16.5221C24.2215 15.9875 25.1474 14.7021 25.1474 13.2102V6.7998H23.6686Z" fill="white"/>
</svg>
