<svg width="34" height="34" viewBox="0 0 34 34" fill="none" xmlns="http://www.w3.org/2000/svg">
<path d="M19.4679 12.3335C19.4678 11.7147 19.2152 11.1213 18.7656 10.6837C18.316 10.2461 17.7063 10.0002 17.0704 9.99996H16.9296C16.2937 10.0002 15.684 10.2461 15.2344 10.6837C14.7849 11.1213 14.5322 11.7147 14.5321 12.3335V28.6665C14.5322 29.2853 14.7849 29.8787 15.2344 30.3162C15.684 30.7538 16.2937 30.9998 16.9296 31H17.0704C17.7063 30.9998 18.316 30.7538 18.7656 30.3163C19.2152 29.8787 19.4678 29.2853 19.4679 28.6665V12.3335Z" fill="#D9DBDF"/>
<path fill-rule="evenodd" clip-rule="evenodd" d="M10.9359 19.3334C10.9357 18.7147 10.6831 18.1213 10.2335 17.6837C9.78389 17.2462 9.17415 17.0003 8.53832 17.0001H8.39747C7.76165 17.0003 7.15193 17.2462 6.70236 17.6837C6.25278 18.1213 6.00015 18.7147 6 19.3334V28.6664C6.00013 29.2852 6.25274 29.8786 6.70232 30.3162C7.15189 30.7538 7.76162 30.9997 8.39747 31H8.53832C9.17418 30.9998 9.78393 30.7538 10.2335 30.3162C10.6831 29.8787 10.9357 29.2852 10.9359 28.6664V19.3334Z" fill="white"/>
<path d="M28 5.33353C27.9982 4.71526 27.745 4.12282 27.2958 3.6856C26.8466 3.24837 26.2379 3.0019 25.6025 3H25.4617C24.8263 3.00188 24.2176 3.24835 23.7684 3.68557C23.3192 4.1228 23.066 4.71525 23.0641 5.33353V28.6665C23.0661 29.2847 23.3193 29.8771 23.7685 30.3144C24.2177 30.7516 24.8264 30.9981 25.4617 31H25.6025C26.2378 30.998 26.8465 30.7515 27.2957 30.3143C27.7449 29.8771 27.9981 29.2847 28 28.6665V5.33353Z" fill="#D9DBDF"/>
</svg>
