<svg width="20" height="20" viewBox="0 0 20 20" fill="none" xmlns="http://www.w3.org/2000/svg">
<path d="M14.5104 2H5.47291C4.67644 2 4 2.64237 4 3.47291V16.8363C4 17.478 4.52225 18 5.16416 18C5.48728 18 5.79191 17.874 6.02191 17.6452L9.46675 14.2013C9.60497 14.0623 9.79581 13.9833 9.99166 13.9833C10.1875 13.9833 10.3783 14.0623 10.5166 14.2013L13.9614 17.6452C14.1914 17.874 14.496 18 14.8192 18C15.4611 18 15.9833 17.478 15.9833 16.8363V3.47291C15.9833 2.64237 15.3069 2 14.5104 2Z" fill="#13B086"/>
<path d="M14.5109 2H9.99219V13.9833C10.188 13.9833 10.3789 14.0623 10.5171 14.2013L13.9619 17.6452C14.1919 17.874 14.4966 18 14.8197 18C15.4616 18 15.9838 17.478 15.9838 16.8364V3.47291C15.9838 2.64237 15.3074 2 14.5109 2Z" fill="#158466"/>
</svg>
