<svg width="30" height="31" viewBox="0 0 30 31" fill="none" xmlns="http://www.w3.org/2000/svg">
<path fill-rule="evenodd" clip-rule="evenodd" d="M24.6484 14.4118L24.6484 23.4031C24.6484 24.0472 24.123 24.5725 23.4789 24.5725H6.52109C5.87695 24.5725 5.35156 24.0471 5.35156 23.403V14.4118C5.35156 14.0525 5.49645 13.7433 5.7725 13.5133L14.2514 6.44927C14.6891 6.08462 15.3109 6.08462 15.7486 6.44927L24.2275 13.5133C24.5036 13.7433 24.6484 14.0525 24.6484 14.4118Z" fill="#2A6253"/>
<path fill-rule="evenodd" clip-rule="evenodd" d="M22.243 22.322H7.75781V10.8481C7.75781 10.6364 7.83207 10.4543 7.98012 10.3029C9.11004 9.1477 9.84816 8.39301 10.1943 8.0391C10.3465 7.88348 10.5339 7.80469 10.7516 7.80469H21.8531C22.0678 7.80469 22.243 7.9798 22.243 8.19453V22.322Z" fill="#EFF4F7"/>
<path fill-rule="evenodd" clip-rule="evenodd" d="M10.0066 10.4709C10.2361 10.4709 10.4238 10.2834 10.4238 10.0536V7.875C10.3404 7.91383 10.2638 7.96875 10.1945 8.03961L7.98035 10.3034C7.9293 10.3556 7.88699 10.4115 7.85352 10.4709H10.0066Z" fill="#E2E3E3"/>
<path fill-rule="evenodd" clip-rule="evenodd" d="M19.2447 9.64558C19.3937 9.55996 19.5839 9.61136 19.6695 9.76035C19.7552 9.90933 19.7038 10.0995 19.5548 10.1852L18.7005 10.6784C18.5515 10.764 18.3613 10.7126 18.2757 10.5636C18.1901 10.4146 18.2415 10.2244 18.3904 10.1388L19.2447 9.64558ZM17.9759 8.45695L17.4779 9.31937C17.3923 9.46836 17.4437 9.65855 17.5927 9.74418C17.7417 9.8298 17.9319 9.77843 18.0175 9.62941L18.5154 8.76699C18.6011 8.618 18.5497 8.42781 18.4007 8.34218C18.2517 8.2566 18.0615 8.30797 17.9759 8.45695ZM19.9515 11.2553C20.1234 11.2553 20.2627 11.3947 20.2627 11.5666C20.2627 11.7385 20.1234 11.8779 19.9515 11.8779H18.9556C18.7837 11.8779 18.6443 11.7385 18.6443 11.5666C18.6443 11.3947 18.7837 11.2553 18.9556 11.2553H19.9515Z" fill="#13B086"/>
<path fill-rule="evenodd" clip-rule="evenodd" d="M12.9177 14.1953L12.1104 14.9198L13.6763 17.6321C13.748 17.7563 13.9077 17.7991 14.0318 17.7274L14.5003 17.4569C14.6245 17.3852 14.6672 17.2255 14.5955 17.1014L12.9177 14.1953Z" fill="#2D4853"/>
<path fill-rule="evenodd" clip-rule="evenodd" d="M12.4209 15.1652L11.3016 13.5234L10.5434 13.9611C10.0715 14.2336 9.90835 14.8426 10.1808 15.3145C10.4533 15.7864 11.0623 15.9496 11.5342 15.6771L12.4209 15.1652Z" fill="#2D4853"/>
<path fill-rule="evenodd" clip-rule="evenodd" d="M17.3601 12.1004C17.7758 11.8604 17.9195 11.324 17.6795 10.9083C17.4395 10.4927 16.903 10.3489 16.4874 10.5889C16.0718 10.8289 15.928 11.3653 16.168 11.781C16.408 12.1967 16.9444 12.3404 17.3601 12.1004Z" fill="#2D4853"/>
<path fill-rule="evenodd" clip-rule="evenodd" d="M12.0993 12.1779L10.7579 12.9523C10.5004 13.101 10.4117 13.4321 10.5604 13.6896L11.712 15.6842C11.8606 15.9417 12.1918 16.0304 12.4492 15.8818L13.7906 15.1073L17.9813 14.1825C18.0897 14.1493 18.1693 14.0757 18.2108 13.9703C18.2523 13.8648 18.2443 13.7567 18.1876 13.6585L15.5525 9.09433C15.4958 8.99613 15.4062 8.93515 15.2941 8.91839C15.182 8.90163 15.0785 8.93374 14.9955 9.01101L12.0993 12.1779Z" fill="#13B086"/>
<path fill-rule="evenodd" clip-rule="evenodd" d="M14.8366 8.60517C14.6282 8.72553 14.5561 8.99451 14.6765 9.20299L17.6552 14.3624C17.7756 14.5708 18.0446 14.6429 18.253 14.5226C18.4615 14.4022 18.5335 14.1333 18.4132 13.9248L15.4344 8.76533C15.3141 8.55689 15.0451 8.48482 14.8366 8.60517Z" fill="#158466"/>
<path fill-rule="evenodd" clip-rule="evenodd" d="M11.7119 15.686C11.8605 15.9434 12.1917 16.0321 12.4491 15.8835C12.8962 15.6254 13.3434 15.3672 13.7905 15.1091C13.2267 14.1326 12.6629 13.1561 12.0992 12.1797L10.7578 12.9541C10.5006 13.1027 10.4117 13.434 10.5603 13.6914C10.9442 14.3562 11.328 15.0211 11.7119 15.686Z" fill="#158466"/>
<path fill-rule="evenodd" clip-rule="evenodd" d="M5.45348 13.9258C5.38605 14.0739 5.35156 14.2373 5.35156 14.4127V23.4039C5.35156 23.7189 5.47727 24.0056 5.68105 24.2162C5.89395 24.4363 6.19199 24.5734 6.52109 24.5734H23.4789C23.808 24.5734 24.1061 24.4363 24.3189 24.2163C24.5227 24.0056 24.6484 23.719 24.6484 23.4039L24.6484 14.4127C24.6484 14.2373 24.6139 14.0739 24.5465 13.9258L15.6005 19.2794C15.221 19.5065 14.7789 19.5065 14.3994 19.2794L5.45348 13.9258Z" fill="#13B086"/>
<path fill-rule="evenodd" clip-rule="evenodd" d="M11.7164 17.6719L5.68066 24.2141C5.89355 24.4341 6.1916 24.5713 6.5207 24.5713H23.4785C23.8076 24.5713 24.1057 24.4341 24.3185 24.2141L18.2828 17.6719L15.6001 19.2773C15.2206 19.5044 14.7785 19.5044 14.399 19.2773L11.7164 17.6719Z" fill="#2A6253"/>
</svg>
