<svg width="40" height="41" viewBox="0 0 40 41" fill="none" xmlns="http://www.w3.org/2000/svg">
<g clip-path="url(#clip0_2303_11459)">
<path fill-rule="evenodd" clip-rule="evenodd" d="M29.6309 19.4877L29.6308 28.9285C29.6308 29.6048 29.0792 30.1564 28.4029 30.1564H10.5971C9.9208 30.1564 9.36914 29.6047 9.36914 28.9284V19.4877C9.36914 19.1104 9.52127 18.7857 9.81112 18.5442L18.714 11.127C19.1736 10.7441 19.8265 10.7441 20.2861 11.127L29.1889 18.5442C29.4787 18.7857 29.6309 19.1104 29.6309 19.4877Z" fill="#2A6253"/>
<path fill-rule="evenodd" clip-rule="evenodd" d="M27.1049 27.7901H11.8955V15.7424C11.8955 15.5202 11.9735 15.3289 12.1289 15.17C13.3153 13.957 14.0904 13.1646 14.4538 12.793C14.6137 12.6296 14.8104 12.5469 15.039 12.5469H26.6956C26.921 12.5469 27.1049 12.7307 27.1049 12.9562V27.7901Z" fill="#EFF4F7"/>
<path fill-rule="evenodd" clip-rule="evenodd" d="M14.2568 15.3468C14.4978 15.3468 14.6949 15.15 14.6949 14.9087V12.6211C14.6073 12.6619 14.5269 12.7195 14.4541 12.7939L12.1293 15.171C12.0757 15.2257 12.0312 15.2844 11.9961 15.3468H14.2568Z" fill="#E2E3E3"/>
<path fill-rule="evenodd" clip-rule="evenodd" d="M23.9572 14.4824C24.1137 14.3924 24.3134 14.4464 24.4033 14.6029C24.4932 14.7593 24.4392 14.959 24.2828 15.0489L23.3858 15.5668C23.2293 15.6567 23.0296 15.6027 22.9397 15.4463C22.8498 15.2898 22.9038 15.0901 23.0602 15.0002L23.9572 14.4824ZM22.6249 13.2343L22.1021 14.1398C22.0122 14.2963 22.0662 14.496 22.2226 14.5859C22.379 14.6758 22.5787 14.6218 22.6686 14.4654L23.1915 13.5598C23.2814 13.4034 23.2274 13.2037 23.071 13.1138C22.9145 13.0239 22.7148 13.0779 22.6249 13.2343ZM24.6993 16.1726C24.8798 16.1726 25.0261 16.3189 25.0261 16.4994C25.0261 16.6799 24.8798 16.8263 24.6993 16.8263H23.6537C23.4732 16.8263 23.3268 16.6799 23.3268 16.4994C23.3268 16.3189 23.4732 16.1726 23.6537 16.1726H24.6993Z" fill="#13B086"/>
<path fill-rule="evenodd" clip-rule="evenodd" d="M17.3136 19.2617L16.4658 20.0224L18.1101 22.8704C18.1854 23.0007 18.353 23.0457 18.4833 22.9704L18.9753 22.6864C19.1056 22.6111 19.1505 22.4435 19.0753 22.3132L17.3136 19.2617Z" fill="#2D4853"/>
<path fill-rule="evenodd" clip-rule="evenodd" d="M16.7914 20.2785L15.6161 18.5547L14.8201 19.0143C14.3246 19.3004 14.1533 19.9398 14.4394 20.4353C14.7254 20.9308 15.3649 21.1021 15.8604 20.8161L16.7914 20.2785Z" fill="#2D4853"/>
<path fill-rule="evenodd" clip-rule="evenodd" d="M21.9773 17.0607C22.4137 16.8087 22.5647 16.2455 22.3127 15.809C22.0607 15.3726 21.4974 15.2216 21.061 15.4736C20.6245 15.7256 20.4736 16.2889 20.7256 16.7253C20.9775 17.1618 21.5408 17.3127 21.9773 17.0607Z" fill="#2D4853"/>
<path fill-rule="evenodd" clip-rule="evenodd" d="M16.4532 17.1419L15.0448 17.955C14.7745 18.1111 14.6813 18.4588 14.8374 18.7292L16.0466 20.8235C16.2026 21.0938 16.5504 21.187 16.8207 21.0309L18.2291 20.2177L22.6294 19.2467C22.7432 19.2119 22.8267 19.1346 22.8703 19.0239C22.914 18.9131 22.9055 18.7996 22.846 18.6966L20.0791 13.9041C20.0196 13.801 19.9255 13.737 19.8078 13.7194C19.6901 13.7018 19.5814 13.7355 19.4944 13.8166L16.4532 17.1419Z" fill="#13B086"/>
<path fill-rule="evenodd" clip-rule="evenodd" d="M19.328 13.3893C19.1092 13.5157 19.0335 13.7981 19.1598 14.017L22.2876 19.4344C22.4139 19.6533 22.6964 19.729 22.9152 19.6026C23.1341 19.4763 23.2098 19.1938 23.0834 18.975L19.9557 13.5575C19.8293 13.3386 19.5469 13.263 19.328 13.3893Z" fill="#158466"/>
<path fill-rule="evenodd" clip-rule="evenodd" d="M16.0465 20.8222C16.2025 21.0926 16.5503 21.1857 16.8206 21.0296C17.2901 20.7586 17.7596 20.4875 18.229 20.2165C17.6371 19.1912 17.0451 18.1659 16.4532 17.1406L15.0447 17.9538C14.7746 18.1097 14.6813 18.4577 14.8373 18.7279C15.2404 19.426 15.6435 20.1241 16.0465 20.8222Z" fill="#158466"/>
<path fill-rule="evenodd" clip-rule="evenodd" d="M9.47615 18.9766C9.40536 19.1321 9.36914 19.3037 9.36914 19.4878V28.9286C9.36914 29.2593 9.50113 29.5604 9.71511 29.7816C9.93864 30.0126 10.2516 30.1566 10.5971 30.1566H28.4029C28.7484 30.1566 29.0614 30.0126 29.2849 29.7816C29.4988 29.5604 29.6308 29.2594 29.6308 28.9286L29.6309 19.4878C29.6309 19.3037 29.5946 19.1321 29.5238 18.9766L20.1305 24.5978C19.732 24.8363 19.2679 24.8363 18.8693 24.5978L9.47615 18.9766Z" fill="#13B086"/>
<path fill-rule="evenodd" clip-rule="evenodd" d="M16.0523 22.9141L9.71484 29.7834C9.93838 30.0144 10.2513 30.1584 10.5969 30.1584H28.4026C28.7481 30.1584 29.0611 30.0144 29.2846 29.7834L22.9471 22.9141L20.1303 24.5997C19.7318 24.8382 19.2676 24.8382 18.8691 24.5997L16.0523 22.9141Z" fill="#2A6253"/>
</g>
<defs>
<clipPath id="clip0_2303_11459">
<rect width="21" height="21" fill="white" transform="translate(9 10)"/>
</clipPath>
</defs>
</svg>
