<svg width="16" height="15" viewBox="0 0 16 15" fill="none" xmlns="http://www.w3.org/2000/svg">
<g clip-path="url(#clip0_837_12782)">
<path d="M2.81087 1.25806C1.8281 1.25806 1.18555 1.90332 1.18555 2.75143C1.18555 3.58081 1.80896 4.24448 2.77316 4.24448H2.79181C3.79381 4.24448 4.41738 3.58081 4.41738 2.75143C4.39865 1.90332 3.79381 1.25806 2.81087 1.25806Z" fill="white"/>
<path d="M1.35547 5.42188H4.22852V14.0646H1.35547V5.42188Z" fill="white"/>
<path d="M11.2807 5.2207C9.73078 5.2207 8.69149 6.67694 8.69149 6.67694V5.42355H5.81836V14.0663H8.69132V9.23984C8.69132 8.98145 8.71006 8.72348 8.78597 8.53871C8.99366 8.02276 9.46632 7.48825 10.26 7.48825C11.2997 7.48825 11.7155 8.28082 11.7155 9.44268V14.0663H14.5883V9.11069C14.5883 6.45602 13.1708 5.2207 11.2807 5.2207Z" fill="white"/>
</g>
<defs>
<clipPath id="clip0_837_12782">
<rect width="14.2959" height="14.2943" fill="white" transform="translate(0.746094 0.5354)"/>
</clipPath>
</defs>
</svg>
