<svg width="120" height="28" viewBox="0 0 120 28" fill="none" xmlns="http://www.w3.org/2000/svg">
<path d="M5.95369 12.6464H19.29V17.674H5.95369V12.6464ZM6.42998 27.5359H0V0.464087H20.9967V5.49171H6.42998V27.5359Z" fill="white"/>
<path d="M38.5734 28C36.3771 28 34.3397 27.6519 32.4609 26.9558C30.6087 26.2597 28.9946 25.2799 27.6186 24.0166C26.2691 22.7532 25.2107 21.2707 24.4433 19.5691C23.7024 17.8674 23.3319 16.0111 23.3319 14C23.3319 11.989 23.7024 10.1326 24.4433 8.43094C25.2107 6.72928 26.2823 5.24678 27.6583 3.98343C29.0343 2.72007 30.6484 1.74033 32.5006 1.0442C34.3529 0.348066 36.3639 0 38.5337 0C40.7299 0 42.741 0.348066 44.5668 1.0442C46.419 1.74033 48.0199 2.72007 49.3694 3.98343C50.7454 5.24678 51.817 6.72928 52.5844 8.43094C53.3518 10.1068 53.7355 11.9632 53.7355 14C53.7355 16.0111 53.3518 17.8803 52.5844 19.6077C51.817 21.3094 50.7454 22.7919 49.3694 24.0553C48.0199 25.2928 46.419 26.2597 44.5668 26.9558C42.741 27.6519 40.7432 28 38.5734 28ZM38.5337 22.663C39.7774 22.663 40.9152 22.4567 41.9471 22.0442C43.0056 21.6317 43.9317 21.0387 44.7255 20.2652C45.5194 19.4917 46.128 18.5764 46.5513 17.5193C47.0012 16.4622 47.2261 15.2891 47.2261 14C47.2261 12.7109 47.0012 11.5378 46.5513 10.4807C46.128 9.42357 45.5194 8.50829 44.7255 7.73481C43.9582 6.96132 43.0453 6.36832 41.9868 5.9558C40.9284 5.54328 39.7774 5.33702 38.5337 5.33702C37.29 5.33702 36.139 5.54328 35.0806 5.9558C34.0486 6.36832 33.1357 6.96132 32.3419 7.73481C31.548 8.50829 30.9262 9.42357 30.4764 10.4807C30.053 11.5378 29.8413 12.7109 29.8413 14C29.8413 15.2634 30.053 16.4365 30.4764 17.5193C30.9262 18.5764 31.5348 19.4917 32.3022 20.2652C33.096 21.0387 34.0221 21.6317 35.0806 22.0442C36.139 22.4567 37.29 22.663 38.5337 22.663Z" fill="white"/>
<path d="M72.0629 28C69.8666 28 67.8292 27.6519 65.9504 26.9558C64.0982 26.2597 62.4841 25.2799 61.1081 24.0166C59.7586 22.7532 58.7002 21.2707 57.9328 19.5691C57.1919 17.8674 56.8214 16.0111 56.8214 14C56.8214 11.989 57.1919 10.1326 57.9328 8.43094C58.7002 6.72928 59.7718 5.24678 61.1478 3.98343C62.5238 2.72007 64.1379 1.74033 65.9901 1.0442C67.8424 0.348066 69.8534 0 72.0232 0C74.2194 0 76.2305 0.348066 78.0563 1.0442C79.9085 1.74033 81.5094 2.72007 82.8589 3.98343C84.2349 5.24678 85.3065 6.72928 86.0739 8.43094C86.8413 10.1068 87.2249 11.9632 87.2249 14C87.2249 16.0111 86.8413 17.8803 86.0739 19.6077C85.3065 21.3094 84.2349 22.7919 82.8589 24.0553C81.5094 25.2928 79.9085 26.2597 78.0563 26.9558C76.2305 27.6519 74.2327 28 72.0629 28ZM72.0232 22.663C73.2668 22.663 74.4047 22.4567 75.4366 22.0442C76.4951 21.6317 77.4212 21.0387 78.215 20.2652C79.0089 19.4917 79.6175 18.5764 80.0408 17.5193C80.4907 16.4622 80.7156 15.2891 80.7156 14C80.7156 12.7109 80.4907 11.5378 80.0408 10.4807C79.6175 9.42357 79.0089 8.50829 78.215 7.73481C77.4477 6.96132 76.5348 6.36832 75.4763 5.9558C74.4179 5.54328 73.2668 5.33702 72.0232 5.33702C70.7795 5.33702 69.6285 5.54328 68.5701 5.9558C67.5381 6.36832 66.6252 6.96132 65.8314 7.73481C65.0375 8.50829 64.4157 9.42357 63.9659 10.4807C63.5425 11.5378 63.3308 12.7109 63.3308 14C63.3308 15.2634 63.5425 16.4365 63.9659 17.5193C64.4157 18.5764 65.0243 19.4917 65.7917 20.2652C66.5855 21.0387 67.5116 21.6317 68.5701 22.0442C69.6285 22.4567 70.7795 22.663 72.0232 22.663Z" fill="white"/>
<path d="M92.0574 27.5359V0.464087H104.679C107.696 0.464087 110.355 1.03131 112.657 2.16575C114.959 3.2744 116.759 4.83425 118.055 6.8453C119.352 8.85635 120 11.2413 120 14C120 16.733 119.352 19.1179 118.055 21.1547C116.759 23.1657 114.959 24.7385 112.657 25.8729C110.355 26.9816 107.696 27.5359 104.679 27.5359H92.0574ZM98.4873 22.3923H104.362C106.214 22.3923 107.815 22.0571 109.164 21.3867C110.54 20.6906 111.599 19.7109 112.34 18.4475C113.107 17.1842 113.491 15.7017 113.491 14C113.491 12.2726 113.107 10.7901 112.34 9.55248C111.599 8.28913 110.54 7.32228 109.164 6.65193C107.815 5.9558 106.214 5.60774 104.362 5.60774H98.4873V22.3923Z" fill="white"/>
</svg>
