<svg width="16" height="16" viewBox="0 0 16 16" fill="none" xmlns="http://www.w3.org/2000/svg">
<g clip-path="url(#clip0_837_12764)">
<path d="M15.9337 3.69236C15.3767 3.93664 14.7833 4.09856 14.1646 4.17718C14.8011 3.79719 15.2869 3.20006 15.5153 2.48032C14.9218 2.83411 14.2666 3.084 13.5683 3.22346C13.0048 2.62352 12.2017 2.25195 11.3256 2.25195C9.62571 2.25195 8.25722 3.63153 8.25722 5.32277C8.25722 5.56611 8.27781 5.80009 8.32836 6.02285C5.77577 5.89837 3.5171 4.6751 1.99978 2.81164C1.73488 3.27119 1.5795 3.79719 1.5795 4.36343C1.5795 5.42665 2.12708 6.36914 2.94331 6.9148C2.45002 6.90544 1.96608 6.76224 1.5561 6.53668C1.5561 6.54604 1.5561 6.5582 1.5561 6.57037C1.5561 8.06226 2.62038 9.30144 4.01601 9.5869C3.76609 9.65522 3.4937 9.68798 3.21102 9.68798C3.01445 9.68798 2.81601 9.67675 2.62974 9.63557C3.02755 10.8514 4.15642 11.7452 5.4987 11.7742C4.45408 12.5913 3.12771 13.0836 1.69182 13.0836C1.44003 13.0836 1.19853 13.0723 0.957031 13.0414C2.3171 13.9184 3.92896 14.4191 5.66719 14.4191C11.3171 14.4191 14.4061 9.73946 14.4061 5.6831C14.4061 5.54739 14.4014 5.41636 14.3948 5.28626C15.0042 4.85386 15.5162 4.31382 15.9337 3.69236Z" fill="white"/>
</g>
<defs>
<clipPath id="clip0_837_12764">
<rect width="14.9767" height="14.975" fill="white" transform="translate(0.957031 0.845703)"/>
</clipPath>
</defs>
</svg>
