<svg width="16" height="17" viewBox="0 0 16 17" fill="none" xmlns="http://www.w3.org/2000/svg">
<g clip-path="url(#clip0_837_12777)">
<path d="M15.0307 5.01011C14.8615 4.38133 14.3657 3.88567 13.737 3.71636C12.5883 3.4021 7.99354 3.4021 7.99354 3.4021C7.99354 3.4021 3.39896 3.4021 2.2503 3.70444C1.63363 3.87357 1.12573 4.38142 0.956582 5.01011C0.654297 6.15856 0.654297 8.54029 0.654297 8.54029C0.654297 8.54029 0.654297 10.934 0.956582 12.0705C1.12591 12.6992 1.62154 13.1948 2.25039 13.3641C3.41106 13.6785 7.99372 13.6785 7.99372 13.6785C7.99372 13.6785 12.5883 13.6785 13.737 13.3761C14.3658 13.2069 14.8615 12.7113 15.0308 12.0826C15.333 10.934 15.333 8.55238 15.333 8.55238C15.333 8.55238 15.3451 6.15856 15.0307 5.01011ZM6.53067 10.7406V6.33996L10.3514 8.54029L6.53067 10.7406Z" fill="white"/>
</g>
<defs>
<clipPath id="clip0_837_12777">
<rect width="15.6574" height="15.6557" fill="white" transform="translate(0.171875 0.849609)"/>
</clipPath>
</defs>
</svg>
