<svg width="24" height="24" viewBox="0 0 24 24" fill="none" xmlns="http://www.w3.org/2000/svg">
<g clip-path="url(#clip0_427_10124)">
<path d="M12.502 4.29612C12.502 4.29612 14.374 0.417537 18.8453 0.869675C19.0447 0.891859 19.2255 0.997321 19.343 1.16003C19.8345 1.81489 20.0868 2.61833 20.0579 3.43662C19.9734 4.93092 14.4559 6.08197 14.4559 6.08197L13.2866 5.84969L12.502 4.29612Z" fill="#FEC444"/>
<path d="M17.1658 4.89203C16.0244 5.31866 14.8161 5.53821 13.5977 5.54044C15.2252 4.06932 17.2976 3.18416 19.4856 3.0255C19.7435 3.0043 19.8399 3.29934 19.6625 3.48776C19.2627 3.91112 18.2463 4.47968 17.1658 4.89203Z" fill="#EBA723"/>
<path d="M12.4996 4.29612C12.4996 4.29612 10.6275 0.417537 6.15625 0.869675C5.95681 0.891859 5.77601 0.997321 5.65855 1.16003C5.16703 1.81489 4.91475 2.61833 4.94364 3.43662C5.02816 4.93092 10.5456 6.08197 10.5456 6.08197L11.715 5.84969L12.4996 4.29612Z" fill="#FEC444"/>
<path d="M7.83518 4.89203C8.97656 5.31866 10.1849 5.53821 11.4033 5.54044C10.4931 4.73072 9.44615 4.08926 8.31142 3.64601C7.4126 3.31076 6.47159 3.10197 5.51536 3.0255C5.25753 3.0043 5.1611 3.29934 5.33852 3.48776C5.73694 3.91112 6.75613 4.47968 7.83518 4.89203Z" fill="#EBA723"/>
<path d="M12.3816 6.99374C13.1566 6.99374 13.7848 6.36554 13.7848 5.59062C13.7848 4.8157 13.1566 4.1875 12.3816 4.1875C11.6067 4.1875 10.9785 4.8157 10.9785 5.59062C10.9785 6.36554 11.6067 6.99374 12.3816 6.99374Z" fill="#EBA723"/>
<path d="M1.05339 5.58984H23.7081C23.867 5.58984 23.9958 5.71868 23.9958 5.87761V9.61939C23.9958 9.77832 23.867 9.90716 23.7081 9.90716H1.05339C0.894466 9.90716 0.765625 9.77832 0.765625 9.61939V5.87761C0.765625 5.71868 0.894466 5.58984 1.05339 5.58984Z" fill="white"/>
<path d="M22.8516 9.11621V23.3642C22.8511 23.5229 22.7225 23.6515 22.5638 23.652H2.19987C2.04116 23.6515 1.91258 23.5229 1.91211 23.3642V9.11621H22.8516Z" fill="white"/>
<path d="M1.91211 9.90723H22.8519V10.9145H1.91211V9.90723Z" fill="#B9B9B9"/>
<path d="M10.6973 5.58984H14.0659V23.6511H10.6973V5.58984Z" fill="#FEC444"/>
<path d="M10.6973 9.90723H14.0677V10.9145H10.6973V9.90723Z" fill="#EBA723"/>
</g>
<defs>
<clipPath id="clip0_427_10124">
<rect width="23.2303" height="23.2303" fill="white" transform="translate(0.765625 0.625977)"/>
</clipPath>
</defs>
</svg>
