<svg width="40" height="40" viewBox="0 0 40 40" fill="none" xmlns="http://www.w3.org/2000/svg">
<path d="M26.2909 12.7015C26.1892 12.7098 26.0841 12.6909 25.9866 12.641C25.7078 12.4983 25.5974 12.1566 25.7401 11.8777L30.3524 3.82843C30.4951 3.54962 30.8369 3.43922 31.1157 3.58191C31.3945 3.72453 31.5049 4.06626 31.3622 4.34514L26.7499 12.3944C26.6571 12.5758 26.4801 12.6859 26.2909 12.7015ZM30.8837 12.2843L34.211 6.91529C34.376 6.64904 34.294 6.29937 34.0277 6.13445C33.7614 5.96952 33.4118 6.05149 33.2469 6.31775L29.9196 11.6867C29.7546 11.953 29.8366 12.3026 30.1029 12.4676C30.1959 12.5253 30.2992 12.5527 30.4011 12.5527C30.5909 12.5527 30.7764 12.4575 30.8837 12.2843Z" fill="#FFC143"/>
<path d="M19.8832 7.52671C19.921 7.83766 19.6996 8.1204 19.3888 8.15828C19.3655 8.16108 19.3423 8.16252 19.3194 8.16252C19.0368 8.16252 18.7922 7.95154 18.7571 7.66388L18.2019 3.10615C18.172 2.85978 18.3056 2.62249 18.5319 2.52048C18.758 2.41855 19.0246 2.47556 19.1891 2.66121L21.7278 5.52325L21.3586 2.71838C21.3177 2.40781 21.5363 2.12295 21.8468 2.08204C22.1574 2.04128 22.4422 2.25975 22.4831 2.57031L23.0633 6.97749C23.1011 7.287 22.959 7.55855 22.7018 7.6747C22.4498 7.78843 22.1611 7.72037 21.9661 7.50108L19.548 4.77492L19.8832 7.52671ZM7.71244 17.0058C7.41851 16.8969 7.09229 17.0466 6.9834 17.3401C6.85893 17.6755 6.72493 18.0347 6.61944 18.3149L2.84656 16.891C2.55376 16.7803 2.22626 16.9282 2.1157 17.2213C2.00507 17.5143 2.15298 17.8416 2.44601 17.9521L6.74603 19.5751C6.81159 19.5999 6.87934 19.6117 6.94612 19.6117C7.14242 19.6117 7.33087 19.5094 7.4353 19.3318C7.46623 19.279 7.48679 19.2442 8.04683 17.7348C8.1558 17.4412 8.00607 17.1148 7.71244 17.0058ZM16.8227 7.6725L15.5368 8.09476L15.1797 7.00713L16.331 6.62911C16.6286 6.53141 16.7906 6.21093 16.6929 5.91337C16.5952 5.61581 16.2751 5.45376 15.9771 5.55146L14.8258 5.92948L14.4687 4.84192L15.7546 4.41966C16.0522 4.32196 16.2142 4.00149 16.1165 3.70385C16.0188 3.40621 15.6982 3.24431 15.4007 3.34193L13.576 3.94114C13.2783 4.03884 13.1164 4.35932 13.2141 4.65688L13.9241 6.81952C13.9244 6.82035 13.9247 6.82126 13.925 6.82217C13.9253 6.8233 13.9257 6.82436 13.9261 6.82549L14.636 8.98745C14.683 9.13037 14.7847 9.24879 14.919 9.3167C14.9991 9.35715 15.0868 9.37772 15.1749 9.37772C15.2345 9.37772 15.2941 9.36834 15.3518 9.34944L17.1766 8.75031C17.4742 8.65261 17.6362 8.33213 17.5385 8.03457C17.4408 7.73701 17.1205 7.5748 16.8227 7.6725ZM6.68062 21.3404C6.20406 20.8862 5.52009 20.6023 4.75467 20.541C4.60486 20.5289 4.45627 20.577 4.34163 20.6745C4.22714 20.772 4.15606 20.911 4.14411 21.061L4.03424 22.4327C4.00921 22.7449 4.24204 23.0183 4.55427 23.0433C4.86658 23.0681 5.1398 22.8354 5.16483 22.5232L5.22449 21.7791C5.49203 21.8644 5.72259 21.9942 5.89803 22.1615C6.18486 22.4348 6.31273 22.7923 6.27817 23.2238C6.24119 23.6852 6.02674 24.1045 5.67435 24.4047C5.32196 24.7048 4.87369 24.8497 4.41241 24.8127C3.95106 24.7757 3.53175 24.5613 3.23162 24.209C2.93148 23.8566 2.7866 23.4084 2.82357 22.947C2.85133 22.6008 2.97995 22.2751 3.19562 22.0052C3.39117 21.7605 3.35132 21.4036 3.10654 21.2081C2.86191 21.0126 2.50499 21.0525 2.30944 21.2972C1.95198 21.7446 1.73881 22.2838 1.69299 22.8564C1.63174 23.6198 1.87153 24.3613 2.36812 24.9443C2.86471 25.5274 3.55852 25.8822 4.32197 25.9434C4.40009 25.9496 4.47805 25.9527 4.55564 25.9527C5.23553 25.9527 5.88661 25.7139 6.4099 25.2682C6.993 24.7717 7.34773 24.0778 7.40891 23.3144C7.47031 22.5476 7.21162 21.8465 6.68062 21.3404ZM9.5106 11.7492L6.9499 9.8942C6.69619 9.71045 6.34161 9.76709 6.15786 10.0208C5.9741 10.2744 6.03082 10.629 6.28445 10.8127L8.84522 12.6678C9.0255 12.7984 9.2212 13.018 9.13318 13.5615C9.10603 13.7294 9.03926 13.8846 8.92923 14.0361C8.809 14.2016 8.66411 14.3162 8.48633 14.3862C8.06513 14.5522 7.84251 14.4877 7.63818 14.3396L5.07476 12.4827C4.82106 12.2989 4.46648 12.3555 4.28273 12.6092C4.09897 12.8629 4.15568 13.2174 4.40931 13.4012L6.97281 15.2582C7.39106 15.5612 7.85914 15.6722 8.36958 15.5906C8.54237 15.563 8.72007 15.5133 8.90224 15.4415C9.28162 15.2921 9.59945 15.0435 9.8471 14.7027C10.061 14.4081 10.1976 14.0851 10.253 13.7425C10.4272 12.6657 9.94541 12.0642 9.5106 11.7492ZM10.3871 7.30514L10.8879 6.80439C11.1093 6.58291 11.1093 6.22386 10.8879 6.00237C10.6663 5.78089 10.3072 5.78089 10.0858 6.00237L8.28942 7.79871C8.06793 8.0202 8.06793 8.37924 8.28942 8.60073C8.4002 8.71151 8.54539 8.76687 8.6905 8.76687C8.83562 8.76687 8.98081 8.71151 9.09159 8.60073L9.58508 8.10724L12.4367 10.9588C12.5475 11.0696 12.6927 11.125 12.8378 11.125C12.9829 11.125 13.1281 11.0696 13.2389 10.9588C13.4603 10.7374 13.4603 10.3783 13.2389 10.1568L10.3871 7.30514ZM24.3287 34.1985L23.2832 34.6442L22.8496 33.6272L24.0304 33.1239C24.3185 33.001 24.4525 32.6679 24.3297 32.3798C24.2069 32.0917 23.8741 31.9576 23.5856 32.0805L21.883 32.8062C21.7447 32.8652 21.6354 32.9767 21.5792 33.1163C21.5231 33.2558 21.5246 33.412 21.5837 33.5504L23.3744 37.7509C23.4664 37.9665 23.6759 38.0958 23.8964 38.0958C23.9705 38.0958 24.046 38.0812 24.1186 38.0502C24.4068 37.9274 24.5407 37.5943 24.4179 37.3061L23.728 35.6878L24.7735 35.2421C25.0616 35.1192 25.1956 34.7861 25.0728 34.498C24.95 34.2098 24.6171 34.0757 24.3287 34.1985ZM34.5425 29.1764C34.2838 28.9994 33.931 29.0659 33.7542 29.3244L32.9903 30.4417L32.0453 29.7956L32.7293 28.7952C32.9061 28.5366 32.8398 28.1837 32.5812 28.0069C32.3226 27.8301 31.9697 27.8965 31.7929 28.155L31.1089 29.1553L30.164 28.5091L30.928 27.3919C31.1048 27.1334 31.0385 26.7805 30.7799 26.6037C30.5212 26.4267 30.1684 26.4932 29.9916 26.7517L28.9076 28.3371C28.7308 28.5956 28.7971 28.9485 29.0556 29.1253L32.8182 31.6981C32.9131 31.763 33.0248 31.7971 33.1383 31.7971C33.1731 31.7971 33.2082 31.7939 33.243 31.7873C33.3908 31.7595 33.5216 31.6742 33.6065 31.55L34.6905 29.9646C34.8674 29.706 34.801 29.3531 34.5425 29.1764ZM37.1127 25.4175C36.854 25.2407 36.5012 25.307 36.3244 25.5656L35.5604 26.6828L34.6156 26.0367L35.2995 25.0363C35.4763 24.7778 35.41 24.4248 35.1515 24.248C34.8928 24.0712 34.5399 24.1376 34.3631 24.3961L33.6792 25.3964L32.7343 24.7503L33.4983 23.6331C33.6751 23.3746 33.6088 23.0217 33.3502 22.8449C33.0916 22.668 32.7388 22.7344 32.5619 22.9929L31.4778 24.5783C31.393 24.7024 31.3608 24.8553 31.3886 25.0031C31.4163 25.1509 31.5017 25.2817 31.6259 25.3666L35.3884 27.9393C35.4863 28.0063 35.5978 28.0384 35.708 28.0384C35.8891 28.0384 36.0668 27.952 36.1767 27.7913L37.2608 26.206C37.4376 25.9472 37.3713 25.5943 37.1127 25.4175ZM31.1912 33.6922C31.1399 33.9647 30.9019 34.1547 30.6345 34.1547C30.5997 34.1547 30.5645 34.1515 30.529 34.1449L28.3065 33.7272L29.121 34.7696C29.3138 35.0164 29.2701 35.3728 29.0233 35.5656C28.9196 35.6466 28.7966 35.6859 28.6744 35.6859C28.5059 35.6859 28.339 35.6111 28.2272 35.4679L25.3949 31.8433C25.2021 31.5964 25.2458 31.24 25.4926 31.0472C25.4928 31.0471 25.493 31.0469 25.4932 31.0468C25.4934 31.0466 25.4936 31.0465 25.4938 31.0463L26.457 30.2937C27.2522 29.6723 28.386 29.7897 28.9846 30.5557C29.2777 30.9308 29.398 31.4042 29.3232 31.8885C29.2773 32.1854 29.1614 32.4628 28.987 32.701L30.7386 33.0303C31.0464 33.0879 31.249 33.3844 31.1912 33.6922ZM28.0907 31.254C27.881 30.9856 27.4527 30.955 27.1554 31.1874L26.6405 31.5898C26.792 31.7826 26.9518 31.986 27.0284 32.0841C27.1185 32.1994 27.2734 32.396 27.4184 32.5796C27.6066 32.431 27.8097 32.271 27.9292 32.1776C28.0749 32.0638 28.1743 31.8953 28.2021 31.7152C28.2287 31.5436 28.189 31.3799 28.0907 31.254Z" fill="white"/>
<path d="M30.8667 12.7803C29.7855 14.6767 27.8873 15.8155 25.8675 16.0065C25.003 14.1711 25.0163 11.9576 26.0975 10.0612C27.1787 8.1648 29.0768 7.02598 31.0967 6.83496C31.961 8.67039 31.9478 10.8839 30.8667 12.7803Z" fill="#FFF261"/>
<path d="M34.915 2.18343L31.43 7.69933C31.9315 9.33853 31.7823 11.173 30.8661 12.7797C29.9198 14.4394 28.3477 15.5189 26.6159 15.8905C26.3982 14.2713 26.6905 12.5703 27.5622 11.0414C28.101 10.0965 29.6301 8.42687 29.7046 8.30648L33.9508 1.58581C34.1158 1.31955 34.4655 1.23758 34.7317 1.4025C34.9978 1.56743 35.0799 1.91709 34.915 2.18343Z" fill="#FFF587"/>
<path d="M28.5668 5.85289L24.6865 10.2842C25.6484 11.6059 26.1113 13.2916 25.8491 15.0358C25.5246 17.1944 24.165 18.9413 22.35 19.8479C20.8818 18.4478 20.0957 16.3785 20.4202 14.2198C20.6382 12.7692 21.3237 11.5045 22.3007 10.5558C22.7776 10.0928 26.482 6.51198 26.482 6.51198L27.7135 5.10562C27.9199 4.87006 28.2781 4.84617 28.5138 5.05261C28.7494 5.2589 28.7731 5.61718 28.5668 5.85289Z" fill="#FFB509"/>
<path d="M24.4507 18.1759C23.4909 16.8549 23.0294 15.1708 23.2912 13.4286C23.4713 12.2309 23.9699 11.16 24.6882 10.2891C25.648 11.6101 26.1096 13.2942 25.8477 15.0364C25.6677 16.2341 25.169 17.305 24.4507 18.1759Z" fill="#FFC143"/>
<path d="M33.0146 15.4211C32.6923 17.4242 31.432 19.244 29.4692 20.1992C27.5063 21.1545 25.2966 21.0233 23.5215 20.041C23.8438 18.0379 25.104 16.218 27.0669 15.2628C29.0297 14.3076 31.2395 14.4388 33.0146 15.4211Z" fill="#FFC143"/>
<path d="M22.855 19.2062C22.5305 21.365 21.1708 23.1118 19.3559 24.0184C17.8877 22.6183 17.1015 20.5489 17.426 18.3902C17.7505 16.2315 19.1101 14.4847 20.9251 13.5781C22.3933 14.9782 23.1794 17.0475 22.855 19.2062Z" fill="#FFF261"/>
<path d="M21.3953 22.4217C20.4201 21.0961 19.9492 19.3992 20.2131 17.6432C20.3983 16.4109 20.9209 15.3129 21.6729 14.4287C22.648 15.7543 23.119 17.4512 22.8551 19.2072C22.6699 20.4395 22.1473 21.5375 21.3953 22.4217Z" fill="#FFF587"/>
<path d="M35.0825 10.045L34.2961 12.1157C34.2961 12.1157 32.6948 16.7154 32.4292 17.2545C31.8187 18.4934 30.8072 19.5464 29.4692 20.1975C27.5063 21.1528 25.2966 21.0216 23.5215 20.0393C23.6563 19.2011 23.9555 18.3951 24.4015 17.671C25.9624 18.2116 27.7296 18.1559 29.3322 17.376C30.4736 16.8205 31.9992 14.9667 32.0001 14.967L34.0221 9.64237C34.1334 9.34942 34.4613 9.20234 34.7537 9.31342C35.0464 9.42466 35.1936 9.75216 35.0825 10.045Z" fill="#FFB509"/>
<path d="M29.8342 20.8195C29.2117 22.7504 27.6899 24.3579 25.6048 25.0043C23.5198 25.6506 21.3556 25.1855 19.75 23.9453C20.3725 22.0143 21.8943 20.4067 23.9794 19.7605C26.0644 19.1142 28.2287 19.5792 29.8342 20.8195Z" fill="#FFF587"/>
<path d="M28.8464 20.1907C28.0603 21.2368 26.9494 22.0541 25.6041 22.4711C23.9213 22.9927 22.1869 22.7905 20.7363 22.0409C21.5225 20.9948 22.6332 20.1775 23.9787 19.7605C25.6615 19.2388 27.3958 19.4412 28.8464 20.1907Z" fill="#FFF69A"/>
<path d="M26.1711 25.3126C25.367 27.1752 23.6986 28.6301 21.5614 29.0743C19.4242 29.5185 17.3142 28.8488 15.8345 27.4609C15.8589 27.4042 15.8842 27.348 15.9103 27.2921C15.7547 27.3669 15.5961 27.4354 15.4347 27.4975C14.1069 25.9636 13.5221 23.8286 14.0512 21.7108C14.5804 19.593 16.1008 17.984 17.994 17.2549C19.3218 18.7888 19.9067 20.9238 19.3775 23.0416C19.2765 23.4456 19.1395 23.831 18.9707 24.1955C19.4302 23.9758 19.9233 23.8075 20.4443 23.6992C22.5815 23.255 24.6914 23.9246 26.1711 25.3126Z" fill="#FFC143"/>
<path d="M26.1711 25.3126C25.367 27.1752 23.6986 28.6301 21.5614 29.0743C19.4242 29.5185 17.3142 28.8488 15.8345 27.4609C15.8589 27.4042 15.8843 27.348 15.9103 27.2921C15.7547 27.3669 15.5961 27.4354 15.4347 27.4975C14.1069 25.9636 13.5221 23.8286 14.0512 21.7108C14.5804 19.593 16.1008 17.984 17.994 17.2549C18.2218 17.518 18.4276 17.7988 18.6098 18.0942C17.806 18.8942 17.2031 19.9165 16.9081 21.097C16.5386 22.5759 16.7124 24.0632 17.303 25.3483C17.3391 25.3138 17.3756 25.2796 17.4126 25.2458C18.8541 26.3699 20.7616 26.8769 22.6914 26.4758C23.8653 26.2319 24.8976 25.683 25.7231 24.9293C25.878 25.05 26.0275 25.1779 26.1711 25.3126Z" fill="#FFB509"/>
<path d="M15.9812 26.5245C15.4403 28.3633 14.0482 29.7199 12.3609 30.291C11.2514 28.8972 10.8157 27.0029 11.3566 25.1641C11.8975 23.3252 13.2895 21.9686 14.9769 21.3975C16.0863 22.7914 16.5221 24.6856 15.9812 26.5245Z" fill="#FFF261"/>
<path d="M21.539 28.6552C20.7661 30.2602 19.2497 31.4762 17.3585 31.7886C15.4673 32.1009 13.6405 31.4371 12.3926 30.1658C12.6865 29.5553 13.0881 29.0012 13.5769 28.5316C13.2286 27.4771 13.1863 26.3095 13.5234 25.1635C13.8792 23.9539 14.6033 22.953 15.5375 22.2471C16.2176 23.5129 16.4192 25.0364 15.9817 26.5239C15.9086 26.7725 15.8198 27.0123 15.717 27.2426C15.9923 27.1518 16.2781 27.0811 16.573 27.0324C18.4642 26.72 20.291 27.3839 21.539 28.6552Z" fill="#FFF587"/>
<path d="M20.7339 27.9749C19.8977 28.9515 18.7261 29.65 17.3584 29.8759C15.8414 30.1264 14.3659 29.7489 13.1973 28.9335C14.0335 27.957 15.2051 27.2584 16.5728 27.0325C18.0898 26.7821 19.5653 27.1597 20.7339 27.9749Z" fill="#FFF69A"/>
<path d="M29.2315 11.3919C27.2757 15.5863 23.8151 20.2798 19.4872 24.6077C15.2153 28.8797 10.5873 32.3065 6.43448 34.2753C6.15393 34.0086 5.8814 33.7336 5.61719 33.4507C5.66536 33.3991 5.72404 33.3557 5.79202 33.324C14.22 29.3942 24.2737 19.3405 28.2035 10.9125C28.3359 10.6286 28.6735 10.5059 28.9573 10.6382C29.2411 10.7705 29.3639 11.108 29.2315 11.3919Z" fill="#FFB509"/>
</svg>
