<svg width="15" height="15" viewBox="0 0 15 15" fill="none" xmlns="http://www.w3.org/2000/svg">
<g clip-path="url(#clip0_427_10288)">
<path d="M14.4851 5.90815L14.4853 5.9087C14.5223 6.0226 14.4881 6.1465 14.3979 6.2255L14.3974 6.22585L11.1249 9.0953L10.9011 9.2916L10.967 9.58194L11.9319 13.8325C11.9584 13.9497 11.9131 14.07 11.8161 14.1403L11.8161 14.1403C11.7192 14.2105 11.5918 14.2156 11.491 14.1549L11.4898 14.1542L7.75666 11.9222L7.50012 11.7688L7.24357 11.9222L3.50903 14.1542L3.50881 14.1543C3.45999 14.1835 3.40803 14.1971 3.35686 14.1971C3.29705 14.1971 3.23657 14.1787 3.18285 14.1399C3.08679 14.0705 3.04096 13.9508 3.06754 13.8325C3.06757 13.8324 3.06759 13.8323 3.06761 13.8322L4.03249 9.58194L4.0984 9.29163L3.87458 9.09534L0.602055 6.22531L0.601106 6.22449C0.512143 6.14686 0.477624 6.02312 0.514746 5.90896C0.5518 5.79501 0.651714 5.71515 0.77068 5.70406C0.770757 5.70405 0.770835 5.70404 0.770912 5.70403L5.10019 5.311L5.39747 5.28401L5.51476 5.00951L7.22647 1.00377C7.22653 1.00365 7.22658 1.00353 7.22663 1.00341C7.27449 0.892195 7.3817 0.822266 7.50008 0.822266C7.61863 0.822266 7.72591 0.892396 7.77367 1.00308C7.77373 1.00321 7.77379 1.00334 7.77384 1.00348L9.48538 5.00949L9.60266 5.284L9.89995 5.31099L14.2294 5.70411L14.2297 5.70414C14.3485 5.71485 14.4485 5.79489 14.4851 5.90815Z" stroke="#158466"/>
</g>
<defs>
<clipPath id="clip0_427_10288">
<rect width="15" height="15" fill="white"/>
</clipPath>
</defs>
</svg>
