<svg width="10" height="11" viewBox="0 0 10 11" fill="none" xmlns="http://www.w3.org/2000/svg">
<g clip-path="url(#clip0_427_10202)">
<path d="M0.488373 10.5001C0.391786 10.5001 0.297365 10.4715 0.21705 10.4178C0.136736 10.3642 0.0741379 10.2879 0.0371735 10.1987C0.000209163 10.1094 -0.00946059 10.0112 0.00938739 9.9165C0.0282354 9.82177 0.0747543 9.73476 0.14306 9.66647L9.1665 0.643033C9.25808 0.551451 9.38229 0.5 9.51181 0.5C9.64133 0.5 9.76554 0.551451 9.85712 0.643033C9.9487 0.734616 10.0002 0.858828 10.0002 0.988346C10.0002 1.11786 9.9487 1.24208 9.85712 1.33366L0.833685 10.3571C0.78838 10.4025 0.734551 10.4385 0.675292 10.463C0.616033 10.4876 0.55251 10.5002 0.488373 10.5001Z" fill="#3B454C"/>
<path d="M9.51178 10.5001C9.44765 10.5002 9.38412 10.4876 9.32486 10.463C9.2656 10.4385 9.21178 10.4025 9.16647 10.3571L0.143033 1.33366C0.0514506 1.24208 0 1.11786 0 0.988346C0 0.858828 0.0514506 0.734616 0.143033 0.643033C0.234616 0.551451 0.358828 0.5 0.488346 0.5C0.617863 0.5 0.742076 0.551451 0.833658 0.643033L9.8571 9.66647C9.9254 9.73476 9.97192 9.82177 9.99077 9.9165C10.0096 10.0112 9.99995 10.1094 9.96298 10.1987C9.92602 10.2879 9.86342 10.3642 9.7831 10.4178C9.70279 10.4715 9.60837 10.5001 9.51178 10.5001Z" fill="#3B454C"/>
</g>
<defs>
<clipPath id="clip0_427_10202">
<rect width="10" height="10" fill="white" transform="translate(0 0.5)"/>
</clipPath>
</defs>
</svg>
