<svg width="23" height="23" viewBox="0 0 23 23" fill="none" xmlns="http://www.w3.org/2000/svg">
<path d="M19.6265 3.36301C15.1425 -1.121 7.84703 -1.121 3.36301 3.36301C-1.121 7.84703 -1.121 15.1425 3.36301 19.6265C7.84703 24.1105 15.1425 24.1105 19.6265 19.6265C24.1105 15.1425 24.1105 7.84703 19.6265 3.36301Z" fill="#158466"/>
<path d="M14.3746 15.7302L11.4946 12.8501L8.61454 15.7302C8.24044 16.1043 7.63343 16.1043 7.25933 15.7302C6.88523 15.3561 6.88523 14.7491 7.25933 14.375L10.1394 11.4949L7.25933 8.61492C6.88523 8.24081 6.88523 7.63381 7.25933 7.25971C7.63343 6.88561 8.24044 6.88561 8.61454 7.25971L11.4946 10.1397L14.3746 7.25971C14.7487 6.88561 15.3557 6.88561 15.7298 7.25971C16.1039 7.63381 16.1039 8.24081 15.7298 8.61492L12.8498 11.4949L15.7298 14.375C16.1039 14.7491 16.1039 15.3561 15.7298 15.7302C15.3557 16.1043 14.7487 16.1043 14.3746 15.7302Z" fill="#FAFAFA"/>
</svg>
