<svg width="15" height="16" viewBox="0 0 15 16" fill="none" xmlns="http://www.w3.org/2000/svg">
<g clip-path="url(#clip0_680_13347)">
<path d="M7.49531 0.5C3.41156 0.5 0.0703125 3.84125 0.0703125 7.925C0.0703125 12.0087 3.41156 15.35 7.49531 15.35C11.5791 15.35 14.9203 12.0087 14.9203 7.925C14.9203 3.84125 11.5791 0.5 7.49531 0.5ZM10.6881 6.143L7.27256 10.598C7.12406 10.7465 6.90131 10.895 6.67856 10.895C6.45581 10.895 6.23306 10.8208 6.08456 10.598L4.30256 8.29625C4.07981 7.99925 4.07981 7.4795 4.45106 7.25675C4.82231 7.034 5.26781 7.034 5.49056 7.40525L6.67856 8.9645L9.50006 5.252C9.72281 4.955 10.2426 4.88075 10.5396 5.1035C10.9108 5.32625 10.9108 5.77175 10.6881 6.143Z" fill="#158466"/>
</g>
<defs>
<clipPath id="clip0_680_13347">
<rect width="16.2" height="16.2" fill="white" transform="translate(-0.601562 0.5)"/>
</clipPath>
</defs>
</svg>
