<svg width="30" height="30" viewBox="0 0 30 30" fill="none" xmlns="http://www.w3.org/2000/svg">
<g clip-path="url(#clip0_267_3371)">
<path d="M25 6.75781C25 5.78699 24.213 5 23.2422 5H6.75781C5.78699 5 5 5.78699 5 6.75781V10.2734C5 10.597 5.26234 10.8594 5.58594 10.8594H24.4141C24.7377 10.8594 25 10.597 25 10.2734V6.75781Z" fill="#13B086"/>
<path d="M23.2422 5H15V10.8594H24.4141C24.7377 10.8594 25 10.597 25 10.2734V6.75781C25 5.78699 24.213 5 23.2422 5Z" fill="#158466"/>
<path d="M8.16406 8.22266H7.38281C7.05922 8.22266 6.79688 7.96031 6.79688 7.63672C6.79688 7.31312 7.05922 7.05078 7.38281 7.05078H8.16406C8.48766 7.05078 8.75 7.31312 8.75 7.63672C8.75 7.96031 8.48766 8.22266 8.16406 8.22266Z" fill="white"/>
<path d="M11.2891 8.22266H10.5078C10.1842 8.22266 9.92188 7.96031 9.92188 7.63672C9.92188 7.31312 10.1842 7.05078 10.5078 7.05078H11.2891C11.6127 7.05078 11.875 7.31312 11.875 7.63672C11.875 7.96031 11.6127 8.22266 11.2891 8.22266Z" fill="white"/>
<path d="M14.4141 8.22266H13.6328C13.3092 8.22266 13.0469 7.96031 13.0469 7.63672C13.0469 7.31312 13.3092 7.05078 13.6328 7.05078H14.4141C14.7377 7.05078 15 7.31312 15 7.63672C15 7.96031 14.7377 8.22266 14.4141 8.22266Z" fill="white"/>
<path d="M5 10.2734V23.2422C5 24.2114 5.78855 25 6.75781 25H23.2422C24.2114 25 25 24.2114 25 23.2422V10.2734H5Z" fill="#F9F9F9"/>
<path d="M15 25H23.2422C24.2114 25 25 24.2114 25 23.2422V10.2734H15V25Z" fill="#13B086" fill-opacity="0.11"/>
<path d="M11.7617 19.7268C11.3329 19.7268 11.3076 19.7224 11.2797 19.7177C11.0922 19.6855 10.9551 19.5229 10.9551 19.3327V15.4297C10.9551 15.2139 11.13 15.0391 11.3457 15.0391C11.5614 15.0391 11.7363 15.2139 11.7363 15.4297V18.9453C12.0009 18.9453 12.3694 18.9439 12.7114 18.942H12.7136C12.9284 18.942 13.103 19.1155 13.1042 19.3305C13.1054 19.5462 12.9315 19.722 12.7158 19.7233C12.2722 19.7257 11.9695 19.7268 11.7617 19.7268Z" fill="#158466"/>
<path d="M9.56324 17.1031C9.72594 16.8873 9.82254 16.619 9.82254 16.3285C9.82254 15.6175 9.24406 15.0391 8.53309 15.0391H7.39844C7.18273 15.0391 7.00781 15.2139 7.00781 15.4297V19.3359C7.00781 19.4398 7.04922 19.5395 7.12281 19.6128C7.19605 19.6857 7.29516 19.7266 7.39844 19.7266H7.40016C7.41063 19.7265 8.44746 19.7219 8.73125 19.7219C9.52641 19.7219 10.1733 19.075 10.1733 18.2798C10.1733 17.7944 9.93195 17.3646 9.56324 17.1031ZM8.53309 15.8203C8.81332 15.8203 9.04129 16.0483 9.04129 16.3285C9.04129 16.6088 8.81332 16.8367 8.53309 16.8367C8.44953 16.8367 7.78902 16.8378 7.78902 16.8378V15.8203H8.53309ZM8.73125 18.9407C8.55996 18.9407 8.11781 18.9423 7.78906 18.9436V17.6203C7.89484 17.6199 8.73125 17.6191 8.73125 17.6191C9.09563 17.6191 9.39207 17.9155 9.39207 18.2799C9.39207 18.6443 9.09563 18.9407 8.73125 18.9407Z" fill="#158466"/>
<path d="M20.916 19.7266C19.6237 19.7266 18.5723 18.6752 18.5723 17.3828C18.5723 16.0905 19.6237 15.0391 20.916 15.0391C21.3856 15.0391 21.8388 15.1775 22.2267 15.4395C22.4054 15.5603 22.4525 15.8031 22.3317 15.9819C22.2109 16.1607 21.968 16.2076 21.7893 16.0869C21.5311 15.9125 21.2291 15.8203 20.916 15.8203C20.0545 15.8203 19.3535 16.5212 19.3535 17.3828C19.3535 18.2443 20.0545 18.9453 20.916 18.9453C21.7021 18.9453 22.0712 18.3763 22.1777 17.7734H21.4335C21.2178 17.7734 21.0429 17.5985 21.0429 17.3828C21.0429 17.167 21.2178 16.9921 21.4335 16.9921H22.602C22.8177 16.9921 22.9927 17.167 22.9927 17.3828C22.9927 18.7628 22.1387 19.7266 20.916 19.7266Z" fill="#158466"/>
<path d="M15.4473 19.7266C14.1549 19.7266 13.1035 18.6752 13.1035 17.3828C13.1035 16.0905 14.1549 15.0391 15.4473 15.0391C16.7396 15.0391 17.791 16.0905 17.791 17.3828C17.791 18.6752 16.7396 19.7266 15.4473 19.7266ZM15.4473 15.8203C14.5857 15.8203 13.8848 16.5213 13.8848 17.3828C13.8848 18.2444 14.5857 18.9453 15.4473 18.9453C16.3088 18.9453 17.0098 18.2444 17.0098 17.3828C17.0098 16.5213 16.3088 15.8203 15.4473 15.8203Z" fill="#158466"/>
<path d="M15.4471 15.0391C15.2942 15.0391 15.1448 15.0543 15 15.0823V15.8858C15.1418 15.8434 15.2918 15.8203 15.4471 15.8203C16.3087 15.8203 17.0096 16.5213 17.0096 17.3828C17.0096 18.2444 16.3087 18.9453 15.4471 18.9453C15.2918 18.9453 15.1417 18.9222 15 18.8798V19.6833C15.1448 19.7114 15.2942 19.7266 15.4471 19.7266C16.7395 19.7266 17.7909 18.6752 17.7909 17.3828C17.7909 16.0905 16.7395 15.0391 15.4471 15.0391Z" fill="#158466"/>
</g>
<defs>
<clipPath id="clip0_267_3371">
<rect width="20" height="20" fill="white" transform="translate(5 5)"/>
</clipPath>
</defs>
</svg>
