<svg width="30" height="30" viewBox="0 0 30 30" fill="none" xmlns="http://www.w3.org/2000/svg">
<path d="M24.9343 11.5996C24.9343 20.9167 25.0253 20.5657 24.7003 21.1334C24.5483 21.3967 24.3298 21.6153 24.0666 21.7674C23.8034 21.9196 23.5049 21.9998 23.2009 22.0001H6.73342C6.27369 22.0001 5.83279 21.8175 5.50771 21.4924C5.18263 21.1673 5 20.7264 5 20.2667V11.5996H24.9343Z" fill="#E2E8EE"/>
<path d="M24.9343 11.5996C24.9343 20.9167 25.0253 20.5657 24.7003 21.1334H10.2002C9.74048 21.1334 9.29958 20.9508 8.9745 20.6257C8.64942 20.3006 8.4668 19.8597 8.4668 19.4V11.5996H24.9343Z" fill="#E2E8EE"/>
<path d="M24.9343 10.7334V11.6001H5V10.7334C5 10.2737 5.18263 9.83279 5.50771 9.50771C5.83279 9.18263 6.27369 9 6.73342 9H23.2009C23.6606 9 24.1015 9.18263 24.4266 9.50771C24.7517 9.83279 24.9343 10.2737 24.9343 10.7334Z" fill="#067557"/>
<path d="M24.9343 10.7334V11.6001H8.4668V10.7334C8.4668 10.2737 8.64942 9.83279 8.9745 9.50771C9.29958 9.18263 9.74048 9 10.2002 9H23.2008C23.6606 9 24.1015 9.18263 24.4266 9.50771C24.7516 9.83279 24.9343 10.2737 24.9343 10.7334Z" fill="#158466"/>
<path d="M10.2002 14.1987V15.0654C10.2002 15.2953 10.1089 15.5158 9.94636 15.6783C9.78382 15.8408 9.56337 15.9322 9.33351 15.9322H8.4668V13.332H9.33351C9.56337 13.332 9.78382 13.4233 9.94636 13.5859C10.1089 13.7484 10.2002 13.9689 10.2002 14.1987Z" fill="#ACB3BA"/>
<path d="M8.46584 13.332V15.9322H7.59913C7.36927 15.9322 7.14881 15.8408 6.98628 15.6783C6.82374 15.5158 6.73242 15.2953 6.73242 15.0654V14.1987C6.73242 13.9689 6.82374 13.7484 6.98628 13.5859C7.14881 13.4233 7.36927 13.332 7.59913 13.332H8.46584Z" fill="#ACB3BA"/>
<path d="M12.8003 18.9663H8.4668V18.0996H12.8003C12.9153 18.0996 13.0255 18.1453 13.1068 18.2265C13.188 18.3078 13.2337 18.418 13.2337 18.533C13.2337 18.6479 13.188 18.7581 13.1068 18.8394C13.0255 18.9207 12.9153 18.9663 12.8003 18.9663Z" fill="#334A5E"/>
<path d="M8.4656 18.0996V18.9663H6.73218C6.61725 18.9663 6.50702 18.9207 6.42575 18.8394C6.34449 18.7581 6.29883 18.6479 6.29883 18.533C6.29883 18.418 6.34449 18.3078 6.42575 18.2265C6.50702 18.1453 6.61725 18.0996 6.73218 18.0996H8.4656Z" fill="#374F68"/>
<path d="M10.2005 20.6997H9.05646C8.79609 20.4706 8.61041 20.1687 8.52344 19.833H10.2005C10.3155 19.833 10.4257 19.8787 10.5069 19.9599C10.5882 20.0412 10.6339 20.1514 10.6339 20.2664C10.6339 20.3813 10.5882 20.4915 10.5069 20.5728C10.4257 20.6541 10.3155 20.6997 10.2005 20.6997Z" fill="#334A5E"/>
<path d="M9.05496 20.6997H6.73218C6.61725 20.6997 6.50702 20.6541 6.42575 20.5728C6.34449 20.4915 6.29883 20.3813 6.29883 20.2664C6.29883 20.1514 6.34449 20.0412 6.42575 19.9599C6.50702 19.8787 6.61725 19.833 6.73218 19.833H8.52194C8.60891 20.1687 8.79459 20.4706 9.05496 20.6997Z" fill="#374F68"/>
<path d="M21.9019 17.668H18.4351C17.9564 17.668 17.5684 18.056 17.5684 18.5347V19.4014C17.5684 19.8801 17.9564 20.2681 18.4351 20.2681H21.9019C22.3806 20.2681 22.7686 19.8801 22.7686 19.4014V18.5347C22.7686 18.056 22.3806 17.668 21.9019 17.668Z" fill="#334A5E"/>
</svg>
