<svg width="30" height="30" viewBox="0 0 30 30" fill="none" xmlns="http://www.w3.org/2000/svg">
<path d="M15.541 7.99985L20.7791 7.99985C21.2679 7.99985 21.6521 8.37223 21.6521 8.84598L21.6521 15.6152L14.668 15.6152L14.668 8.84598C14.668 8.37223 15.0522 7.99985 15.541 7.99985Z" fill="#FF810D"/>
<path d="M14.8413 11.3212C14.8413 10.8537 14.451 10.4751 13.9684 10.4751H8.73041C8.24777 10.4751 7.85742 10.8537 7.85742 11.3212V14.706C7.85742 15.1735 8.24777 15.5521 8.73041 15.5521H14.8413C14.8413 15.5521 14.8413 11.789 14.8413 11.3212Z" fill="#F17300"/>
<path d="M24.5935 14.4085H5.40652C5.18199 14.4085 5 14.2321 5 14.0145V13.2265C5 13.0089 5.18199 12.8325 5.40652 12.8325H24.5935C24.818 12.8325 25 13.0089 25 13.2265V14.0145C25 14.2321 24.818 14.4085 24.5935 14.4085Z" fill="#158466"/>
<path d="M24.593 12.8325H23.5361C23.7606 12.8325 23.9426 13.0089 23.9426 13.2265V14.0145C23.9426 14.2321 23.7606 14.4085 23.5361 14.4085H24.593C24.8175 14.4085 24.9995 14.2321 24.9995 14.0145V13.2265C24.9995 13.0089 24.8175 12.8325 24.593 12.8325Z" fill="#158466"/>
<path d="M6.07715 14.4087L7.34828 21.6976C7.44746 22.2662 7.95602 22.6826 8.5507 22.6826H21.4536C22.0466 22.6826 22.5536 22.2693 22.6552 21.7031L23.9633 14.4087H6.07715V14.4087ZM12.2357 20.3975C12.2357 20.6149 12.0536 20.7915 11.8292 20.7915H11.0162C10.7918 20.7915 10.6096 20.6149 10.6096 20.3975V16.4575C10.6096 16.24 10.7918 16.0635 11.0162 16.0635H11.8292C12.0536 16.0635 12.2357 16.24 12.2357 16.4575V20.3975ZM15.8129 20.3975C15.8129 20.6149 15.6308 20.7915 15.4064 20.7915H14.5934C14.369 20.7915 14.1869 20.6149 14.1869 20.3975V16.4575C14.1869 16.24 14.369 16.0635 14.5934 16.0635H15.4064C15.6308 16.0635 15.8129 16.24 15.8129 16.4575V20.3975ZM19.3902 20.3975C19.3902 20.6149 19.208 20.7915 18.9837 20.7915H18.1707C17.9463 20.7915 17.7641 20.6149 17.7641 20.3975V16.4575C17.7641 16.24 17.9462 16.0635 18.1707 16.0635H18.9837C19.208 16.0635 19.3902 16.24 19.3902 16.4575V20.3975Z" fill="#158466"/>
<path d="M22.8867 14.4087L21.5786 21.7031C21.477 22.2693 20.97 22.6826 20.377 22.6826H21.4542C22.0473 22.6826 22.5542 22.2693 22.6558 21.7031L23.9639 14.4087H22.8867Z" fill="#158466"/>
</svg>
