<svg width="30" height="30" viewBox="0 0 30 30" fill="none" xmlns="http://www.w3.org/2000/svg">
<g clip-path="url(#clip0_267_3411)">
<path d="M17.084 16.2915C15.7746 16.2915 14.709 15.2259 14.709 13.9165C14.709 12.6071 15.7746 11.5416 17.084 11.5416H18.6672V8.37498C18.6672 7.06558 17.6016 6 16.2922 6H7.78195C7.52146 6 7.27765 6.12814 7.12965 6.34268C6.98237 6.55721 6.94917 6.83046 7.04253 7.07341L12.7821 22.115C12.8985 22.4222 13.1929 22.6248 13.5215 22.6248H16.2922C17.6016 22.6248 18.6672 21.5592 18.6672 20.2499V16.2915H17.084Z" fill="#158466"/>
<path d="M20.7379 17.8146C20.4426 17.6918 20.2494 17.4029 20.2494 17.083V14.7081H17.0828C16.6457 14.7081 16.291 14.3535 16.291 13.9164C16.291 13.4794 16.6457 13.1248 17.0828 13.1248H20.2494V10.7499C20.2494 10.4299 20.4426 10.141 20.7379 10.0183C21.0339 9.89563 21.3744 9.96376 21.6006 10.1902L24.7674 13.3568C25.0769 13.6662 25.0769 14.1666 24.7674 14.4761L21.6006 17.6429C21.3744 17.8691 21.0339 17.9373 20.7379 17.8146Z" fill="#607D8B"/>
<path d="M12.8447 7.66444L8.08767 6.07876C7.01412 5.74869 6 6.54117 6 7.5837V21.8336C6 22.5105 6.43067 23.1145 7.07196 23.3362L11.8281 24.9219C12.0031 24.9756 12.1639 25.0003 12.3333 25.0003C13.2065 25.0003 13.9165 24.2901 13.9165 23.4169V9.16707C13.9165 8.49026 13.4859 7.88623 12.8447 7.66444Z" fill="#13B086"/>
</g>
<defs>
<clipPath id="clip0_267_3411">
<rect width="19" height="19" fill="white" transform="translate(6 6)"/>
</clipPath>
</defs>
</svg>
