<svg width="30" height="30" viewBox="0 0 30 30" fill="none" xmlns="http://www.w3.org/2000/svg">
<g clip-path="url(#clip0_267_3317)">
<path d="M14.9993 16.2694C16.1594 16.2694 17.2317 15.9425 18.0895 15.387C18.7539 14.9616 19.6188 15.0319 20.2024 15.5628C21.8231 17.0323 22.7442 19.1171 22.7407 21.3073V22.246C22.7407 23.2163 21.9532 24.0003 20.9829 24.0003H9.01567C8.04535 24.0003 7.25785 23.2163 7.25785 22.246V21.3073C7.25082 19.1206 8.17191 17.0323 9.79262 15.5663C10.3762 15.0354 11.2446 14.9651 11.9055 15.3905C12.7668 15.9425 13.8356 16.2694 14.9993 16.2694Z" fill="#158466"/>
<path d="M14.9988 14.7047C17.4026 14.7047 19.3512 12.7561 19.3512 10.3523C19.3512 7.94861 17.4026 6 14.9988 6C12.5951 6 10.6465 7.94861 10.6465 10.3523C10.6465 12.7561 12.5951 14.7047 14.9988 14.7047Z" fill="#13B086"/>
</g>
<defs>
<clipPath id="clip0_267_3317">
<rect width="18" height="18" fill="white" transform="translate(6 6)"/>
</clipPath>
</defs>
</svg>
