<svg width="30" height="30" viewBox="0 0 30 30" fill="none" xmlns="http://www.w3.org/2000/svg">
<path fill-rule="evenodd" clip-rule="evenodd" d="M14.7878 25.9998C18.5129 25.9998 21.5521 24.9872 21.5521 23.7464C21.5521 22.5049 18.5129 21.4922 14.7878 21.4922C11.0627 21.4922 8.02344 22.5049 8.02344 23.7464C8.02344 24.9872 11.0623 25.9998 14.7878 25.9998Z" fill="#ADD8CC"/>
<path fill-rule="evenodd" clip-rule="evenodd" d="M19.7427 7.04413C22.4669 9.76841 21.8948 13.7552 19.7427 16.9511L14.7887 24.3037L9.83565 16.9511C7.68232 13.7552 7.11055 9.76841 9.83565 7.04413C12.5599 4.31862 17.0176 4.31862 19.7427 7.04413Z" fill="#13B086"/>
<path fill-rule="evenodd" clip-rule="evenodd" d="M14.413 23.7468L9.83566 16.9508C7.68232 13.7549 7.11055 9.76811 9.83566 7.04383C11.197 5.68128 12.9935 5 14.7887 5V23.7468H14.413Z" fill="#158466"/>
<path fill-rule="evenodd" clip-rule="evenodd" d="M17.1617 9.18619C18.4672 10.4905 18.4672 12.6266 17.1617 13.9321C15.8574 15.2365 13.7213 15.2365 12.4157 13.9321C11.1114 12.6266 11.1114 10.4905 12.4157 9.18619C13.7213 7.88065 15.8574 7.88065 17.1617 9.18619Z" fill="white"/>
</svg>
