<svg width="30" height="30" viewBox="0 0 30 30" fill="none" xmlns="http://www.w3.org/2000/svg">
<g clip-path="url(#clip0_430_11177)">
<path d="M13.0805 15.1105L7.29137 9.29918C7.13555 9.14332 6.89059 9.09879 6.69023 9.17672C6.56718 9.2178 6.30285 9.47052 6.17809 9.75566C6.05566 9.97825 6 10.2343 6 10.4904V20.5099C6 20.7659 6.05566 21.022 6.17809 21.2447C6.25602 21.4228 6.37855 21.5786 6.52321 21.7122C7.25493 22.2976 7.52 21.4512 13.0804 15.8898C13.3031 15.6782 13.3031 15.322 13.0805 15.1105Z" fill="#158466"/>
<path d="M18.6985 15.1103C18.498 14.8988 18.1195 14.8988 17.9192 15.1103L15.8633 17.1031C15.752 17.2033 15.6073 17.259 15.4625 17.259C15.3177 17.259 15.173 17.2033 15.0617 17.1031L13.0801 15.1103C12.8797 14.8877 12.5012 14.8877 12.3008 15.1103C11.6996 15.7115 6.82347 20.5988 6.17773 21.2445C6.25566 21.4227 6.3782 21.5785 6.52285 21.712C6.57855 21.7566 6.63422 21.8011 6.70101 21.8234C6.99047 22.0349 7.31332 22.1797 7.66957 22.1797H23.3297C23.686 22.1797 24.0088 22.0349 24.2983 21.8234C24.4987 21.7566 24.7325 21.4449 24.8216 21.2445C24.1758 20.5988 19.2996 15.7115 18.6985 15.1103Z" fill="#158466"/>
<path d="M24.8223 9.75531C24.6034 9.25512 24.0934 8.91427 23.709 9.29883L17.9199 15.1101C17.6973 15.3216 17.6973 15.6779 17.9199 15.8894C18.5154 16.485 23.0969 21.0862 23.709 21.7008C24.0729 22.1052 24.6033 21.7448 24.8223 21.2443C24.9447 21.0216 25.0004 20.7656 25.0004 20.5096V10.49C25.0004 10.234 24.9447 9.9779 24.8223 9.75531Z" fill="#158466"/>
<path d="M24.8219 21.2445C24.7328 21.4449 24.499 21.7566 24.2986 21.8234C24.0092 22.0349 23.6863 22.1797 23.3301 22.1797H15.4629V17.2589C15.6076 17.2589 15.7523 17.2033 15.8637 17.1031L17.9196 15.1103C18.12 14.8988 18.4984 14.8988 18.6989 15.1103C19.3 15.7115 24.1762 20.5988 24.8219 21.2445Z" fill="#158466"/>
<path d="M24.3094 9.17656C24.3094 9.16543 24.2983 9.16543 24.2983 9.16543C24.0088 8.95391 23.686 8.82031 23.3297 8.82031H7.66957C7.31332 8.82031 6.99047 8.95391 6.70101 9.16543C6.70101 9.16543 6.68988 9.16543 6.68988 9.17656C6.56742 9.22106 6.30027 9.46602 6.17773 9.75551C13.9151 17.5039 12.3453 15.9342 14.2825 17.8824C14.5941 18.2164 15.0283 18.3722 15.4625 18.3722C15.8968 18.3722 16.3309 18.2164 16.6426 17.8824C18.5575 15.9564 16.9952 17.593 24.8216 9.75547C24.699 9.46605 24.4319 9.22109 24.3094 9.17656Z" fill="#13B086"/>
<path d="M24.8219 9.75551C16.9955 17.593 18.5578 15.9564 16.643 17.8824C16.3313 18.2164 15.8971 18.3722 15.4629 18.3722V8.82031H23.3301C23.6863 8.82031 24.0092 8.95391 24.2986 9.16543C24.2986 9.16543 24.3098 9.16543 24.3098 9.17656C24.4322 9.22109 24.6994 9.46605 24.8219 9.75551Z" fill="#13B086"/>
</g>
<defs>
<clipPath id="clip0_430_11177">
<rect width="19" height="19" fill="white" transform="translate(6 6)"/>
</clipPath>
</defs>
</svg>
