<svg width="30" height="30" viewBox="0 0 30 30" fill="none" xmlns="http://www.w3.org/2000/svg">
<g clip-path="url(#clip0_267_3350)">
<path d="M14.9993 11.0654L17.391 14.749L21.6334 15.8854L18.8692 19.2983L19.0994 23.6842L14.9993 22.1099L10.8992 23.6842L11.1295 19.2983L8.36523 15.8854L12.6076 14.749L14.9993 11.0654Z" fill="#158466"/>
<path d="M15 11.0654L17.3917 14.749L21.6341 15.8854L18.8699 19.2983L19.1001 23.6842L15 22.1099V11.0654Z" fill="#13B086"/>
<path d="M8.92017 20.0921L9.21141 17.6822L6.89147 18.3967L4.68947 17.375L4.65216 19.8022L3 21.5807L5.29688 22.3663L6.47775 24.4871L7.93463 22.5454L10.3166 22.0777L8.92017 20.0921Z" fill="#13B086"/>
<path d="M25.348 19.8022L25.3107 17.375L23.1087 18.3967L20.7888 17.6822L21.08 20.0921L19.6836 22.0777L22.0655 22.5454L23.5224 24.4871L24.7033 22.3663L27.0002 21.5807L25.348 19.8022Z" fill="#13B086"/>
<path d="M7.5293 10.1914L8.52914 9.20281L11.2025 11.9066L10.2026 12.8952L7.5293 10.1914Z" fill="#158466"/>
<path d="M18.7949 11.9141L21.4682 9.21032L22.4681 10.1989L19.7948 12.9027L18.7949 11.9141Z" fill="#158466"/>
<path d="M14.2969 5.5127H15.7031V9.09376H14.2969V5.5127Z" fill="#13B086"/>
<path d="M15 5.5127H15.7031V9.09376H15V5.5127Z" fill="#158466"/>
</g>
<defs>
<clipPath id="clip0_267_3350">
<rect width="24" height="24" fill="white" transform="translate(3 3)"/>
</clipPath>
</defs>
</svg>
