<svg width="30" height="30" viewBox="0 0 30 30" fill="none" xmlns="http://www.w3.org/2000/svg">
<path d="M11.1562 6C9.42029 6 8 7.42029 8 9.15621V11.6562C8 12.9726 8.81699 14.1068 9.96874 14.5785V25H12.3438V14.5785C13.4956 14.1068 14.3125 12.9726 14.3125 11.6562V9.15621C14.3125 7.42029 12.8921 6 11.1562 6Z" fill="#13B086"/>
<path d="M20.8847 6V10.5468C20.8847 10.8734 20.6175 11.1406 20.291 11.1406C19.9644 11.1406 19.6972 10.8734 19.6972 10.5468V6H18.3691V10.5468C18.3691 10.8734 18.1019 11.1406 17.7754 11.1406C17.4488 11.1406 17.1816 10.8734 17.1816 10.5468V6H15.877V11.6562C15.877 12.9726 16.6939 14.1068 17.8457 14.5785V25H20.2208V14.5785C21.3725 14.1068 22.1895 12.9726 22.1895 11.6562V6H20.8847Z" fill="#158466"/>
</svg>
