<svg width="40" height="40" viewBox="0 0 40 40" fill="none" xmlns="http://www.w3.org/2000/svg">
<g clip-path="url(#clip0_430_12785)">
<path d="M17.1984 19.5484L10.4953 12.8196C10.3148 12.6391 10.0312 12.5875 9.79922 12.6778C9.65673 12.7253 9.35067 13.018 9.20621 13.3481C9.06445 13.6059 9 13.9023 9 14.1989V25.8004C9 26.0969 9.06445 26.3934 9.20621 26.6512C9.29644 26.8575 9.43832 27.0379 9.60582 27.1925C10.4531 27.8703 10.76 26.8903 17.1984 20.4508C17.4562 20.2059 17.4562 19.7934 17.1984 19.5484Z" fill="#158466"/>
<path d="M23.7047 19.5483C23.4726 19.3034 23.0344 19.3034 22.8024 19.5483L20.4219 21.8558C20.293 21.9717 20.1254 22.0362 19.9578 22.0362C19.7902 22.0362 19.6227 21.9717 19.4938 21.8558L17.1992 19.5483C16.9672 19.2905 16.5289 19.2905 16.2969 19.5483C15.6008 20.2444 9.95473 25.9034 9.20703 26.651C9.29727 26.8573 9.43915 27.0378 9.60664 27.1924C9.67114 27.244 9.73559 27.2956 9.81293 27.3214C10.1481 27.5663 10.5219 27.7339 10.9344 27.7339H29.0672C29.4797 27.7339 29.8536 27.5663 30.1887 27.3214C30.4207 27.244 30.6915 26.883 30.7946 26.651C30.0469 25.9034 24.4008 20.2444 23.7047 19.5483Z" fill="#158466"/>
<path d="M30.793 13.3482C30.5396 12.769 29.949 12.3743 29.5039 12.8196L22.8008 19.5485C22.543 19.7934 22.543 20.2059 22.8008 20.4508C23.4903 21.1404 28.7952 26.4681 29.5039 27.1798C29.9253 27.648 30.5395 27.2307 30.793 26.6512C30.9348 26.3934 30.9992 26.0969 30.9992 25.8005V14.1989C30.9992 13.9024 30.9347 13.6059 30.793 13.3482Z" fill="#158466"/>
<path d="M30.7938 26.6512C30.6906 26.8832 30.4199 27.2442 30.1879 27.3215C29.8527 27.5664 29.4789 27.734 29.0664 27.734H19.957V22.0363C20.1246 22.0363 20.2922 21.9719 20.4211 21.8559L22.8016 19.5484C23.0336 19.3035 23.4719 19.3035 23.7039 19.5484C24.4 20.2446 30.0461 25.9035 30.7938 26.6512Z" fill="#158466"/>
<path d="M30.2016 12.6776C30.2016 12.6647 30.1887 12.6647 30.1887 12.6647C29.8536 12.4198 29.4797 12.2651 29.0672 12.2651H10.9344C10.5219 12.2651 10.1481 12.4198 9.81293 12.6647C9.81293 12.6647 9.80004 12.6647 9.80004 12.6776C9.65825 12.7292 9.34891 13.0128 9.20703 13.348C18.1661 22.3198 16.3485 20.5022 18.5914 22.7581C18.9523 23.1448 19.4551 23.3252 19.9579 23.3252C20.4606 23.3252 20.9634 23.1448 21.3243 22.7581C23.5415 20.528 21.7325 22.4229 30.7946 13.3479C30.6527 13.0128 30.3434 12.7292 30.2016 12.6776Z" fill="#13B086"/>
<path d="M30.7938 13.348C21.7316 22.4229 23.5407 20.528 21.3234 22.7581C20.9625 23.1448 20.4598 23.3252 19.957 23.3252V12.2651H29.0664C29.4789 12.2651 29.8527 12.4198 30.1879 12.6647C30.1879 12.6647 30.2008 12.6647 30.2008 12.6776C30.3426 12.7292 30.6519 13.0128 30.7938 13.348Z" fill="#13B086"/>
</g>
<defs>
<clipPath id="clip0_430_12785">
<rect width="22" height="22" fill="white" transform="translate(9 8.99951)"/>
</clipPath>
</defs>
</svg>
