<svg width="40" height="40" viewBox="0 0 40 40" fill="none" xmlns="http://www.w3.org/2000/svg">
<path d="M30.9998 15.9985C30.9998 26.7485 31.1048 26.3435 30.7298 26.9985C30.5545 27.3022 30.3023 27.5545 29.9987 27.73C29.695 27.9055 29.3506 27.9981 28.9999 27.9985H9.99999C9.46956 27.9985 8.96085 27.7877 8.58578 27.4127C8.21071 27.0376 8 26.5289 8 25.9985V15.9985H30.9998Z" fill="white"/>
<path d="M30.9999 15.9985C30.9999 26.7485 31.1049 26.3435 30.7299 26.9985H14C13.4696 26.9985 12.9609 26.7877 12.5858 26.4127C12.2107 26.0376 12 25.5289 12 24.9985V15.9985H30.9999Z" fill="white"/>
<path d="M30.9998 14.9995V15.9995H8V14.9995C8 14.4691 8.21071 13.9604 8.58578 13.5853C8.96085 13.2102 9.46956 12.9995 9.99999 12.9995H28.9999C29.5303 12.9995 30.039 13.2102 30.4141 13.5853C30.7891 13.9604 30.9998 14.4691 30.9998 14.9995Z" fill="#067557"/>
<path d="M30.9999 14.9995V15.9995H12V14.9995C12 14.4691 12.2107 13.9604 12.5858 13.5853C12.9609 13.2102 13.4696 12.9995 14 12.9995H28.9999C29.5303 12.9995 30.039 13.2102 30.4141 13.5853C30.7892 13.9604 30.9999 14.4691 30.9999 14.9995Z" fill="#158466"/>
<path d="M14 18.9985V19.9985C14 20.2637 13.8946 20.5181 13.7071 20.7056C13.5196 20.8932 13.2652 20.9985 13 20.9985H12V17.9985H13C13.2652 17.9985 13.5196 18.1039 13.7071 18.2914C13.8946 18.479 14 18.7333 14 18.9985Z" fill="#ACB3BA"/>
<path d="M12 17.9985V20.9985H11C10.7348 20.9985 10.4804 20.8932 10.2929 20.7056C10.1054 20.5181 10 20.2637 10 19.9985V18.9985C10 18.7333 10.1054 18.479 10.2929 18.2914C10.4804 18.1039 10.7348 17.9985 11 17.9985H12Z" fill="#ACB3BA"/>
<path d="M17 24.4985H12V23.4985H17C17.1326 23.4985 17.2598 23.5512 17.3535 23.645C17.4473 23.7387 17.5 23.8659 17.5 23.9985C17.5 24.1311 17.4473 24.2583 17.3535 24.3521C17.2598 24.4459 17.1326 24.4985 17 24.4985Z" fill="#334A5E"/>
<path d="M12 23.4985V24.4985H10C9.86739 24.4985 9.74021 24.4459 9.64645 24.3521C9.55268 24.2583 9.5 24.1311 9.5 23.9985C9.5 23.8659 9.55268 23.7387 9.64645 23.645C9.74021 23.5512 9.86739 23.4985 10 23.4985H12Z" fill="#374F68"/>
<path d="M13.9994 26.4995H12.6794C12.379 26.2352 12.1648 25.8869 12.0645 25.4995H13.9994C14.132 25.4995 14.2592 25.5522 14.353 25.646C14.4468 25.7397 14.4994 25.8669 14.4994 25.9995C14.4994 26.1321 14.4468 26.2593 14.353 26.3531C14.2592 26.4468 14.132 26.4995 13.9994 26.4995Z" fill="#334A5E"/>
<path d="M12.68 26.4995H10C9.86739 26.4995 9.74021 26.4468 9.64645 26.3531C9.55268 26.2593 9.5 26.1321 9.5 25.9995C9.5 25.8669 9.55268 25.7397 9.64645 25.646C9.74021 25.5522 9.86739 25.4995 10 25.4995H12.065C12.1653 25.8869 12.3796 26.2352 12.68 26.4995Z" fill="#374F68"/>
<path d="M27.5019 23.0005H23.5019C22.9497 23.0005 22.502 23.4482 22.502 24.0005V25.0005C22.502 25.5528 22.9497 26.0005 23.5019 26.0005H27.5019C28.0542 26.0005 28.5019 25.5528 28.5019 25.0005V24.0005C28.5019 23.4482 28.0542 23.0005 27.5019 23.0005Z" fill="#334A5E"/>
</svg>
