<svg width="40" height="40" viewBox="0 0 40 40" fill="none" xmlns="http://www.w3.org/2000/svg">
<path d="M20.7032 10.0009L27.5129 10.0009C28.1483 10.0009 28.6478 10.485 28.6478 11.1008L28.6478 19.9009L19.5684 19.9009L19.5684 11.1008C19.5684 10.485 20.0678 10.0009 20.7032 10.0009Z" fill="#FF810D"/>
<path d="M19.7939 14.3192C19.7939 13.7114 19.2865 13.2192 18.6591 13.2192H11.8497C11.2223 13.2192 10.7148 13.7114 10.7148 14.3192V18.7194C10.7148 19.3272 11.2223 19.8193 11.8497 19.8193H19.7939C19.7939 19.8193 19.7939 14.9273 19.7939 14.3192Z" fill="#F17300"/>
<path d="M32.4716 18.3325H7.52848C7.23659 18.3325 7 18.1032 7 17.8203V16.7959C7 16.5131 7.23659 16.2837 7.52848 16.2837H32.4716C32.7634 16.2837 33 16.513 33 16.7959V17.8203C33 18.1032 32.7634 18.3325 32.4716 18.3325Z" fill="#158466"/>
<path d="M32.4716 16.2837H31.0977C31.3895 16.2837 31.6261 16.513 31.6261 16.7959V17.8203C31.6261 18.1032 31.3895 18.3325 31.0977 18.3325H32.4716C32.7635 18.3325 33.0001 18.1032 33.0001 17.8203V16.7959C33.0001 16.513 32.7635 16.2837 32.4716 16.2837Z" fill="#158466"/>
<path d="M8.40039 18.3326L10.0529 27.8082C10.1818 28.5473 10.8429 29.0886 11.616 29.0886H28.3897C29.1607 29.0886 29.8197 28.5514 29.9519 27.8153L31.6524 18.3325H8.40039V18.3326ZM16.4065 26.1179C16.4065 26.4007 16.1698 26.6301 15.878 26.6301H14.8211C14.5294 26.6301 14.2926 26.4007 14.2926 26.1179V20.996C14.2926 20.7133 14.5294 20.4838 14.8211 20.4838H15.878C16.1697 20.4838 16.4065 20.7133 16.4065 20.996V26.1179ZM21.0569 26.1179C21.0569 26.4007 20.8202 26.6301 20.5284 26.6301H19.4715C19.1798 26.6301 18.943 26.4007 18.943 26.1179V20.996C18.943 20.7133 19.1798 20.4838 19.4715 20.4838H20.5284C20.8201 20.4838 21.0569 20.7133 21.0569 20.996V26.1179ZM25.7073 26.1179C25.7073 26.4007 25.4706 26.6301 25.1789 26.6301H24.122C23.8303 26.6301 23.5935 26.4007 23.5935 26.1179V20.996C23.5935 20.7133 23.8302 20.4838 24.122 20.4838H25.1789C25.4706 20.4838 25.7073 20.7133 25.7073 20.996V26.1179Z" fill="#158466"/>
<path d="M30.2529 18.3325L28.5524 27.8153C28.4202 28.5513 27.7612 29.0886 26.9902 29.0886H28.3906C29.1616 29.0886 29.8206 28.5514 29.9528 27.8153L31.6533 18.3325H30.2529Z" fill="#158466"/>
</svg>
