<svg width="40" height="40" viewBox="0 0 40 40" fill="none" xmlns="http://www.w3.org/2000/svg">
<g clip-path="url(#clip0_267_3626)">
<path d="M19.5004 20.9797C20.854 20.9797 22.1049 20.5982 23.1057 19.9502C23.8809 19.4539 24.8899 19.5359 25.5707 20.1553C27.4616 21.8697 28.5362 24.3019 28.5321 26.8572V27.9523C28.5321 29.0844 27.6133 29.999 26.4813 29.999H12.5196C11.3875 29.999 10.4688 29.0844 10.4688 27.9523V26.8572C10.4606 24.306 11.5352 21.8697 13.426 20.1594C14.1069 19.54 15.12 19.458 15.8911 19.9543C16.8959 20.5982 18.1428 20.9797 19.5004 20.9797Z" fill="#158466"/>
<path d="M19.4996 19.154C22.304 19.154 24.5773 16.8806 24.5773 14.0763C24.5773 11.2719 22.304 8.99854 19.4996 8.99854C16.6953 8.99854 14.4219 11.2719 14.4219 14.0763C14.4219 16.8806 16.6953 19.154 19.4996 19.154Z" fill="#13B086"/>
</g>
<defs>
<clipPath id="clip0_267_3626">
<rect width="21" height="21" fill="white" transform="translate(9 9.00049)"/>
</clipPath>
</defs>
</svg>
