<svg width="40" height="40" viewBox="0 0 40 40" fill="none" xmlns="http://www.w3.org/2000/svg">
<g clip-path="url(#clip0_283_3753)">
<path d="M20.5006 15.7456L23.3905 20.1966L28.5167 21.5697L25.1766 25.6937L25.4548 30.9933L20.5006 29.091L15.5463 30.9933L15.8245 25.6937L12.4844 21.5697L17.6106 20.1966L20.5006 15.7456Z" fill="#158466"/>
<path d="M20.5 15.7456L23.39 20.1966L28.5162 21.5697L25.1761 25.6937L25.4542 30.9933L20.5 29.091V15.7456Z" fill="#13B086"/>
<path d="M13.1535 26.6528L13.5054 23.7408L10.7022 24.6042L8.04144 23.3696L7.99636 26.3025L6 28.4515L8.77539 29.4007L10.2023 31.9634L11.9627 29.6172L14.8409 29.052L13.1535 26.6528Z" fill="#13B086"/>
<path d="M33.0047 26.3025L32.9596 23.3696L30.2988 24.6042L27.4956 23.7408L27.8475 26.6528L26.1602 29.052L29.0383 29.6172L30.7987 31.9634L32.2256 29.4007L35.001 28.4515L33.0047 26.3025Z" fill="#13B086"/>
<path d="M11.4727 14.689L12.6808 13.4944L15.9111 16.7614L14.7029 17.956L11.4727 14.689Z" fill="#158466"/>
<path d="M25.0859 16.77L28.3162 13.503L29.5243 14.6975L26.2941 17.9646L25.0859 16.77Z" fill="#158466"/>
<path d="M19.6484 9.03564H21.3477V13.3628H19.6484V9.03564Z" fill="#13B086"/>
<path d="M20.5 9.03564H21.3496V13.3628H20.5V9.03564Z" fill="#158466"/>
</g>
<defs>
<clipPath id="clip0_283_3753">
<rect width="29" height="29" fill="white" transform="translate(6 5.99951)"/>
</clipPath>
</defs>
</svg>
