<svg width="40" height="40" viewBox="0 0 40 40" fill="none" xmlns="http://www.w3.org/2000/svg">
<path fill-rule="evenodd" clip-rule="evenodd" d="M20.0802 32.9991C24.5148 32.9991 28.1331 31.7935 28.1331 30.3164C28.1331 28.8384 24.5148 27.6328 20.0802 27.6328C15.6456 27.6328 12.0273 28.8384 12.0273 30.3164C12.0273 31.7935 15.6451 32.9991 20.0802 32.9991Z" fill="#ADD8CC"/>
<path fill-rule="evenodd" clip-rule="evenodd" d="M25.9795 10.4325C29.2227 13.6758 28.5415 18.4219 25.9795 22.2267L20.0819 30.9797L14.1853 22.2267C11.6218 18.4219 10.9411 13.6758 14.1853 10.4325C17.4285 7.18785 22.7353 7.18785 25.9795 10.4325Z" fill="#13B086"/>
<path fill-rule="evenodd" clip-rule="evenodd" d="M19.6346 30.3168L14.1853 22.2263C11.6218 18.4216 10.9411 13.6754 14.1853 10.4322C15.806 8.81007 17.9447 7.99902 20.0819 7.99902V30.3168H19.6346Z" fill="#158466"/>
<path fill-rule="evenodd" clip-rule="evenodd" d="M22.9064 12.9831C24.4606 14.5358 24.4606 17.0788 22.9064 18.633C21.3536 20.1858 18.8106 20.1858 17.2564 18.633C15.7036 17.0788 15.7036 14.5358 17.2564 12.9831C18.8106 11.4288 21.3536 11.4288 22.9064 12.9831Z" fill="white"/>
</svg>
