<svg width="40" height="40" viewBox="0 0 40 40" fill="none" xmlns="http://www.w3.org/2000/svg">
<path d="M30.9998 15.999C30.9998 26.749 31.1048 26.344 30.7298 26.999C30.5545 27.3027 30.3023 27.555 29.9987 27.7305C29.695 27.906 29.3506 27.9986 28.9999 27.9989H9.99999C9.46956 27.9989 8.96085 27.7882 8.58578 27.4132C8.21071 27.0381 8 26.5294 8 25.999V15.999H30.9998Z" fill="white"/>
<path d="M30.9999 15.999C30.9999 26.749 31.1049 26.344 30.7299 26.999H14C13.4696 26.999 12.9609 26.7882 12.5858 26.4132C12.2107 26.0381 12 25.5294 12 24.999V15.999H30.9999Z" fill="white"/>
<path d="M30.9998 15V16H8V15C8 14.4696 8.21071 13.9609 8.58578 13.5858C8.96085 13.2107 9.46956 13 9.99999 13H28.9999C29.5303 13 30.039 13.2107 30.4141 13.5858C30.7891 13.9609 30.9998 14.4696 30.9998 15Z" fill="#067557"/>
<path d="M30.9999 15V16H12V15C12 14.4696 12.2107 13.9609 12.5858 13.5858C12.9609 13.2107 13.4696 13 14 13H28.9999C29.5303 13 30.039 13.2107 30.4141 13.5858C30.7892 13.9609 30.9999 14.4696 30.9999 15Z" fill="#158466"/>
<path d="M14 18.999V19.999C14 20.2642 13.8946 20.5186 13.7071 20.7061C13.5196 20.8936 13.2652 20.999 13 20.999H12V17.999H13C13.2652 17.999 13.5196 18.1044 13.7071 18.2919C13.8946 18.4795 14 18.7338 14 18.999Z" fill="#ACB3BA"/>
<path d="M12 17.999V20.999H11C10.7348 20.999 10.4804 20.8936 10.2929 20.7061C10.1054 20.5186 10 20.2642 10 19.999V18.999C10 18.7338 10.1054 18.4795 10.2929 18.2919C10.4804 18.1044 10.7348 17.999 11 17.999H12Z" fill="#ACB3BA"/>
<path d="M17 24.499H12V23.499H17C17.1326 23.499 17.2598 23.5517 17.3535 23.6455C17.4473 23.7392 17.5 23.8664 17.5 23.999C17.5 24.1316 17.4473 24.2588 17.3535 24.3526C17.2598 24.4463 17.1326 24.499 17 24.499Z" fill="#334A5E"/>
<path d="M12 23.499V24.499H10C9.86739 24.499 9.74021 24.4463 9.64645 24.3526C9.55268 24.2588 9.5 24.1316 9.5 23.999C9.5 23.8664 9.55268 23.7392 9.64645 23.6455C9.74021 23.5517 9.86739 23.499 10 23.499H12Z" fill="#374F68"/>
<path d="M13.9994 26.5H12.6794C12.379 26.2357 12.1648 25.8873 12.0645 25.5H13.9994C14.132 25.5 14.2592 25.5527 14.353 25.6464C14.4468 25.7402 14.4994 25.8674 14.4994 26C14.4994 26.1326 14.4468 26.2598 14.353 26.3535C14.2592 26.4473 14.132 26.5 13.9994 26.5Z" fill="#334A5E"/>
<path d="M12.68 26.5H10C9.86739 26.5 9.74021 26.4473 9.64645 26.3535C9.55268 26.2598 9.5 26.1326 9.5 26C9.5 25.8674 9.55268 25.7402 9.64645 25.6464C9.74021 25.5527 9.86739 25.5 10 25.5H12.065C12.1653 25.8873 12.3796 26.2357 12.68 26.5Z" fill="#374F68"/>
<path d="M27.5019 23.001H23.5019C22.9497 23.001 22.502 23.4487 22.502 24.001V25.001C22.502 25.5532 22.9497 26.001 23.5019 26.001H27.5019C28.0542 26.001 28.5019 25.5532 28.5019 25.001V24.001C28.5019 23.4487 28.0542 23.001 27.5019 23.001Z" fill="#334A5E"/>
</svg>
