<svg width="40" height="40" viewBox="0 0 40 40" fill="none" xmlns="http://www.w3.org/2000/svg">
<g clip-path="url(#clip0_430_17364)">
<path d="M33 9.28516C33 8.02309 31.9769 7 30.7148 7H9.28516C8.02309 7 7 8.02309 7 9.28516V13.8555C7 14.2761 7.34105 14.6172 7.76172 14.6172H32.2383C32.659 14.6172 33 14.2761 33 13.8555V9.28516Z" fill="#13B086"/>
<path d="M30.7148 7H20V14.6172H32.2383C32.659 14.6172 33 14.2761 33 13.8555V9.28516C33 8.02309 31.9769 7 30.7148 7Z" fill="#158466"/>
<path d="M11.1133 11.1895H10.0977C9.67698 11.1895 9.33594 10.8484 9.33594 10.4277C9.33594 10.0071 9.67698 9.66602 10.0977 9.66602H11.1133C11.534 9.66602 11.875 10.0071 11.875 10.4277C11.875 10.8484 11.534 11.1895 11.1133 11.1895Z" fill="white"/>
<path d="M15.1758 11.1895H14.1602C13.7395 11.1895 13.3984 10.8484 13.3984 10.4277C13.3984 10.0071 13.7395 9.66602 14.1602 9.66602H15.1758C15.5965 9.66602 15.9375 10.0071 15.9375 10.4277C15.9375 10.8484 15.5965 11.1895 15.1758 11.1895Z" fill="white"/>
<path d="M19.2383 11.1895H18.2227C17.802 11.1895 17.4609 10.8484 17.4609 10.4277C17.4609 10.0071 17.802 9.66602 18.2227 9.66602H19.2383C19.659 9.66602 20 10.0071 20 10.4277C20 10.8484 19.659 11.1895 19.2383 11.1895Z" fill="white"/>
<path d="M7 13.8555V30.7148C7 31.9749 8.02512 33 9.28516 33H30.7148C31.9749 33 33 31.9749 33 30.7148V13.8555H7Z" fill="#F9F9F9"/>
<path d="M20 33H30.7148C31.9749 33 33 31.9749 33 30.7148V13.8555H20V33Z" fill="#13B086" fill-opacity="0.11"/>
<path d="M15.7869 26.1448C15.2294 26.1448 15.1965 26.1391 15.1603 26.133C14.9165 26.0912 14.7383 25.8798 14.7383 25.6325V20.5586C14.7383 20.2781 14.9657 20.0508 15.2461 20.0508C15.5265 20.0508 15.7539 20.2781 15.7539 20.5586V25.1289C16.0979 25.1289 16.5769 25.1271 17.0215 25.1246H17.0244C17.3035 25.1246 17.5306 25.3501 17.5322 25.6296C17.5337 25.91 17.3077 26.1386 17.0272 26.1403C16.4505 26.1435 16.0571 26.1448 15.7869 26.1448Z" fill="#158466"/>
<path d="M12.9314 22.734C13.1429 22.4534 13.2685 22.1047 13.2685 21.7271C13.2685 20.8028 12.5165 20.0508 11.5922 20.0508H10.1172C9.83677 20.0508 9.60938 20.2781 9.60938 20.5586V25.6367C9.60938 25.7718 9.6632 25.9013 9.75888 25.9966C9.85409 26.0914 9.98292 26.1445 10.1172 26.1445H10.1194C10.133 26.1445 11.4809 26.1385 11.8498 26.1385C12.8835 26.1385 13.7245 25.2975 13.7245 24.2638C13.7245 23.6327 13.4108 23.0739 12.9314 22.734ZM11.5922 21.0664C11.9565 21.0664 12.2529 21.3628 12.2529 21.7271C12.2529 22.0914 11.9565 22.3877 11.5922 22.3877C11.4836 22.3877 10.6249 22.3891 10.6249 22.3891V21.0664H11.5922ZM11.8498 25.1229C11.6272 25.1229 11.0524 25.125 10.625 25.1267V23.4064C10.7625 23.4058 11.8498 23.4048 11.8498 23.4048C12.3235 23.4048 12.7089 23.7902 12.7089 24.2638C12.7089 24.7375 12.3235 25.1229 11.8498 25.1229Z" fill="#158466"/>
<path d="M27.6934 26.1445C26.0133 26.1445 24.6465 24.7777 24.6465 23.0977C24.6465 21.4176 26.0133 20.0508 27.6934 20.0508C28.3038 20.0508 28.893 20.2308 29.3972 20.5714C29.6296 20.7284 29.6907 21.0441 29.5337 21.2764C29.3768 21.5089 29.0609 21.5699 28.8287 21.413C28.493 21.1863 28.1004 21.0664 27.6934 21.0664C26.5733 21.0664 25.6621 21.9776 25.6621 23.0976C25.6621 24.2176 26.5733 25.1289 27.6934 25.1289C28.7153 25.1289 29.1951 24.3892 29.3335 23.6054H28.3661C28.0856 23.6054 27.8582 23.3781 27.8582 23.0976C27.8582 22.8171 28.0856 22.5898 28.3661 22.5898H29.8852C30.1656 22.5898 30.393 22.8171 30.393 23.0976C30.393 24.8916 29.2829 26.1445 27.6934 26.1445Z" fill="#158466"/>
<path d="M20.584 26.1445C18.9039 26.1445 17.5371 24.7777 17.5371 23.0977C17.5371 21.4176 18.9039 20.0508 20.584 20.0508C22.264 20.0508 23.6309 21.4176 23.6309 23.0977C23.6309 24.7777 22.264 26.1445 20.584 26.1445ZM20.584 21.0664C19.464 21.0664 18.5527 21.9776 18.5527 23.0977C18.5527 24.2177 19.464 25.1289 20.584 25.1289C21.704 25.1289 22.6152 24.2177 22.6152 23.0977C22.6152 21.9776 21.704 21.0664 20.584 21.0664Z" fill="#158466"/>
<path d="M20.5812 20.0508C20.3824 20.0508 20.1882 20.0705 20 20.107V21.1516C20.1843 21.0964 20.3793 21.0664 20.5812 21.0664C21.7013 21.0664 22.6125 21.9776 22.6125 23.0977C22.6125 24.2177 21.7013 25.1289 20.5812 25.1289C20.3793 25.1289 20.1842 25.0988 20 25.0437V26.0883C20.1883 26.1248 20.3825 26.1445 20.5812 26.1445C22.2613 26.1445 23.6281 24.7777 23.6281 23.0977C23.6281 21.4176 22.2613 20.0508 20.5812 20.0508Z" fill="#158466"/>
</g>
<defs>
<clipPath id="clip0_430_17364">
<rect width="26" height="26" fill="white" transform="translate(7 7)"/>
</clipPath>
</defs>
</svg>
