<svg width="72" height="26" viewBox="0 0 72 26" fill="none" xmlns="http://www.w3.org/2000/svg">
<path d="M13.1531 3.35225C12.307 4.22896 10.9591 4.92368 9.61343 4.82192C9.43566 3.63992 10.1062 2.37378 10.8803 1.58904C11.7242 0.694717 13.2004 0.0528376 14.3975 0C14.5393 1.23483 13.9857 2.44814 13.1554 3.35225H13.1531ZM14.384 5.05479C12.4285 4.95108 10.7498 6.03131 9.82271 6.03131C8.87534 6.03131 7.45542 5.10567 5.90948 5.13699C3.90449 5.15851 2.03001 6.1546 1.01064 7.75734C-1.11137 10.9452 0.45932 15.6654 2.49807 18.2642C3.49494 19.5479 4.68758 20.955 6.26052 20.9158C7.74796 20.863 8.34653 20.0607 10.14 20.0607C11.956 20.0607 12.4713 20.9159 14.0555 20.8845C15.6824 20.863 16.713 19.6008 17.7099 18.317C18.8463 16.8591 19.3144 15.4305 19.3391 15.3601C19.3144 15.3288 16.1865 14.2798 16.164 11.1194C16.1392 8.46771 18.6235 7.20548 18.7293 7.13307C17.3341 5.29941 15.1311 5.10568 14.3818 5.05675L14.384 5.05479ZM25.6714 1.46575V20.7515H29.0805V14.1585H33.7949C38.0951 14.1585 41.1195 11.5597 41.1195 7.80822C41.1195 4.04892 38.1559 1.46771 33.9119 1.46771L25.6714 1.46575ZM29.0805 3.99413H33.0073C35.9596 3.99413 37.6496 5.37965 37.6496 7.81605C37.6496 10.2524 35.9596 11.6497 32.9848 11.6497H29.0805V3.99413ZM47.328 20.8943C49.4725 20.8943 51.4528 19.9472 52.3574 18.4364H52.4294V20.7515H55.5798V11.1487C55.5798 8.37769 53.0505 6.57534 49.1462 6.57534C45.5368 6.57534 42.8635 8.39922 42.7712 10.8963H45.8293C46.0881 9.7045 47.3303 8.92955 49.054 8.92955C51.14 8.92955 52.3011 9.78474 52.3011 11.3562V12.4149L48.0593 12.6399C44.0966 12.8532 41.9634 14.2701 41.9634 16.7476C41.9634 19.2446 44.1686 20.8963 47.3303 20.8963L47.328 20.8943ZM48.2551 18.6106C46.4369 18.6106 45.278 17.8454 45.278 16.6751C45.278 15.4618 46.3919 14.7476 48.5117 14.6341L52.2989 14.4305V15.5205C52.2989 17.3268 50.5526 18.6106 48.2416 18.6106H48.2551ZM59.7878 26C63.1024 26 64.6641 24.8787 66.0233 21.5049L72 6.76712H68.5436L64.5359 18.1507H64.4638L60.4561 6.76712H56.8939L62.6614 20.8023L62.3553 21.6575C61.8265 23.0959 60.9849 23.6536 59.484 23.6536C59.214 23.6536 58.6986 23.6243 58.4871 23.6047V25.9198C58.6851 25.9687 59.5312 25.9902 59.7765 25.9902L59.7878 26Z" fill="#4D5363"/>
</svg>
