<svg width="13" height="14" viewBox="0 0 13 14" fill="none" xmlns="http://www.w3.org/2000/svg">
<path fill-rule="evenodd" clip-rule="evenodd" d="M11.833 1.16694C12.1258 1.45983 12.1258 1.9347 11.833 2.2276L1.75668 12.3039C1.46379 12.5968 0.988913 12.5968 0.69602 12.3039C0.403126 12.011 0.403127 11.5361 0.69602 11.2432L10.7723 1.16694C11.0652 0.874042 11.5401 0.874042 11.833 1.16694Z" fill="#212121"/>
<path fill-rule="evenodd" clip-rule="evenodd" d="M0.700138 2.75603C0.407245 2.46314 0.407245 1.98826 0.700139 1.69537C0.993032 1.40248 1.46791 1.40248 1.7608 1.69537L11.8371 11.7716C12.13 12.0645 12.13 12.5394 11.8371 12.8323C11.5442 13.1252 11.0693 13.1252 10.7764 12.8323L0.700138 2.75603Z" fill="#212121"/>
</svg>
