<svg width="30" height="30" viewBox="0 0 30 30" fill="none" xmlns="http://www.w3.org/2000/svg">
<g clip-path="url(#clip0_430_16450)">
<path d="M24.375 30H5.625C2.51816 30 0 27.4818 0 24.375V5.625C0 2.51816 2.51816 0 5.625 0H24.375C27.4818 0 30 2.51816 30 5.625V24.375C30 27.4818 27.4818 30 24.375 30Z" fill="white"/>
<path d="M18.1247 22.5002H9.375C8.34091 22.5002 7.5 21.6593 7.5 20.6252V11.8755C7.5 10.8414 8.34091 10.0005 9.375 10.0005H14.3747C14.7196 10.0005 15 10.2809 15 10.6258C15 10.9707 14.7205 11.2502 14.3747 11.2502H9.375C9.03008 11.2502 8.74969 11.5306 8.74969 11.8755V20.6252C8.74969 20.9701 9.03008 21.2505 9.375 21.2505H18.1247C18.4696 21.2505 18.75 20.9701 18.75 20.6252V15.6246C18.75 15.2796 19.0295 15.0002 19.3753 15.0002C19.7202 15.0002 20.0006 15.2806 20.0006 15.6255V20.6252C19.9997 21.6593 19.1588 22.5002 18.1247 22.5002Z" fill="#13B086"/>
<path d="M18.3044 9.48584L13.3592 14.4313C13.315 14.4752 13.2862 14.5306 13.2738 14.5906L12.8323 16.8002C12.8117 16.9025 12.8435 17.0085 12.9177 17.0824C12.9767 17.1415 13.0564 17.1744 13.1388 17.1744C13.1585 17.1744 13.1802 17.1724 13.1999 17.1678L15.4095 16.7263C15.4704 16.7139 15.5258 16.6839 15.5697 16.6409L20.5152 11.6957L18.3044 9.48584Z" fill="#158466"/>
<path d="M22.0418 7.95762C21.4325 7.34811 20.4415 7.34811 19.8322 7.95762L18.9668 8.8228L21.1767 11.0326L22.0418 10.1672C22.3371 9.87291 22.4994 9.48014 22.4994 9.06289C22.4994 8.64564 22.3371 8.25288 22.0418 7.95762Z" fill="#158466"/>
</g>
<defs>
<clipPath id="clip0_430_16450">
<rect width="30" height="30" fill="white"/>
</clipPath>
</defs>
</svg>
