<svg width="11" height="11" viewBox="0 0 11 11" fill="none" xmlns="http://www.w3.org/2000/svg">
<path d="M9.58328 6.33307H6.04157V9.87479C6.04157 10.3348 5.66834 10.7081 5.20828 10.7081C4.74823 10.7081 4.375 10.3348 4.375 9.87479V6.33307H0.833283C0.37323 6.33307 0 5.95984 0 5.49979C0 5.03973 0.37323 4.6665 0.833283 4.6665H4.375V1.12479C4.375 0.664734 4.74823 0.291504 5.20828 0.291504C5.66834 0.291504 6.04157 0.664734 6.04157 1.12479V4.6665H9.58328C10.0433 4.6665 10.4166 5.03973 10.4166 5.49979C10.4166 5.95984 10.0433 6.33307 9.58328 6.33307Z" fill="#FAFAFA"/>
</svg>
