<svg width="15" height="15" viewBox="0 0 15 15" fill="none" xmlns="http://www.w3.org/2000/svg">
<g clip-path="url(#clip0_283_3836)">
<path d="M5.19977 7.1612L4.75 6.40587L9.78139 3.38281L10.2312 4.13812L5.19977 7.1612Z" fill="#158466"/>
<path d="M9.73485 11.765L4.88672 9.28744L5.28325 8.50293L10.1314 10.9806L9.73485 11.765Z" fill="#158466"/>
<path d="M11.8945 0C10.4443 0 9.25781 1.18649 9.25781 2.63672C9.25781 4.08688 10.4443 5.27344 11.8945 5.27344C13.3448 5.27344 14.5312 4.08688 14.5312 2.63672C14.5312 1.18649 13.3448 0 11.8945 0Z" fill="#13B086"/>
<path d="M11.8945 9.72656C10.4443 9.72656 9.25781 10.9131 9.25781 12.3633C9.25781 13.8134 10.4443 15 11.8945 15C13.3448 15 14.5312 13.8134 14.5312 12.3633C14.5312 10.9131 13.3448 9.72656 11.8945 9.72656Z" fill="#13B086"/>
<path d="M3.10547 5.30273C1.65524 5.30273 0.46875 6.48923 0.46875 7.93945C0.46875 9.38962 1.65524 10.5762 3.10547 10.5762C4.55569 10.5762 5.74219 9.38962 5.74219 7.93945C5.74219 6.48923 4.55569 5.30273 3.10547 5.30273Z" fill="#13B086"/>
<path d="M14.5312 12.3633C14.5312 13.8134 13.3448 15 11.8945 15V9.72656C13.3448 9.72656 14.5312 10.9131 14.5312 12.3633Z" fill="#158466"/>
<path d="M11.8945 5.27344V0C13.3448 0 14.5312 1.18649 14.5312 2.63672C14.5312 4.08688 13.3448 5.27344 11.8945 5.27344Z" fill="#158466"/>
<path d="M5.74219 7.93945C5.74219 9.38962 4.55569 10.5762 3.10547 10.5762V5.30273C4.55569 5.30273 5.74219 6.48923 5.74219 7.93945Z" fill="#158466"/>
</g>
<defs>
<clipPath id="clip0_283_3836">
<rect width="15" height="15" fill="white"/>
</clipPath>
</defs>
</svg>
