<svg width="30" height="30" viewBox="0 0 30 30" fill="none" xmlns="http://www.w3.org/2000/svg">
<path d="M8.6189 23.3811L10.2378 25L11.8567 23.3811L13.4756 25L15.0945 23.3811L16.7134 25L18.3323 23.3811L19.9512 25L21.5701 23.3811L23.189 25V3H7V25L8.6189 23.3811Z" fill="#E2E8EE"/>
<path d="M15.0924 13.7668C17.277 13.7668 19.048 11.9958 19.048 9.81111C19.048 7.62647 17.277 5.85547 15.0924 5.85547C12.9077 5.85547 11.1367 7.62647 11.1367 9.81111C11.1367 11.9958 12.9077 13.7668 15.0924 13.7668Z" fill="#158466"/>
<path d="M11.2845 16.5189H9.62272C9.53423 16.5189 9.44936 16.4837 9.38679 16.4211C9.32422 16.3586 9.28906 16.2737 9.28906 16.1852C9.28906 16.0967 9.32422 16.0119 9.38679 15.9493C9.44936 15.8867 9.53423 15.8516 9.62272 15.8516H11.2845C11.373 15.8516 11.4579 15.8867 11.5205 15.9493C11.583 16.0119 11.6182 16.0967 11.6182 16.1852C11.6182 16.2737 11.583 16.3586 11.5205 16.4211C11.4579 16.4837 11.373 16.5189 11.2845 16.5189Z" fill="#158466"/>
<path d="M20.5579 16.5189H12.904C12.8155 16.5189 12.7306 16.4837 12.668 16.4211C12.6055 16.3586 12.5703 16.2737 12.5703 16.1852C12.5703 16.0967 12.6055 16.0119 12.668 15.9493C12.7306 15.8867 12.8155 15.8516 12.904 15.8516H20.5579C20.6464 15.8516 20.7312 15.8867 20.7938 15.9493C20.8564 16.0119 20.8915 16.0967 20.8915 16.1852C20.8915 16.2737 20.8564 16.3586 20.7938 16.4211C20.7312 16.4837 20.6464 16.5189 20.5579 16.5189Z" fill="#158466"/>
<path d="M11.2845 18.6868H9.62272C9.53423 18.6868 9.44936 18.6517 9.38679 18.5891C9.32422 18.5265 9.28906 18.4417 9.28906 18.3532C9.28906 18.2647 9.32422 18.1798 9.38679 18.1173C9.44936 18.0547 9.53423 18.0195 9.62272 18.0195H11.2845C11.373 18.0195 11.4579 18.0547 11.5205 18.1173C11.583 18.1798 11.6182 18.2647 11.6182 18.3532C11.6182 18.4417 11.583 18.5265 11.5205 18.5891C11.4579 18.6517 11.373 18.6868 11.2845 18.6868Z" fill="#158466"/>
<path d="M20.5579 18.6868H12.904C12.8155 18.6868 12.7306 18.6517 12.668 18.5891C12.6055 18.5265 12.5703 18.4417 12.5703 18.3532C12.5703 18.2647 12.6055 18.1798 12.668 18.1173C12.7306 18.0547 12.8155 18.0195 12.904 18.0195H20.5579C20.6464 18.0195 20.7312 18.0547 20.7938 18.1173C20.8564 18.1798 20.8915 18.2647 20.8915 18.3532C20.8915 18.4417 20.8564 18.5265 20.7938 18.5891C20.7312 18.6517 20.6464 18.6868 20.5579 18.6868Z" fill="#158466"/>
<path d="M11.2845 20.8587H9.62272C9.53423 20.8587 9.44936 20.8236 9.38679 20.761C9.32422 20.6984 9.28906 20.6136 9.28906 20.5251C9.28906 20.4366 9.32422 20.3517 9.38679 20.2891C9.44936 20.2266 9.53423 20.1914 9.62272 20.1914H11.2845C11.373 20.1914 11.4579 20.2266 11.5205 20.2891C11.583 20.3517 11.6182 20.4366 11.6182 20.5251C11.6182 20.6136 11.583 20.6984 11.5205 20.761C11.4579 20.8236 11.373 20.8587 11.2845 20.8587Z" fill="#158466"/>
<path d="M20.5579 20.8587H12.904C12.8155 20.8587 12.7306 20.8236 12.668 20.761C12.6055 20.6984 12.5703 20.6136 12.5703 20.5251C12.5703 20.4366 12.6055 20.3517 12.668 20.2891C12.7306 20.2266 12.8155 20.1914 12.904 20.1914H20.5579C20.6464 20.1914 20.7312 20.2266 20.7938 20.2891C20.8564 20.3517 20.8915 20.4366 20.8915 20.5251C20.8915 20.6136 20.8564 20.6984 20.7938 20.761C20.7312 20.8236 20.6464 20.8587 20.5579 20.8587Z" fill="#158466"/>
<path d="M15.3639 11.8593V12.2306H14.8362V11.842C14.3308 11.785 13.857 11.5675 13.4844 11.2214L13.9021 10.7051C14.1625 10.953 14.4855 11.1254 14.8364 11.2038V10.073C14.1225 9.88752 13.6411 9.63222 13.6411 8.94813C13.6411 8.32162 14.1225 7.8402 14.8364 7.75326V7.39844H15.3639V7.75802C15.8167 7.80477 16.2431 7.99365 16.582 8.2976L16.1878 8.83145C15.9537 8.61978 15.6705 8.46985 15.3639 8.39521V9.4858C16.1586 9.66559 16.6867 9.93823 16.6867 10.646C16.6871 11.314 16.2051 11.8014 15.3639 11.8593ZM14.8362 9.34852V8.38454C14.7138 8.40303 14.6013 8.46242 14.517 8.55302C14.4327 8.64363 14.3815 8.76011 14.3719 8.8835C14.3719 9.11553 14.5227 9.23736 14.8362 9.34852ZM15.9611 10.7175C15.9611 10.4505 15.7754 10.3289 15.3635 10.2071V11.2397C15.7584 11.1924 15.9614 10.9718 15.9614 10.7165L15.9611 10.7175Z" fill="white"/>
</svg>
