<svg width="30" height="30" viewBox="0 0 30 30" fill="none" xmlns="http://www.w3.org/2000/svg">
<g clip-path="url(#clip0_463_11552)">
<path d="M12.552 7H7.23954C6.55602 7 6 7.55602 6 8.23954V11.427C6 12.1107 6.55602 12.6667 7.23954 12.6667H12.552C13.2357 12.6667 13.7917 12.1107 13.7917 11.427V8.23954C13.7917 7.55602 13.2357 7 12.552 7Z" fill="#13B086"/>
<path d="M12.552 14.082H7.23954C6.55602 14.082 6 14.6381 6 15.3217V22.7592C6 23.4427 6.55602 23.9987 7.23954 23.9987H12.552C13.2357 23.9987 13.7917 23.4427 13.7917 22.7592V15.3217C13.7917 14.6381 13.2357 14.082 12.552 14.082Z" fill="#158466"/>
<path d="M21.7592 18.332H16.4467C15.7631 18.332 15.207 18.8881 15.207 19.5717V22.7592C15.207 23.4427 15.7631 23.9987 16.4467 23.9987H21.7592C22.4427 23.9987 22.9987 23.4427 22.9987 22.7592V19.5717C22.9987 18.8881 22.4427 18.332 21.7592 18.332Z" fill="#13B086"/>
<path d="M21.7592 7H16.4467C15.7631 7 15.207 7.55602 15.207 8.23954V15.677C15.207 16.3607 15.7631 16.9167 16.4467 16.9167H21.7592C22.4427 16.9167 22.9987 16.3607 22.9987 15.677V8.23954C22.9987 7.55602 22.4427 7 21.7592 7Z" fill="#158466"/>
</g>
<defs>
<clipPath id="clip0_463_11552">
<rect width="17" height="17" fill="white" transform="translate(6 7)"/>
</clipPath>
</defs>
</svg>
