<svg width="40" height="40" viewBox="0 0 40 40" fill="none" xmlns="http://www.w3.org/2000/svg">
<g clip-path="url(#clip0_468_11190)">
<path d="M33 20C33 27.1797 27.1797 33 20 33C16.2151 33 12.8081 31.3827 10.4325 28.8013C9.80853 28.1237 9.25616 27.3792 8.78604 26.5807C7.65106 24.6503 7 22.401 7 20C7 12.8203 12.8203 7 20 7C22.4016 7 24.6508 7.65106 26.5807 8.78657C27.3792 9.25616 28.1231 9.80853 28.8007 10.4331C31.3822 12.8076 33 16.2151 33 20Z" fill="#F0CD00"/>
<path d="M32.9999 20.0007C32.9999 27.0186 27.4396 32.7376 20.4839 32.9917C13.5281 32.7376 7.96777 27.0186 7.96777 20.0007C7.96777 12.9829 13.5281 7.26393 20.4839 7.00977C27.4396 7.26393 32.9999 12.9829 32.9999 20.0007Z" fill="#FFDE50"/>
<path d="M28.8008 10.4336L10.4326 28.8018C9.80862 28.1242 9.25626 27.3798 8.78613 26.5812L26.5807 8.78711C27.3793 9.2567 28.1232 9.80907 28.8008 10.4336Z" fill="#FFEA94"/>
<path d="M32.103 15.247L15.2465 32.1035C14.0531 31.6344 12.9457 30.994 11.9551 30.2124L30.2124 11.9551C30.994 12.9457 31.6344 14.0531 32.103 15.247Z" fill="#FFEA94"/>
<path d="M30.102 20.0002C30.102 25.5791 25.5791 30.102 20.0002 30.102C18.0571 30.102 16.2424 29.5534 14.7021 28.6025C14.0308 28.1886 13.4122 27.6978 12.8571 27.1428C12.4491 26.7353 12.0755 26.2922 11.7418 25.8195C11.2823 25.1684 10.8976 24.4606 10.601 23.7087C10.1616 22.597 9.91436 21.3883 9.8995 20.1244C9.89844 20.083 9.89844 20.0416 9.89844 20.0002C9.89844 14.4214 14.4208 9.89844 20.0002 9.89844C20.0416 9.89844 20.0835 9.89844 20.1249 9.8995C21.3888 9.91436 22.597 10.1622 23.7087 10.601C24.4606 10.8981 25.1684 11.2823 25.8195 11.7418C26.2922 12.0761 26.7348 12.4491 27.1428 12.8571C27.6978 13.4116 28.1886 14.0308 28.6025 14.7021C29.5534 16.2424 30.102 18.0571 30.102 20.0002Z" fill="#FAA300"/>
<path d="M27.1428 12.8571L12.8571 27.1428C12.4491 26.7353 12.0755 26.2922 11.7418 25.8195C11.2823 25.1684 10.8976 24.4606 10.601 23.7087C10.1616 22.597 9.91436 21.3883 9.8995 20.1244C9.89844 20.083 9.89844 20.0416 9.89844 20.0002C9.89844 14.4214 14.4208 9.89844 20.0002 9.89844C20.0416 9.89844 20.0835 9.89844 20.1249 9.8995C21.3888 9.91436 22.597 10.1622 23.7087 10.601C24.4606 10.8981 25.1684 11.2823 25.8195 11.7418C26.2922 12.0761 26.7348 12.4491 27.1428 12.8571Z" fill="#FFBD00"/>
<path d="M30.1019 20.0002C30.1019 25.5791 25.579 30.102 20.0001 30.102C19.8085 30.102 19.6186 30.0967 19.4297 30.0861C24.7432 29.7906 28.9605 25.3875 28.9605 20.0002C28.9605 14.6129 24.7432 10.2099 19.4297 9.91436C19.6186 9.90374 19.8085 9.89844 20.0001 9.89844C25.579 9.89844 30.1019 14.4214 30.1019 20.0002Z" fill="#F68E00"/>
<path d="M24.5909 22.5498C24.5909 21.2026 23.8946 20.0156 22.8435 19.3276C23.2754 18.7325 23.531 18.0014 23.531 17.2115C23.531 15.8472 22.7706 14.6575 21.6514 14.0432V12.7351C21.6514 12.1489 21.1763 11.6738 20.5902 11.6738C20.0041 11.6738 19.5289 12.1489 19.5289 12.7351V13.5997H18.2482V12.7351C18.2482 12.1489 17.773 11.6738 17.1869 11.6738C16.6008 11.6738 16.1257 12.1489 16.1257 12.7351V13.5997H14.8786C14.2925 13.5997 13.8174 14.0748 13.8174 14.661C13.8174 15.2471 14.2925 15.7222 14.8786 15.7222H15.2448V19.762V24.2765H14.8786C14.2925 24.2765 13.8174 24.7516 13.8174 25.3377C13.8174 25.9238 14.2925 26.399 14.8786 26.399H16.1258V27.2636C16.1258 27.8498 16.6009 28.3249 17.187 28.3249C17.7731 28.3249 18.2482 27.8498 18.2482 27.2636V26.399H19.529V27.2636C19.529 27.8498 20.0041 28.3249 20.5902 28.3249C21.1763 28.3249 21.6514 27.8498 21.6514 27.2636V26.2894C23.3361 25.8795 24.5909 24.3589 24.5909 22.5498ZM17.3673 15.7222H19.9193C20.7405 15.7222 21.4086 16.3903 21.4086 17.2115C21.4086 18.0326 20.7405 18.7007 19.9193 18.7007H17.3673V15.7222ZM20.7418 24.2765H17.3673V20.8232H19.9193H20.7418C21.6938 20.8232 22.4684 21.5978 22.4684 22.5499C22.4684 23.502 21.6938 24.2765 20.7418 24.2765Z" fill="#F68E00"/>
<path d="M25.9171 22.5498C25.9171 21.2026 25.2208 20.0156 24.1697 19.3276C24.6016 18.7325 24.8573 18.0014 24.8573 17.2115C24.8573 15.8472 24.0968 14.6575 22.9776 14.0432V12.7351C22.9776 12.1489 22.5025 11.6738 21.9164 11.6738C21.3303 11.6738 20.8552 12.1489 20.8552 12.7351V13.5997H19.5744V12.7351C19.5744 12.1489 19.0993 11.6738 18.5132 11.6738C17.927 11.6738 17.4519 12.1489 17.4519 12.7351V13.5997H16.2048C15.6187 13.5997 15.1436 14.0748 15.1436 14.661C15.1436 15.2471 15.6187 15.7222 16.2048 15.7222H16.571V19.762V24.2765H16.2048C15.6187 24.2765 15.1436 24.7516 15.1436 25.3377C15.1436 25.9238 15.6187 26.399 16.2048 26.399H17.4519V27.2636C17.4519 27.8498 17.927 28.3249 18.5132 28.3249C19.0993 28.3249 19.5744 27.8498 19.5744 27.2636V26.399H20.8552V27.2636C20.8552 27.8498 21.3303 28.3249 21.9164 28.3249C22.5025 28.3249 22.9776 27.8498 22.9776 27.2636V26.2894C24.6624 25.8795 25.9171 24.3589 25.9171 22.5498ZM18.6935 15.7222H21.2455C22.0668 15.7222 22.7348 16.3903 22.7348 17.2115C22.7348 18.0326 22.0667 18.7007 21.2455 18.7007H18.6935V15.7222ZM22.068 24.2765H18.6935V20.8232H21.2455H22.068C23.0201 20.8232 23.7947 21.5978 23.7947 22.5499C23.7947 23.502 23.0201 24.2765 22.068 24.2765Z" fill="#FFEA94"/>
</g>
<defs>
<clipPath id="clip0_468_11190">
<rect width="26" height="26" fill="white" transform="translate(7 7)"/>
</clipPath>
</defs>
</svg>
