<svg width="30" height="30" viewBox="0 0 30 30" fill="none" xmlns="http://www.w3.org/2000/svg">
<g clip-path="url(#clip0_398_8487)">
<path d="M22.3775 8.7951L21.3947 9.41582L19.7566 9.10546L18.7738 8.7951L17.4633 9.10546L16.4805 8.7951L17.1357 7.55362H18.4461L19.7304 6.94531C20.7208 7.40931 21.6168 8.03562 22.3775 8.7951Z" fill="#13B086"/>
<path d="M14.8433 7.55242L14.5157 8.48353L13.5329 8.79389L12.55 10.3457L10.912 11.2768L8.61873 11.5872V12.5183L9.27393 13.139V14.3805L8.29116 13.7598L7.30832 13.139L6.73828 11.5158C7.71946 9.3007 9.59504 7.5496 11.9473 6.65234L12.8777 7.24206L14.8433 7.55242Z" fill="#13B086"/>
<path d="M15.497 16.2425L15.1694 17.7944L13.8589 19.0358V19.967L12.5485 20.898V22.4499L11.5657 22.1395L10.9104 20.5877V17.484L9.27239 17.1736L8.61719 15.9322V15.0011L9.27239 14.3803L10.2552 13.4492L10.9104 14.6907H13.2037L14.1865 16.2425H15.497Z" fill="#13B086"/>
<path d="M23.7856 10.6032C25.574 13.6258 25.3703 17.353 23.2614 20.1842L22.3769 19.3462V18.1047L21.7217 16.8633L21.0665 15.6218V14.3803L20.0836 13.7596L18.7732 14.0699L16.4799 13.1388L16.1523 10.9663L17.1352 10.0352H19.1008L19.756 10.9663L21.7217 11.2766L23.6873 10.6559L23.7856 10.6032Z" fill="#13B086"/>
<path d="M17.465 9.10752L18.7754 8.79716L19.7583 9.10752L21.3963 9.41788L22.3792 8.79716C22.9279 9.34124 23.4013 9.94923 23.7879 10.6066L23.6896 10.6594L21.724 11.2801L19.7583 10.9697L19.1031 10.0386H17.1375L16.1546 10.9697L16.4822 13.1423L18.7755 14.0734L20.0859 13.763L21.0688 14.3837V15.6252L21.724 16.8667L22.3792 18.1082V19.3496L23.2637 20.1876C20.2383 24.2491 14.3101 25.2178 10.0234 22.3515C6.38263 19.917 5.01682 15.4126 6.73907 11.5191L7.30911 13.1423L8.29195 13.763L9.2748 14.3837L8.61955 15.0045V15.9356L9.27476 17.1771L10.9128 17.4874V20.5911L11.568 22.1429L12.5509 22.4533V20.9014L13.8613 19.9703V19.0392L15.1717 17.7977L15.4993 16.2459H14.1889L13.2061 14.6941H10.9128L10.2576 13.4526L9.2748 14.3837L9.27476 13.1422L8.61955 12.5216V11.5904L10.9128 11.2801L12.5509 10.349L13.5337 8.79713L14.5165 8.48677L14.8441 7.55565L12.8785 7.24529L11.9481 6.65558C14.4674 5.69437 17.3006 5.80051 19.7321 6.94734L18.4478 7.55565H17.1374L16.4822 8.79713L17.465 9.10752Z" fill="#E2E8EE"/>
</g>
<defs>
<clipPath id="clip0_398_8487">
<rect width="19" height="18" fill="white" transform="translate(6 6)"/>
</clipPath>
</defs>
</svg>
