<svg width="30" height="31" viewBox="0 0 30 31" fill="none" xmlns="http://www.w3.org/2000/svg">
<g clip-path="url(#clip0_398_8420)">
<path d="M21.875 13.0859C23.0615 13.0859 24.0234 12.124 24.0234 10.9375C24.0234 9.75095 23.0615 8.78906 21.875 8.78906C20.6885 8.78906 19.7266 9.75095 19.7266 10.9375C19.7266 12.124 20.6885 13.0859 21.875 13.0859Z" fill="#13B086"/>
<path d="M21.875 13.0859V8.78906C23.0598 8.78906 24.0234 9.75273 24.0234 10.9375C24.0234 12.1223 23.0598 13.0859 21.875 13.0859Z" fill="#158466"/>
<path d="M25 17.0504V21.2758C25 21.9293 24.4664 22.4609 23.8102 22.4609H19.6898C19.3664 22.4609 19.1039 22.1984 19.1039 21.875C19.1039 21.3054 18.7891 18.4191 18.7891 17.0504C18.7891 15.5969 19.9789 14.4141 21.4414 14.4141H22.3477C23.8102 14.4141 25 15.5969 25 17.0504Z" fill="#13B086"/>
<path d="M25 17.0504V21.2758C25 21.9293 24.4664 22.4609 23.8102 22.4609H21.875V14.4141H22.3477C23.8102 14.4141 25 15.5969 25 17.0504Z" fill="#158466"/>
<path d="M8.125 13.0859C9.31155 13.0859 10.2734 12.124 10.2734 10.9375C10.2734 9.75095 9.31155 8.78906 8.125 8.78906C6.93845 8.78906 5.97656 9.75095 5.97656 10.9375C5.97656 12.124 6.93845 13.0859 8.125 13.0859Z" fill="#13B086"/>
<path d="M8.125 13.0859V8.78906C9.30977 8.78906 10.2734 9.75273 10.2734 10.9375C10.2734 12.1223 9.30977 13.0859 8.125 13.0859Z" fill="#158466"/>
<path d="M11.2109 17.0504C11.2109 18.463 10.8961 21.2795 10.8961 21.875C10.8961 22.1984 10.6336 22.4609 10.3102 22.4609H6.14883C5.51523 22.4609 5 21.9477 5 21.3164V17.0504C5 15.5969 6.18984 14.4141 7.65234 14.4141H8.55859C10.0211 14.4141 11.2109 15.5969 11.2109 17.0504Z" fill="#13B086"/>
<path d="M11.2109 17.0504C11.2109 18.463 10.8961 21.2795 10.8961 21.875C10.8961 22.1984 10.6336 22.4609 10.3102 22.4609H8.125V14.4141H8.55859C10.0211 14.4141 11.2109 15.5969 11.2109 17.0504Z" fill="#158466"/>
<path d="M15 13.0859C16.8769 13.0859 18.3984 11.5644 18.3984 9.6875C18.3984 7.81059 16.8769 6.28906 15 6.28906C13.1231 6.28906 11.6016 7.81059 11.6016 9.6875C11.6016 11.5644 13.1231 13.0859 15 13.0859Z" fill="#13B086"/>
<path d="M15 13.0859V6.28906C16.8738 6.28906 18.3984 7.81367 18.3984 9.6875C18.3984 11.5613 16.8738 13.0859 15 13.0859Z" fill="#158466"/>
<path d="M20.2734 19.1414V22.343C20.2734 23.0973 19.6598 23.7109 18.9055 23.7109H11.0945C10.3402 23.7109 9.72656 23.0973 9.72656 22.343V19.1414C9.72656 16.5348 11.8473 14.4141 14.4539 14.4141H15.5461C18.1527 14.4141 20.2734 16.5348 20.2734 19.1414Z" fill="#13B086"/>
<path d="M20.2734 19.1414V22.343C20.2734 23.0973 19.6598 23.7109 18.9055 23.7109H15V14.4141H15.5461C18.1527 14.4141 20.2734 16.5348 20.2734 19.1414Z" fill="#158466"/>
</g>
<defs>
<clipPath id="clip0_398_8420">
<rect width="20" height="20" fill="white" transform="translate(5 5)"/>
</clipPath>
</defs>
</svg>
