<svg width="30" height="30" viewBox="0 0 30 30" fill="none" xmlns="http://www.w3.org/2000/svg">
<g clip-path="url(#clip0_1580_18960)">
<path d="M15.2333 6.06137L6.72523 10.1687C6.61854 10.2202 6.55078 10.3282 6.55078 10.4467V20.5533C6.55078 20.6718 6.61858 20.7798 6.72523 20.8313L15.2333 24.9386C15.4028 25.0205 15.6005 25.0205 15.77 24.9386L24.278 20.8313C24.3847 20.7798 24.4525 20.6718 24.4525 20.5533V10.4467C24.4525 10.3282 24.3847 10.2202 24.278 10.1687L15.77 6.06137C15.6005 5.97954 15.4028 5.97954 15.2333 6.06137Z" fill="#E2E8EE"/>
<path d="M6.6021 10.2773C6.56967 10.3267 6.55078 10.3849 6.55078 10.4463V20.553C6.55078 20.6714 6.61858 20.7794 6.72523 20.8309L15.2333 24.9382C15.318 24.9791 15.4098 24.9996 15.5016 24.9996V14.5737L6.6021 10.2773Z" fill="#CED4DA"/>
<path d="M24.3995 10.2773C24.432 10.3267 24.4509 10.3849 24.4509 10.4463V20.553C24.4509 20.6714 24.3831 20.7794 24.2764 20.8309L15.7684 24.9382C15.6836 24.9791 15.5918 24.9996 15.5 24.9996V14.5737L24.3995 10.2773Z" fill="#C4CAD0"/>
<path d="M9.09461 20.0149C9.04971 20.0149 9.00388 20.0049 8.9608 19.9841L7.64723 19.35C7.49353 19.2758 7.42933 19.0914 7.50347 18.9379C7.57732 18.7845 7.76238 18.7206 7.9155 18.7942L9.22906 19.4284C9.38277 19.5025 9.44696 19.687 9.37282 19.8404C9.31979 19.9507 9.20946 20.0149 9.09461 20.0149Z" fill="#158466"/>
<path d="M10.3057 19.2283C10.2608 19.2283 10.2149 19.2184 10.1719 19.1976L7.65109 17.9808C7.49768 17.9066 7.43318 17.7222 7.50733 17.5687C7.58118 17.4156 7.76654 17.3514 7.91935 17.425L10.4401 18.6418C10.5935 18.7159 10.658 18.9004 10.5838 19.0538C10.5309 19.1641 10.4205 19.2283 10.3057 19.2283Z" fill="#158466"/>
<path d="M21.3827 11.7285L12.4519 7.41406L10.0977 8.55518L19.0485 12.8763L21.3827 11.7285Z" fill="#13B086"/>
<path d="M19.0508 12.8763V16.2238C19.0508 16.3376 19.1697 16.4122 19.2722 16.3628L21.2105 15.4271C21.3172 15.3756 21.385 15.2676 21.385 15.1491V11.7285L19.0508 12.8763Z" fill="#158466"/>
</g>
<defs>
<clipPath id="clip0_1580_18960">
<rect width="19" height="19" fill="white" transform="translate(6 6)"/>
</clipPath>
</defs>
</svg>
