<svg width="30" height="30" viewBox="0 0 30 30" fill="none" xmlns="http://www.w3.org/2000/svg">
<path d="M18.4043 10.8593H14.8462L14.7079 10.4691C14.1493 8.89336 12.6539 8.61586 12.5312 8.54434V5L13.2338 5.14262C15.7745 5.65832 17.7481 7.62652 18.2617 10.1568L18.4043 10.8593Z" fill="#158466"/>
<path d="M9.01563 11.4452C9.01563 9.12969 11.3452 8.55442 11.3594 8.54434V5L10.6569 5.14262C7.67156 5.74856 5.5 8.37262 5.5 11.4452C5.5 13.2222 6.22285 14.8336 7.38992 16.0006L9.58203 15.4687L9.87469 13.5159C9.34418 12.9854 9.01563 12.253 9.01563 11.4452Z" fill="#13B086"/>
<path d="M18.4012 12.0312L18.2586 12.7336C17.659 15.6867 15.0465 17.8906 11.9422 17.8906C10.1652 17.8906 8.55391 17.168 7.38672 16.0008L9.87149 13.516C10.402 14.0465 11.1344 14.375 11.9422 14.375C14.3129 14.375 14.7957 12.098 14.843 12.0312H18.4012Z" fill="#079770"/>
<path d="M18.4043 12.0312L18.2617 12.7336C17.6621 15.6867 15.0496 17.8906 11.9453 17.8906V14.375C14.316 14.375 14.7988 12.098 14.8461 12.0312H18.4043Z" fill="#2A6253"/>
<path d="M20.7734 14.4531H24.2891V24.4141H20.7734V14.4531Z" fill="#2A6253"/>
<path d="M16.0859 20.3125H19.6016V24.4141H16.0859V20.3125Z" fill="#158466"/>
<path d="M11.3984 19.1406H14.9141V24.4141H11.3984V19.1406Z" fill="#079770"/>
<path d="M6.71094 21.4844H10.2266V24.4141H6.71094V21.4844Z" fill="#13B086"/>
<path d="M5.5 23.8281H25.5V25H5.5V23.8281Z" fill="#374F68"/>
<path d="M15.5 23.8281H25.5V25H15.5V23.8281Z" fill="#334A5E"/>
</svg>
