<svg width="40" height="41" viewBox="0 0 40 41" fill="none" xmlns="http://www.w3.org/2000/svg">
<g clip-path="url(#clip0_398_8507)">
<path d="M26.875 19.0859C28.0615 19.0859 29.0234 18.124 29.0234 16.9375C29.0234 15.751 28.0615 14.7891 26.875 14.7891C25.6885 14.7891 24.7266 15.751 24.7266 16.9375C24.7266 18.124 25.6885 19.0859 26.875 19.0859Z" fill="#13B086"/>
<path d="M26.875 19.0859V14.7891C28.0598 14.7891 29.0234 15.7527 29.0234 16.9375C29.0234 18.1223 28.0598 19.0859 26.875 19.0859Z" fill="#158466"/>
<path d="M30 23.0504V27.2758C30 27.9293 29.4664 28.4609 28.8102 28.4609H24.6898C24.3664 28.4609 24.1039 28.1984 24.1039 27.875C24.1039 27.3054 23.7891 24.4191 23.7891 23.0504C23.7891 21.5969 24.9789 20.4141 26.4414 20.4141H27.3477C28.8102 20.4141 30 21.5969 30 23.0504Z" fill="#13B086"/>
<path d="M30 23.0504V27.2758C30 27.9293 29.4664 28.4609 28.8102 28.4609H26.875V20.4141H27.3477C28.8102 20.4141 30 21.5969 30 23.0504Z" fill="#158466"/>
<path d="M13.125 19.0859C14.3115 19.0859 15.2734 18.124 15.2734 16.9375C15.2734 15.751 14.3115 14.7891 13.125 14.7891C11.9385 14.7891 10.9766 15.751 10.9766 16.9375C10.9766 18.124 11.9385 19.0859 13.125 19.0859Z" fill="#13B086"/>
<path d="M13.125 19.0859V14.7891C14.3098 14.7891 15.2734 15.7527 15.2734 16.9375C15.2734 18.1223 14.3098 19.0859 13.125 19.0859Z" fill="#158466"/>
<path d="M16.2109 23.0504C16.2109 24.463 15.8961 27.2795 15.8961 27.875C15.8961 28.1984 15.6336 28.4609 15.3102 28.4609H11.1488C10.5152 28.4609 10 27.9477 10 27.3164V23.0504C10 21.5969 11.1898 20.4141 12.6523 20.4141H13.5586C15.0211 20.4141 16.2109 21.5969 16.2109 23.0504Z" fill="#13B086"/>
<path d="M16.2109 23.0504C16.2109 24.463 15.8961 27.2795 15.8961 27.875C15.8961 28.1984 15.6336 28.4609 15.3102 28.4609H13.125V20.4141H13.5586C15.0211 20.4141 16.2109 21.5969 16.2109 23.0504Z" fill="#158466"/>
<path d="M20 19.0859C21.8769 19.0859 23.3984 17.5644 23.3984 15.6875C23.3984 13.8106 21.8769 12.2891 20 12.2891C18.1231 12.2891 16.6016 13.8106 16.6016 15.6875C16.6016 17.5644 18.1231 19.0859 20 19.0859Z" fill="#13B086"/>
<path d="M20 19.0859V12.2891C21.8738 12.2891 23.3984 13.8137 23.3984 15.6875C23.3984 17.5613 21.8738 19.0859 20 19.0859Z" fill="#158466"/>
<path d="M25.2734 25.1414V28.343C25.2734 29.0973 24.6598 29.7109 23.9055 29.7109H16.0945C15.3402 29.7109 14.7266 29.0973 14.7266 28.343V25.1414C14.7266 22.5348 16.8473 20.4141 19.4539 20.4141H20.5461C23.1527 20.4141 25.2734 22.5348 25.2734 25.1414Z" fill="#13B086"/>
<path d="M25.2734 25.1414V28.343C25.2734 29.0973 24.6598 29.7109 23.9055 29.7109H20V20.4141H20.5461C23.1527 20.4141 25.2734 22.5348 25.2734 25.1414Z" fill="#158466"/>
</g>
<defs>
<clipPath id="clip0_398_8507">
<rect width="20" height="20" fill="white" transform="translate(10 11)"/>
</clipPath>
</defs>
</svg>
