<svg width="21" height="21" viewBox="0 0 21 21" fill="none" xmlns="http://www.w3.org/2000/svg">
<path d="M17.2969 2.5625H3.20312C2.1417 2.5625 1.28125 3.42295 1.28125 4.48438V17.2969C1.28125 18.3583 2.1417 19.2188 3.20312 19.2188H17.2969C18.3583 19.2188 19.2188 18.3583 19.2188 17.2969V4.48438C19.2188 3.42295 18.3583 2.5625 17.2969 2.5625Z" fill="#DBDCE2"/>
<path d="M19.2188 4.48438V7.6875H1.28125V4.48438C1.28125 3.42734 2.14609 2.5625 3.20312 2.5625H17.2969C18.3539 2.5625 19.2188 3.42734 19.2188 4.48438Z" fill="#158466"/>
<path d="M5.125 1.92188V4.48438C5.125 4.838 4.838 5.125 4.48438 5.125C4.13075 5.125 3.84375 4.838 3.84375 4.48438V1.92188C3.84375 1.56825 4.13075 1.28125 4.48438 1.28125C4.838 1.28125 5.125 1.56825 5.125 1.92188ZM8.32812 1.28125C7.9745 1.28125 7.6875 1.56825 7.6875 1.92188V4.48438C7.6875 4.838 7.9745 5.125 8.32812 5.125C8.68175 5.125 8.96875 4.838 8.96875 4.48438V1.92188C8.96875 1.56825 8.68175 1.28125 8.32812 1.28125ZM12.1719 1.28125C11.8183 1.28125 11.5312 1.56825 11.5312 1.92188V4.48438C11.5312 4.838 11.8183 5.125 12.1719 5.125C12.5255 5.125 12.8125 4.838 12.8125 4.48438V1.92188C12.8125 1.56825 12.5255 1.28125 12.1719 1.28125ZM16.0156 1.28125C15.662 1.28125 15.375 1.56825 15.375 1.92188V4.48438C15.375 4.838 15.662 5.125 16.0156 5.125C16.3693 5.125 16.6562 4.838 16.6562 4.48438V1.92188C16.6562 1.56825 16.3693 1.28125 16.0156 1.28125Z" fill="#303238"/>
</svg>
