<svg width="20" height="20" viewBox="0 0 20 20" fill="none" xmlns="http://www.w3.org/2000/svg">
<path d="M11.875 5H8.125C7.95924 5 7.80027 4.93415 7.68306 4.81694C7.56585 4.69973 7.5 4.54076 7.5 4.375C7.5 4.20924 7.56585 4.05027 7.68306 3.93306C7.80027 3.81585 7.95924 3.75 8.125 3.75H11.875C12.0408 3.75 12.1997 3.81585 12.3169 3.93306C12.4342 4.05027 12.5 4.20924 12.5 4.375C12.5 4.54076 12.4342 4.69973 12.3169 4.81694C12.1997 4.93415 12.0408 5 11.875 5Z" fill="#E63946"/>
<path d="M11.875 16.25H8.125C7.46196 16.25 6.82607 15.9866 6.35723 15.5178C5.88839 15.0489 5.625 14.413 5.625 13.75V6.25H14.375V13.75C14.375 14.413 14.1116 15.0489 13.6428 15.5178C13.1739 15.9866 12.538 16.25 11.875 16.25Z" fill="#E63946"/>
<path d="M15 7.5H5C4.83424 7.5 4.67527 7.43415 4.55806 7.31694C4.44085 7.19973 4.375 7.04076 4.375 6.875C4.375 6.70924 4.44085 6.55027 4.55806 6.43306C4.67527 6.31585 4.83424 6.25 5 6.25H15C15.1658 6.25 15.3247 6.31585 15.4419 6.43306C15.5592 6.55027 15.625 6.70924 15.625 6.875C15.625 7.04076 15.5592 7.19973 15.4419 7.31694C15.3247 7.43415 15.1658 7.5 15 7.5Z" fill="#C9273A"/>
<path d="M8.75 13.75C8.58424 13.75 8.42527 13.6842 8.30806 13.5669C8.19085 13.4497 8.125 13.2908 8.125 13.125V9.375C8.125 9.20924 8.19085 9.05027 8.30806 8.93306C8.42527 8.81585 8.58424 8.75 8.75 8.75C8.91576 8.75 9.07473 8.81585 9.19194 8.93306C9.30915 9.05027 9.375 9.20924 9.375 9.375V13.125C9.375 13.2908 9.30915 13.4497 9.19194 13.5669C9.07473 13.6842 8.91576 13.75 8.75 13.75Z" fill="#EDEBEA"/>
<path d="M11.25 13.75C11.0842 13.75 10.9253 13.6842 10.8081 13.5669C10.6908 13.4497 10.625 13.2908 10.625 13.125V9.375C10.625 9.20924 10.6908 9.05027 10.8081 8.93306C10.9253 8.81585 11.0842 8.75 11.25 8.75C11.4158 8.75 11.5747 8.81585 11.6919 8.93306C11.8092 9.05027 11.875 9.20924 11.875 9.375V13.125C11.875 13.2908 11.8092 13.4497 11.6919 13.5669C11.5747 13.6842 11.4158 13.75 11.25 13.75Z" fill="#EDEBEA"/>
</svg>
