<svg width="15" height="15" viewBox="0 0 15 15" fill="none" xmlns="http://www.w3.org/2000/svg">
<g clip-path="url(#clip0_449_11582)">
<path d="M10.1713 8.82516L8.07988 7.2566V4.06143C8.07988 3.74016 7.82019 3.48047 7.49893 3.48047C7.17766 3.48047 6.91797 3.74016 6.91797 4.06143V7.54711C6.91797 7.7301 7.00395 7.90266 7.15035 8.01188L9.47412 9.75472C9.57868 9.83314 9.7007 9.87091 9.82211 9.87091C9.9993 9.87091 10.1736 9.79131 10.2875 9.63794C10.4804 9.38171 10.4281 9.01746 10.1713 8.82516Z" fill="#179D79"/>
<path d="M7.5 0C3.36425 0 0 3.36425 0 7.5C0 11.6358 3.36425 15 7.5 15C11.6358 15 15 11.6358 15 7.5C15 3.36425 11.6358 0 7.5 0ZM7.5 13.8381C4.00562 13.8381 1.16188 10.9944 1.16188 7.5C1.16188 4.00562 4.00562 1.16188 7.5 1.16188C10.995 1.16188 13.8381 4.00562 13.8381 7.5C13.8381 10.9944 10.9944 13.8381 7.5 13.8381Z" fill="#179D79"/>
</g>
<defs>
<clipPath id="clip0_449_11582">
<rect width="15" height="15" fill="white"/>
</clipPath>
</defs>
</svg>
