<svg width="23" height="22" viewBox="0 0 23 22" fill="none" xmlns="http://www.w3.org/2000/svg">
<g clip-path="url(#clip0_797_12394)">
<path d="M5.08594 19.25V2.75H13.7943L17.9193 6.875V19.25H5.08594Z" fill="#CFD8DC"/>
<path d="M5.08594 19.25V2.75H13.7943L17.9193 6.875V19.25H5.08594Z" fill="#B0BEC5"/>
<path d="M6 18.3346V3.66797H14.7083L17 5.95964V18.3346H6Z" fill="white"/>
<path d="M13.7969 6.875V2.75L17.9219 6.875H13.7969Z" fill="#B0BEC5"/>
<path d="M13.7969 6.875L17.9219 8.25V6.875H13.7969Z" fill="#90A4AE"/>
<path d="M15.1641 15.125H13.3307V10.5417H15.1641V15.125Z" fill="#13B086"/>
<path d="M12.4141 15.125H10.5807V11.9167H12.4141V15.125Z" fill="#FF9800"/>
<path d="M9.66406 15.125H7.83073V8.70833H9.66406V15.125Z" fill="#158466"/>
<path d="M18.375 22C20.6532 22 22.5 20.1532 22.5 17.875C22.5 15.5968 20.6532 13.75 18.375 13.75C16.0968 13.75 14.25 15.5968 14.25 17.875C14.25 20.1532 16.0968 22 18.375 22Z" fill="white"/>
<path d="M17.9141 16.043H18.8307V19.7096H17.9141V16.043Z" fill="#158466"/>
<path d="M20.2031 17.418V18.3346H16.5365V17.418H20.2031Z" fill="#158466"/>
</g>
<defs>
<clipPath id="clip0_797_12394">
<rect width="22" height="22" fill="white" transform="translate(0.5)"/>
</clipPath>
</defs>
</svg>
