<svg width="55" height="56" viewBox="0 0 55 56" fill="none" xmlns="http://www.w3.org/2000/svg">
<path d="M0 10.5C0 4.97715 4.47715 0.5 10 0.5H45C50.5228 0.5 55 4.97715 55 10.5V45.5C55 51.0228 50.5228 55.5 45 55.5H10C4.47715 55.5 0 51.0228 0 45.5V10.5Z" fill="#1378B0"/>
<path d="M41.3554 32.375C41.3553 32.0947 41.4138 31.8175 41.5271 31.5611C41.6403 31.3047 41.8059 31.0748 42.0131 30.886C42.7605 30.1106 43.1782 29.0756 43.1782 27.9985C43.1782 26.9215 42.7605 25.8865 42.0131 25.111C41.8059 24.9228 41.6404 24.6934 41.5272 24.4375C41.4139 24.1816 41.3554 23.9049 41.3554 23.625C41.3495 23.3863 41.3907 23.1488 41.4768 22.926C41.5629 22.7033 41.6921 22.4998 41.857 22.3271C42.1637 21.9533 42.3579 21.5 42.417 21.0201C42.4761 20.5402 42.3976 20.0533 42.1907 19.6163C41.9838 19.1793 41.657 18.81 41.2483 18.5515C40.8397 18.293 40.366 18.156 39.8824 18.1563H15.1199C14.6373 18.1566 14.1647 18.2937 13.7569 18.5518C13.3491 18.8099 13.0228 19.1784 12.8159 19.6144C12.6091 20.0504 12.5301 20.5362 12.5881 21.0153C12.6462 21.4944 12.8389 21.9472 13.1439 22.3213C13.3097 22.4946 13.4396 22.699 13.5259 22.9228C13.6123 23.1466 13.6534 23.3852 13.647 23.625C13.647 23.9049 13.5885 24.1816 13.4752 24.4375C13.362 24.6934 13.1964 24.9228 12.9893 25.111C12.2419 25.8865 11.8242 26.9215 11.8242 27.9985C11.8242 29.0756 12.2419 30.1106 12.9893 30.886C13.1965 31.0748 13.3621 31.3047 13.4753 31.5611C13.5886 31.8175 13.647 32.0947 13.647 32.375C13.6541 32.6167 13.6127 32.8573 13.5253 33.0827C13.4379 33.3081 13.3062 33.5138 13.1381 33.6875C12.8361 34.062 12.6461 34.5142 12.5899 34.992C12.5337 35.4697 12.6137 35.9536 12.8205 36.388C13.0273 36.8223 13.3526 37.1894 13.7589 37.447C14.1652 37.7045 14.636 37.8421 15.117 37.8438H39.8854C40.3684 37.8436 40.8414 37.7064 41.2496 37.4482C41.6578 37.1899 41.9844 36.8212 42.1914 36.3848C42.3985 35.9484 42.4775 35.4622 42.4194 34.9827C42.3612 34.5032 42.1682 34.0501 41.8629 33.6758C41.6961 33.5036 41.5653 33.2999 41.4781 33.0765C41.391 32.8532 41.3493 32.6147 41.3554 32.375Z" fill="white"/>
<path d="M24.585 32.0092C24.3688 32.009 24.1575 31.9447 23.9778 31.8245C23.7981 31.7043 23.6581 31.5336 23.5754 31.3339C23.4927 31.1341 23.471 30.9144 23.5132 30.7023C23.5553 30.4903 23.6593 30.2955 23.8121 30.1425L29.6454 24.3092C29.8527 24.116 30.127 24.0108 30.4103 24.0158C30.6937 24.0208 30.964 24.1356 31.1644 24.336C31.3648 24.5364 31.4796 24.8067 31.4846 25.0901C31.4896 25.3734 31.3844 25.6477 31.1912 25.855L25.3579 31.6883C25.2567 31.7903 25.1363 31.8712 25.0036 31.9263C24.8709 31.9814 24.7286 32.0095 24.585 32.0092Z" fill="#158466"/>
<path d="M24.5833 26.5417C25.3887 26.5417 26.0417 25.8887 26.0417 25.0833C26.0417 24.2779 25.3887 23.625 24.5833 23.625C23.7779 23.625 23.125 24.2779 23.125 25.0833C23.125 25.8887 23.7779 26.5417 24.5833 26.5417Z" fill="#158466"/>
<path d="M30.4154 32.3737C31.2208 32.3737 31.8737 31.7208 31.8737 30.9154C31.8737 30.1099 31.2208 29.457 30.4154 29.457C29.6099 29.457 28.957 30.1099 28.957 30.9154C28.957 31.7208 29.6099 32.3737 30.4154 32.3737Z" fill="#158466"/>
</svg>
