<svg width="55" height="56" viewBox="0 0 55 56" fill="none" xmlns="http://www.w3.org/2000/svg">
<path d="M0 10.5C0 4.97715 4.47715 0.5 10 0.5H45C50.5228 0.5 55 4.97715 55 10.5V45.5C55 51.0228 50.5228 55.5 45 55.5H10C4.47715 55.5 0 51.0228 0 45.5V10.5Z" fill="#13B086"/>
<path d="M39.5 17.5654C39.5 16.4247 38.5753 15.5 37.4346 15.5H18.0654C16.9247 15.5 16 16.4247 16 17.5654V21.6963C16 22.0765 16.3083 22.3848 16.6885 22.3848H38.8115C39.1917 22.3848 39.5 22.0765 39.5 21.6963V17.5654Z" fill="#13B086"/>
<path d="M37.4346 15.5H27.75V22.3848H38.8115C39.1917 22.3848 39.5 22.0765 39.5 21.6963V17.5654C39.5 16.4247 38.5753 15.5 37.4346 15.5Z" fill="#158466"/>
<path d="M19.7236 19.2871H18.8057C18.4254 19.2871 18.1172 18.9789 18.1172 18.5986C18.1172 18.2184 18.4254 17.9102 18.8057 17.9102H19.7236C20.1039 17.9102 20.4121 18.2184 20.4121 18.5986C20.4121 18.9789 20.1039 19.2871 19.7236 19.2871Z" fill="white"/>
<path d="M23.3955 19.2871H22.4775C22.0973 19.2871 21.7891 18.9789 21.7891 18.5986C21.7891 18.2184 22.0973 17.9102 22.4775 17.9102H23.3955C23.7757 17.9102 24.084 18.2184 24.084 18.5986C24.084 18.9789 23.7757 19.2871 23.3955 19.2871Z" fill="white"/>
<path d="M27.0674 19.2871H26.1494C25.7692 19.2871 25.4609 18.9789 25.4609 18.5986C25.4609 18.2184 25.7692 17.9102 26.1494 17.9102H27.0674C27.4476 17.9102 27.7559 18.2184 27.7559 18.5986C27.7559 18.9789 27.4476 19.2871 27.0674 19.2871Z" fill="white"/>
<path d="M16 21.6953V36.9336C16 38.0725 16.9266 38.999 18.0654 38.999H37.4346C38.5734 38.999 39.5 38.0725 39.5 36.9336V21.6953H16Z" fill="#F9F9F9"/>
<path d="M27.75 38.999H37.4346C38.5734 38.999 39.5 38.0725 39.5 36.9336V21.6953H27.75V38.999Z" fill="#13B086" fill-opacity="0.11"/>
<path d="M23.9439 32.8088C23.44 32.8088 23.4103 32.8037 23.3776 32.7981C23.1572 32.7604 22.9961 32.5693 22.9961 32.3458V27.7598C22.9961 27.5063 23.2016 27.3008 23.4551 27.3008C23.7085 27.3008 23.9141 27.5063 23.9141 27.7598V31.8906C24.225 31.8906 24.6579 31.889 25.0598 31.8868H25.0624C25.3147 31.8868 25.5199 32.0906 25.5213 32.3432C25.5227 32.5966 25.3184 32.8033 25.0649 32.8047C24.5437 32.8076 24.1881 32.8088 23.9439 32.8088Z" fill="#158466"/>
<path d="M21.362 29.726C21.5532 29.4724 21.6667 29.1572 21.6667 28.8159C21.6667 27.9804 20.987 27.3008 20.1516 27.3008H18.8184C18.5649 27.3008 18.3594 27.5063 18.3594 27.7598V32.3496C18.3594 32.4717 18.408 32.5887 18.4945 32.6749C18.5806 32.7605 18.697 32.8086 18.8184 32.8086H18.8204C18.8327 32.8085 20.051 32.8031 20.3844 32.8031C21.3187 32.8031 22.0788 32.043 22.0788 31.1087C22.0788 30.5383 21.7952 30.0333 21.362 29.726ZM20.1516 28.2188C20.4808 28.2188 20.7487 28.4866 20.7487 28.8159C20.7487 29.1452 20.4808 29.413 20.1516 29.413C20.0534 29.413 19.2773 29.4143 19.2773 29.4143V28.2188H20.1516ZM20.3844 31.8852C20.1831 31.8852 19.6636 31.8871 19.2773 31.8887V30.3337C19.4016 30.3332 20.3844 30.3323 20.3844 30.3323C20.8126 30.3323 21.1609 30.6806 21.1609 31.1087C21.1609 31.5369 20.8126 31.8852 20.3844 31.8852Z" fill="#158466"/>
<path d="M34.7031 32.8086C33.1846 32.8086 31.9492 31.5732 31.9492 30.0547C31.9492 28.5362 33.1846 27.3008 34.7031 27.3008C35.2549 27.3008 35.7874 27.4635 36.2432 27.7713C36.4532 27.9133 36.5084 28.1986 36.3665 28.4086C36.2247 28.6187 35.9392 28.6738 35.7293 28.532C35.4259 28.3271 35.071 28.2187 34.7031 28.2187C33.6908 28.2187 32.8672 29.0423 32.8672 30.0546C32.8672 31.067 33.6908 31.8906 34.7031 31.8906C35.6268 31.8906 36.0605 31.2221 36.1856 30.5136H35.3111C35.0577 30.5136 34.8522 30.3081 34.8522 30.0546C34.8522 29.8011 35.0577 29.5957 35.3111 29.5957H36.6842C36.9376 29.5957 37.1432 29.8011 37.1432 30.0546C37.1432 31.6761 36.1398 32.8086 34.7031 32.8086Z" fill="#158466"/>
<path d="M28.2773 32.8086C26.7588 32.8086 25.5234 31.5732 25.5234 30.0547C25.5234 28.5362 26.7588 27.3008 28.2773 27.3008C29.7958 27.3008 31.0313 28.5362 31.0313 30.0547C31.0313 31.5732 29.7958 32.8086 28.2773 32.8086ZM28.2773 28.2188C27.265 28.2188 26.4414 29.0424 26.4414 30.0547C26.4414 31.067 27.265 31.8906 28.2773 31.8906C29.2897 31.8906 30.1133 31.067 30.1133 30.0547C30.1133 29.0424 29.2897 28.2188 28.2773 28.2188Z" fill="#158466"/>
<path d="M28.2754 27.3008C28.0957 27.3008 27.9201 27.3186 27.75 27.3516V28.2957C27.9166 28.2459 28.0928 28.2188 28.2754 28.2188C29.2877 28.2188 30.1113 29.0424 30.1113 30.0547C30.1113 31.067 29.2877 31.8906 28.2754 31.8906C28.0928 31.8906 27.9165 31.8635 27.75 31.8137V32.7577C27.9202 32.7907 28.0957 32.8086 28.2754 32.8086C29.7939 32.8086 31.0293 31.5732 31.0293 30.0547C31.0293 28.5362 29.7939 27.3008 28.2754 27.3008Z" fill="#158466"/>
</svg>
