<svg width="55" height="56" viewBox="0 0 55 56" fill="none" xmlns="http://www.w3.org/2000/svg">
<path d="M0 10.5C0 4.97715 4.47715 0.5 10 0.5H45C50.5228 0.5 55 4.97715 55 10.5V45.5C55 51.0228 50.5228 55.5 45 55.5H10C4.47715 55.5 0 51.0228 0 45.5V10.5Z" fill="#13B086"/>
<g clip-path="url(#clip0_1207_10934)">
<path d="M28.8203 31.9886C29.7634 31.757 30.4609 31.1499 30.4609 30.4523C30.4609 29.7546 29.7634 29.1476 28.8203 28.916V31.9886Z" fill="white"/>
<path d="M28 18.9766C23.0245 18.9766 18.9766 23.0245 18.9766 28C18.9766 32.9755 23.0245 37.0234 28 37.0234C32.9755 37.0234 37.0234 32.9755 37.0234 28C37.0234 23.0245 32.9755 18.9766 28 18.9766ZM32.1016 30.453C32.1016 32.0378 30.6901 33.363 28.8203 33.6678V34.5625C28.8203 35.0159 28.4534 35.3828 28 35.3828C27.5466 35.3828 27.1797 35.0159 27.1797 34.5625V33.6678C25.3099 33.363 23.8984 32.0378 23.8984 30.453C23.8984 29.9995 24.2653 29.6326 24.7188 29.6326C25.1722 29.6326 25.5391 29.9995 25.5391 30.453C25.5391 31.1506 26.2366 31.7576 27.1797 31.9892V28.7459C25.3099 28.4411 23.8984 27.1159 23.8984 25.5311C23.8984 23.9462 25.3099 22.621 27.1797 22.3162V21.4295C27.1797 20.9761 27.5466 20.6092 28 20.6092C28.4534 20.6092 28.8203 20.9761 28.8203 21.4295V22.3162C30.6901 22.621 32.1016 23.9462 32.1016 25.5311C32.1016 25.9845 31.7347 26.3514 31.2812 26.3514C30.8278 26.3514 30.4609 25.9845 30.4609 25.5311C30.4609 24.8334 29.7634 24.2264 28.8203 23.9948V27.2381C30.6901 27.5429 32.1016 28.8681 32.1016 30.453Z" fill="white"/>
<path d="M27.1797 23.9941C26.2366 24.2257 25.5391 24.8328 25.5391 25.5304C25.5391 26.2281 26.2366 26.8351 27.1797 27.0667V23.9941Z" fill="white"/>
<path d="M28 14C20.3104 14 14 20.3104 14 28C14 35.6896 20.3104 42 28 42C35.6896 42 42 35.6896 42 28C42 20.3104 35.6896 14 28 14ZM28 38.6641C22.12 38.6641 17.3359 33.88 17.3359 28C17.3359 22.12 22.12 17.3359 28 17.3359C33.88 17.3359 38.6641 22.12 38.6641 28C38.6641 33.88 33.88 38.6641 28 38.6641Z" fill="white"/>
</g>
<defs>
<clipPath id="clip0_1207_10934">
<rect width="28" height="28" fill="white" transform="translate(14 14)"/>
</clipPath>
</defs>
</svg>
