<svg width="55" height="56" viewBox="0 0 55 56" fill="none" xmlns="http://www.w3.org/2000/svg">
<path d="M0 10.5C0 4.97715 4.47715 0.5 10 0.5H45C50.5228 0.5 55 4.97715 55 10.5V45.5C55 51.0228 50.5228 55.5 45 55.5H10C4.47715 55.5 0 51.0228 0 45.5V10.5Z" fill="#1378B0"/>
<g clip-path="url(#clip0_797_12360)">
<path d="M27.498 15C23.8633 15 20.9062 17.9571 20.9062 21.5918C20.9062 25.2265 23.8633 28.1836 27.498 28.1836C31.1328 28.1836 34.0898 25.2265 34.0898 21.5918C34.0898 17.9571 31.1328 15 27.498 15ZM29.8564 22.988C29.7469 23.7372 29.1774 24.4958 28.252 24.7799V25.3731C28.252 25.81 27.8979 26.1641 27.461 26.1641C27.0242 26.1641 26.67 25.81 26.67 25.3731V24.8558C26.2952 24.8013 25.9592 24.6819 25.5217 24.435C25.1412 24.2202 25.0069 23.7377 25.2217 23.3573C25.4364 22.9769 25.919 22.8426 26.2994 23.0572C26.7235 23.2966 26.8866 23.3182 27.4565 23.3152C28.0096 23.312 28.2586 22.981 28.291 22.7593C28.3201 22.5605 28.1799 22.4124 27.8744 22.3193C26.9413 22.0347 26.398 21.8085 25.9991 21.5385C25.465 21.177 25.204 20.5404 25.3181 19.8771C25.4396 19.1711 25.965 18.5882 26.6701 18.3634V17.8105C26.6701 17.3737 27.0242 17.0195 27.4611 17.0195C27.8979 17.0195 28.2521 17.3737 28.2521 17.8105V18.317C28.6106 18.4084 28.8757 18.5513 29.0257 18.6473C29.0259 18.6471 29.0261 18.6468 29.0264 18.6466C29.1501 18.7237 29.278 18.8136 29.416 18.9215C29.7602 19.1906 29.821 19.6877 29.552 20.0319C29.2829 20.3761 28.7858 20.4369 28.4416 20.1679C28.3072 20.0627 28.2004 19.9893 28.0942 19.9341C28.0942 19.934 28.0942 19.934 28.0942 19.9339C27.9516 19.8638 27.6227 19.7461 27.1763 19.8622C26.9836 19.9123 26.9143 20.031 26.8902 20.0973C26.8648 20.167 26.8751 20.2158 26.8815 20.2248C26.8815 20.2248 26.8826 20.226 26.8859 20.2281C27.2069 20.4455 27.7991 20.6422 28.336 20.8059C28.8676 20.9681 29.2909 21.2651 29.5601 21.6649C29.8196 22.0503 29.9248 22.5202 29.8564 22.988Z" fill="white"/>
<path d="M20.907 38.8125C20.9069 38.8174 20.9062 38.8221 20.9062 38.8271V41.2487C20.9062 41.665 21.2604 42.0024 21.6973 42.0024H33.2988C33.7357 42.0024 34.0898 41.665 34.0898 41.2487V38.8271C34.0898 38.8222 34.0892 38.8174 34.0891 38.8125H20.907Z" fill="white"/>
<path d="M34.0898 30.5076C34.0898 30.0914 33.7357 29.7539 33.2988 29.7539H21.6973C21.2604 29.7539 20.9062 30.0914 20.9062 30.5076V32.8412H34.0898V30.5076Z" fill="white"/>
<path d="M34.0895 37.2219L34.0898 34.4023H20.9062L20.9066 37.2219H34.0895Z" fill="white"/>
</g>
<defs>
<clipPath id="clip0_797_12360">
<rect width="27" height="27" fill="white" transform="translate(14 15)"/>
</clipPath>
</defs>
</svg>
