<svg width="55" height="56" viewBox="0 0 55 56" fill="none" xmlns="http://www.w3.org/2000/svg">
<path d="M0 10.5C0 4.97715 4.47715 0.5 10 0.5H45C50.5228 0.5 55 4.97715 55 10.5V45.5C55 51.0228 50.5228 55.5 45 55.5H10C4.47715 55.5 0 51.0228 0 45.5V10.5Z" fill="#FF810D"/>
<path d="M41.5658 25.4799H12.6134C12.2746 25.4799 12 25.2023 12 24.8599V23.62C12 23.2776 12.2746 23 12.6134 23H41.5658C41.9046 23 42.1792 23.2776 42.1792 23.62V24.8599C42.1792 25.2023 41.9046 25.4799 41.5658 25.4799Z" fill="white"/>
<path d="M41.5704 23H39.9756C40.3143 23 40.589 23.2776 40.589 23.62V24.8599C40.589 25.2023 40.3143 25.4799 39.9756 25.4799H41.5704C41.9092 25.4799 42.1838 25.2023 42.1838 24.8599V23.62C42.1838 23.2776 41.9092 23 41.5704 23Z" fill="white"/>
<path d="M13.627 25.4805L15.545 36.9497C15.6947 37.8444 16.4621 38.4996 17.3594 38.4996H36.8293C37.7243 38.4996 38.4892 37.8493 38.6426 36.9584L40.6165 25.4805H13.627V25.4805ZM22.92 34.9039C22.92 35.2461 22.6452 35.5238 22.3065 35.5238H21.0797C20.7412 35.5238 20.4663 35.2461 20.4663 34.9039V28.7043C20.4663 28.3621 20.7411 28.0844 21.0797 28.0844H22.3065C22.6451 28.0844 22.92 28.3621 22.92 28.7043V34.9039ZM28.3179 34.9039C28.3179 35.2461 28.0431 35.5238 27.7044 35.5238H26.4776C26.1391 35.5238 25.8642 35.2461 25.8642 34.9039V28.7043C25.8642 28.3621 26.139 28.0844 26.4776 28.0844H27.7044C28.043 28.0844 28.3179 28.3621 28.3179 28.7043V34.9039ZM33.7158 34.9039C33.7158 35.2461 33.441 35.5238 33.1024 35.5238H31.8756C31.537 35.5238 31.2622 35.2461 31.2622 34.9039V28.7043C31.2622 28.3621 31.537 28.0844 31.8756 28.0844H33.1024C33.441 28.0844 33.7158 28.3621 33.7158 28.7043V34.9039Z" fill="white"/>
<path d="M38.9903 25.4805L37.0164 36.9584C36.863 37.8493 36.0981 38.4996 35.2031 38.4996H36.8286C37.7236 38.4996 38.4885 37.8493 38.6418 36.9584L40.6158 25.4805H38.9903Z" fill="white"/>
</svg>
