<svg width="55" height="56" viewBox="0 0 55 56" fill="none" xmlns="http://www.w3.org/2000/svg">
<path d="M0 10.5C0 4.97715 4.47715 0.5 10 0.5H45C50.5228 0.5 55 4.97715 55 10.5V45.5C55 51.0228 50.5228 55.5 45 55.5H10C4.47715 55.5 0 51.0228 0 45.5V10.5Z" fill="#1378B0"/>
<path d="M41.5658 30.4799H12.6134C12.2746 30.4799 12 30.2023 12 29.8599V28.62C12 28.2776 12.2746 28 12.6134 28H41.5658C41.9046 28 42.1792 28.2776 42.1792 28.62V29.8599C42.1792 30.2023 41.9046 30.4799 41.5658 30.4799Z" fill="white"/>
<path d="M41.5695 28H39.9746C40.3134 28 40.588 28.2776 40.588 28.62V29.8599C40.588 30.2023 40.3134 30.4799 39.9746 30.4799H41.5695C41.9082 30.4799 42.1828 30.2023 42.1828 29.8599V28.62C42.1828 28.2776 41.9082 28 41.5695 28Z" fill="white"/>
<path d="M13.627 30.4805L15.545 41.9497C15.6947 42.8444 16.4621 43.4996 17.3594 43.4996H36.8293C37.7243 43.4996 38.4892 42.8493 38.6426 41.9584L40.6165 30.4805H13.627V30.4805ZM22.92 39.9039C22.92 40.2461 22.6452 40.5238 22.3065 40.5238H21.0797C20.7412 40.5238 20.4663 40.2461 20.4663 39.9039V33.7043C20.4663 33.3621 20.7411 33.0844 21.0797 33.0844H22.3065C22.6451 33.0844 22.92 33.3621 22.92 33.7043V39.9039ZM28.3179 39.9039C28.3179 40.2461 28.0431 40.5238 27.7044 40.5238H26.4776C26.1391 40.5238 25.8642 40.2461 25.8642 39.9039V33.7043C25.8642 33.3621 26.139 33.0844 26.4776 33.0844H27.7044C28.043 33.0844 28.3179 33.3621 28.3179 33.7043V39.9039ZM33.7158 39.9039C33.7158 40.2461 33.441 40.5238 33.1024 40.5238H31.8756C31.537 40.5238 31.2622 40.2461 31.2622 39.9039V33.7043C31.2622 33.3621 31.537 33.0844 31.8756 33.0844H33.1024C33.441 33.0844 33.7158 33.3621 33.7158 33.7043V39.9039Z" fill="white"/>
<path d="M38.9903 30.4805L37.0164 41.9584C36.863 42.8493 36.0981 43.4996 35.2031 43.4996H36.8286C37.7236 43.4996 38.4885 42.8493 38.6418 41.9584L40.6158 30.4805H38.9903Z" fill="white"/>
<path d="M29.4 25H24.6V19H21L27 13L33 19H29.4V25Z" fill="white"/>
</svg>
