<svg width="104" height="46" viewBox="0 0 104 46" fill="none" xmlns="http://www.w3.org/2000/svg">
<path d="M0.987 42.1484L5.108 33.0484H6.395L10.529 42.1484H9.164L5.485 33.7764H6.005L2.326 42.1484H0.987ZM2.742 39.8734L3.093 38.8334H8.215L8.592 39.8734H2.742ZM14.488 42.2264C13.8207 42.2264 13.2227 42.0791 12.694 41.7844C12.174 41.4898 11.7623 41.0781 11.459 40.5494C11.1557 40.0208 11.004 39.4054 11.004 38.7034C11.004 38.0014 11.1557 37.3904 11.459 36.8704C11.7623 36.3418 12.174 35.9301 12.694 35.6354C13.2227 35.3408 13.8207 35.1934 14.488 35.1934C15.0687 35.1934 15.593 35.3234 16.061 35.5834C16.529 35.8434 16.9017 36.2334 17.179 36.7534C17.465 37.2734 17.608 37.9234 17.608 38.7034C17.608 39.4834 17.4693 40.1334 17.192 40.6534C16.9233 41.1734 16.555 41.5678 16.087 41.8364C15.619 42.0964 15.086 42.2264 14.488 42.2264ZM14.592 41.1344C15.0253 41.1344 15.4153 41.0348 15.762 40.8354C16.1173 40.6361 16.3947 40.3544 16.594 39.9904C16.802 39.6178 16.906 39.1888 16.906 38.7034C16.906 38.2094 16.802 37.7848 16.594 37.4294C16.3947 37.0654 16.1173 36.7838 15.762 36.5844C15.4153 36.3851 15.0253 36.2854 14.592 36.2854C14.15 36.2854 13.7557 36.3851 13.409 36.5844C13.0623 36.7838 12.785 37.0654 12.577 37.4294C12.369 37.7848 12.265 38.2094 12.265 38.7034C12.265 39.1888 12.369 39.6178 12.577 39.9904C12.785 40.3544 13.0623 40.6361 13.409 40.8354C13.7557 41.0348 14.15 41.1344 14.592 41.1344ZM16.945 42.1484V40.2894L17.023 38.6904L16.893 37.0914V32.5024H18.141V42.1484H16.945ZM29.1213 35.1934C29.676 35.1934 30.1657 35.3018 30.5903 35.5184C31.015 35.7351 31.3443 36.0644 31.5783 36.5064C31.821 36.9484 31.9423 37.5074 31.9423 38.1834V42.1484H30.6943V38.3264C30.6943 37.6591 30.5383 37.1564 30.2263 36.8184C29.9143 36.4804 29.4767 36.3114 28.9133 36.3114C28.4973 36.3114 28.1333 36.3981 27.8213 36.5714C27.5093 36.7448 27.2667 37.0004 27.0933 37.3384C26.9287 37.6764 26.8463 38.0968 26.8463 38.5994V42.1484H25.5983V38.3264C25.5983 37.6591 25.4423 37.1564 25.1303 36.8184C24.827 36.4804 24.3893 36.3114 23.8173 36.3114C23.41 36.3114 23.0503 36.3981 22.7383 36.5714C22.4263 36.7448 22.1837 37.0004 22.0103 37.3384C21.837 37.6764 21.7503 38.0968 21.7503 38.5994V42.1484H20.5023V35.2584H21.6983V37.0914L21.5033 36.6234C21.72 36.1728 22.0537 35.8218 22.5043 35.5704C22.955 35.3191 23.4793 35.1934 24.0773 35.1934C24.736 35.1934 25.3037 35.3581 25.7803 35.6874C26.257 36.0081 26.569 36.4978 26.7163 37.1564L26.2093 36.9484C26.4173 36.4198 26.7813 35.9951 27.3013 35.6744C27.8213 35.3538 28.428 35.1934 29.1213 35.1934ZM34.2387 42.1484V35.2584H35.4867V42.1484H34.2387ZM34.8627 33.9324C34.62 33.9324 34.4163 33.8544 34.2517 33.6984C34.0957 33.5424 34.0177 33.3518 34.0177 33.1264C34.0177 32.8924 34.0957 32.6974 34.2517 32.5414C34.4163 32.3854 34.62 32.3074 34.8627 32.3074C35.1053 32.3074 35.3047 32.3854 35.4607 32.5414C35.6253 32.6888 35.7077 32.8751 35.7077 33.1004C35.7077 33.3344 35.6297 33.5338 35.4737 33.6984C35.3177 33.8544 35.114 33.9324 34.8627 33.9324ZM41.5485 35.1934C42.1119 35.1934 42.6059 35.3018 43.0305 35.5184C43.4639 35.7351 43.8019 36.0644 44.0445 36.5064C44.2872 36.9484 44.4085 37.5074 44.4085 38.1834V42.1484H43.1605V38.3264C43.1605 37.6591 42.9959 37.1564 42.6665 36.8184C42.3459 36.4804 41.8909 36.3114 41.3015 36.3114C40.8595 36.3114 40.4739 36.3981 40.1445 36.5714C39.8152 36.7448 39.5595 37.0004 39.3775 37.3384C39.2042 37.6764 39.1175 38.0968 39.1175 38.5994V42.1484H37.8695V35.2584H39.0655V37.1174L38.8705 36.6234C39.0959 36.1728 39.4425 35.8218 39.9105 35.5704C40.3785 35.3191 40.9245 35.1934 41.5485 35.1934ZM54.4604 42.2524C53.767 42.2524 53.1257 42.1398 52.5364 41.9144C51.9557 41.6804 51.4487 41.3554 51.0154 40.9394C50.5907 40.5148 50.257 40.0208 50.0144 39.4574C49.7717 38.8941 49.6504 38.2744 49.6504 37.5984C49.6504 36.9224 49.7717 36.3028 50.0144 35.7394C50.257 35.1761 50.595 34.6864 51.0284 34.2704C51.4617 33.8458 51.9687 33.5208 52.5494 33.2954C53.1387 33.0614 53.78 32.9444 54.4734 32.9444C55.1754 32.9444 55.821 33.0658 56.4104 33.3084C57.0084 33.5424 57.5154 33.8934 57.9314 34.3614L57.0864 35.1804C56.7397 34.8164 56.3497 34.5478 55.9164 34.3744C55.483 34.1924 55.0194 34.1014 54.5254 34.1014C54.014 34.1014 53.5374 34.1881 53.0954 34.3614C52.662 34.5348 52.285 34.7774 51.9644 35.0894C51.6437 35.4014 51.3924 35.7741 51.2104 36.2074C51.037 36.6321 50.9504 37.0958 50.9504 37.5984C50.9504 38.1011 51.037 38.5691 51.2104 39.0024C51.3924 39.4271 51.6437 39.7954 51.9644 40.1074C52.285 40.4194 52.662 40.6621 53.0954 40.8354C53.5374 41.0088 54.014 41.0954 54.5254 41.0954C55.0194 41.0954 55.483 41.0088 55.9164 40.8354C56.3497 40.6534 56.7397 40.3761 57.0864 40.0034L57.9314 40.8224C57.5154 41.2904 57.0084 41.6458 56.4104 41.8884C55.821 42.1311 55.171 42.2524 54.4604 42.2524ZM62.3799 42.2264C61.6432 42.2264 60.9932 42.0748 60.4299 41.7714C59.8752 41.4681 59.4419 41.0521 59.1299 40.5234C58.8266 39.9948 58.6749 39.3881 58.6749 38.7034C58.6749 38.0188 58.8222 37.4121 59.1169 36.8834C59.4202 36.3548 59.8319 35.9431 60.3519 35.6484C60.8806 35.3451 61.4742 35.1934 62.1329 35.1934C62.8002 35.1934 63.3896 35.3408 63.9009 35.6354C64.4122 35.9301 64.8109 36.3461 65.0969 36.8834C65.3916 37.4121 65.5389 38.0318 65.5389 38.7424C65.5389 38.7944 65.5346 38.8551 65.5259 38.9244C65.5259 38.9938 65.5216 39.0588 65.5129 39.1194H59.6499V38.2224H64.8629L64.3559 38.5344C64.3646 38.0924 64.2736 37.6981 64.0829 37.3514C63.8922 37.0048 63.6279 36.7361 63.2899 36.5454C62.9606 36.3461 62.5749 36.2464 62.1329 36.2464C61.6996 36.2464 61.3139 36.3461 60.9759 36.5454C60.6379 36.7361 60.3736 37.0091 60.1829 37.3644C59.9922 37.7111 59.8969 38.1098 59.8969 38.5604V38.7684C59.8969 39.2278 60.0009 39.6394 60.2089 40.0034C60.4256 40.3588 60.7246 40.6361 61.1059 40.8354C61.4872 41.0348 61.9249 41.1344 62.4189 41.1344C62.8262 41.1344 63.1946 41.0651 63.5239 40.9264C63.8619 40.7878 64.1566 40.5798 64.4079 40.3024L65.0969 41.1084C64.7849 41.4724 64.3949 41.7498 63.9269 41.9404C63.4676 42.1311 62.9519 42.2264 62.3799 42.2264ZM70.9509 35.1934C71.5142 35.1934 72.0082 35.3018 72.4329 35.5184C72.8662 35.7351 73.2042 36.0644 73.4469 36.5064C73.6895 36.9484 73.8109 37.5074 73.8109 38.1834V42.1484H72.5629V38.3264C72.5629 37.6591 72.3982 37.1564 72.0689 36.8184C71.7482 36.4804 71.2932 36.3114 70.7039 36.3114C70.2619 36.3114 69.8762 36.3981 69.5469 36.5714C69.2175 36.7448 68.9619 37.0004 68.7799 37.3384C68.6065 37.6764 68.5199 38.0968 68.5199 38.5994V42.1484H67.2719V35.2584H68.4679V37.1174L68.2729 36.6234C68.4982 36.1728 68.8449 35.8218 69.3129 35.5704C69.7809 35.3191 70.3269 35.1934 70.9509 35.1934ZM78.4865 42.2264C77.7932 42.2264 77.2558 42.0401 76.8745 41.6674C76.4932 41.2948 76.3025 40.7618 76.3025 40.0684V33.7504H77.5505V40.0164C77.5505 40.3891 77.6415 40.6751 77.8235 40.8744C78.0142 41.0738 78.2828 41.1734 78.6295 41.1734C79.0195 41.1734 79.3445 41.0651 79.6045 40.8484L79.9945 41.7454C79.8038 41.9101 79.5742 42.0314 79.3055 42.1094C79.0455 42.1874 78.7725 42.2264 78.4865 42.2264ZM75.1325 36.2854V35.2584H79.5265V36.2854H75.1325ZM84.3428 42.2264C83.6061 42.2264 82.9561 42.0748 82.3928 41.7714C81.8381 41.4681 81.4048 41.0521 81.0928 40.5234C80.7895 39.9948 80.6378 39.3881 80.6378 38.7034C80.6378 38.0188 80.7851 37.4121 81.0798 36.8834C81.3831 36.3548 81.7948 35.9431 82.3148 35.6484C82.8435 35.3451 83.4371 35.1934 84.0958 35.1934C84.7631 35.1934 85.3525 35.3408 85.8638 35.6354C86.3751 35.9301 86.7738 36.3461 87.0598 36.8834C87.3545 37.4121 87.5018 38.0318 87.5018 38.7424C87.5018 38.7944 87.4975 38.8551 87.4888 38.9244C87.4888 38.9938 87.4845 39.0588 87.4758 39.1194H81.6128V38.2224H86.8258L86.3188 38.5344C86.3275 38.0924 86.2365 37.6981 86.0458 37.3514C85.8551 37.0048 85.5908 36.7361 85.2528 36.5454C84.9235 36.3461 84.5378 36.2464 84.0958 36.2464C83.6625 36.2464 83.2768 36.3461 82.9388 36.5454C82.6008 36.7361 82.3365 37.0091 82.1458 37.3644C81.9551 37.7111 81.8598 38.1098 81.8598 38.5604V38.7684C81.8598 39.2278 81.9638 39.6394 82.1718 40.0034C82.3885 40.3588 82.6875 40.6361 83.0688 40.8354C83.4501 41.0348 83.8878 41.1344 84.3818 41.1344C84.7891 41.1344 85.1575 41.0651 85.4868 40.9264C85.8248 40.7878 86.1195 40.5798 86.3708 40.3024L87.0598 41.1084C86.7478 41.4724 86.3578 41.7498 85.8898 41.9404C85.4305 42.1311 84.9148 42.2264 84.3428 42.2264ZM89.2348 42.1484V35.2584H90.4308V37.1304L90.3138 36.6624C90.5044 36.1858 90.8251 35.8218 91.2758 35.5704C91.7264 35.3191 92.2811 35.1934 92.9398 35.1934V36.4024C92.8878 36.3938 92.8358 36.3894 92.7838 36.3894C92.7404 36.3894 92.6971 36.3894 92.6538 36.3894C91.9864 36.3894 91.4578 36.5888 91.0678 36.9874C90.6778 37.3861 90.4828 37.9624 90.4828 38.7164V42.1484H89.2348Z" fill="#158466"/>
<path d="M6.11025 11.351H17.5572V15.8202H6.11025V11.351ZM6.51907 24.5866H1V0.521911H19.0221V4.99107H6.51907V24.5866Z" fill="#158466"/>
<path d="M34.1088 24.9991C32.2237 24.9991 30.4749 24.6897 28.8623 24.0709C27.2724 23.4521 25.887 22.5812 24.706 21.4582C23.5476 20.3352 22.6392 19.0173 21.9805 17.5047C21.3446 15.9921 21.0266 14.3419 21.0266 12.5543C21.0266 10.7666 21.3446 9.11644 21.9805 7.6038C22.6392 6.09117 23.559 4.77334 24.74 3.65032C25.9211 2.5273 27.3065 1.65639 28.8964 1.03758C30.4862 0.418777 32.2124 0.109375 34.0748 0.109375C35.9599 0.109375 37.686 0.418777 39.2531 1.03758C40.843 1.65639 42.2171 2.5273 43.3754 3.65032C44.5564 4.77334 45.4763 6.09117 46.1349 7.6038C46.7936 9.09352 47.1229 10.7437 47.1229 12.5543C47.1229 14.3419 46.7936 16.0035 46.1349 17.5391C45.4763 19.0517 44.5564 20.3695 43.3754 21.4926C42.2171 22.5927 40.843 23.4521 39.2531 24.0709C37.686 24.6897 35.9712 24.9991 34.1088 24.9991ZM34.0748 20.2549C35.1422 20.2549 36.1189 20.0716 37.0046 19.7049C37.9131 19.3382 38.708 18.8111 39.3894 18.1235C40.0708 17.4359 40.5932 16.6223 40.9566 15.6827C41.3427 14.743 41.5357 13.7002 41.5357 12.5543C41.5357 11.4083 41.3427 10.3655 40.9566 9.42584C40.5932 8.48617 40.0708 7.67256 39.3894 6.985C38.7308 6.29743 37.9472 5.7703 37.0387 5.4036C36.1302 5.0369 35.1422 4.85356 34.0748 4.85356C33.0073 4.85356 32.0193 5.0369 31.1108 5.4036C30.225 5.7703 29.4415 6.29743 28.7601 6.985C28.0787 7.67256 27.545 8.48617 27.1589 9.42584C26.7955 10.3655 26.6138 11.4083 26.6138 12.5543C26.6138 13.6773 26.7955 14.7201 27.1589 15.6827C27.545 16.6223 28.0674 17.4359 28.726 18.1235C29.4074 18.8111 30.2023 19.3382 31.1108 19.7049C32.0193 20.0716 33.0073 20.2549 34.0748 20.2549Z" fill="#158466"/>
<path d="M62.854 24.9991C60.9689 24.9991 59.22 24.6897 57.6075 24.0709C56.0176 23.4521 54.6322 22.5812 53.4511 21.4582C52.2928 20.3352 51.3843 19.0173 50.7257 17.5047C50.0897 15.9921 49.7717 14.3419 49.7717 12.5543C49.7717 10.7666 50.0897 9.11644 50.7257 7.6038C51.3843 6.09117 52.3041 4.77334 53.4852 3.65032C54.6662 2.5273 56.0517 1.65639 57.6415 1.03758C59.2314 0.418777 60.9575 0.109375 62.8199 0.109375C64.705 0.109375 66.4312 0.418777 67.9983 1.03758C69.5882 1.65639 70.9622 2.5273 72.1206 3.65032C73.3016 4.77334 74.2214 6.09117 74.8801 7.6038C75.5387 9.09352 75.8681 10.7437 75.8681 12.5543C75.8681 14.3419 75.5387 16.0035 74.8801 17.5391C74.2214 19.0517 73.3016 20.3695 72.1206 21.4926C70.9622 22.5927 69.5882 23.4521 67.9983 24.0709C66.4312 24.6897 64.7164 24.9991 62.854 24.9991ZM62.8199 20.2549C63.8874 20.2549 64.864 20.0716 65.7498 19.7049C66.6583 19.3382 67.4532 18.8111 68.1346 18.1235C68.8159 17.4359 69.3383 16.6223 69.7017 15.6827C70.0878 14.743 70.2809 13.7002 70.2809 12.5543C70.2809 11.4083 70.0878 10.3655 69.7017 9.42584C69.3383 8.48617 68.8159 7.67256 68.1346 6.985C67.4759 6.29743 66.6923 5.7703 65.7839 5.4036C64.8754 5.0369 63.8874 4.85356 62.8199 4.85356C61.7524 4.85356 60.7645 5.0369 59.856 5.4036C58.9702 5.7703 58.1866 6.29743 57.5052 6.985C56.8239 7.67256 56.2901 8.48617 55.904 9.42584C55.5406 10.3655 55.3589 11.4083 55.3589 12.5543C55.3589 13.6773 55.5406 14.7201 55.904 15.6827C56.2901 16.6223 56.8125 17.4359 57.4712 18.1235C58.1525 18.8111 58.9475 19.3382 59.856 19.7049C60.7645 20.0716 61.7524 20.2549 62.8199 20.2549Z" fill="#158466"/>
<path d="M80.0159 24.5866V0.521911H90.8496C93.4388 0.521911 95.7214 1.02612 97.6974 2.03455C99.6733 3.02005 101.218 4.40664 102.331 6.1943C103.444 7.98196 104 10.1019 104 12.5543C104 14.9836 103.444 17.1036 102.331 18.9142C101.218 20.7019 99.6733 22.0999 97.6974 23.1083C95.7214 24.0938 93.4388 24.5866 90.8496 24.5866H80.0159ZM85.535 20.0143H90.5771C92.1669 20.0143 93.541 19.7164 94.6993 19.1205C95.8804 18.5017 96.7889 17.6308 97.4248 16.5077C98.0835 15.3847 98.4128 14.0669 98.4128 12.5543C98.4128 11.0187 98.0835 9.70087 97.4248 8.60077C96.7889 7.47775 95.8804 6.6183 94.6993 6.02241C93.541 5.4036 92.1669 5.0942 90.5771 5.0942H85.535V20.0143Z" fill="#158466"/>
</svg>
