<svg width="40" height="41" viewBox="0 0 40 41" fill="none" xmlns="http://www.w3.org/2000/svg">
<path d="M0 20.5C0 9.45431 8.95431 0.5 20 0.5C31.0457 0.5 40 9.45431 40 20.5C40 31.5457 31.0457 40.5 20 40.5C8.95431 40.5 0 31.5457 0 20.5Z" fill="#96D2C2"/>
<path d="M22.7957 27.423C22.7957 28.6559 23.2472 29.7855 23.9944 30.6548C23.2846 30.7883 22.552 30.8579 21.8038 30.8579C18.7492 30.8579 15.9647 29.6992 13.8672 27.7971V27.7903C13.8672 24.6266 15.7185 21.8956 18.3964 20.6211C19.4028 21.6249 20.5812 22.1658 21.8038 22.1658C23.0269 22.1658 24.2048 21.6249 25.2118 20.6211C26.1517 21.0685 26.9898 21.6951 27.6813 22.4573C24.9795 22.5005 22.7957 24.7113 22.7957 27.423Z" fill="#13B086"/>
<path d="M21.804 10.6289C24.2284 10.6289 26.194 12.594 26.194 15.0183C26.194 17.4432 24.2284 20.7592 21.804 20.7592C19.3796 20.7592 17.4141 17.4432 17.4141 15.0183C17.4141 12.594 19.3796 10.6289 21.804 10.6289Z" fill="white"/>
<path d="M18.1015 19.2239C18.2361 19.4156 18.3754 19.5954 18.5193 19.7642L18.0813 19.9726C16.6233 20.6662 15.3898 21.7516 14.5133 23.1114C13.8004 24.2176 13.3536 25.4646 13.1982 26.7646C11.614 26.3328 10.1821 25.5321 9 24.4602V24.4545C9 21.6976 10.6133 19.3179 12.9468 18.207C13.8238 19.082 14.8505 19.5533 15.9157 19.5533C16.6135 19.5533 17.2951 19.3512 17.9285 18.9656C17.9841 19.053 18.0423 19.1392 18.1015 19.2239Z" fill="#158466"/>
<path d="M16.6874 15.0263C16.6874 15.9376 16.9243 16.9404 17.3462 17.883C16.9051 18.1625 16.4234 18.3272 15.9189 18.3272C13.8063 18.3272 12.0938 15.4378 12.0938 13.3247C12.0938 11.212 13.8063 9.5 15.9189 9.5C17.0906 9.5 18.1396 10.0269 18.8411 10.8566C17.5385 11.7856 16.6874 13.3085 16.6874 15.0263Z" fill="white"/>
<path d="M27.7628 31.6701C30.1041 31.6701 32.0021 29.7721 32.0021 27.4307C32.0021 25.0894 30.1041 23.1914 27.7628 23.1914C25.4215 23.1914 23.5234 25.0894 23.5234 27.4307C23.5234 29.7721 25.4215 31.6701 27.7628 31.6701Z" fill="white"/>
<path d="M30.6902 27.0391H24.8281V27.8184H30.6902V27.0391Z" fill="#13B086"/>
<path d="M28.1466 24.5H27.3672V30.362H28.1466V24.5Z" fill="#13B086"/>
</svg>
