<svg width="24" height="24" viewBox="0 0 24 24" fill="none" xmlns="http://www.w3.org/2000/svg">
<g clip-path="url(#clip0_1239_6748)">
<path d="M14.0001 20.0021C14.0001 22.2112 12.2091 24.002 9.99994 24.002C7.79077 24.002 6 22.2112 6 20.0021C6 17.7929 7.79077 16.002 9.99994 16.002C12.2091 16.002 14.0001 17.7929 14.0001 20.0021Z" fill="#13B086"/>
<path d="M17.82 14.9821C17.7131 14.9859 17.608 14.998 17.4999 14.998C12.813 14.998 9 11.185 9 6.49805C9 4.85101 9.479 3.31696 10.2931 2.01306C10.1949 2.00903 10.099 1.99805 9.99994 1.99805C6.14008 1.99805 3 5.13794 3 8.99799V11.7859C3 13.765 2.133 15.633 0.611939 16.9189C0.223022 17.2509 0 17.736 0 18.2479C0 19.2131 0.784973 19.998 1.74994 19.998H18.2499C19.2151 19.998 20.0001 19.2131 20.0001 18.2479C20.0001 17.736 19.777 17.2509 19.3781 16.91C18.733 16.364 18.213 15.7061 17.82 14.9821Z" fill="#158466"/>
</g>
<defs>
<clipPath id="clip0_1239_6748">
<rect width="24" height="24" fill="white"/>
</clipPath>
</defs>
</svg>
