<svg width="40" height="41" viewBox="0 0 40 41" fill="none" xmlns="http://www.w3.org/2000/svg">
<path d="M0 20.5C0 9.45431 8.95431 0.5 20 0.5C31.0457 0.5 40 9.45431 40 20.5C40 31.5457 31.0457 40.5 20 40.5C8.95431 40.5 0 31.5457 0 20.5Z" fill="#13B086"/>
<g clip-path="url(#clip0_449_11197)">
<path d="M15.0646 18.9062C14.0425 18.9062 13.2109 19.7664 13.2109 20.8239V26.0227C13.2109 27.0801 14.0425 27.9403 15.0646 27.9403C16.0868 27.9403 16.9183 27.0801 16.9183 26.0227V20.8239C16.9183 19.7664 16.0868 18.9062 15.0646 18.9062Z" fill="white"/>
<path d="M11.9624 20.8196C11.9624 20.6352 11.9859 20.4571 12.015 20.2812C11.2703 20.5302 10.7266 21.2458 10.7266 22.098V24.7401C10.7266 25.5923 11.2703 26.3079 12.015 26.5569C11.9859 26.381 11.9624 26.2029 11.9624 26.0185V20.8196Z" fill="white"/>
<path d="M24.9453 18.9062C23.9231 18.9062 23.0916 19.7664 23.0916 20.8239V26.0227C23.0916 27.0801 23.9231 27.9403 24.9453 27.9403C25.1311 27.9403 25.3071 27.9034 25.4764 27.8505C25.2464 28.6392 24.5459 29.2188 23.7095 29.2188H21.742C21.4861 28.4763 20.8066 27.9403 20.0021 27.9403C18.98 27.9403 18.1484 28.8005 18.1484 29.858C18.1484 30.9154 18.98 31.7756 20.0021 31.7756C20.8066 31.7756 21.4861 31.2396 21.742 30.4972H23.7095C25.413 30.4972 26.799 29.0633 26.799 27.3011V26.0227V20.8239C26.799 19.7664 25.9675 18.9062 24.9453 18.9062Z" fill="white"/>
<path d="M27.9766 20.2812C28.0057 20.4571 28.0292 20.6352 28.0292 20.8196V26.0185C28.0292 26.2029 28.0057 26.381 27.9766 26.5569C28.7213 26.3079 29.265 25.5923 29.265 24.7401V22.098C29.265 21.2458 28.7213 20.5302 27.9766 20.2812Z" fill="white"/>
<path d="M19.995 9.95703C14.8841 9.95703 10.7266 14.2579 10.7266 19.5451V19.5614C11.0947 19.2731 11.5206 19.0621 11.9907 18.9676C12.2795 14.6552 15.7544 11.2354 19.995 11.2354C24.2357 11.2354 27.7106 14.6552 27.9994 18.9676C28.4694 19.0621 28.8953 19.2731 29.2635 19.5614V19.5451C29.2635 14.2579 25.1059 9.95703 19.995 9.95703Z" fill="white"/>
</g>
<defs>
<clipPath id="clip0_449_11197">
<rect width="21.0909" height="21.8182" fill="white" transform="translate(9.45312 9.95312)"/>
</clipPath>
</defs>
</svg>
