<svg width="40" height="41" viewBox="0 0 40 41" fill="none" xmlns="http://www.w3.org/2000/svg">
<path d="M0 20.0645C0 9.01876 8.95431 0.0644531 20 0.0644531C31.0457 0.0644531 40 9.01876 40 20.0645C40 31.1101 31.0457 40.0645 20 40.0645C8.95431 40.0645 0 31.1101 0 20.0645Z" fill="#C9273A"/>
<g clip-path="url(#clip0_449_11276)">
<path d="M29.7971 27.5109L25.6171 20.7192C25.3788 20.3154 24.9355 20.0645 24.4581 20.0645C23.9807 20.0645 23.5374 20.3154 23.3054 20.7097L19.1325 27.4903C18.5586 28.3397 19.1769 29.5645 20.2718 29.5645H28.6444C29.752 29.5645 30.3457 28.3184 29.7971 27.5109ZM24.4581 28.377C24.0211 28.377 23.6664 28.0223 23.6664 27.5853C23.6664 27.1483 24.0211 26.7936 24.4581 26.7936C24.8951 26.7936 25.2498 27.1483 25.2498 27.5853C25.2498 28.0223 24.8951 28.377 24.4581 28.377ZM25.2498 25.2103C25.2498 25.6473 24.8959 26.002 24.4581 26.002C24.0203 26.002 23.6664 25.6473 23.6664 25.2103V22.8353C23.6664 22.3983 24.0203 22.0436 24.4581 22.0436C24.8959 22.0436 25.2498 22.3983 25.2498 22.8353V25.2103Z" fill="white"/>
<path d="M26.0417 10.5645H13.375C12.0632 10.5645 11 11.6277 11 12.9395C11 14.2512 12.0632 15.3145 13.375 15.3145H26.0417C27.3535 15.3145 28.4167 14.2512 28.4167 12.9395C28.4167 11.6277 27.3535 10.5645 26.0417 10.5645ZM13.375 13.7311C12.938 13.7311 12.5833 13.3765 12.5833 12.9395C12.5833 12.5025 12.938 12.1478 13.375 12.1478C13.812 12.1478 14.1667 12.5025 14.1667 12.9395C14.1667 13.3765 13.812 13.7311 13.375 13.7311ZM16.5417 13.7311C16.1047 13.7311 15.75 13.3765 15.75 12.9395C15.75 12.5025 16.1047 12.1478 16.5417 12.1478C16.9787 12.1478 17.3333 12.5025 17.3333 12.9395C17.3333 13.3765 16.9787 13.7311 16.5417 13.7311Z" fill="white"/>
<path d="M26.0417 16.8965H13.375C12.0608 16.8965 11 17.9573 11 19.2715C11 20.5857 12.0608 21.6465 13.375 21.6465H20.8721L21.9567 19.8811C22.4554 19.0261 23.4212 18.4798 24.4583 18.4798C25.4954 18.4798 26.4612 19.0261 26.9837 19.9127L27.6567 21.0052C28.1238 20.5777 28.4167 19.9602 28.4167 19.2715C28.4167 17.9573 27.3558 16.8965 26.0417 16.8965ZM13.375 20.0632C12.9396 20.0632 12.5833 19.7069 12.5833 19.2715C12.5833 18.8361 12.9396 18.4798 13.375 18.4798C13.8104 18.4798 14.1667 18.8361 14.1667 19.2715C14.1667 19.7069 13.8104 20.0632 13.375 20.0632ZM16.5417 20.0632C16.1062 20.0632 15.75 19.7069 15.75 19.2715C15.75 18.8361 16.1062 18.4798 16.5417 18.4798C16.9771 18.4798 17.3333 18.8361 17.3333 19.2715C17.3333 19.7069 16.9771 20.0632 16.5417 20.0632Z" fill="white"/>
<path d="M13.375 23.2324C12.0608 23.2324 11 24.2933 11 25.6074C11 26.9216 12.0608 27.9824 13.375 27.9824H17.3492C17.3808 27.4837 17.5471 27.0166 17.8242 26.6049L19.8983 23.2324H13.375ZM13.375 26.3991C12.9396 26.3991 12.5833 26.0428 12.5833 25.6074C12.5833 25.172 12.9396 24.8158 13.375 24.8158C13.8104 24.8158 14.1667 25.172 14.1667 25.6074C14.1667 26.0428 13.8104 26.3991 13.375 26.3991ZM16.5417 26.3991C16.1063 26.3991 15.75 26.0428 15.75 25.6074C15.75 25.172 16.1063 24.8158 16.5417 24.8158C16.9771 24.8158 17.3333 25.172 17.3333 25.6074C17.3333 26.0428 16.9771 26.3991 16.5417 26.3991Z" fill="white"/>
</g>
<defs>
<clipPath id="clip0_449_11276">
<rect width="19" height="19" fill="white" transform="translate(11 10.5645)"/>
</clipPath>
</defs>
</svg>
