<svg width="55" height="55" viewBox="0 0 55 55" fill="none" xmlns="http://www.w3.org/2000/svg">
<path d="M0 10C0 4.47715 4.47715 0 10 0H45C50.5228 0 55 4.47715 55 10V45C55 50.5228 50.5228 55 45 55H10C4.47715 55 0 50.5228 0 45V10Z" fill="#13B086"/>
<path d="M20.7051 25.3047C19.2996 25.3047 18.1562 26.4875 18.1562 27.9414V35.0898C18.1562 36.5438 19.2996 37.7266 20.7051 37.7266C22.1106 37.7266 23.2539 36.5438 23.2539 35.0898V27.9414C23.2539 26.4875 22.1106 25.3047 20.7051 25.3047Z" fill="white"/>
<path d="M16.457 27.9395C16.457 27.686 16.4894 27.441 16.5294 27.1992C15.5055 27.5416 14.7578 28.5255 14.7578 29.6973V33.3301C14.7578 34.5019 15.5055 35.4858 16.5294 35.8282C16.4894 35.5864 16.457 35.3415 16.457 35.0879V27.9395Z" fill="white"/>
<path d="M34.2988 25.3047C32.8933 25.3047 31.75 26.4875 31.75 27.9414V35.0898C31.75 36.5438 32.8933 37.7266 34.2988 37.7266C34.5543 37.7266 34.7962 37.6757 35.029 37.603C34.7128 38.6876 33.7497 39.4844 32.5996 39.4844H29.8943C29.5424 38.4636 28.6081 37.7266 27.502 37.7266C26.0965 37.7266 24.9531 38.9093 24.9531 40.3633C24.9531 41.8172 26.0965 43 27.502 43C28.6081 43 29.5424 42.263 29.8943 41.2422H32.5996C34.9419 41.2422 36.8477 39.2707 36.8477 36.8477V35.0898V27.9414C36.8477 26.4875 35.7043 25.3047 34.2988 25.3047Z" fill="white"/>
<path d="M38.4727 27.1992C38.5127 27.441 38.545 27.686 38.545 27.9395V35.0879C38.545 35.3415 38.5127 35.5864 38.4727 35.8282C39.4966 35.4858 40.2443 34.5019 40.2443 33.3301V29.6973C40.2443 28.5255 39.4966 27.5416 38.4727 27.1992Z" fill="white"/>
<path d="M27.502 13C20.4744 13 14.7578 18.9138 14.7578 26.1836V26.206C15.264 25.8096 15.8497 25.5195 16.4959 25.3896C16.8931 19.46 21.671 14.7578 27.502 14.7578C33.3329 14.7578 38.1109 19.46 38.508 25.3895C39.1542 25.5194 39.7398 25.8096 40.2461 26.206V26.1836C40.2461 18.9138 34.5295 13 27.502 13Z" fill="white"/>
</svg>
