<svg width="55" height="55" viewBox="0 0 55 55" fill="none" xmlns="http://www.w3.org/2000/svg">
<path d="M0 10C0 4.47715 4.47715 0 10 0H45C50.5228 0 55 4.47715 55 10V45C55 50.5228 50.5228 55 45 55H10C4.47715 55 0 50.5228 0 45V10Z" fill="#13B086"/>
<path d="M41.5658 24.9799H12.6134C12.2746 24.9799 12 24.7023 12 24.3599V23.12C12 22.7776 12.2746 22.5 12.6134 22.5H41.5658C41.9046 22.5 42.1792 22.7776 42.1792 23.12V24.3599C42.1792 24.7023 41.9046 24.9799 41.5658 24.9799Z" fill="white"/>
<path d="M41.5714 22.5H39.9766C40.3153 22.5 40.5899 22.7776 40.5899 23.12V24.3599C40.5899 24.7023 40.3153 24.9799 39.9766 24.9799H41.5714C41.9102 24.9799 42.1848 24.7023 42.1848 24.3599V23.12C42.1848 22.7776 41.9102 22.5 41.5714 22.5Z" fill="white"/>
<path d="M13.6289 24.9805L15.547 36.4497C15.6967 37.3444 16.464 37.9996 17.3614 37.9996H36.8313C37.7262 37.9996 38.4911 37.3493 38.6445 36.4584L40.6184 24.9805H13.6289V24.9805ZM22.9219 34.4039C22.9219 34.7461 22.6471 35.0238 22.3085 35.0238H21.0817C20.7431 35.0238 20.4683 34.7461 20.4683 34.4039V28.2043C20.4683 27.8621 20.7431 27.5844 21.0817 27.5844H22.3085C22.6471 27.5844 22.9219 27.8621 22.9219 28.2043V34.4039ZM28.3198 34.4039C28.3198 34.7461 28.045 35.0238 27.7064 35.0238H26.4796C26.141 35.0238 25.8662 34.7461 25.8662 34.4039V28.2043C25.8662 27.8621 26.141 27.5844 26.4796 27.5844H27.7064C28.045 27.5844 28.3198 27.8621 28.3198 28.2043V34.4039ZM33.7177 34.4039C33.7177 34.7461 33.4429 35.0238 33.1043 35.0238H31.8775C31.539 35.0238 31.2641 34.7461 31.2641 34.4039V28.2043C31.2641 27.8621 31.5389 27.5844 31.8775 27.5844H33.1043C33.4429 27.5844 33.7177 27.8621 33.7177 28.2043V34.4039Z" fill="white"/>
<path d="M38.9903 24.9805L37.0164 36.4584C36.863 37.3493 36.0981 37.9996 35.2031 37.9996H36.8286C37.7236 37.9996 38.4885 37.3493 38.6418 36.4584L40.6158 24.9805H38.9903Z" fill="white"/>
</svg>
