<svg width="28" height="29" viewBox="0 0 28 29" fill="none" xmlns="http://www.w3.org/2000/svg">
<path d="M22.6409 19.4375C21.3828 19.4375 20.3594 20.4612 20.3594 21.719C20.3594 22.977 21.3828 24.0005 22.6409 24.0005C23.8986 24.0005 24.9223 22.977 24.9223 21.719C24.9223 20.4612 23.8986 19.4375 22.6409 19.4375ZM22.6409 22.39C22.2707 22.39 21.9698 22.0891 21.9698 21.719C21.9698 21.3489 22.2707 21.048 22.6409 21.048C23.011 21.048 23.3119 21.3489 23.3119 21.719C23.3119 22.0891 23.011 22.39 22.6409 22.39Z" fill="white"/>
<path d="M22.424 9.95312H18.4821C18.1855 9.95312 17.9453 10.1936 17.9453 10.4899V20.9579C17.9453 21.2542 18.1855 21.4947 18.4821 21.4947H19.0514C19.3172 21.4947 19.5526 21.3033 19.5869 21.0398C19.7976 19.4255 21.0852 18.4244 22.6427 18.4244C24.2003 18.4244 25.4879 19.4256 25.6986 21.0398C25.7329 21.3034 25.968 21.4947 26.234 21.4947H26.8028C27.0991 21.4947 27.3396 21.2542 27.3396 20.9579V15.7239C27.3396 15.5978 27.2953 15.4759 27.2145 15.3795L22.8357 10.1456C22.7337 10.0237 22.5829 9.95312 22.424 9.95312ZM19.0189 14.2477V11.5636C19.0189 11.2673 19.2592 11.0268 19.5558 11.0268H21.9204C22.0796 11.0268 22.2307 11.0976 22.3327 11.22L24.5694 13.9041C24.8606 14.2538 24.612 14.7845 24.1568 14.7845H19.5558C19.2592 14.7845 19.0189 14.5443 19.0189 14.2477Z" fill="white"/>
<path d="M1.03682 21.4941H2.41136C2.67709 21.4941 2.91248 21.3027 2.94682 21.0391C3.15751 19.4249 4.44508 18.4238 6.00265 18.4238C7.56021 18.4238 8.84778 19.425 9.05847 21.0391C9.09281 21.3027 9.32793 21.4941 9.59393 21.4941H16.3361C16.6325 21.4941 16.8729 21.2536 16.8729 20.9573V7.53682C16.8729 7.24052 16.6324 7 16.3361 7H1.03682C0.740208 7 0.5 7.24052 0.5 7.53682V20.9573C0.5 21.2536 0.740208 21.4941 1.03682 21.4941Z" fill="white"/>
<path d="M6.00023 19.4375C4.74221 19.4375 3.71875 20.4612 3.71875 21.719C3.71875 22.977 4.74221 24.0005 6.00023 24.0005C7.25798 24.0005 8.2817 22.977 8.2817 21.719C8.2817 20.4612 7.25798 19.4375 6.00023 19.4375ZM6.00023 22.39C5.63011 22.39 5.3292 22.0891 5.3292 21.719C5.3292 21.3489 5.63011 21.048 6.00023 21.048C6.37034 21.048 6.67125 21.3489 6.67125 21.719C6.67125 22.0891 6.37034 22.39 6.00023 22.39Z" fill="white"/>
</svg>
