<svg width="22" height="22" viewBox="0 0 22 22" fill="none" xmlns="http://www.w3.org/2000/svg">
<g clip-path="url(#clip0_486_12034)">
<path d="M11.0008 12.5533C12.4188 12.5533 13.7293 12.1537 14.7778 11.4748C15.5899 10.9549 16.6469 11.0408 17.3602 11.6897C19.3411 13.4858 20.4668 16.0338 20.4625 18.7108V19.858C20.4625 21.044 19.5 22.0022 18.3141 22.0022H3.68755C2.50161 22.0022 1.53911 21.044 1.53911 19.858V18.7108C1.53052 16.0381 2.6563 13.4858 4.63716 11.694C5.35044 11.0451 6.41177 10.9592 7.21958 11.4791C8.27231 12.1537 9.57856 12.5533 11.0008 12.5533Z" fill="white"/>
<path d="M10.9992 10.6391C13.9371 10.6391 16.3187 8.25743 16.3187 5.31953C16.3187 2.38164 13.9371 0 10.9992 0C8.06132 0 5.67969 2.38164 5.67969 5.31953C5.67969 8.25743 8.06132 10.6391 10.9992 10.6391Z" fill="white"/>
</g>
<defs>
<clipPath id="clip0_486_12034">
<rect width="22" height="22" fill="white"/>
</clipPath>
</defs>
</svg>
