<svg width="28" height="29" viewBox="0 0 28 29" fill="none" xmlns="http://www.w3.org/2000/svg">
<g clip-path="url(#clip0_486_12071)">
<path d="M14 3C9.24475 3 5.375 6.89658 5.375 11.6873C5.375 18.4943 13.1892 25.5227 13.5218 25.8179C13.6588 25.9396 13.8294 26 14 26C14.1706 26 14.3412 25.9396 14.4782 25.8189C14.8107 25.5228 22.625 18.4943 22.625 11.6873C22.625 6.89658 18.7552 3 14 3ZM14 16.4167C11.3579 16.4167 9.20833 14.2671 9.20833 11.625C9.20833 8.98287 11.3579 6.83333 14 6.83333C16.6421 6.83333 18.7917 8.98287 18.7917 11.625C18.7917 14.2671 16.6421 16.4167 14 16.4167Z" fill="white"/>
</g>
<defs>
<clipPath id="clip0_486_12071">
<rect width="23" height="23" fill="white" transform="translate(2.5 3)"/>
</clipPath>
</defs>
</svg>
