<svg width="17" height="17" viewBox="0 0 17 17" fill="none" xmlns="http://www.w3.org/2000/svg">
<path fill-rule="evenodd" clip-rule="evenodd" d="M4.35669 0H10.0403L14.8574 5.02099V14.7869C14.8574 16.0102 13.8677 17 12.6485 17H4.35669C3.13331 17 2.14355 16.0102 2.14355 14.7869V2.21314C2.14353 0.989752 3.13328 0 4.35669 0Z" fill="#C9273A"/>
<path opacity="0.302" fill-rule="evenodd" clip-rule="evenodd" d="M10.0361 0V4.98276H14.8575L10.0361 0Z" fill="white"/>
<path d="M4.60352 12.6833V9.57812H5.92461C6.2517 9.57812 6.51083 9.66733 6.70623 9.84999C6.90162 10.0284 6.99933 10.2705 6.99933 10.5721C6.99933 10.8737 6.90162 11.1159 6.70623 11.2943C6.51083 11.4769 6.2517 11.5661 5.92461 11.5661H5.39787V12.6833H4.60352ZM5.39787 10.8907H5.83541C5.95434 10.8907 6.04779 10.8652 6.11152 10.8058C6.17523 10.7506 6.20923 10.6741 6.20923 10.5722C6.20923 10.4702 6.17525 10.3937 6.11152 10.3385C6.04782 10.279 5.95436 10.2536 5.83541 10.2536H5.39787V10.8907ZM7.3264 12.6833V9.57812H8.4266C8.64324 9.57812 8.84715 9.60785 9.03829 9.67158C9.22944 9.73529 9.40361 9.82452 9.55653 9.9477C9.70946 10.0666 9.83265 10.228 9.92185 10.432C10.0068 10.6359 10.0535 10.8695 10.0535 11.1329C10.0535 11.392 10.0068 11.6256 9.92185 11.8295C9.83265 12.0334 9.70946 12.1948 9.55653 12.3137C9.40359 12.4369 9.22944 12.5261 9.03829 12.5899C8.84715 12.6536 8.64324 12.6833 8.4266 12.6833H7.3264ZM8.10376 12.0079H8.33314C8.45633 12.0079 8.57103 11.9952 8.67722 11.9654C8.77916 11.9357 8.87687 11.889 8.97033 11.8253C9.05954 11.7616 9.13175 11.6723 9.18272 11.5534C9.23369 11.4345 9.25919 11.2943 9.25919 11.1329C9.25919 10.9672 9.23369 10.827 9.18272 10.7081C9.13175 10.5891 9.05954 10.4999 8.97033 10.4362C8.87687 10.3725 8.77919 10.3258 8.67722 10.296C8.57103 10.2663 8.45633 10.2535 8.33314 10.2535H8.10376V12.0079ZM10.4528 12.6833V9.57812H12.6617V10.2535H11.2472V10.7505H12.3771V11.4217H11.2472V12.6833H10.4528Z" fill="white"/>
</svg>
