<svg width="23" height="24" viewBox="0 0 23 24" fill="none" xmlns="http://www.w3.org/2000/svg">
<g clip-path="url(#clip0_486_12021)">
<path d="M18.6562 5.10059V4.0459C18.6562 2.22854 17.1777 0.75 15.3604 0.75H7.27441C5.45706 0.75 3.97852 2.22854 3.97852 4.0459V5.10059H18.6562Z" fill="#158466"/>
<path d="M5.29102 14.7656V20.127V21.2695V21.9287C5.29102 22.6568 5.88125 23.2471 6.60938 23.2471H16.0137C16.7418 23.2471 17.332 22.6568 17.332 21.9287V21.2695V20.127V14.7656H5.29102ZM13.0693 20.3906H9.55371C9.18967 20.3906 8.89453 20.0955 8.89453 19.7314C8.89453 19.3674 9.18967 19.0723 9.55371 19.0723H13.0693C13.4334 19.0723 13.7285 19.3674 13.7285 19.7314C13.7285 20.0955 13.4334 20.3906 13.0693 20.3906ZM13.0693 17.5781H9.55371C9.18967 17.5781 8.89453 17.283 8.89453 16.9189C8.89453 16.5549 9.18967 16.2598 9.55371 16.2598H13.0693C13.4334 16.2598 13.7285 16.5549 13.7285 16.9189C13.7285 17.283 13.4334 17.5781 13.0693 17.5781Z" fill="#158466"/>
<path d="M19.2715 6.42188H3.40723C1.58987 6.42188 0.111328 7.90042 0.111328 9.71777V14.9912C0.111328 16.8086 1.58987 18.2871 3.40723 18.2871H3.97852V14.7715H3.58301C3.21896 14.7715 2.92383 14.4763 2.92383 14.1123C2.92383 13.7483 3.21896 13.4531 3.58301 13.4531H4.6377H17.9971H19.0518C19.4158 13.4531 19.7109 13.7483 19.7109 14.1123C19.7109 14.4763 19.4158 14.7715 19.0518 14.7715H18.6562V18.2871H19.2715C21.0888 18.2871 22.5674 16.8086 22.5674 14.9912V9.71777C22.5674 7.90042 21.0888 6.42188 19.2715 6.42188ZM5.69238 10.5527H3.58301C3.21896 10.5527 2.92383 10.2576 2.92383 9.89355C2.92383 9.52951 3.21896 9.23438 3.58301 9.23438H5.69238C6.05643 9.23438 6.35156 9.52951 6.35156 9.89355C6.35156 10.2576 6.05643 10.5527 5.69238 10.5527Z" fill="#158466"/>
</g>
<defs>
<clipPath id="clip0_486_12021">
<rect width="22.5" height="22.5" fill="white" transform="translate(0.0878906 0.75)"/>
</clipPath>
</defs>
</svg>
