<svg width="40" height="40" viewBox="0 0 40 40" fill="none" xmlns="http://www.w3.org/2000/svg">
<g clip-path="url(#clip0_1580_18279)">
<path d="M19.6627 8.07752L8.91567 13.2657C8.78091 13.3308 8.69531 13.4672 8.69531 13.6168V26.3831C8.69531 26.5328 8.78095 26.6692 8.91567 26.7342L19.6627 31.9225C19.8768 32.0259 20.1265 32.0259 20.3407 31.9225L31.0876 26.7342C31.2224 26.6692 31.308 26.5328 31.308 26.3831V13.6168C31.308 13.4672 31.2224 13.3308 31.0876 13.2657L20.3407 8.07752C20.1265 7.97416 19.8768 7.97416 19.6627 8.07752Z" fill="#E2E8EE"/>
<path d="M8.76014 13.4023C8.71917 13.4647 8.69531 13.5382 8.69531 13.6158V26.3821C8.69531 26.5317 8.78095 26.6681 8.91567 26.7332L19.6627 31.9213C19.7697 31.973 19.8857 31.9989 20.0017 31.9989V18.8293L8.76014 13.4023Z" fill="#CED4DA"/>
<path d="M31.2415 13.4023C31.2825 13.4647 31.3063 13.5382 31.3063 13.6158V26.3821C31.3063 26.5317 31.2207 26.6681 31.086 26.7332L20.339 31.9213C20.2319 31.973 20.116 31.9989 20 31.9989V18.8293L31.2415 13.4023Z" fill="#C4CAD0"/>
<path d="M11.9082 25.7035C11.8514 25.7035 11.7936 25.6909 11.7391 25.6647L10.0799 24.8636C9.88574 24.77 9.80464 24.537 9.8983 24.3432C9.99158 24.1494 10.2253 24.0687 10.4188 24.1616L12.078 24.9627C12.2721 25.0563 12.3532 25.2893 12.2596 25.4831C12.1926 25.6224 12.0532 25.7035 11.9082 25.7035Z" fill="#158466"/>
<path d="M13.4388 24.7089C13.3821 24.7089 13.3242 24.6964 13.2698 24.6701L10.0857 23.1331C9.89191 23.0394 9.81044 22.8064 9.9041 22.6126C9.99738 22.4192 10.2315 22.3381 10.4245 22.431L13.6086 23.9681C13.8024 24.0617 13.8839 24.2948 13.7902 24.4885C13.7233 24.6278 13.5839 24.7089 13.4388 24.7089Z" fill="#158466"/>
<path d="M27.4306 15.2369L16.1495 9.78711L13.1758 11.2285L24.4821 16.6868L27.4306 15.2369Z" fill="#13B086"/>
<path d="M24.4844 16.6861V20.9146C24.4844 21.0583 24.6346 21.1526 24.7641 21.0901L27.2125 19.9082C27.3472 19.8431 27.4328 19.7067 27.4328 19.5571V15.2363L24.4844 16.6861Z" fill="#158466"/>
</g>
<defs>
<clipPath id="clip0_1580_18279">
<rect width="24" height="24" fill="white" transform="translate(8 8)"/>
</clipPath>
</defs>
</svg>
