<svg width="21" height="21" viewBox="0 0 21 21" fill="none" xmlns="http://www.w3.org/2000/svg">
<path d="M12.9974 3.83073H7.9974C7.77638 3.83073 7.56442 3.74293 7.40814 3.58665C7.25186 3.43037 7.16406 3.21841 7.16406 2.9974C7.16406 2.77638 7.25186 2.56442 7.40814 2.40814C7.56442 2.25186 7.77638 2.16406 7.9974 2.16406H12.9974C13.2184 2.16406 13.4304 2.25186 13.5867 2.40814C13.7429 2.56442 13.8307 2.77638 13.8307 2.9974C13.8307 3.21841 13.7429 3.43037 13.5867 3.58665C13.4304 3.74293 13.2184 3.83073 12.9974 3.83073Z" fill="#E63946"/>
<path d="M12.9974 18.8333H7.9974C7.11334 18.8333 6.26549 18.4821 5.64037 17.857C5.01525 17.2319 4.66406 16.3841 4.66406 15.5V5.5H16.3307V15.5C16.3307 16.3841 15.9795 17.2319 15.3544 17.857C14.7293 18.4821 13.8815 18.8333 12.9974 18.8333Z" fill="#E63946"/>
<path d="M17.1667 7.16667H3.83333C3.61232 7.16667 3.40036 7.07887 3.24408 6.92259C3.0878 6.76631 3 6.55435 3 6.33333C3 6.11232 3.0878 5.90036 3.24408 5.74408C3.40036 5.5878 3.61232 5.5 3.83333 5.5H17.1667C17.3877 5.5 17.5996 5.5878 17.7559 5.74408C17.9122 5.90036 18 6.11232 18 6.33333C18 6.55435 17.9122 6.76631 17.7559 6.92259C17.5996 7.07887 17.3877 7.16667 17.1667 7.16667Z" fill="#C9273A"/>
<path d="M8.83333 15.4948C8.61232 15.4948 8.40036 15.407 8.24408 15.2507C8.0878 15.0944 8 14.8825 8 14.6615V9.66146C8 9.44044 8.0878 9.22848 8.24408 9.0722C8.40036 8.91592 8.61232 8.82812 8.83333 8.82812C9.05435 8.82812 9.26631 8.91592 9.42259 9.0722C9.57887 9.22848 9.66667 9.44044 9.66667 9.66146V14.6615C9.66667 14.8825 9.57887 15.0944 9.42259 15.2507C9.26631 15.407 9.05435 15.4948 8.83333 15.4948Z" fill="#EDEBEA"/>
<path d="M12.1693 15.4948C11.9483 15.4948 11.7363 15.407 11.58 15.2507C11.4237 15.0944 11.3359 14.8825 11.3359 14.6615V9.66146C11.3359 9.44044 11.4237 9.22848 11.58 9.0722C11.7363 8.91592 11.9483 8.82812 12.1693 8.82812C12.3903 8.82812 12.6022 8.91592 12.7585 9.0722C12.9148 9.22848 13.0026 9.44044 13.0026 9.66146V14.6615C13.0026 14.8825 12.9148 15.0944 12.7585 15.2507C12.6022 15.407 12.3903 15.4948 12.1693 15.4948Z" fill="#EDEBEA"/>
</svg>
