<svg width="16" height="17" viewBox="0 0 16 17" fill="none" xmlns="http://www.w3.org/2000/svg">
<path d="M9.9987 3.16536H5.9987C5.82189 3.16536 5.65232 3.09513 5.52729 2.9701C5.40227 2.84508 5.33203 2.67551 5.33203 2.4987C5.33203 2.32189 5.40227 2.15232 5.52729 2.02729C5.65232 1.90227 5.82189 1.83203 5.9987 1.83203H9.9987C10.1755 1.83203 10.3451 1.90227 10.4701 2.02729C10.5951 2.15232 10.6654 2.32189 10.6654 2.4987C10.6654 2.67551 10.5951 2.84508 10.4701 2.9701C10.3451 3.09513 10.1755 3.16536 9.9987 3.16536Z" fill="#158466"/>
<path d="M9.9987 15.1667H5.9987C5.29145 15.1667 4.61318 14.8857 4.11308 14.3856C3.61298 13.8855 3.33203 13.2072 3.33203 12.5V4.5H12.6654V12.5C12.6654 13.2072 12.3844 13.8855 11.8843 14.3856C11.3842 14.8857 10.7059 15.1667 9.9987 15.1667Z" fill="#158466"/>
<path d="M13.3333 5.83333H2.66667C2.48986 5.83333 2.32029 5.7631 2.19526 5.63807C2.07024 5.51305 2 5.34348 2 5.16667C2 4.98986 2.07024 4.82029 2.19526 4.69526C2.32029 4.57024 2.48986 4.5 2.66667 4.5H13.3333C13.5101 4.5 13.6797 4.57024 13.8047 4.69526C13.9298 4.82029 14 4.98986 14 5.16667C14 5.34348 13.9298 5.51305 13.8047 5.63807C13.6797 5.7631 13.5101 5.83333 13.3333 5.83333Z" fill="#158466"/>
<path d="M6.66667 12.4974C6.48986 12.4974 6.32029 12.4272 6.19526 12.3021C6.07024 12.1771 6 12.0075 6 11.8307V7.83073C6 7.65392 6.07024 7.48435 6.19526 7.35932C6.32029 7.2343 6.48986 7.16406 6.66667 7.16406C6.84348 7.16406 7.01305 7.2343 7.13807 7.35932C7.2631 7.48435 7.33333 7.65392 7.33333 7.83073V11.8307C7.33333 12.0075 7.2631 12.1771 7.13807 12.3021C7.01305 12.4272 6.84348 12.4974 6.66667 12.4974Z" fill="white"/>
<path d="M9.33464 12.4974C9.15782 12.4974 8.98826 12.4272 8.86323 12.3021C8.73821 12.1771 8.66797 12.0075 8.66797 11.8307V7.83073C8.66797 7.65392 8.73821 7.48435 8.86323 7.35932C8.98826 7.2343 9.15782 7.16406 9.33464 7.16406C9.51145 7.16406 9.68102 7.2343 9.80604 7.35932C9.93106 7.48435 10.0013 7.65392 10.0013 7.83073V11.8307C10.0013 12.0075 9.93106 12.1771 9.80604 12.3021C9.68102 12.4272 9.51145 12.4974 9.33464 12.4974Z" fill="white"/>
</svg>
