<svg width="40" height="40" viewBox="0 0 40 40" fill="none" xmlns="http://www.w3.org/2000/svg">
<g clip-path="url(#clip0_797_12385)">
<path d="M17.4791 9H10.6041C9.71956 9 9 9.71956 9 10.6041V14.7291C9 15.6138 9.71956 16.3334 10.6041 16.3334H17.4791C18.3638 16.3334 19.0834 15.6138 19.0834 14.7291V10.6041C19.0834 9.71956 18.3638 9 17.4791 9Z" fill="#13B086"/>
<path d="M17.4791 18.1641H10.6041C9.71956 18.1641 9 18.8836 9 19.7683V29.3933C9 30.2779 9.71956 30.9975 10.6041 30.9975H17.4791C18.3638 30.9975 19.0834 30.2779 19.0834 29.3933V19.7683C19.0834 18.8836 18.3638 18.1641 17.4791 18.1641Z" fill="#158466"/>
<path d="M29.3933 23.6641H22.5183C21.6336 23.6641 20.9141 24.3836 20.9141 25.2683V29.3933C20.9141 30.2779 21.6336 30.9975 22.5183 30.9975H29.3933C30.2779 30.9975 30.9975 30.2779 30.9975 29.3933V25.2683C30.9975 24.3836 30.2779 23.6641 29.3933 23.6641Z" fill="#13B086"/>
<path d="M29.3933 9H22.5183C21.6336 9 20.9141 9.71956 20.9141 10.6041V20.2291C20.9141 21.1138 21.6336 21.8334 22.5183 21.8334H29.3933C30.2779 21.8334 30.9975 21.1138 30.9975 20.2291V10.6041C30.9975 9.71956 30.2779 9 29.3933 9Z" fill="#158466"/>
</g>
<defs>
<clipPath id="clip0_797_12385">
<rect width="22" height="22" fill="white" transform="translate(9 9)"/>
</clipPath>
</defs>
</svg>
