<svg width="18" height="18" viewBox="0 0 18 18" fill="none" xmlns="http://www.w3.org/2000/svg">
<rect x="17.4551" y="17.3359" width="17.4545" height="16.9697" rx="3" transform="rotate(-180 17.4551 17.3359)" fill="#FA8B0C" fill-opacity="0.3"/>
<path d="M10.5551 10.3687C10.4299 10.2572 10.2313 10.2572 10.1061 10.3687L9.04133 11.3494V5.51656C9.04133 5.35208 8.89665 5.21875 8.71817 5.21875C8.53969 5.21875 8.39501 5.35208 8.39501 5.51656V11.3494L7.33085 10.3687C7.20248 10.2544 6.9979 10.2577 6.87392 10.376C6.75296 10.4914 6.75296 10.6744 6.87392 10.7898L8.48968 12.2788C8.61573 12.3953 8.82034 12.3955 8.94669 12.2794C8.94688 12.2792 8.94707 12.279 8.94728 12.2788L10.563 10.7898C10.687 10.6715 10.6835 10.483 10.5551 10.3687Z" fill="#FA8B0C"/>
</svg>
