<svg width="18" height="18" viewBox="0 0 18 18" fill="none" xmlns="http://www.w3.org/2000/svg">
<rect y="0.867188" width="17.4545" height="16.9697" rx="3" fill="#20C997" fill-opacity="0.3"/>
<path d="M6.89997 7.83838C7.02521 7.94983 7.22374 7.94983 7.34895 7.83838L8.41375 6.85772L8.41375 12.6905C8.41375 12.855 8.55843 12.9883 8.73691 12.9883C8.91539 12.9883 9.06007 12.855 9.06007 12.6905L9.06007 6.8577L10.1242 7.83838C10.2526 7.95263 10.4572 7.94935 10.5812 7.83106C10.7021 7.71565 10.7021 7.5327 10.5812 7.41729L8.9654 5.92828C8.83935 5.81184 8.63474 5.8116 8.50839 5.92774C8.5082 5.92791 8.50801 5.92809 8.5078 5.92828L6.89204 7.41729C6.76804 7.53559 6.77159 7.72412 6.89997 7.83838Z" fill="#20C997"/>
</svg>
