<svg width="36" height="35" viewBox="0 0 36 35" fill="none" xmlns="http://www.w3.org/2000/svg">
<rect x="36" y="35" width="36" height="35" rx="5" transform="rotate(-180 36 35)" fill="#FA8B0C" fill-opacity="0.1"/>
<path d="M21.7795 20.6218C21.5213 20.3919 21.1118 20.3919 20.8535 20.6218L18.6574 22.6444V10.6142C18.6574 10.275 18.359 10 17.9909 10C17.6227 10 17.3243 10.275 17.3243 10.6142V22.6444L15.1295 20.6218C14.8647 20.3861 14.4428 20.3929 14.1871 20.6368C13.9376 20.8749 13.9376 21.2522 14.1871 21.4903L17.5196 24.5614C17.7796 24.8015 18.2016 24.802 18.4622 24.5625C18.4626 24.5621 18.463 24.5618 18.4634 24.5614L21.7959 21.4903C22.0517 21.2463 22.0443 20.8574 21.7795 20.6218Z" fill="#FA8B0C"/>
</svg>
