<svg width="36" height="35" viewBox="0 0 36 35" fill="none" xmlns="http://www.w3.org/2000/svg">
<rect width="36" height="35" rx="5" fill="#20C997" fill-opacity="0.1"/>
<path d="M14.2205 14.3783C14.4787 14.6082 14.8882 14.6082 15.1465 14.3783L17.3426 12.3557L17.3426 24.3858C17.3426 24.725 17.641 25 18.0091 25C18.3773 25 18.6757 24.725 18.6757 24.3858L18.6757 12.3557L20.8705 14.3783C21.1353 14.614 21.5572 14.6072 21.8129 14.3632C22.0624 14.1252 22.0624 13.7479 21.8129 13.5098L18.4804 10.4387C18.2204 10.1986 17.7984 10.1981 17.5378 10.4376C17.5374 10.438 17.537 10.4384 17.5366 10.4387L14.2041 13.5098C13.9483 13.7538 13.9557 14.1427 14.2205 14.3783Z" fill="#20C997"/>
</svg>
