<svg width="20" height="20" viewBox="0 0 20 20" fill="none" xmlns="http://www.w3.org/2000/svg">
<g clip-path="url(#clip0_715_12781)">
<path d="M7.26476 0H1.52269C0.683028 0 0 0.683028 0 1.52269V7.26476C0 8.10442 0.683028 8.78745 1.52269 8.78745H7.26476C8.10442 8.78745 8.78744 8.10442 8.78744 7.26476V1.52269C8.78731 0.683028 8.10442 0 7.26476 0Z" fill="#158466"/>
<path d="M18.4767 0H12.7346C11.8949 0 11.2119 0.683028 11.2119 1.52269V7.26476C11.2119 8.10442 11.8949 8.78745 12.7346 8.78745H18.4767C19.3163 8.78745 19.9994 8.10442 19.9994 7.26476V1.52269C19.9994 0.683028 19.3163 0 18.4767 0Z" fill="#158466"/>
<path d="M7.26476 11.2129H1.52269C0.683028 11.2129 0 11.8959 0 12.7355V18.4776C0 19.3172 0.683028 20.0003 1.52269 20.0003H7.26476C8.10442 20.0003 8.78744 19.3172 8.78744 18.4776V12.7355C8.78731 11.8959 8.10442 11.2129 7.26476 11.2129Z" fill="#158466"/>
<path d="M18.4767 11.2129H12.7346C11.8949 11.2129 11.2119 11.8959 11.2119 12.7356V18.4776C11.2119 19.3173 11.8949 20.0003 12.7346 20.0003H18.4767C19.3163 20.0003 19.9994 19.3172 19.9994 18.4776V12.7355C19.9994 11.8959 19.3163 11.2129 18.4767 11.2129Z" fill="#158466"/>
</g>
<defs>
<clipPath id="clip0_715_12781">
<rect width="20" height="20" fill="white"/>
</clipPath>
</defs>
</svg>
