<svg width="13" height="13" viewBox="0 0 13 13" fill="none" xmlns="http://www.w3.org/2000/svg">
<path d="M8.1237 2.16536H4.8737C4.73004 2.16536 4.59226 2.1083 4.49068 2.00671C4.3891 1.90513 4.33203 1.76736 4.33203 1.6237C4.33203 1.48004 4.3891 1.34226 4.49068 1.24068C4.59226 1.1391 4.73004 1.08203 4.8737 1.08203H8.1237C8.26736 1.08203 8.40513 1.1391 8.50671 1.24068C8.6083 1.34226 8.66536 1.48004 8.66536 1.6237C8.66536 1.76736 8.6083 1.90513 8.50671 2.00671C8.40513 2.1083 8.26736 2.16536 8.1237 2.16536Z" fill="#E63946"/>
<path d="M8.1237 11.9167H4.8737C4.29906 11.9167 3.74796 11.6884 3.34163 11.2821C2.9353 10.8757 2.70703 10.3246 2.70703 9.75V3.25H10.2904V9.75C10.2904 10.3246 10.0621 10.8757 9.65576 11.2821C9.24943 11.6884 8.69833 11.9167 8.1237 11.9167Z" fill="#E63946"/>
<path d="M10.8333 4.33333H2.16667C2.02301 4.33333 1.88523 4.27627 1.78365 4.17468C1.68207 4.0731 1.625 3.93533 1.625 3.79167C1.625 3.64801 1.68207 3.51023 1.78365 3.40865C1.88523 3.30707 2.02301 3.25 2.16667 3.25H10.8333C10.977 3.25 11.1148 3.30707 11.2164 3.40865C11.3179 3.51023 11.375 3.64801 11.375 3.79167C11.375 3.93533 11.3179 4.0731 11.2164 4.17468C11.1148 4.27627 10.977 4.33333 10.8333 4.33333Z" fill="#C9273A"/>
<path d="M5.41667 9.7474C5.27301 9.7474 5.13523 9.69033 5.03365 9.58875C4.93207 9.48716 4.875 9.34939 4.875 9.20573V5.95573C4.875 5.81207 4.93207 5.6743 5.03365 5.57271C5.13523 5.47113 5.27301 5.41406 5.41667 5.41406C5.56033 5.41406 5.6981 5.47113 5.79968 5.57271C5.90127 5.6743 5.95833 5.81207 5.95833 5.95573V9.20573C5.95833 9.34939 5.90127 9.48716 5.79968 9.58875C5.6981 9.69033 5.56033 9.7474 5.41667 9.7474Z" fill="#EDEBEA"/>
<path d="M7.58464 9.7474C7.44098 9.7474 7.3032 9.69033 7.20162 9.58875C7.10004 9.48716 7.04297 9.34939 7.04297 9.20573V5.95573C7.04297 5.81207 7.10004 5.6743 7.20162 5.57271C7.3032 5.47113 7.44098 5.41406 7.58464 5.41406C7.72829 5.41406 7.86607 5.47113 7.96765 5.57271C8.06923 5.6743 8.1263 5.81207 8.1263 5.95573V9.20573C8.1263 9.34939 8.06923 9.48716 7.96765 9.58875C7.86607 9.69033 7.72829 9.7474 7.58464 9.7474Z" fill="#EDEBEA"/>
</svg>
