<svg width="25" height="16" viewBox="0 0 25 16" fill="none" xmlns="http://www.w3.org/2000/svg">
<path d="M24.5333 3.19922C24.5333 14.6659 24.6453 14.2339 24.2453 14.9326C24.0583 15.2565 23.7893 15.5256 23.4654 15.7129C23.1415 15.9001 22.7741 15.9988 22.4 15.9992H2.13333C1.56754 15.9992 1.02492 15.7745 0.624839 15.3744C0.224761 14.9743 0 14.4317 0 13.8659V3.19922H24.5333Z" fill="#E2E8EE"/>
<path d="M24.5338 3.19922C24.5338 14.6659 24.6458 14.2339 24.2458 14.9326H6.40042C5.83463 14.9326 5.29201 14.7078 4.89193 14.3077C4.49185 13.9076 4.26709 13.365 4.26709 12.7992V3.19922H24.5338Z" fill="#E2E8EE"/>
<path d="M24.5333 2.13333V3.2H0V2.13333C0 1.56754 0.224761 1.02492 0.624839 0.624839C1.02492 0.224761 1.56754 0 2.13333 0H22.4C22.9658 0 23.5084 0.224761 23.9085 0.624839C24.3086 1.02492 24.5333 1.56754 24.5333 2.13333Z" fill="#067557"/>
<path d="M24.5335 2.13333V3.2H4.26685V2.13333C4.26685 1.56754 4.49161 1.02492 4.89168 0.624839C5.29176 0.224761 5.83438 0 6.40018 0H22.4002C22.966 0 23.5086 0.224761 23.9087 0.624839C24.3087 1.02492 24.5335 1.56754 24.5335 2.13333Z" fill="#158466"/>
<path d="M6.40042 6.3987V7.46536C6.40042 7.74826 6.28804 8.01957 6.088 8.21961C5.88796 8.41965 5.61665 8.53203 5.33376 8.53203H4.26709V5.33203H5.33376C5.61665 5.33203 5.88796 5.44441 6.088 5.64445C6.28804 5.84449 6.40042 6.1158 6.40042 6.3987Z" fill="#ACB3BA"/>
<path d="M4.26663 5.33203V8.53203H3.19997C2.91707 8.53203 2.64576 8.41965 2.44572 8.21961C2.24568 8.01957 2.1333 7.74826 2.1333 7.46536V6.3987C2.1333 6.1158 2.24568 5.84449 2.44572 5.64445C2.64576 5.44441 2.91707 5.33203 3.19997 5.33203H4.26663Z" fill="#ACB3BA"/>
<path d="M9.60042 12.2659H4.26709V11.1992H9.60042C9.74187 11.1992 9.87753 11.2554 9.97755 11.3554C10.0776 11.4554 10.1338 11.5911 10.1338 11.7326C10.1338 11.874 10.0776 12.0097 9.97755 12.1097C9.87753 12.2097 9.74187 12.2659 9.60042 12.2659Z" fill="#334A5E"/>
<path d="M4.26676 11.1992V12.2659H2.13343C1.99198 12.2659 1.85633 12.2097 1.75631 12.1097C1.65629 12.0097 1.6001 11.874 1.6001 11.7326C1.6001 11.5911 1.65629 11.4554 1.75631 11.3554C1.85633 11.2554 1.99198 11.1992 2.13343 11.1992H4.26676Z" fill="#374F68"/>
<path d="M6.39994 14.3987H4.99194C4.67149 14.1168 4.44298 13.7452 4.33594 13.332H6.39994C6.54139 13.332 6.67704 13.3882 6.77706 13.4882C6.87708 13.5883 6.93327 13.7239 6.93327 13.8654C6.93327 14.0068 6.87708 14.1425 6.77706 14.2425C6.67704 14.3425 6.54139 14.3987 6.39994 14.3987Z" fill="#334A5E"/>
<path d="M4.9921 14.3987H2.13343C1.99198 14.3987 1.85633 14.3425 1.75631 14.2425C1.65629 14.1425 1.6001 14.0068 1.6001 13.8654C1.6001 13.7239 1.65629 13.5883 1.75631 13.4882C1.85633 13.3882 1.99198 13.332 2.13343 13.332H4.3361C4.44314 13.7452 4.67165 14.1168 4.9921 14.3987Z" fill="#374F68"/>
<path d="M20.8001 10.668H16.5335C15.9444 10.668 15.4668 11.1455 15.4668 11.7346V12.8013C15.4668 13.3904 15.9444 13.868 16.5335 13.868H20.8001C21.3892 13.868 21.8668 13.3904 21.8668 12.8013V11.7346C21.8668 11.1455 21.3892 10.668 20.8001 10.668Z" fill="#334A5E"/>
</svg>
