<svg width="25" height="25" viewBox="0 0 25 25" fill="none" xmlns="http://www.w3.org/2000/svg">
<path d="M12.5 0C5.69375 0 0.125 5.56875 0.125 12.375C0.125 19.1812 5.69375 24.75 12.5 24.75C19.3062 24.75 24.875 19.1812 24.875 12.375C24.875 5.56875 19.3062 0 12.5 0ZM17.8212 9.405L12.1287 16.83C11.8812 17.0775 11.51 17.325 11.1387 17.325C10.7675 17.325 10.3963 17.2012 10.1488 16.83L7.17875 12.9937C6.8075 12.4987 6.8075 11.6325 7.42625 11.2613C8.045 10.89 8.7875 10.89 9.15875 11.5087L11.1387 14.1075L15.8412 7.92C16.2125 7.425 17.0787 7.30125 17.5737 7.6725C18.1925 8.04375 18.1925 8.78625 17.8212 9.405Z" fill="#158466"/>
</svg>
