<svg width="70" height="70" viewBox="0 0 70 70" fill="none" xmlns="http://www.w3.org/2000/svg">
<path d="M35 0C15.9425 0 0.349976 15.5925 0.349976 34.65C0.349976 53.7075 15.9425 69.3 35 69.3C54.0575 69.3 69.65 53.7075 69.65 34.65C69.65 15.5925 54.0575 0 35 0ZM49.8995 26.334L33.9605 47.124C33.2675 47.817 32.228 48.51 31.1885 48.51C30.149 48.51 29.1095 48.1635 28.4165 47.124L20.1005 36.3825C19.061 34.9965 19.061 32.571 20.7935 31.5315C22.526 30.492 24.605 30.492 25.6445 32.2245L31.1885 39.501L44.3555 22.176C45.395 20.79 47.8205 20.4435 49.2065 21.483C50.939 22.5225 50.939 24.6015 49.8995 26.334Z" fill="#158466"/>
</svg>
