<svg width="25" height="25" viewBox="0 0 25 25" fill="none" xmlns="http://www.w3.org/2000/svg">
<path d="M16.1166 8.29886C16.918 8.63783 17.6591 9.08308 18.3313 9.62599V5.78823C18.3313 2.59681 15.7345 0 12.5431 0H12.4541C9.26551 0 6.6687 2.59681 6.6687 5.78823V9.62599C7.34088 9.0831 8.08201 8.63786 8.88346 8.29886C9.0989 8.20694 9.32009 8.12364 9.54127 8.04895V5.78823C9.54127 4.17959 10.8483 2.87257 12.4569 2.87257H12.546C14.1546 2.87257 15.4616 4.17959 15.4616 5.78823V8.05182C15.6799 8.12364 15.9011 8.20694 16.1166 8.29886Z" fill="#9AA0A4"/>
<path d="M4.35913 16.8586C4.35913 21.3542 8.00443 24.9994 12.5 24.9994C16.9956 24.9994 20.6409 21.357 20.6409 16.8586C20.6409 14.6496 19.759 12.6445 18.3314 11.1766C17.527 10.3522 16.5504 9.69724 15.4588 9.26925C14.5424 8.91018 13.5427 8.71484 12.5 8.71484C11.4573 8.71484 10.4576 8.91018 9.54128 9.26925C8.4497 9.69439 7.47303 10.3493 6.66871 11.1766C5.23814 12.6445 4.35913 14.6496 4.35913 16.8586ZM10.403 15.2155C10.4317 14.1038 11.3366 13.1989 12.4483 13.173C13.6289 13.1443 14.597 14.0952 14.597 15.27C14.597 15.3936 14.5855 15.5142 14.5654 15.6291C14.4619 16.2237 14.1086 16.735 13.6145 17.0453C13.4105 17.1746 13.3071 17.4158 13.3589 17.6485L13.9823 20.6044C14.0196 20.7825 13.8846 20.952 13.7007 20.952H11.2993C11.1154 20.952 10.9804 20.7854 11.0178 20.6044L11.6411 17.6485C11.6899 17.413 11.5894 17.1717 11.3854 17.0424C10.8914 16.7322 10.538 16.2237 10.4346 15.6262C10.4116 15.4941 10.4002 15.3562 10.403 15.2155Z" fill="#9AA0A4"/>
</svg>
