<svg width="25" height="25" viewBox="0 0 25 25" fill="none" xmlns="http://www.w3.org/2000/svg">
<g clip-path="url(#clip0_299_4777)">
<path d="M17.9688 13.5422H13.5417V17.9693C13.5417 18.5444 13.0752 19.0109 12.5001 19.0109C11.925 19.0109 11.4585 18.5444 11.4585 17.9693V13.5422H7.03135C6.45628 13.5422 5.98975 13.0757 5.98975 12.5006C5.98975 11.9255 6.45628 11.459 7.03135 11.459H11.4585V7.03184C11.4585 6.45677 11.925 5.99023 12.5001 5.99023C13.0752 5.99023 13.5417 6.45677 13.5417 7.03184V11.459H17.9688C18.5439 11.459 19.0105 11.9255 19.0105 12.5006C19.0105 13.0757 18.5439 13.5422 17.9688 13.5422Z" fill="#FAFAFA"/>
<path d="M12.1823 0C5.46472 0 0 5.46472 0 12.1823C0 18.8999 5.46472 24.3646 12.1823 24.3646C18.8999 24.3646 24.3646 18.8999 24.3646 12.1823C24.3646 5.46472 18.8999 0 12.1823 0Z" fill="#AFB9B6"/>
<path d="M6.90332 12.1836H17.4613" stroke="white" stroke-width="1.94917" stroke-linecap="round"/>
</g>
<defs>
<clipPath id="clip0_299_4777">
<rect width="25" height="25" fill="white"/>
</clipPath>
</defs>
</svg>
