<svg width="26" height="26" viewBox="0 0 26 26" fill="none" xmlns="http://www.w3.org/2000/svg">
<path d="M22.161 8.36719H16.7925V18.0974H25.5884V13.7179L24.5626 10.1724C24.2533 9.10325 23.2741 8.36719 22.161 8.36719Z" fill="#FF810D"/>
<path d="M24.304 13.6737L23.3898 10.5133C23.2322 9.97006 22.7268 9.58984 22.1608 9.58984H18.0142V13.6737H24.304Z" fill="#84DBFF"/>
<path d="M24.3053 13.6717H18.0122V9.58789L24.3053 13.6717Z" fill="#CDD6E0"/>
<path d="M24.304 13.6737L23.3898 10.5133C23.2322 9.97006 22.7268 9.58984 22.1608 9.58984H18.0142L24.304 13.6737Z" fill="#F2F2F2"/>
<path d="M1.62486 3.48242H15.1675C16.0645 3.48242 16.7924 4.2098 16.7924 5.10729V18.097H0V5.10729C0 4.20985 0.72738 3.48242 1.62486 3.48242Z" fill="#158466"/>
<path d="M11.0055 3.48633V7.77973L10.3772 7.15146L9.71862 7.81009L9.06055 7.15146L8.40248 7.81009L7.7433 7.15146L7.07659 7.81009L6.41903 7.15146L5.7832 7.78734V3.48633H11.0055Z" fill="#F2F2F2"/>
<path d="M25.9998 18.0979V19.934H0.00195312V18.0979H2.71548C3.34917 16.9605 4.56782 16.1914 5.9652 16.1914C7.35715 16.1914 8.5758 16.9605 9.21493 18.0979H17.9459C18.5796 16.9605 19.7923 16.1914 21.1897 16.1914C22.587 16.1914 23.8003 16.9605 24.4394 18.0979H25.9998Z" fill="#334A5E"/>
<path d="M23.7849 19.9211C23.7849 21.3542 22.6232 22.516 21.19 22.516C19.7569 22.516 18.5962 21.3542 18.5962 19.9211C18.5962 18.4879 19.7574 17.3262 21.19 17.3262C22.6237 17.3262 23.7849 18.4879 23.7849 19.9211Z" fill="#40596B"/>
<path d="M22.2332 19.921C22.2332 20.4968 21.7663 20.9631 21.1911 20.9631C20.6154 20.9631 20.1479 20.4968 20.1479 19.921C20.1479 19.3452 20.6148 18.8789 21.1911 18.8789C21.7663 18.8784 22.2332 19.3453 22.2332 19.921Z" fill="#ACB3BA"/>
<path d="M8.55798 19.9211C8.55798 21.3542 7.39564 22.516 5.96307 22.516C4.52994 22.516 3.36816 21.3542 3.36816 19.9211C3.36816 18.4879 4.52994 17.3262 5.96307 17.3262C7.39564 17.3262 8.55798 18.4879 8.55798 19.9211Z" fill="#40596B"/>
<path d="M7.00511 19.921C7.00511 20.4968 6.53877 20.9631 5.96301 20.9631C5.38725 20.9631 4.92041 20.4968 4.92041 19.921C4.92041 19.3452 5.3873 18.8789 5.96301 18.8789C6.53872 18.8789 7.00511 19.3453 7.00511 19.921Z" fill="#ACB3BA"/>
</svg>
