<svg width="36" height="27" viewBox="0 0 36 27" fill="none" xmlns="http://www.w3.org/2000/svg">
<g clip-path="url(#clip0_299_4889)">
<path d="M28.2656 17.7821L29.1338 10.125H26.8481L23.6953 23.5011L34.9081 22.8536L35.8268 19.3822L28.2656 17.7821Z" fill="#FF810D"/>
<path d="M26.6835 19.3828H24.3978L23.1729 24.0114H33.4586C34.0898 24.0114 34.7386 23.4933 34.9077 22.8542H26.9076C26.2764 22.8542 25.9019 22.3362 26.071 21.6971L26.6835 19.3828Z" fill="#F17300"/>
<path d="M35.667 17.8879L33.7349 16.4893L31.5348 15.0382L33.7158 12.4393L33.7089 10.9777C33.7065 10.4743 33.3473 10.125 32.8319 10.125H29.1334L26.6836 19.3822H35.8265L35.9593 18.8802C36.0668 18.4737 35.9558 18.097 35.667 17.8879Z" fill="#FF810D"/>
<path d="M22.7786 8.9668H27.7261C28.0417 8.9668 28.229 9.22586 28.1444 9.54537L24.6228 22.8525L8.13318 23.8323C7.81762 23.8323 7.69703 23.6772 7.78162 23.3576L10.934 11.3619L22.7786 8.9668Z" fill="#158466"/>
<path d="M9.1948 22.8525C8.87917 22.8525 8.69193 22.5934 8.77651 22.2739L9.61126 19.1197C9.69838 18.7905 10.0484 18.6024 10.3611 18.7286C11.3992 19.1474 12.5292 19.3811 13.7153 19.3811C18.7647 19.3811 22.8581 15.2366 22.8581 10.1239C22.8581 9.73118 22.8261 9.34667 22.7792 8.9668H11.7268C11.4111 8.9668 11.0868 9.22579 11.0022 9.54537L7.32744 23.4311C7.24286 23.7506 7.43017 24.0097 7.74573 24.0097H24.3171L24.6233 22.8525H9.1948V22.8525Z" fill="#067557"/>
<path d="M31.9467 25.531C33.0332 24.5683 33.3238 23.1053 32.5959 22.2632C31.8681 21.4211 30.3973 21.5188 29.3109 22.4815C28.2245 23.4442 27.9338 24.9073 28.6617 25.7494C29.3896 26.5915 30.8603 26.4937 31.9467 25.531Z" fill="#40596B"/>
<path d="M31.2864 24.7704C31.8296 24.2891 31.9749 23.5576 31.611 23.1365C31.247 22.7154 30.5116 22.7643 29.9684 23.2456C29.4252 23.727 29.2799 24.4585 29.6439 24.8796C30.0078 25.3006 30.7432 25.2518 31.2864 24.7704Z" fill="#DAD8DB"/>
<path d="M14.2241 25.5408C15.3105 24.5781 15.6012 23.115 14.8733 22.273C14.1454 21.4309 12.6746 21.5286 11.5882 22.4913C10.5018 23.454 10.2112 24.917 10.939 25.7591C11.6669 26.6012 13.1377 26.5035 14.2241 25.5408Z" fill="#40596B"/>
<path d="M13.5652 24.7783C14.1084 24.2969 14.2537 23.5654 13.8898 23.1443C13.5258 22.7233 12.7904 22.7721 12.2472 23.2535C11.704 23.7348 11.5587 24.4663 11.9227 24.8874C12.2866 25.3085 13.022 25.2596 13.5652 24.7783Z" fill="#DAD8DB"/>
<path d="M33.7171 12.4375H30.808L29.7959 13.5946L30.1914 16.1132L33.7362 15.3304L33.7171 12.4375Z" fill="#F2F2F2"/>
<path d="M31.1842 15.3304C30.553 15.3304 30.1785 14.8123 30.3476 14.1732L30.8069 12.4375C30.1757 12.4375 29.527 12.9556 29.3579 13.5946L28.8985 15.3304C28.7294 15.9694 29.104 16.4875 29.7352 16.4875H33.7352L33.7297 15.3304H31.1842Z" fill="#CDD6E0"/>
<path d="M13.7139 18.2254C18.1322 18.2254 21.7139 14.5989 21.7139 10.1254C21.7139 5.65189 18.1322 2.02539 13.7139 2.02539C9.2956 2.02539 5.71387 5.65189 5.71387 10.1254C5.71387 14.5989 9.2956 18.2254 13.7139 18.2254Z" fill="#CDD6E0"/>
<path d="M13.7136 17.0674C17.5007 17.0674 20.5708 13.959 20.5708 10.1245C20.5708 6.29007 17.5007 3.18164 13.7136 3.18164C9.9265 3.18164 6.85645 6.29007 6.85645 10.1245C6.85645 13.959 9.9265 17.0674 13.7136 17.0674Z" fill="white"/>
<path d="M13.716 5.49548C13.4001 5.49548 13.1445 5.23642 13.1445 4.91691V4.33834C13.1445 4.01883 13.4001 3.75977 13.716 3.75977C14.0318 3.75977 14.2874 4.01883 14.2874 4.33834V4.91691C14.2874 5.23642 14.0318 5.49548 13.716 5.49548Z" fill="#ACB3BA"/>
<path d="M13.716 16.4896C13.4001 16.4896 13.1445 16.2306 13.1445 15.9111V15.3325C13.1445 15.013 13.4001 14.7539 13.716 14.7539C14.0318 14.7539 14.2874 15.013 14.2874 15.3325V15.9111C14.2874 16.2306 14.0318 16.4896 13.716 16.4896Z" fill="#ACB3BA"/>
<path d="M19.4305 10.7021H18.859C18.5432 10.7021 18.2876 10.443 18.2876 10.1235C18.2876 9.80399 18.5432 9.54492 18.859 9.54492H19.4305C19.7463 9.54492 20.0019 9.80399 20.0019 10.1235C20.0019 10.443 19.7464 10.7021 19.4305 10.7021Z" fill="#ACB3BA"/>
<path d="M8.57206 10.7021H8.00063C7.68479 10.7021 7.4292 10.443 7.4292 10.1235C7.4292 9.80399 7.68479 9.54492 8.00063 9.54492H8.57206C8.8879 9.54492 9.14349 9.80399 9.14349 10.1235C9.14349 10.443 8.8879 10.7021 8.57206 10.7021Z" fill="#ACB3BA"/>
<path d="M6.28573 18.2275H0.57143C0.255586 18.2275 0 17.9684 0 17.6489C0 17.3294 0.255586 17.0703 0.57143 17.0703H6.28573C6.60157 17.0703 6.85716 17.3294 6.85716 17.6489C6.85716 17.9684 6.60157 18.2275 6.28573 18.2275Z" fill="#CDD6E0"/>
<path d="M5.71485 20.54H2.28627C1.97043 20.54 1.71484 20.2809 1.71484 19.9614C1.71484 19.6419 1.97043 19.3828 2.28627 19.3828H5.71485C6.03069 19.3828 6.28628 19.6419 6.28628 19.9614C6.28628 20.2809 6.03069 20.54 5.71485 20.54Z" fill="#CDD6E0"/>
<path d="M5.143 22.8544H4.00014C3.6843 22.8544 3.42871 22.5953 3.42871 22.2758C3.42871 21.9563 3.6843 21.6973 4.00014 21.6973H5.143C5.45884 21.6973 5.71443 21.9563 5.71443 22.2758C5.71443 22.5953 5.45884 22.8544 5.143 22.8544Z" fill="#CDD6E0"/>
<path d="M11.9997 12.4407C11.8535 12.4407 11.7072 12.3842 11.5957 12.2712C11.3724 12.0451 11.3724 11.6791 11.5957 11.453L17.0242 5.95663C17.2474 5.7306 17.609 5.7306 17.8322 5.95663C18.0555 6.18267 18.0555 6.54873 17.8322 6.77477L12.4037 12.2712C12.292 12.3842 12.1458 12.4407 11.9997 12.4407Z" fill="#E5646E"/>
<path d="M13.7146 11.2811C14.3458 11.2811 14.8575 10.763 14.8575 10.1239C14.8575 9.48487 14.3458 8.9668 13.7146 8.9668C13.0835 8.9668 12.5718 9.48487 12.5718 10.1239C12.5718 10.763 13.0835 11.2811 13.7146 11.2811Z" fill="#40596B"/>
</g>
<defs>
<clipPath id="clip0_299_4889">
<rect width="36" height="27" fill="white"/>
</clipPath>
</defs>
</svg>
