<svg width="20" height="20" viewBox="0 0 20 20" fill="none" xmlns="http://www.w3.org/2000/svg">
<g clip-path="url(#clip0_1542_16223)">
<g clip-path="url(#clip1_1542_16223)">
<path d="M15.4181 16.2247C14.6901 16.5984 13.8983 16.8242 13.1016 16.8963L12.9524 16.91L12.8027 16.9167C12.7028 16.9207 12.6056 16.9262 12.4983 16.9269L12.1972 16.9239L12.1222 16.923L12.0471 16.9182L11.8973 16.9091C11.4984 16.881 11.1026 16.8279 10.7158 16.7376C9.94383 16.5532 9.20317 16.2557 8.53651 15.8397C8.2028 15.6334 7.88649 15.4004 7.59169 15.1441L7.48244 15.0464C7.44643 15.0136 7.40828 14.983 7.3741 14.948L7.16414 14.7443L6.9644 14.531C6.89787 14.4599 6.83745 14.3833 6.77352 14.3099C6.67784 14.1936 6.58553 14.0746 6.49687 13.9531L6.91618 13.9435L7.23113 13.9364L7.40645 13.9274C7.46535 13.9243 7.52379 13.9158 7.58253 13.91C7.81706 13.8819 8.04991 13.8326 8.27727 13.7626C8.50447 13.6925 8.72603 13.6016 8.93797 13.4913C9.14991 13.3806 9.35087 13.2485 9.53917 13.1002C9.91575 12.8032 10.2397 12.4373 10.4902 12.0235C10.7405 11.6096 10.9132 11.1463 10.9978 10.6664C11.0403 10.4264 11.0611 10.1824 11.0603 9.93857C11.0589 9.87753 11.0592 9.81726 11.0559 9.75531C11.051 9.69306 11.048 9.6308 11.0408 9.5687C11.0269 9.44449 11.0075 9.32059 10.9811 9.19806C10.876 8.70734 10.6642 8.23798 10.3656 7.83225C10.0683 7.42469 9.67848 7.08686 9.23826 6.8386C8.79774 6.59019 8.30199 6.43531 7.796 6.39182C7.29048 6.34895 6.77794 6.41303 6.29668 6.58088C5.81664 6.74857 5.37108 7.01758 5.00365 7.36869C4.63653 7.71995 4.34386 8.14795 4.15084 8.61838C3.95843 9.08881 3.86687 9.60181 3.88686 10.1076L3.89114 10.2024C3.89281 10.2334 3.89617 10.2596 3.89861 10.2885L3.91448 10.458L3.93081 10.6272L3.95477 10.7958L3.97948 10.9641L3.992 11.0483L4.00848 11.1318C4.03075 11.2432 4.05181 11.3547 4.07546 11.4655C4.17663 11.9082 4.31472 12.3421 4.48989 12.7602C4.55688 12.9227 4.62966 13.0826 4.70733 13.2398C4.61013 13.2355 4.51278 13.2296 4.41558 13.2218C4.01137 13.1916 3.60824 13.1322 3.20968 13.0445C2.81112 12.9566 2.41836 12.8376 2.03262 12.6937C1.6481 12.5469 1.27289 12.3762 0.927427 12.1526C0.753935 12.042 0.588378 11.9178 0.433349 11.7792C0.27893 11.6405 0.133972 11.4889 0 11.3264C0.207367 11.6935 0.48767 12.0235 0.812529 12.3057C1.13937 12.5864 1.50787 12.8167 1.88766 13.0152C2.26821 13.2148 2.66693 13.382 3.07647 13.5216C3.48678 13.6599 3.90945 13.7629 4.33822 13.8389C4.58907 13.8828 4.84237 13.9138 5.09673 13.9342C5.82488 15.0921 6.8495 16.0558 8.04121 16.6987C8.4326 16.9156 8.84581 17.0905 9.26771 17.2329C9.68992 17.3751 10.1227 17.4828 10.5607 17.5509C11.4374 17.6839 12.3303 17.6667 13.1889 17.5087C13.6213 17.426 14.0445 17.3035 14.4487 17.1387C14.8529 16.9745 15.2382 16.7685 15.5961 16.527C15.955 16.2865 16.2866 16.01 16.5858 15.7056C16.8826 15.3988 17.1515 15.0683 17.3767 14.7118C16.8138 15.3394 16.1461 15.852 15.4181 16.2247ZM5.31356 9.09735C5.44127 8.79187 5.63445 8.5131 5.87523 8.28528C6.11434 8.05533 6.40273 7.87864 6.71416 7.76771C7.02483 7.65647 7.36327 7.61298 7.69453 7.6374C8.0258 7.65937 8.35142 7.75443 8.64531 7.91282C8.93934 8.07074 9.20073 8.29184 9.40809 8.55582C9.61515 8.8201 9.76637 9.12818 9.84754 9.45639C9.86799 9.53833 9.88356 9.62165 9.89576 9.70572C9.90217 9.74768 9.90477 9.79025 9.90995 9.83252C9.91423 9.87525 9.91545 9.91995 9.91865 9.96375C9.92659 10.1395 9.91911 10.3159 9.89592 10.4906C9.87272 10.6652 9.83366 10.8381 9.77903 11.0064C9.72425 11.1747 9.65269 11.338 9.56892 11.495C9.40138 11.8091 9.17555 12.0951 8.90516 12.3333C8.63478 12.5712 8.32182 12.7642 7.98094 12.8933C7.81081 12.9583 7.63411 13.008 7.45345 13.042C7.40813 13.0492 7.36311 13.0596 7.31734 13.0646L7.17894 13.0822L6.86537 13.1133L6.23839 13.1757L6.08153 13.1913L6.01241 13.1978C5.85387 12.9133 5.71532 12.6182 5.60073 12.3137C5.46416 11.9526 5.35186 11.5825 5.27251 11.2049L5.22094 10.9202L5.20797 10.8491L5.19881 10.7772L5.18065 10.6338L5.16234 10.4903L5.15151 10.346L5.14037 10.2016C5.13869 10.1781 5.13595 10.1523 5.13533 10.1308L5.13396 10.0683C5.12679 9.73517 5.18554 9.40329 5.31356 9.09735Z" fill="url(#paint0_radial_1542_16223)"/>
<path d="M7.72266 3.91554C8.25015 4.6594 8.89636 5.27509 9.59948 5.80289C9.68737 5.86896 9.77664 5.93305 9.86651 5.99607C9.95593 6.05939 10.0461 6.1215 10.1375 6.18177C10.32 6.30277 10.5069 6.4163 10.6943 6.52723C10.8821 6.6377 11.0736 6.74085 11.2671 6.83789C11.3133 6.86185 11.3674 6.88932 11.4147 6.91205C11.4621 6.93418 11.5087 6.95798 11.5567 6.97873C11.6043 7.0001 11.6518 7.02161 11.7002 7.04114C11.7481 7.06174 11.7963 7.08112 11.845 7.09943C12.6192 7.40323 13.4464 7.52851 14.2566 7.47541C15.0669 7.42429 15.8606 7.19617 16.5677 6.81073C17.2753 6.42606 17.8957 5.88666 18.3745 5.23328C18.4351 5.15211 18.4924 5.06849 18.5486 4.98396L18.6295 4.8567C18.6504 4.82008 18.6736 4.78452 18.6923 4.74668C18.7134 4.71006 18.7297 4.67115 18.7483 4.63316C18.7637 4.59409 18.7819 4.55564 18.7947 4.51536C18.8236 4.43586 18.8474 4.35423 18.8643 4.27076C18.8825 4.1876 18.8931 4.10246 18.8979 4.01655C18.9035 3.9308 18.9018 3.84413 18.8936 3.75776C18.8907 3.71427 18.8835 3.6714 18.8786 3.62806C18.8709 3.58518 18.8646 3.5417 18.8539 3.49913C18.8347 3.41368 18.8098 3.32868 18.7772 3.24659C18.7451 3.1642 18.7082 3.08302 18.6633 3.00611C18.6197 2.92845 18.5722 2.8517 18.5167 2.7809C18.4081 2.63685 18.2753 2.50944 18.1259 2.39927C18.0516 2.34327 17.9723 2.29353 17.8896 2.24959C17.8073 2.20411 17.7205 2.16749 17.6314 2.13484C17.4536 2.06846 17.263 2.02803 17.0677 2.01719C16.9699 2.00956 16.8709 2.01079 16.7717 2.01857C16.6722 2.02543 16.573 2.04176 16.4743 2.06373C16.3753 2.08464 16.277 2.11363 16.181 2.15071C16.0849 2.18733 15.99 2.23021 15.8983 2.28087C15.8061 2.33091 15.717 2.38844 15.632 2.45298C15.546 2.51661 15.4639 2.58726 15.3877 2.66508C15.3479 2.70262 15.3121 2.74397 15.2745 2.78456C15.2393 2.82713 15.204 2.86879 15.1685 2.91426C15.0981 3.00398 15.0266 3.09294 14.9542 3.18144C14.995 3.07463 15.0366 2.96843 15.0794 2.86268C15.0995 2.80989 15.125 2.75618 15.1489 2.70277C15.1756 2.65059 15.2013 2.59703 15.2318 2.54637C15.3508 2.34129 15.5046 2.15117 15.6876 1.98866C15.7327 1.947 15.7808 1.90916 15.829 1.8704C15.8789 1.83439 15.9285 1.79716 15.9813 1.76466C16.0852 1.69676 16.1952 1.63695 16.31 1.58552C16.4246 1.53364 16.5441 1.49122 16.6667 1.45811C16.7894 1.42439 16.9151 1.3983 17.0432 1.3838C17.2989 1.35466 17.5621 1.36366 17.8208 1.41234C17.9498 1.43751 18.078 1.47169 18.2027 1.51716C18.3276 1.56142 18.4499 1.61467 18.5674 1.67784C19.0381 1.929 19.4434 2.33198 19.6922 2.82347C19.7559 2.94554 19.8093 3.0731 19.8538 3.20402C19.8987 3.33479 19.9349 3.46937 19.9579 3.6067C19.9823 3.74357 19.9965 3.88288 19.9996 4.02265C20.0034 4.16258 19.9974 4.30326 19.9796 4.44288C19.9625 4.5825 19.9367 4.72181 19.8969 4.85746C19.8789 4.92597 19.8547 4.99235 19.8322 5.05949C19.8064 5.12525 19.7818 5.19178 19.7516 5.25571C19.7235 5.32072 19.6907 5.38328 19.6578 5.44584C19.6263 5.50321 19.5967 5.55509 19.5654 5.60972C19.5021 5.71668 19.4371 5.82273 19.3678 5.92634C18.8161 6.75672 18.0504 7.45038 17.1681 7.92295C16.2868 8.39764 15.2898 8.65094 14.2948 8.65704C13.7972 8.66132 13.301 8.59967 12.8208 8.48386C12.5803 8.42664 12.3451 8.3505 12.1152 8.26352C11.8856 8.17578 11.6611 8.07614 11.4459 7.95987C11.3919 7.93134 11.3385 7.90174 11.2857 7.87107C11.2325 7.84131 11.1804 7.80957 11.1284 7.77799C11.0761 7.74716 11.0256 7.71314 10.9741 7.68079L10.8289 7.58496C10.6331 7.45328 10.4424 7.31565 10.257 7.17191C10.071 7.02909 9.89245 6.87696 9.71835 6.72101C9.63137 6.64289 9.54593 6.56308 9.4617 6.48237C9.37838 6.40027 9.29614 6.31742 9.21588 6.23288C9.05475 6.06428 8.90033 5.88956 8.75491 5.70768C8.60858 5.52701 8.47079 5.33948 8.34354 5.1457C8.08902 4.75828 7.8725 4.34675 7.72266 3.91554Z" fill="url(#paint1_radial_1542_16223)"/>
<path d="M15.9329 15.279C15.9329 15.279 10.0768 11.4617 17.5137 6.62269C17.8241 6.42066 18.2384 6.50229 18.4528 6.80411C19.4838 8.25522 21.7381 12.4445 15.9329 15.279Z" fill="#158466"/>
<path d="M18.4534 6.80341C18.3346 6.63602 18.1542 6.53668 17.9642 6.51562C16.4991 10.5322 15.9336 15.2784 15.9336 15.2784C21.7388 12.4438 19.4845 8.25451 18.4534 6.80341Z" fill="#158466"/>
<path d="M17.9396 9.32919C17.8865 9.3771 17.8297 9.42135 17.7743 9.4656C17.719 9.51016 17.664 9.55456 17.6067 9.59576C17.5503 9.63818 17.4875 9.67267 17.4263 9.70761C17.365 9.7424 17.3115 9.78543 17.2641 9.837C17.2179 9.88903 17.1735 9.94336 17.1323 10.0052C17.1483 9.90948 17.1641 9.81411 17.18 9.71844L17.2635 9.25244C17.2905 9.09649 17.3268 8.94406 17.3561 8.78857C17.4203 8.47943 17.4959 8.17487 17.5926 7.87442L17.5259 7.84375L17.4174 8.05875L17.363 8.16708C17.3457 8.20355 17.3312 8.24063 17.3152 8.2774C17.2552 8.42541 17.188 8.57312 17.1355 8.72372C17.0216 9.02371 16.9235 9.32782 16.8234 9.63192C16.8057 9.69098 16.788 9.75003 16.7702 9.80908C16.7508 9.76162 16.7279 9.71585 16.6974 9.67343C16.6565 9.6159 16.6139 9.55822 16.5807 9.49612C16.5459 9.43478 16.5146 9.37146 16.483 9.30783C16.4511 9.2442 16.4183 9.18026 16.3901 9.1145C16.3272 8.98434 16.2769 8.849 16.221 8.71106L16.1807 8.71701C16.1731 8.86639 16.1768 9.01745 16.1934 9.16791C16.201 9.24328 16.2137 9.31775 16.2257 9.39312C16.2415 9.46713 16.2573 9.5419 16.2772 9.61544C16.2964 9.68914 16.3115 9.76529 16.3303 9.84066C16.3506 9.91558 16.3829 9.98562 16.4294 10.0477C16.4386 10.0598 16.4482 10.0718 16.458 10.0837C16.5643 10.2127 16.5982 10.3866 16.5533 10.5478L16.5526 10.5507C16.4748 10.831 16.4033 11.1123 16.3304 11.3935C16.3014 11.3275 16.2685 11.2677 16.2329 11.2095C16.1955 11.1503 16.1507 11.0986 16.0965 11.0534C16.0426 11.008 15.9868 10.9629 15.939 10.9111C15.89 10.8603 15.8438 10.8068 15.7974 10.7531C15.7507 10.6996 15.7028 10.6459 15.659 10.5893C15.5656 10.4791 15.4829 10.3605 15.3944 10.2409L15.3569 10.2569C15.3868 10.4033 15.4283 10.5487 15.482 10.6901C15.5083 10.7612 15.5391 10.8302 15.5698 10.9002C15.6035 10.968 15.6375 11.0362 15.675 11.1026C15.7121 11.1691 15.7458 11.239 15.7829 11.3073C15.8212 11.3746 15.8701 11.4344 15.9306 11.483C15.9578 11.5042 15.9857 11.5245 16.0152 11.5434C16.158 11.6356 16.2198 11.8136 16.1751 11.9777C16.1366 12.1185 16.0977 12.2593 16.0603 12.4005C16.0124 12.5793 15.974 12.7597 15.9425 12.9414C15.9163 12.8851 15.8873 12.8329 15.8565 12.7821C15.8189 12.7229 15.7741 12.6712 15.7199 12.626C15.666 12.5805 15.6104 12.5355 15.5626 12.4836C15.5135 12.4328 15.4674 12.3794 15.4208 12.3257C15.3741 12.2721 15.3264 12.2186 15.2826 12.1618C15.1892 12.0517 15.1065 11.9331 15.0179 11.8135L14.9805 11.8295C15.0104 11.9758 15.0519 12.1212 15.1056 12.2627C15.1317 12.3338 15.1627 12.4029 15.1932 12.4728C15.2269 12.5405 15.2609 12.6088 15.2986 12.675C15.3357 12.7417 15.3694 12.8115 15.4065 12.8799C15.4448 12.9472 15.4936 13.007 15.5542 13.0555C15.6149 13.103 15.6808 13.1463 15.7549 13.1791C15.8397 13.2167 15.8926 13.3017 15.8849 13.394C15.8646 13.6332 15.8314 14.066 15.8298 14.2971C15.8296 14.6193 15.8415 14.9432 15.8966 15.2731L15.9691 15.2842C16.1217 14.9877 16.2375 14.6861 16.3411 14.3829C16.4438 14.0794 16.5321 13.7741 16.6081 13.4668C16.6095 13.4613 16.6107 13.4558 16.6121 13.4504C16.6367 13.3512 16.7262 13.2861 16.8283 13.2856C16.9035 13.2853 16.9763 13.274 17.0465 13.2576C17.1217 13.2389 17.1912 13.2051 17.2542 13.1601C17.3166 13.1135 17.3764 13.0642 17.4379 13.0192C17.4998 12.9748 17.5594 12.9272 17.6184 12.8798C17.6755 12.8291 17.7325 12.7795 17.7861 12.7258C17.8941 12.62 17.9927 12.5053 18.0814 12.3851L18.0539 12.3549C17.9234 12.4263 17.7986 12.4992 17.6677 12.5601C17.6042 12.5932 17.5383 12.6219 17.4734 12.6509C17.4087 12.6802 17.3444 12.7093 17.2786 12.7349C17.2134 12.762 17.144 12.7795 17.076 12.7981C17.0079 12.8164 16.9453 12.8447 16.8866 12.8827C16.8236 12.9249 16.7622 12.9712 16.7023 13.0267C16.7317 12.8634 16.7555 12.6992 16.7743 12.534C16.7879 12.4018 16.8083 12.2241 16.8268 12.0678C16.8465 11.9017 16.9687 11.7628 17.133 11.7314C17.2133 11.7161 17.291 11.6891 17.3639 11.672C17.4393 11.6534 17.5085 11.6195 17.5716 11.5745C17.6338 11.528 17.6938 11.4787 17.7554 11.4337C17.8174 11.3893 17.8769 11.3415 17.9359 11.2942C17.993 11.2436 18.0499 11.194 18.1035 11.1403C18.2115 11.0345 18.3102 10.9198 18.3987 10.7994L18.3714 10.7693C18.2408 10.8407 18.1161 10.9137 17.9851 10.9745C17.9216 11.0077 17.8557 11.0362 17.7908 11.0653C17.7261 11.0946 17.6617 11.1238 17.596 11.1493C17.531 11.1763 17.4614 11.194 17.3935 11.2124C17.3254 11.2307 17.2629 11.259 17.2041 11.2971C17.0929 11.3716 16.9871 11.4572 16.8849 11.5895C16.9324 11.2777 16.9772 10.9649 17.0294 10.6541L17.0312 10.6421C17.0587 10.4522 17.1851 10.287 17.3663 10.2244C17.4176 10.2067 17.4661 10.1844 17.5128 10.1599C17.5812 10.123 17.6399 10.0729 17.6897 10.0135C17.7383 9.95282 17.784 9.89025 17.8323 9.8312C17.8812 9.77276 17.9268 9.71173 17.9721 9.651C18.0147 9.58767 18.0574 9.52542 18.0958 9.46011C18.174 9.33056 18.2408 9.19491 18.2965 9.05621L18.2623 9.03378C18.1537 9.13556 18.0511 9.23733 17.9396 9.32919Z" fill="#13B086"/>
<path d="M15.1502 2.84672C15.1502 2.84672 11.5247 2.0171 12.4221 6.65165C12.4595 6.84498 12.6438 6.9733 12.8387 6.94385C13.7751 6.80195 16.2115 6.11606 15.1502 2.84672Z" fill="#158466"/>
<path d="M12.8379 6.94283C12.7298 6.95916 12.6252 6.92696 12.5469 6.86211C13.5422 4.81668 15.1494 2.8457 15.1494 2.8457C16.2107 6.11505 13.7743 6.80093 12.8379 6.94283Z" fill="#158466"/>
<path d="M13.6149 5.81295C13.6135 5.77496 13.6095 5.73681 13.606 5.69927C13.6025 5.66159 13.5993 5.6242 13.5938 5.58697C13.5892 5.54974 13.5792 5.51297 13.57 5.47665C13.5605 5.44033 13.5573 5.40402 13.5595 5.36679C13.5624 5.32986 13.5666 5.29278 13.5752 5.25418C13.5445 5.29568 13.5139 5.33703 13.483 5.37854L13.3356 5.5827C13.2859 5.6506 13.2409 5.72094 13.1924 5.78961C13.0977 5.92846 13.0092 6.06991 12.9299 6.21792L12.8936 6.20388L12.9357 6.08288L12.9571 6.022C12.9645 6.00186 12.9734 5.98263 12.9816 5.96295C13.016 5.88528 13.0477 5.80487 13.086 5.72918C13.1586 5.57476 13.2387 5.42477 13.3181 5.27401C13.3343 5.24548 13.3503 5.21679 13.3663 5.18811C13.3408 5.19818 13.3149 5.20642 13.2874 5.21038C13.2503 5.21603 13.2125 5.22107 13.1763 5.23129C13.14 5.2406 13.1042 5.25204 13.0681 5.26348C13.0321 5.27478 12.9955 5.28591 12.96 5.29934C12.8869 5.32345 12.8164 5.35427 12.743 5.38388L12.7305 5.36618C12.7846 5.30819 12.844 5.25372 12.9076 5.20443C12.9392 5.17941 12.9725 5.15683 13.0057 5.13363C13.0399 5.11212 13.0742 5.09076 13.1098 5.07107C13.145 5.05108 13.1798 5.0288 13.2155 5.00805C13.2517 4.98822 13.2905 4.97464 13.3315 4.9696C13.3394 4.96869 13.3475 4.96777 13.3558 4.96716C13.4444 4.96014 13.5236 4.90887 13.5686 4.83212L13.5694 4.83075C13.648 4.69738 13.7292 4.56601 13.8099 4.43417C13.7739 4.44745 13.7388 4.45691 13.7034 4.46484C13.6669 4.47247 13.6304 4.47445 13.5932 4.47049C13.5558 4.46652 13.518 4.46194 13.4806 4.46286C13.4431 4.46286 13.4055 4.46484 13.3677 4.46698C13.33 4.46896 13.2917 4.47033 13.2538 4.47461C13.1772 4.47964 13.1013 4.49185 13.0228 4.50207L13.015 4.48193C13.0822 4.43921 13.1531 4.40136 13.227 4.36963C13.2639 4.3533 13.3018 4.33972 13.3398 4.32553C13.3782 4.31332 13.417 4.30111 13.4562 4.29104C13.4954 4.28051 13.5346 4.2677 13.5744 4.25656C13.6144 4.24634 13.6553 4.24283 13.6962 4.24817C13.7144 4.25076 13.7325 4.25396 13.7505 4.25808C13.8387 4.27868 13.9297 4.23657 13.9759 4.15875C14.0156 4.09192 14.0551 4.02508 14.0952 3.95856C14.146 3.87417 14.2008 3.79269 14.2586 3.7135C14.2275 3.72433 14.1967 3.73257 14.1659 3.73944C14.1294 3.74707 14.0931 3.74905 14.0557 3.74493C14.0183 3.74112 13.9805 3.73654 13.9431 3.7373C13.9055 3.7373 13.868 3.73944 13.8302 3.74142C13.7925 3.74341 13.7543 3.74493 13.7165 3.7492C13.6397 3.75409 13.5637 3.76629 13.4853 3.77667L13.4775 3.75638C13.5447 3.7138 13.6156 3.67581 13.6896 3.64422C13.7266 3.6279 13.7642 3.61416 13.8024 3.59997C13.8407 3.58792 13.8795 3.57571 13.9187 3.56564C13.9579 3.55511 13.9971 3.5423 14.0371 3.53116C14.0769 3.52093 14.1178 3.51742 14.1588 3.52276C14.1994 3.52841 14.2405 3.53757 14.2803 3.55389C14.3259 3.57236 14.3781 3.56137 14.4106 3.52414C14.4947 3.42801 14.6479 3.25528 14.7358 3.16922C14.8591 3.05005 14.9874 2.93484 15.1339 2.83398L15.165 2.85764C15.1079 3.02563 15.0353 3.18143 14.9576 3.3331C14.8795 3.48462 14.7953 3.63125 14.7057 3.77392C14.7042 3.77652 14.7025 3.77911 14.701 3.78155C14.6721 3.82763 14.6802 3.88592 14.7178 3.92514C14.7455 3.95413 14.7681 3.98617 14.7877 4.01913C14.8084 4.05484 14.8212 4.09375 14.8272 4.13464C14.8324 4.17569 14.8357 4.21673 14.8412 4.25686C14.8472 4.29699 14.851 4.33743 14.8546 4.37756C14.8563 4.41815 14.8585 4.45828 14.8577 4.49856C14.8571 4.57913 14.8496 4.65924 14.8363 4.73767L14.8147 4.73828C14.7938 4.66198 14.7756 4.58722 14.7504 4.51458C14.7397 4.47796 14.7263 4.44226 14.7133 4.4067C14.7007 4.37115 14.688 4.33575 14.6735 4.30111C14.6598 4.26617 14.6409 4.23306 14.6229 4.20025C14.6045 4.16745 14.5923 4.13312 14.5852 4.09649C14.578 4.05667 14.5731 4.01623 14.572 3.97275C14.5205 4.04431 14.4665 4.11419 14.4102 4.1824C14.3647 4.23642 14.3043 4.30996 14.2513 4.37481C14.195 4.44378 14.1869 4.5419 14.2357 4.61636C14.2595 4.65283 14.2779 4.6925 14.2983 4.72668C14.3191 4.76239 14.3317 4.80145 14.3378 4.84219C14.343 4.88324 14.3464 4.92443 14.3519 4.96457C14.3578 5.0047 14.3615 5.04513 14.3651 5.08526C14.3668 5.1257 14.369 5.16598 14.3682 5.20626C14.3677 5.28668 14.3603 5.36679 14.347 5.44522L14.3253 5.44598C14.3044 5.36953 14.2861 5.29492 14.2611 5.22229C14.2502 5.18566 14.2368 5.14996 14.224 5.11441C14.2112 5.07885 14.1987 5.04345 14.184 5.00882C14.1703 4.97387 14.1514 4.94076 14.1334 4.90796C14.1152 4.875 14.1028 4.84082 14.0957 4.8042C14.0832 4.73416 14.0767 4.66198 14.0896 4.57394C13.9879 4.7073 13.8848 4.84021 13.7852 4.97509L13.7812 4.98028C13.7188 5.06085 13.7021 5.17041 13.7452 5.26287C13.7574 5.28897 13.7668 5.31582 13.7746 5.34268C13.7858 5.3825 13.7884 5.42355 13.7841 5.46444C13.7787 5.50549 13.7717 5.54623 13.767 5.58651C13.7627 5.6268 13.7562 5.66693 13.7498 5.7066C13.7412 5.74627 13.7331 5.78579 13.7224 5.82455C13.7017 5.90237 13.6745 5.97805 13.6419 6.05068L13.6208 6.04595C13.6199 5.96646 13.621 5.88955 13.6149 5.81295Z" fill="#13B086"/>
<path d="M3.81055 14.6562C4.00677 14.8874 4.1969 15.107 4.39191 15.3197C4.58569 15.5323 4.77994 15.7386 4.98013 15.9352C5.37793 16.3309 5.79571 16.6898 6.23455 17.0157C6.45565 17.1768 6.68331 17.327 6.91632 17.4712C7.15054 17.6134 7.39254 17.7436 7.6408 17.8697L7.82955 17.9596C7.89257 17.9904 7.95605 18.0203 8.02074 18.0478C8.08514 18.0765 8.15029 18.104 8.21499 18.134C8.27999 18.1632 8.34667 18.1871 8.41289 18.2151C8.54473 18.2739 8.68084 18.3199 8.81725 18.3759C8.88546 18.4046 8.95504 18.4273 9.02462 18.4535C9.09435 18.4802 9.16454 18.5066 9.23504 18.5376C8.9378 18.5956 8.63323 18.6165 8.32943 18.5999C8.25359 18.5953 8.17699 18.5918 8.10101 18.5843C8.02532 18.5755 7.9501 18.564 7.87396 18.5536C7.83611 18.5478 7.79751 18.5445 7.76028 18.5361L7.64782 18.5121C7.57305 18.4955 7.49691 18.4816 7.42291 18.461L7.20104 18.3966C7.12658 18.3757 7.05517 18.3469 6.98254 18.3206C6.83605 18.2703 6.69567 18.2056 6.55499 18.1406C6.27728 18.004 6.0101 17.8446 5.76031 17.6616C5.26288 17.2933 4.83105 16.841 4.49338 16.332C4.32492 16.0773 4.17874 15.809 4.06079 15.5292C4.00174 15.3894 3.94971 15.2468 3.90668 15.1013C3.86365 14.9559 3.82718 14.8081 3.81055 14.6562Z" fill="url(#paint2_radial_1542_16223)"/>
<path d="M7.60532 2.32227C7.76401 2.46829 7.88898 2.61539 8.00953 2.76477C8.12915 2.91385 8.23597 3.06674 8.34049 3.22131C8.4444 3.37634 8.54114 3.53595 8.63376 3.70288C8.67816 3.78787 8.7247 3.8721 8.76605 3.96273C8.80664 4.05429 8.85044 4.14416 8.88095 4.25067C8.67679 4.18032 8.50345 4.06634 8.35086 3.93298C8.19614 3.80084 8.06598 3.6452 7.95398 3.47781C7.84229 3.31042 7.75196 3.12854 7.68848 2.93567C7.62699 2.74264 7.5835 2.53925 7.60532 2.32227Z" fill="url(#paint3_radial_1542_16223)"/>
<path d="M6.81122 15.874H8.59161C8.5736 15.863 8.55544 15.8522 8.53744 15.8411C8.20358 15.6346 7.88742 15.4016 7.59262 15.1453L7.48336 15.0476C7.4472 15.0148 7.40905 14.9843 7.37503 14.9493L7.16507 14.7456L6.96518 14.5322C6.89865 14.4611 6.83822 14.3845 6.77444 14.3112C6.67877 14.1949 6.58645 14.0758 6.49765 13.9543L5.09766 13.9355C5.56 14.6709 6.14258 15.3276 6.81122 15.874Z" fill="url(#paint4_linear_1542_16223)"/>
<path d="M5.6011 12.3133C5.50726 12.0652 5.42532 11.8127 5.35711 11.5566H4.09766C4.19669 11.9674 4.32715 12.3705 4.49011 12.7596C4.5571 12.9221 4.62988 13.0821 4.7077 13.2392L6.01278 13.1973C5.85425 12.9127 5.71585 12.6176 5.6011 12.3133Z" fill="url(#paint5_linear_1542_16223)"/>
</g>
</g>
<defs>
<radialGradient id="paint0_radial_1542_16223" cx="0" cy="0" r="1" gradientUnits="userSpaceOnUse" gradientTransform="translate(8.6882 12.1411) scale(7.67443 7.67443)">
<stop stop-color="#F2E9DC"/>
<stop offset="0.423" stop-color="#F1E7DA"/>
<stop offset="0.6192" stop-color="#EEE1D2"/>
<stop offset="0.7687" stop-color="#E9D6C6"/>
<stop offset="0.8937" stop-color="#E3C7B3"/>
<stop offset="1" stop-color="#DAB49D"/>
</radialGradient>
<radialGradient id="paint1_radial_1542_16223" cx="0" cy="0" r="1" gradientUnits="userSpaceOnUse" gradientTransform="translate(13.5874 1.66704) scale(7.30721)">
<stop stop-color="#F2E9DC"/>
<stop offset="0.423" stop-color="#F1E7DA"/>
<stop offset="0.6192" stop-color="#EEE1D2"/>
<stop offset="0.7687" stop-color="#E9D6C6"/>
<stop offset="0.8937" stop-color="#E3C7B3"/>
<stop offset="1" stop-color="#DAB49D"/>
</radialGradient>
<radialGradient id="paint2_radial_1542_16223" cx="0" cy="0" r="1" gradientUnits="userSpaceOnUse" gradientTransform="translate(8.86782 12.0066) scale(7.14801)">
<stop stop-color="#F2E9DC"/>
<stop offset="0.423" stop-color="#F1E7DA"/>
<stop offset="0.6192" stop-color="#EEE1D2"/>
<stop offset="0.7687" stop-color="#E9D6C6"/>
<stop offset="0.8937" stop-color="#E3C7B3"/>
<stop offset="1" stop-color="#DAB49D"/>
</radialGradient>
<radialGradient id="paint3_radial_1542_16223" cx="0" cy="0" r="1" gradientUnits="userSpaceOnUse" gradientTransform="translate(8.21577 3.32992) scale(0.965559)">
<stop stop-color="#F2E9DC"/>
<stop offset="0.423" stop-color="#F1E7DA"/>
<stop offset="0.6192" stop-color="#EEE1D2"/>
<stop offset="0.7687" stop-color="#E9D6C6"/>
<stop offset="0.8937" stop-color="#E3C7B3"/>
<stop offset="1" stop-color="#DAB49D"/>
</radialGradient>
<linearGradient id="paint4_linear_1542_16223" x1="6.85651" y1="15.1295" x2="6.75712" y2="13.2552" gradientUnits="userSpaceOnUse">
<stop stop-color="#DAB49D" stop-opacity="0"/>
<stop offset="0.4385" stop-color="#CE9E7A" stop-opacity="0.439216"/>
<stop offset="1" stop-color="#C08552"/>
</linearGradient>
<linearGradient id="paint5_linear_1542_16223" x1="5.05524" y1="12.1322" x2="5.05524" y2="13.8416" gradientUnits="userSpaceOnUse">
<stop stop-color="#DAB49D" stop-opacity="0"/>
<stop offset="0.4385" stop-color="#CE9E7A" stop-opacity="0.439216"/>
<stop offset="1" stop-color="#C08552"/>
</linearGradient>
<clipPath id="clip0_1542_16223">
<rect width="20" height="20" fill="white"/>
</clipPath>
<clipPath id="clip1_1542_16223">
<rect width="20" height="20" fill="white"/>
</clipPath>
</defs>
</svg>
