<svg width="40" height="40" viewBox="0 0 40 40" fill="none" xmlns="http://www.w3.org/2000/svg">
<path d="M29.2107 30.5816C27.9731 31.2169 26.6271 31.6008 25.2728 31.7232L25.0191 31.7466L24.7646 31.758C24.5947 31.7648 24.4295 31.7741 24.2471 31.7754L23.7353 31.7702L23.6077 31.7686L23.4801 31.7606L23.2253 31.745C22.5473 31.6973 21.8744 31.607 21.2168 31.4535C19.9045 31.1401 18.6454 30.6343 17.5121 29.9272C16.9448 29.5765 16.407 29.1804 15.9059 28.7446L15.7201 28.5786C15.6589 28.5228 15.5941 28.4706 15.536 28.4112L15.179 28.0649L14.8395 27.7023C14.7264 27.5814 14.6237 27.4512 14.515 27.3264C14.3523 27.1288 14.1954 26.9264 14.0447 26.72L14.7575 26.7036L15.2929 26.6914L15.591 26.6761C15.6911 26.6709 15.7904 26.6564 15.8903 26.6466C16.289 26.5988 16.6848 26.515 17.0714 26.396C17.4576 26.2769 17.8342 26.1223 18.1946 25.9348C18.5549 25.7467 18.8965 25.5221 19.2166 25.2699C19.8568 24.7651 20.4075 24.1431 20.8334 23.4396C21.2588 22.7359 21.5525 21.9483 21.6962 21.1325C21.7685 20.7245 21.8038 20.3097 21.8025 19.8952C21.8002 19.7914 21.8007 19.689 21.795 19.5836C21.7867 19.4778 21.7815 19.372 21.7693 19.2664C21.7457 19.0552 21.7128 18.8446 21.6679 18.6363C21.4892 17.8021 21.1291 17.0042 20.6215 16.3144C20.1162 15.6216 19.4534 15.0473 18.705 14.6252C17.9562 14.2029 17.1134 13.9396 16.2532 13.8657C15.3938 13.7928 14.5225 13.9018 13.7044 14.1871C12.8883 14.4722 12.1308 14.9295 11.5062 15.5264C10.8821 16.1235 10.3846 16.8511 10.0564 17.6509C9.72933 18.4506 9.57369 19.3227 9.60767 20.1826L9.61493 20.3437C9.61779 20.3963 9.62349 20.441 9.62764 20.49L9.65462 20.7782L9.68238 21.0658L9.7231 21.3525L9.76512 21.6386L9.78639 21.7818L9.81441 21.9237C9.85228 22.113 9.88808 22.3027 9.92829 22.491C10.1003 23.2435 10.335 23.9812 10.6328 24.692C10.7467 24.9682 10.8704 25.2401 11.0025 25.5073C10.8372 25.5 10.6717 25.4899 10.5065 25.4767C9.81934 25.4253 9.13401 25.3244 8.45646 25.1752C7.77891 25.0258 7.11121 24.8235 6.45545 24.5789C5.80177 24.3293 5.16391 24.0391 4.57663 23.6591C4.28169 23.471 4.00024 23.2598 3.73669 23.0243C3.47418 22.7885 3.22775 22.5307 3 22.2544C3.35252 22.8785 3.82904 23.4396 4.3813 23.9192C4.93693 24.3965 5.56338 24.788 6.20902 25.1254C6.85596 25.4647 7.53377 25.749 8.23 25.9864C8.92752 26.2214 9.64606 26.3965 10.375 26.5257C10.8014 26.6004 11.232 26.653 11.6644 26.6878C12.9023 28.6561 14.6442 30.2945 16.6701 31.3873C17.3354 31.7562 18.0379 32.0535 18.7551 32.2955C19.4729 32.5372 20.2085 32.7204 20.9533 32.8361C22.4435 33.0623 23.9615 33.033 25.4211 32.7645C26.1563 32.6239 26.8756 32.4156 27.5627 32.1354C28.2499 31.8563 28.9049 31.5061 29.5134 31.0955C30.1235 30.6867 30.6872 30.2167 31.1959 29.6992C31.7004 29.1775 32.1575 28.6156 32.5403 28.0097C31.5834 29.0766 30.4483 29.9479 29.2107 30.5816ZM12.033 18.4651C12.2502 17.9458 12.5786 17.4719 12.9879 17.0846C13.3944 16.6937 13.8846 16.3933 14.4141 16.2047C14.9422 16.0156 15.5176 15.9417 16.0807 15.9832C16.6439 16.0205 17.1974 16.1821 17.697 16.4514C18.1969 16.7199 18.6412 17.0957 18.9938 17.5445C19.3458 17.9938 19.6028 18.5175 19.7408 19.0755C19.7756 19.2148 19.802 19.3564 19.8228 19.4993C19.8337 19.5707 19.8381 19.643 19.8469 19.7149C19.8542 19.7875 19.8563 19.8635 19.8617 19.938C19.8752 20.2368 19.8625 20.5367 19.8231 20.8337C19.7836 21.1304 19.7172 21.4243 19.6244 21.7105C19.5312 21.9966 19.4096 22.2741 19.2672 22.541C18.9823 23.0751 18.5984 23.5613 18.1388 23.9662C17.6791 24.3706 17.1471 24.6987 16.5676 24.9182C16.2784 25.0287 15.978 25.1132 15.6709 25.1711C15.5938 25.1833 15.5173 25.2009 15.4395 25.2095L15.2042 25.2393L14.6711 25.2922L13.6053 25.3983L13.3386 25.4248L13.2211 25.4359C12.9516 24.9522 12.716 24.4505 12.5212 23.933C12.2891 23.319 12.0982 22.6899 11.9633 22.0479L11.8756 21.5639L11.8535 21.443L11.838 21.3208L11.8071 21.077L11.776 20.8332L11.7576 20.5878L11.7386 20.3424C11.7358 20.3024 11.7311 20.2586 11.7301 20.222L11.7277 20.1157C11.7155 19.5494 11.8154 18.9852 12.033 18.4651Z" fill="url(#paint0_radial_1496_18484)"/>
<path d="M16.1274 9.65641C17.0242 10.921 18.1227 11.9677 19.318 12.8649C19.4674 12.9772 19.6192 13.0862 19.772 13.1933C19.924 13.301 20.0773 13.4065 20.2327 13.509C20.5429 13.7147 20.8607 13.9077 21.1792 14.0963C21.4985 14.2841 21.8241 14.4594 22.153 14.6244C22.2316 14.6651 22.3234 14.7118 22.4038 14.7505C22.4845 14.7881 22.5636 14.8286 22.6453 14.8638C22.7263 14.9002 22.8069 14.9367 22.8892 14.9699C22.9706 15.005 23.0526 15.0379 23.1353 15.069C24.4515 15.5855 25.8577 15.7985 27.2351 15.7082C28.6125 15.6213 29.9619 15.2335 31.164 14.5782C32.3668 13.9243 33.4215 13.0073 34.2355 11.8966C34.3385 11.7586 34.436 11.6164 34.5315 11.4727L34.669 11.2564C34.7045 11.1941 34.744 11.1337 34.7759 11.0694C34.8117 11.0071 34.8394 10.941 34.8711 10.8764C34.8973 10.81 34.9281 10.7446 34.9499 10.6761C34.9989 10.541 35.0394 10.4022 35.0682 10.2603C35.0991 10.1189 35.1172 9.97418 35.1253 9.82813C35.1349 9.68235 35.132 9.53501 35.118 9.38819C35.1131 9.31426 35.1009 9.24137 35.0926 9.1677C35.0794 9.09481 35.0687 9.02088 35.0506 8.94851C35.0179 8.80325 34.9756 8.65876 34.9201 8.51921C34.8656 8.37913 34.8028 8.24113 34.7266 8.11039C34.6524 7.97836 34.5717 7.84788 34.4773 7.72752C34.2926 7.48265 34.0669 7.26605 33.813 7.07876C33.6866 6.98357 33.5518 6.899 33.4112 6.82429C33.2713 6.74699 33.1237 6.68474 32.9723 6.62923C32.6701 6.51639 32.3461 6.44765 32.014 6.42923C31.8478 6.41626 31.6794 6.41834 31.5108 6.43156C31.3417 6.44324 31.1731 6.47099 31.0052 6.50835C30.8369 6.54388 30.6698 6.59317 30.5067 6.6562C30.3433 6.71846 30.1819 6.79135 30.026 6.87747C29.8693 6.96255 29.7178 7.06035 29.5734 7.17007C29.4271 7.27824 29.2875 7.39834 29.1581 7.53064C29.0904 7.59445 29.0294 7.66475 28.9656 7.73375C28.9057 7.80612 28.8457 7.87694 28.7853 7.95424C28.6657 8.10676 28.5441 8.25799 28.4211 8.40844C28.4904 8.22686 28.5612 8.04632 28.6338 7.86656C28.6681 7.77681 28.7114 7.6855 28.7521 7.59471C28.7975 7.506 28.8411 7.41495 28.893 7.32883C29.0953 6.98019 29.3568 6.65698 29.6678 6.38072C29.7446 6.30991 29.8263 6.24558 29.9082 6.17969C29.9931 6.11847 30.0774 6.05518 30.1671 5.99992C30.3438 5.88449 30.5308 5.78281 30.7259 5.69539C30.9207 5.60719 31.1238 5.53508 31.3323 5.47879C31.5409 5.42147 31.7546 5.37711 31.9723 5.35247C32.407 5.30292 32.8545 5.31822 33.2942 5.40097C33.5136 5.44377 33.7315 5.50188 33.9434 5.57918C34.1559 5.65441 34.3637 5.74494 34.5634 5.85233C35.3637 6.2793 36.0526 6.96437 36.4757 7.79989C36.5839 8.00741 36.6747 8.22427 36.7504 8.44683C36.8267 8.66914 36.8881 8.89793 36.9273 9.13139C36.9688 9.36407 36.9929 9.6009 36.9981 9.83851C37.0046 10.0764 36.9945 10.3155 36.9641 10.5529C36.9351 10.7902 36.8913 11.0271 36.8236 11.2577C36.7929 11.3742 36.752 11.487 36.7136 11.6011C36.6697 11.7129 36.628 11.826 36.5766 11.9347C36.5289 12.0452 36.4731 12.1516 36.4171 12.2579C36.3636 12.3555 36.3133 12.4437 36.2601 12.5365C36.1525 12.7184 36.042 12.8986 35.9242 13.0748C34.9862 14.4864 33.6846 15.6656 32.1847 16.469C30.6864 17.276 28.9915 17.7066 27.3 17.717C26.4541 17.7242 25.6105 17.6194 24.7942 17.4226C24.3854 17.3253 23.9856 17.1958 23.5947 17.048C23.2043 16.8988 22.8228 16.7294 22.457 16.5318C22.3652 16.4833 22.2744 16.4329 22.1846 16.3808C22.0941 16.3302 22.0057 16.2763 21.9172 16.2226C21.8282 16.1702 21.7424 16.1123 21.6549 16.0573L21.408 15.8944C21.0752 15.6706 20.7509 15.4366 20.4358 15.1922C20.1196 14.9494 19.8161 14.6908 19.5201 14.4257C19.3722 14.2929 19.227 14.1572 19.0838 14.02C18.9421 13.8805 18.8023 13.7396 18.6659 13.5959C18.392 13.3093 18.1295 13.0123 17.8822 12.7031C17.6335 12.3959 17.3992 12.0771 17.1829 11.7477C16.7502 11.0891 16.3821 10.3895 16.1274 9.65641Z" fill="url(#paint1_radial_1496_18484)"/>
<path d="M30.0861 28.9727C30.0861 28.9727 20.1306 22.4833 32.7735 14.257C33.3011 13.9136 34.0054 14.0523 34.3698 14.5654C36.1226 17.0323 39.9549 24.1541 30.0861 28.9727Z" fill="#158466"/>
<path d="M34.3699 14.5654C34.1678 14.2808 33.8612 14.112 33.5383 14.0762C31.0475 20.9043 30.0862 28.9729 30.0862 28.9729C39.955 24.1541 36.1227 17.0323 34.3699 14.5654Z" fill="#158466"/>
<path d="M33.4975 18.8592C33.4073 18.9407 33.3108 19.0159 33.2166 19.0911C33.1224 19.1669 33.0291 19.2424 32.9315 19.3124C32.8358 19.3845 32.7289 19.4431 32.6249 19.5025C32.5206 19.5617 32.4298 19.6348 32.3492 19.7225C32.2706 19.811 32.1951 19.9033 32.1251 20.0084C32.1523 19.8457 32.1793 19.6836 32.2062 19.521L32.3481 18.7288C32.3941 18.4636 32.4558 18.2045 32.5056 17.9402C32.6148 17.4146 32.7432 16.8969 32.9077 16.3861L32.7943 16.334L32.6099 16.6995L32.5173 16.8837C32.488 16.9456 32.4633 17.0087 32.4361 17.0712C32.3341 17.3228 32.2197 17.5739 32.1305 17.8299C31.937 18.3399 31.7702 18.8569 31.6 19.3739C31.5699 19.4743 31.5399 19.5747 31.5095 19.675C31.4766 19.5944 31.4376 19.5165 31.3858 19.4444C31.3162 19.3466 31.2439 19.2486 31.1873 19.143C31.1282 19.0387 31.075 18.9311 31.0213 18.8229C30.9671 18.7147 30.9113 18.6061 30.8633 18.4943C30.7565 18.273 30.6709 18.0429 30.5759 17.8084L30.5074 17.8185C30.4945 18.0725 30.5007 18.3293 30.529 18.585C30.5419 18.7132 30.5635 18.8398 30.584 18.9679C30.6107 19.0937 30.6377 19.2208 30.6714 19.3459C30.7041 19.4712 30.7297 19.6006 30.7617 19.7287C30.7962 19.8561 30.8511 19.9752 30.9303 20.0807C30.9458 20.1012 30.9622 20.1217 30.9788 20.142C31.1596 20.3612 31.2172 20.6569 31.1409 20.9308L31.1396 20.9357C31.0073 21.4122 30.8859 21.8906 30.7619 22.3686C30.7126 22.2563 30.6566 22.1546 30.5962 22.0558C30.5326 21.9552 30.4563 21.8672 30.3643 21.7904C30.2727 21.7131 30.1777 21.6366 30.0966 21.5484C30.0133 21.462 29.9347 21.3713 29.8558 21.2799C29.7765 21.1889 29.695 21.0976 29.6206 21.0013C29.4618 20.8141 29.3212 20.6125 29.1708 20.4091L29.1069 20.4364C29.1578 20.6851 29.2283 20.9323 29.3197 21.1728C29.3643 21.2937 29.4167 21.4109 29.4688 21.53C29.5261 21.6452 29.584 21.7611 29.6478 21.874C29.7108 21.9871 29.7682 22.1059 29.8312 22.2221C29.8963 22.3365 29.9793 22.4382 30.0823 22.5206C30.1285 22.5567 30.1759 22.5912 30.226 22.6234C30.4688 22.78 30.5738 23.0828 30.4978 23.3616C30.4325 23.601 30.3663 23.8405 30.3028 24.0804C30.2213 24.3844 30.156 24.691 30.1025 25C30.0579 24.9043 30.0086 24.8156 29.9562 24.7292C29.8924 24.6285 29.8161 24.5406 29.7241 24.4638C29.6325 24.3865 29.5378 24.31 29.4566 24.2218C29.3731 24.1354 29.2948 24.0446 29.2156 23.9533C29.1363 23.8623 29.0551 23.7712 28.9806 23.6747C28.8219 23.4874 28.6813 23.2859 28.5306 23.0825L28.467 23.1097C28.5179 23.3585 28.5884 23.6057 28.6797 23.8462C28.7241 23.9671 28.7767 24.0846 28.8286 24.2034C28.8859 24.3185 28.9438 24.4345 29.0079 24.5471C29.0709 24.6604 29.1282 24.7792 29.1913 24.8954C29.2564 25.0098 29.3394 25.1115 29.4424 25.194C29.5456 25.2747 29.6577 25.3484 29.7835 25.4041C29.9277 25.4679 30.0177 25.6124 30.0045 25.7694C29.97 26.1761 29.9137 26.9118 29.9108 27.3047C29.9106 27.8523 29.9308 28.403 30.0244 28.9639L30.1477 28.9828C30.4071 28.4788 30.6039 27.966 30.7801 27.4505C30.9546 26.9346 31.1048 26.4155 31.234 25.8931C31.2364 25.8838 31.2384 25.8744 31.2408 25.8653C31.2825 25.6967 31.4348 25.586 31.6083 25.5852C31.7362 25.5847 31.8599 25.5655 31.9793 25.5375C32.1072 25.5058 32.2252 25.4482 32.3323 25.3717C32.4384 25.2926 32.5401 25.2088 32.6446 25.1323C32.7499 25.0568 32.8511 24.9759 32.9515 24.8952C33.0485 24.8091 33.1455 24.7248 33.2366 24.6335C33.4202 24.4537 33.5878 24.2586 33.7385 24.0542L33.6918 24.0029C33.47 24.1243 33.2578 24.2482 33.0353 24.3517C32.9274 24.408 32.8153 24.4568 32.7051 24.5061C32.5951 24.5559 32.4856 24.6054 32.3738 24.649C32.2631 24.6949 32.145 24.7248 32.0293 24.7564C31.9136 24.7875 31.8073 24.8355 31.7074 24.9001C31.6003 24.972 31.496 25.0506 31.3941 25.145C31.4441 24.8674 31.4846 24.5883 31.5165 24.3074C31.5396 24.0827 31.5744 23.7805 31.6057 23.5149C31.6392 23.2324 31.847 22.9964 32.1264 22.943C32.2628 22.917 32.3948 22.8711 32.5188 22.842C32.647 22.8104 32.7647 22.7528 32.8719 22.6763C32.9777 22.5972 33.0796 22.5134 33.1844 22.4369C33.2898 22.3614 33.3909 22.2802 33.4913 22.1998C33.5883 22.1137 33.6851 22.0293 33.7761 21.938C33.9598 21.7583 34.1276 21.5632 34.2781 21.3585L34.2316 21.3074C34.0096 21.4288 33.7977 21.5528 33.5748 21.6563C33.4669 21.7126 33.3549 21.7611 33.2446 21.8107C33.1346 21.8605 33.0252 21.91 32.9134 21.9533C32.8029 21.9993 32.6846 22.0293 32.5691 22.0607C32.4535 22.0919 32.3471 22.1399 32.2472 22.2047C32.0581 22.3313 31.8784 22.4768 31.7046 22.7017C31.7852 22.1718 31.8615 21.64 31.9502 21.1116L31.9533 21.0911C32 20.7684 32.2148 20.4875 32.523 20.3811C32.6101 20.351 32.6926 20.3132 32.772 20.2714C32.8882 20.2086 32.9881 20.1235 33.0726 20.0226C33.1554 19.9194 33.2329 19.813 33.3152 19.7127C33.3982 19.6133 33.4757 19.5095 33.5528 19.4063C33.6252 19.2987 33.6978 19.1928 33.7632 19.0818C33.896 18.8616 34.0096 18.631 34.1043 18.3952L34.0462 18.357C33.8615 18.5301 33.6872 18.7031 33.4975 18.8592Z" fill="#13B086"/>
<path d="M28.7549 7.83826C28.7549 7.83826 22.5916 6.4279 24.1171 14.3066C24.1807 14.6353 24.4941 14.8534 24.8253 14.8034C26.4172 14.5621 30.5591 13.3961 28.7549 7.83826Z" fill="#158466"/>
<path d="M24.8252 14.803C24.6416 14.8308 24.4636 14.776 24.3306 14.6658C26.0226 11.1885 28.7549 7.83789 28.7549 7.83789C30.559 13.3958 26.4172 14.5618 24.8252 14.803Z" fill="#158466"/>
<path d="M26.1457 12.8826C26.1433 12.818 26.1366 12.7532 26.1306 12.6894C26.1246 12.6253 26.1192 12.5617 26.1099 12.4984C26.1021 12.4351 26.085 12.3726 26.0694 12.3109C26.0533 12.2492 26.0479 12.1874 26.0515 12.1241C26.0564 12.0613 26.0637 11.9983 26.0782 11.9327C26.0261 12.0032 25.9739 12.0735 25.9215 12.1441L25.671 12.4912C25.5864 12.6066 25.5099 12.7262 25.4274 12.8429C25.2666 13.079 25.1161 13.3194 24.9812 13.571L24.9195 13.5472L24.9911 13.3415L25.0274 13.238C25.0401 13.2037 25.0551 13.1711 25.0692 13.1376C25.1275 13.0056 25.1815 12.8689 25.2466 12.7402C25.3701 12.4777 25.5062 12.2227 25.6411 11.9664C25.6686 11.9179 25.6959 11.8691 25.7231 11.8204C25.6798 11.8375 25.6357 11.8515 25.589 11.8582C25.526 11.8678 25.4616 11.8764 25.4001 11.8938C25.3384 11.9096 25.2774 11.9291 25.2162 11.9485C25.155 11.9677 25.0928 11.9866 25.0323 12.0095C24.9081 12.0505 24.7882 12.1029 24.6635 12.1532L24.6422 12.1231C24.7343 12.0245 24.8352 11.9319 24.9433 11.8481C24.997 11.8056 25.0536 11.7672 25.1101 11.7278C25.1682 11.6912 25.2266 11.6549 25.287 11.6214C25.347 11.5874 25.4061 11.5496 25.4668 11.5143C25.5283 11.4806 25.5942 11.4575 25.664 11.4489C25.6774 11.4474 25.6912 11.4458 25.7052 11.4448C25.8559 11.4328 25.9905 11.3457 26.0671 11.2152L26.0684 11.2129C26.2019 10.9861 26.3399 10.7628 26.4772 10.5387C26.416 10.5612 26.3563 10.5773 26.2961 10.5908C26.2341 10.6038 26.1721 10.6072 26.1088 10.6004C26.0453 10.5937 25.9809 10.5859 25.9174 10.5874C25.8536 10.5874 25.7898 10.5908 25.7254 10.5944C25.6614 10.5978 25.5963 10.6002 25.5319 10.6074C25.4017 10.616 25.2725 10.6367 25.1392 10.6541L25.126 10.6199C25.2401 10.5472 25.3607 10.4829 25.4863 10.429C25.549 10.4012 25.6134 10.3781 25.678 10.354C25.7433 10.3332 25.8092 10.3125 25.8759 10.2954C25.9425 10.2775 26.0092 10.2557 26.0769 10.2367C26.1449 10.2194 26.2144 10.2134 26.2839 10.2225C26.3148 10.2269 26.3457 10.2323 26.3763 10.2393C26.5262 10.2743 26.6808 10.2028 26.7594 10.0705C26.8268 9.95684 26.894 9.84323 26.9622 9.73013C27.0486 9.58668 27.1417 9.44816 27.2401 9.31353C27.1871 9.33195 27.1347 9.34596 27.0823 9.35763C27.0204 9.3706 26.9586 9.37397 26.8951 9.36697C26.8315 9.36049 26.7672 9.3527 26.7036 9.354C26.6398 9.354 26.576 9.35763 26.5117 9.361C26.4476 9.36438 26.3827 9.36697 26.3184 9.37423C26.1879 9.38253 26.0588 9.40329 25.9254 9.42093L25.9122 9.38643C26.0263 9.31405 26.147 9.24946 26.2728 9.19577C26.3355 9.16801 26.3996 9.14467 26.4645 9.12054C26.5296 9.10005 26.5955 9.0793 26.6621 9.06218C26.7288 9.04428 26.7955 9.02249 26.8634 9.00355C26.9311 8.98617 27.0006 8.98021 27.0704 8.98929C27.1394 8.99888 27.2092 9.01445 27.2769 9.0422C27.3545 9.07359 27.4432 9.05491 27.4984 8.99162C27.6414 8.8282 27.9018 8.53456 28.0512 8.38826C28.2608 8.18567 28.479 7.98982 28.728 7.81836L28.7809 7.85857C28.6839 8.14416 28.5604 8.40901 28.4284 8.66685C28.2956 8.92444 28.1524 9.17372 28.0001 9.41626C27.9975 9.42067 27.9947 9.42508 27.9921 9.42923C27.943 9.50757 27.9568 9.60666 28.0206 9.67332C28.0678 9.72261 28.1062 9.77708 28.1394 9.83311C28.1747 9.89381 28.1965 9.95996 28.2066 10.0295C28.2154 10.0993 28.2211 10.169 28.2304 10.2373C28.2406 10.3055 28.247 10.3742 28.2533 10.4424C28.2561 10.5114 28.2598 10.5797 28.2585 10.6481C28.2574 10.7851 28.2447 10.9213 28.2221 11.0546L28.1853 11.0557C28.1498 10.926 28.1189 10.7989 28.0761 10.6754C28.0579 10.6131 28.0351 10.5524 28.0131 10.492C27.9915 10.4315 27.97 10.3714 27.9454 10.3125C27.922 10.2531 27.8899 10.1968 27.8592 10.141C27.8281 10.0852 27.8074 10.0269 27.7952 9.96463C27.783 9.89692 27.7747 9.82818 27.7729 9.75425C27.6852 9.87591 27.5934 9.99472 27.4976 10.1107C27.4203 10.2025 27.3176 10.3275 27.2276 10.4378C27.1319 10.555 27.1181 10.7218 27.2012 10.8484C27.2416 10.9104 27.2727 10.9778 27.3075 11.0359C27.3428 11.0966 27.3643 11.163 27.3747 11.2323C27.3835 11.3021 27.3892 11.3721 27.3986 11.4403C27.4087 11.5086 27.4149 11.5773 27.4211 11.6455C27.424 11.7143 27.4276 11.7828 27.4263 11.8512C27.4255 11.9879 27.4128 12.1241 27.3903 12.2575L27.3534 12.2588C27.3179 12.1288 27.2868 12.0019 27.2442 11.8785C27.2258 11.8162 27.203 11.7555 27.1812 11.6951C27.1594 11.6346 27.1381 11.5745 27.1132 11.5156C27.0899 11.4562 27.0577 11.3999 27.0271 11.3441C26.9962 11.2881 26.9752 11.23 26.963 11.1677C26.9418 11.0487 26.9309 10.926 26.9526 10.7763C26.7799 11.003 26.6045 11.2289 26.4351 11.4582L26.4284 11.4671C26.3223 11.604 26.294 11.7903 26.3672 11.9475C26.3879 11.9918 26.404 12.0375 26.4172 12.0831C26.4362 12.1508 26.4406 12.2206 26.4333 12.2901C26.4243 12.3599 26.4123 12.4292 26.4043 12.4977C26.397 12.5661 26.3859 12.6344 26.375 12.7018C26.3604 12.7692 26.3467 12.8364 26.3285 12.9023C26.2933 13.0346 26.2471 13.1633 26.1916 13.2867L26.1558 13.2787C26.1542 13.1436 26.156 13.0128 26.1457 12.8826Z" fill="#13B086"/>
<path d="M9.47925 27.916C9.81284 28.309 10.136 28.6823 10.4676 29.0439C10.797 29.4052 11.1272 29.7559 11.4675 30.0903C12.1438 30.7629 12.854 31.373 13.6001 31.9271C13.9759 32.201 14.363 32.4563 14.7591 32.7014C15.1572 32.9432 15.5686 33.1644 15.9907 33.379L16.3116 33.5317C16.4187 33.5841 16.5266 33.635 16.6366 33.6817C16.746 33.7304 16.8568 33.7771 16.9668 33.8282C17.0773 33.8778 17.1907 33.9185 17.3032 33.966C17.5274 34.0661 17.7587 34.1442 17.9906 34.2394C18.1066 34.2882 18.2249 34.3268 18.3432 34.3714C18.4617 34.4168 18.581 34.4617 18.7009 34.5143C18.1956 34.6129 17.6778 34.6485 17.1613 34.6202C17.0324 34.6124 16.9022 34.6064 16.773 34.5937C16.6444 34.5787 16.5165 34.5592 16.387 34.5416C16.3227 34.5317 16.2571 34.526 16.1938 34.5118L16.0026 34.471C15.8755 34.4428 15.7461 34.4191 15.6203 34.3841L15.2431 34.2747C15.1165 34.2391 14.9951 34.1901 14.8716 34.1455C14.6226 34.0599 14.384 33.9499 14.1448 33.8394C13.6727 33.6072 13.2185 33.3362 12.7938 33.0251C11.9482 32.3989 11.2141 31.6301 10.6401 30.7647C10.3537 30.3318 10.1052 29.8758 9.90466 29.4C9.80427 29.1624 9.71582 28.9199 9.64267 28.6727C9.56952 28.4255 9.50752 28.1741 9.47925 27.916Z" fill="url(#paint2_radial_1496_18484)"/>
<path d="M15.9291 6.94922C16.1989 7.19746 16.4114 7.44752 16.6163 7.70148C16.8197 7.95491 17.0012 8.21483 17.1789 8.4776C17.3556 8.74115 17.52 9.01248 17.6775 9.29626C17.753 9.44075 17.8321 9.58393 17.9024 9.73802C17.9714 9.89366 18.0458 10.0464 18.0977 10.2275C17.7506 10.1079 17.456 9.91415 17.1966 9.68743C16.9335 9.46279 16.7123 9.19821 16.5219 8.91365C16.332 8.62909 16.1784 8.31988 16.0705 7.992C15.966 7.66386 15.892 7.31808 15.9291 6.94922Z" fill="url(#paint3_radial_1496_18484)"/>
<path d="M14.5776 29.9849H17.6043C17.5737 29.9662 17.5428 29.9478 17.5122 29.9288C16.9446 29.5779 16.4071 29.1818 15.906 28.746L15.7203 28.58C15.6588 28.5242 15.5939 28.4723 15.5361 28.4129L15.1791 28.0666L14.8393 27.7037C14.7262 27.5828 14.6235 27.4526 14.5151 27.3281C14.3524 27.1304 14.1955 26.9278 14.0445 26.7214L11.6646 26.6895C12.4505 27.9395 13.4409 29.0559 14.5776 29.9849Z" fill="url(#paint4_linear_1496_18484)"/>
<path d="M12.5212 23.9328C12.3617 23.5111 12.2224 23.0818 12.1064 22.6465H9.96533C10.1337 23.3448 10.3555 24.0301 10.6325 24.6916C10.7464 24.9678 10.8701 25.2397 11.0024 25.5069L13.221 25.4355C12.9515 24.9518 12.7163 24.4501 12.5212 23.9328Z" fill="url(#paint5_linear_1496_18484)"/>
<defs>
<radialGradient id="paint0_radial_1496_18484" cx="0" cy="0" r="1" gradientUnits="userSpaceOnUse" gradientTransform="translate(17.7699 23.6395) scale(13.0465)">
<stop stop-color="#F2E9DC"/>
<stop offset="0.423" stop-color="#F1E7DA"/>
<stop offset="0.6192" stop-color="#EEE1D2"/>
<stop offset="0.7687" stop-color="#E9D6C6"/>
<stop offset="0.8937" stop-color="#E3C7B3"/>
<stop offset="1" stop-color="#DAB49D"/>
</radialGradient>
<radialGradient id="paint1_radial_1496_18484" cx="0" cy="0" r="1" gradientUnits="userSpaceOnUse" gradientTransform="translate(26.0974 5.83396) scale(12.4223 12.4223)">
<stop stop-color="#F2E9DC"/>
<stop offset="0.423" stop-color="#F1E7DA"/>
<stop offset="0.6192" stop-color="#EEE1D2"/>
<stop offset="0.7687" stop-color="#E9D6C6"/>
<stop offset="0.8937" stop-color="#E3C7B3"/>
<stop offset="1" stop-color="#DAB49D"/>
</radialGradient>
<radialGradient id="paint2_radial_1496_18484" cx="0" cy="0" r="1" gradientUnits="userSpaceOnUse" gradientTransform="translate(18.0766 23.4116) scale(12.1516)">
<stop stop-color="#F2E9DC"/>
<stop offset="0.423" stop-color="#F1E7DA"/>
<stop offset="0.6192" stop-color="#EEE1D2"/>
<stop offset="0.7687" stop-color="#E9D6C6"/>
<stop offset="0.8937" stop-color="#E3C7B3"/>
<stop offset="1" stop-color="#DAB49D"/>
</radialGradient>
<radialGradient id="paint3_radial_1496_18484" cx="0" cy="0" r="1" gradientUnits="userSpaceOnUse" gradientTransform="translate(16.9669 8.66223) scale(1.64145)">
<stop stop-color="#F2E9DC"/>
<stop offset="0.423" stop-color="#F1E7DA"/>
<stop offset="0.6192" stop-color="#EEE1D2"/>
<stop offset="0.7687" stop-color="#E9D6C6"/>
<stop offset="0.8937" stop-color="#E3C7B3"/>
<stop offset="1" stop-color="#DAB49D"/>
</radialGradient>
<linearGradient id="paint4_linear_1496_18484" x1="14.6546" y1="28.7191" x2="14.4856" y2="25.5329" gradientUnits="userSpaceOnUse">
<stop stop-color="#DAB49D" stop-opacity="0"/>
<stop offset="0.4385" stop-color="#CE9E7A" stop-opacity="0.439216"/>
<stop offset="1" stop-color="#C08552"/>
</linearGradient>
<linearGradient id="paint5_linear_1496_18484" x1="11.5932" y1="23.625" x2="11.5932" y2="26.5308" gradientUnits="userSpaceOnUse">
<stop stop-color="#DAB49D" stop-opacity="0"/>
<stop offset="0.4385" stop-color="#CE9E7A" stop-opacity="0.439216"/>
<stop offset="1" stop-color="#C08552"/>
</linearGradient>
</defs>
</svg>
