<svg width="100" height="100" viewBox="0 0 100 100" fill="none" xmlns="http://www.w3.org/2000/svg">
<g clip-path="url(#clip0_1621_3130)">
<g clip-path="url(#clip1_1621_3130)">
<path d="M50 10C27.9094 10 10 27.9031 10 50C10 72.0969 27.9094 90 50 90C72.0906 90 90 72.0859 90 50C90 27.9141 72.0906 10 50 10Z" fill="#158466"/>
<path d="M10 50.0001C9.99101 56.6117 11.6283 63.1216 14.7641 68.9422C18.7592 70.1152 22.9019 70.7093 27.0657 70.7063C51.1125 70.7063 70.6063 51.2126 70.6063 27.1657C70.6099 22.9359 69.9972 18.7282 68.7875 14.6751C63.005 11.5949 56.5518 9.98914 50 10.0001C27.9094 10.0001 10 27.9032 10 50.0001Z" fill="#179D79"/>
<path d="M72.8142 43.3716L48.772 68.62C48.1168 69.3074 47.3296 69.8554 46.4576 70.2313C45.5856 70.6071 44.6466 70.8031 43.697 70.8075H43.6658C42.7215 70.8078 41.7867 70.6183 40.9171 70.2503C40.0474 69.8823 39.2606 69.3433 38.6033 68.6653L25.8455 55.5247C25.1863 54.863 24.6651 54.077 24.3121 53.2123C23.9592 52.3476 23.7814 51.4213 23.7893 50.4874C23.7972 49.5534 23.9905 48.6303 24.358 47.7717C24.7254 46.913 25.2598 46.1359 25.93 45.4854C26.6003 44.835 27.393 44.3241 28.2623 43.9824C29.1316 43.6408 30.06 43.4752 30.9938 43.4953C31.9276 43.5154 32.8481 43.7207 33.7018 44.0994C34.5556 44.4781 35.3257 45.0226 35.9673 45.7013L43.6158 53.5794L62.5986 33.645C63.2345 32.9631 63.9993 32.4141 64.8487 32.0297C65.6982 31.6453 66.6154 31.4331 67.5473 31.4055C68.4793 31.3778 69.4075 31.5351 70.2782 31.8685C71.149 32.2018 71.945 32.7045 72.6202 33.3474C73.2955 33.9903 73.8366 34.7607 74.2122 35.6141C74.5878 36.4675 74.7905 37.3868 74.8085 38.319C74.8265 39.2512 74.6596 40.1777 74.3173 41.045C73.975 41.9122 73.4641 42.703 72.8142 43.3716Z" fill="white"/>
</g>
</g>
<defs>
<clipPath id="clip0_1621_3130">
<rect width="100" height="100" fill="white"/>
</clipPath>
<clipPath id="clip1_1621_3130">
<rect width="80" height="80" fill="white" transform="translate(10 10)"/>
</clipPath>
</defs>
</svg>
