<svg width="100" height="100" viewBox="0 0 100 100" fill="none" xmlns="http://www.w3.org/2000/svg">
<path fill-rule="evenodd" clip-rule="evenodd" d="M14.6217 36.3506C16.1875 18.1854 31.4289 3.92969 50 3.92969C68.5711 3.92969 83.8125 18.1854 85.3783 36.3506H79.1102C77.5653 21.6359 65.1217 10.1693 50 10.1693C34.8783 10.1693 22.4348 21.6359 20.8899 36.3506H14.6217Z" fill="#158466"/>
<path fill-rule="evenodd" clip-rule="evenodd" d="M12.8275 69.2266C13.8711 69.3064 15.1336 69.3521 16.4019 69.2779C17.0775 72.7043 17.976 79.1971 21.6513 82.8725C24.9773 86.1984 29.4885 88.067 34.1922 88.067H42.426C42.3207 88.6422 42.2668 89.2293 42.2668 89.8219C42.2668 90.4213 42.3209 91.0078 42.4242 91.5768H34.1922C28.5576 91.5768 23.1539 89.3385 19.1695 85.3543C14.626 80.8107 13.5336 73.6088 12.8275 69.2266Z" fill="#158466"/>
<path fill-rule="evenodd" clip-rule="evenodd" d="M22.492 39.2008C22.492 36.9584 20.8836 35.1406 18.8992 35.1406H11.4264C8.3959 35.1406 5.48945 36.5012 3.34668 38.9227C1.20391 41.3443 0 44.6287 0 48.0535V58.0139C0 61.4387 1.20391 64.723 3.34668 67.1445C5.48945 69.5662 8.3959 70.9266 11.4264 70.9266H18.8992C20.8836 70.9266 22.492 69.109 22.492 66.8666V39.2008Z" fill="#158466"/>
<path fill-rule="evenodd" clip-rule="evenodd" d="M12.8879 35.1406V70.9266H11.4264C8.3959 70.9266 5.48945 69.5662 3.34668 67.1445C1.20391 64.723 0 61.4387 0 58.0139V48.0535C0 44.6287 1.20391 41.3443 3.34668 38.9227C5.48945 36.5012 8.3959 35.1406 11.4264 35.1406H12.8879Z" fill="#13B086"/>
<path fill-rule="evenodd" clip-rule="evenodd" d="M100 48.0535C100 44.6287 98.7961 41.3443 96.6533 38.9227C94.5105 36.5012 91.6041 35.1406 88.5736 35.1406H81.1008C79.1164 35.1406 77.508 36.9584 77.508 39.2008V66.8666C77.508 69.109 79.1164 70.9266 81.1008 70.9266H88.5736C91.6041 70.9266 94.5105 69.5662 96.6533 67.1445C98.7961 64.723 100 61.4387 100 58.0139V48.0535Z" fill="#158466"/>
<path fill-rule="evenodd" clip-rule="evenodd" d="M87.1121 35.1406H88.5736C91.6041 35.1406 94.5106 36.5012 96.6533 38.9227C98.7961 41.3443 100 44.6287 100 48.0535V58.0139C100 61.4387 98.7961 64.723 96.6533 67.1445C94.5106 69.5662 91.6041 70.9266 88.5736 70.9266H87.1121V35.1406Z" fill="#13B086"/>
<path fill-rule="evenodd" clip-rule="evenodd" d="M60.073 89.8221C60.073 86.3715 57.2758 83.5742 53.8252 83.5742H46.1748C44.5178 83.5742 42.9285 84.2326 41.7568 85.4043C40.5851 86.576 39.9269 88.165 39.9269 89.8221C39.9269 93.2727 42.7242 96.0699 46.1748 96.0699H53.8252C57.2758 96.0699 60.073 93.2727 60.073 89.8221Z" fill="#158466"/>
</svg>
