<svg width="53" height="49" viewBox="0 0 53 49" fill="none" xmlns="http://www.w3.org/2000/svg">
<g clip-path="url(#clip0_1436_31100)">
<circle cx="25.6395" cy="24.2811" r="24.951" fill="#158466"/>
</g>
<g clip-path="url(#clip1_1436_31100)">
<path d="M31.479 41.6421L30.4335 42.0878L30 41.0708L31.1808 40.5675C31.4689 40.4446 31.6029 40.1115 31.4801 39.8234C31.3573 39.5353 31.0245 39.4013 30.7359 39.5241L29.0333 40.2498C28.895 40.3088 28.7858 40.4204 28.7296 40.56C28.6735 40.6995 28.675 40.8556 28.734 40.994L30.5248 45.1946C30.6167 45.4102 30.8263 45.5395 31.0468 45.5395C31.1209 45.5395 31.1964 45.5248 31.269 45.4939C31.5571 45.371 31.6911 45.0379 31.5683 44.7498L30.8784 43.1315L31.9239 42.6858C32.212 42.5629 32.346 42.2298 32.2232 41.9417C32.1003 41.6534 31.7674 41.5193 31.479 41.6421ZM41.6929 36.62C41.4342 36.4431 41.0813 36.5096 40.9045 36.7681L40.1406 37.8853L39.1957 37.2392L39.8797 36.2389C40.0565 35.9803 39.9901 35.6274 39.7316 35.4506C39.473 35.2738 39.1201 35.3401 38.9433 35.5987L38.2593 36.5989L37.3144 35.9528L38.0783 34.8356C38.2551 34.577 38.1888 34.2241 37.9303 34.0473C37.6716 33.8704 37.3187 33.9368 37.1419 34.1954L36.0579 35.7807C35.8811 36.0393 35.9475 36.3922 36.206 36.569L39.9685 39.1417C40.0635 39.2067 40.1752 39.2407 40.2886 39.2407C40.3235 39.2407 40.3586 39.2375 40.3933 39.231C40.5412 39.2032 40.6719 39.1178 40.7569 38.9937L41.8409 37.4083C42.0177 37.1497 41.9514 36.7968 41.6929 36.62ZM44.2631 32.8612C44.0044 32.6844 43.6516 32.7507 43.4748 33.0092L42.7108 34.1264L41.7659 33.4803L42.4499 32.48C42.6267 32.2214 42.5604 31.8685 42.3018 31.6917C42.0431 31.5148 41.6903 31.5812 41.5135 31.8398L40.8295 32.8401L39.8847 32.194L40.6486 31.0768C40.8254 30.8182 40.7591 30.4653 40.5006 30.2885C40.242 30.1116 39.8891 30.178 39.7122 30.4366L38.6282 32.0219C38.5433 32.1461 38.5112 32.2989 38.5389 32.4468C38.5667 32.5946 38.6521 32.7253 38.7762 32.8103L42.5387 35.383C42.6367 35.4499 42.7481 35.4821 42.8584 35.4821C43.0394 35.4821 43.2172 35.3956 43.3271 35.235L44.4112 33.6496C44.588 33.3909 44.5216 33.038 44.2631 32.8612ZM38.3416 41.1359C38.2903 41.4083 38.0522 41.5983 37.7849 41.5983C37.7501 41.5983 37.7148 41.5952 37.6794 41.5885L35.4568 41.1708L36.2713 42.2132C36.4642 42.46 36.4205 42.8164 36.1736 43.0093C36.07 43.0902 35.9469 43.1296 35.8248 43.1296C35.6562 43.1296 35.4894 43.0547 35.3775 42.9116L32.5453 39.2869C32.3524 39.0401 32.3961 38.6837 32.643 38.4909L32.6442 38.49L33.6073 37.7373C34.4026 37.116 35.5364 37.2334 36.1349 37.9993C36.428 38.3745 36.5483 38.8479 36.4735 39.3321C36.4276 39.6291 36.3117 39.9065 36.1374 40.1447L37.889 40.4739C38.1968 40.5316 38.3993 40.828 38.3416 41.1359ZM35.2411 38.6976C35.0314 38.4292 34.6031 38.3987 34.3058 38.6311L33.7909 39.0334C33.9424 39.2263 34.1021 39.4297 34.1788 39.5278C34.2689 39.6431 34.4238 39.8396 34.5688 40.0232C34.757 39.8746 34.96 39.7147 35.0796 39.6213C35.2252 39.5075 35.3247 39.3389 35.3525 39.1589C35.379 38.9872 35.3394 38.8235 35.2411 38.6976Z" fill="white"/>
<path d="M9.99282 24.4053L6.29525 23.1683C6.00981 23.0728 5.85961 22.7716 5.95511 22.4862L5.99064 22.38C6.07281 22.1343 6.24116 22.0283 6.46703 21.9488L9.71558 20.8434L7.31913 20.0416C7.04032 19.9484 6.89013 19.6471 6.9834 19.3683C7.07668 19.0895 7.37789 18.9393 7.6567 19.0326L11.3543 20.2696C11.6397 20.3651 11.7899 20.6663 11.6944 20.9518L11.6833 20.985C11.6011 21.2306 11.4328 21.3367 11.2069 21.4161L7.841 22.5635L10.3304 23.3963C10.6092 23.4896 10.7594 23.7908 10.6661 24.0696C10.5728 24.3484 10.2716 24.4986 9.99282 24.4053Z" fill="white"/>
<path d="M13.5431 17.8319C12.7653 18.8935 11.6966 19.1084 10.5334 18.2561L8.67571 16.895C8.43291 16.7171 8.3816 16.3844 8.5595 16.1416C8.7374 15.8988 9.07005 15.8475 9.31285 16.0254L11.148 17.37C11.7917 17.8417 12.3606 17.7639 12.7495 17.2332C13.1384 16.7024 13.0524 16.1447 12.4257 15.6855L10.5623 14.3202C10.3195 14.1423 10.2682 13.8096 10.4461 13.5668C10.624 13.324 10.9566 13.2727 11.1994 13.4506L13.0289 14.7911C14.226 15.6682 14.3209 16.7704 13.5431 17.8319Z" fill="white"/>
<path d="M16.2164 14.0491L14.1263 11.3559L13.3079 11.9911C13.0922 12.1585 12.7779 12.1189 12.6106 11.9032C12.4432 11.6875 12.4828 11.3732 12.6985 11.2058L15.187 9.27457C15.4027 9.10719 15.717 9.14682 15.8843 9.36249C16.0517 9.57816 16.0121 9.89245 15.7964 10.0598L14.978 10.695L17.068 13.3881C17.2526 13.6259 17.2105 13.9599 16.9727 14.1444C16.7349 14.3289 16.401 14.2868 16.2164 14.0491Z" fill="white"/>
<path d="M20.8697 11.8245C20.2778 12.0783 19.6022 12.1546 18.946 12.0095C18.8035 11.9792 18.6656 11.8707 18.5994 11.7163C18.4891 11.459 18.6095 11.1713 18.8668 11.0609C18.9955 11.0058 19.1049 11.0122 19.1885 11.0297C19.6371 11.1344 20.0764 11.1288 20.5139 10.9413C20.9192 10.7675 21.0947 10.5018 20.9817 10.2381L20.9761 10.2252C20.8686 9.97427 20.659 9.9118 19.8235 10.0415C18.8171 10.1988 18.124 10.1989 17.7406 9.30459L17.7351 9.29172C17.3848 8.47464 17.8094 7.65287 18.7294 7.25845C19.2763 7.02401 19.813 6.96144 20.3287 7.04502C20.4656 7.06247 20.6329 7.15069 20.7157 7.3437C20.826 7.60105 20.7056 7.88875 20.4483 7.99908C20.3518 8.04045 20.2635 8.04782 20.167 8.03588C19.7562 7.98354 19.4005 8.00656 19.0916 8.13895C18.7121 8.30168 18.5871 8.5609 18.6809 8.77964L18.6864 8.79251C18.8133 9.08846 19.0476 9.10222 19.9116 8.96792C20.9273 8.81431 21.5826 8.92177 21.9191 9.70668L21.9246 9.71955C22.308 10.6138 21.8412 11.408 20.8697 11.8245Z" fill="white"/>
<path d="M28.9374 29.0974L27.4464 30.2433C25.3675 32.3217 22.4843 32.8998 19.9385 31.8063C19.3234 31.5418 18.6723 31.3872 18.0035 31.3504C17.8446 31.3415 17.7331 31.3135 17.5848 31.248C17.4496 31.1889 17.3233 31.1065 17.21 31.0008C17.1982 30.9902 17.1872 30.9793 17.1758 30.9683C17.0279 30.8204 16.8401 30.7541 16.7758 30.569C16.7344 30.4503 16.7103 30.3265 16.7036 30.2018C16.6664 29.5334 16.5185 28.8768 16.2544 28.2612C15.1605 25.7158 15.6527 22.6517 17.7316 20.5732L19.0723 19.2321C21.1511 17.1537 24.2149 16.6615 26.7606 17.755C27.3758 18.0195 28.0324 18.1674 28.7013 18.2041C28.8601 18.213 29.0177 18.2498 29.166 18.3152C29.292 18.3706 29.412 18.4462 29.5193 18.5425C29.5383 18.559 29.5308 18.6284 29.5489 18.6466C29.6884 18.786 29.7397 18.9148 29.8048 19.0885C29.853 19.2165 29.8746 19.3343 29.8822 19.4699C29.919 20.1383 29.9636 20.8307 30.2281 21.4463C31.3216 23.9917 31.0163 27.019 28.9374 29.0974Z" fill="#E19974"/>
<path d="M30.4152 21.4094C30.1507 20.7937 30.0028 20.1371 29.966 19.4687C29.9585 19.3331 29.9306 19.1987 29.8824 19.0707C29.8824 19.0707 29.5654 19.0419 29.5095 19.4885C29.4593 19.8901 29.4799 20.1346 29.5137 20.4737C29.5471 20.8098 29.2291 21.0214 28.8935 20.9833C28.8255 20.9756 28.7568 20.9717 28.6876 20.9717C28.2073 20.9717 27.7657 21.1572 27.4442 21.4941C27.3325 21.6112 27.2125 21.7709 27.1184 21.9804C27.1021 22.0168 27.0701 22.043 27.0312 22.0519C26.428 22.1895 25.903 22.57 25.6483 23.1838C25.509 23.5195 25.4744 23.9242 25.5212 24.257C25.527 24.2977 25.5132 24.3381 25.4839 24.367C25.3241 24.5239 25.1912 24.7139 25.0945 24.9305C24.9538 25.2456 24.9058 25.5802 24.9463 25.8994C24.9507 25.9342 24.9409 25.9689 24.9188 25.9962C24.6732 26.3003 24.5208 26.6863 24.4921 27.1114C24.4636 27.5323 24.5606 27.9318 24.7594 28.2642C24.6265 28.6131 24.6061 29.0085 24.7154 29.3981C24.7671 29.5826 24.8449 29.7526 24.9434 29.905C24.9835 29.9671 24.9642 30.0497 24.8994 30.0853C24.2281 30.4545 24.4289 31.1579 22.9995 31.414C20.3946 31.8808 18.8642 29.9738 17.2919 30.7853L17.0941 31.0757C17.1055 31.0867 17.1165 31.0977 17.1284 31.1082C17.2416 31.2139 17.3679 31.2963 17.5031 31.3554C17.6515 31.4209 17.809 31.4577 17.9679 31.4666C18.6368 31.5033 19.2934 31.6512 19.9086 31.9157C22.4543 33.0092 25.5181 32.517 27.5969 30.4386L28.9376 29.0974C31.0165 27.0189 31.5087 23.9547 30.4152 21.4094Z" fill="#DC8758"/>
<path d="M17.9482 28.2268C17.8328 28.2268 17.7215 28.1635 17.6656 28.0535C17.4709 27.6708 17.4532 27.2604 17.4361 26.8635C17.4281 26.6784 17.4205 26.5035 17.3951 26.3412C17.3691 26.1757 17.3222 26.0048 17.2726 25.8238C17.1679 25.4425 17.0597 25.0481 17.1254 24.6297C17.1907 24.2142 17.4148 23.872 17.6314 23.541C17.7346 23.3835 17.832 23.2347 17.9089 23.0835C17.9814 22.9409 18.0415 22.7797 18.1051 22.6091C18.2379 22.2529 18.3884 21.8492 18.6976 21.5401C18.8214 21.4163 19.022 21.4163 19.1458 21.5401C19.2695 21.6639 19.2695 21.8645 19.1458 21.9883C18.9341 22.1999 18.8199 22.5062 18.699 22.8305C18.632 23.0102 18.5627 23.1961 18.4738 23.3709C18.3812 23.5529 18.2696 23.7234 18.1617 23.8883C17.9735 24.1758 17.7957 24.4473 17.7516 24.7281C17.707 25.0119 17.7929 25.3249 17.8838 25.6562C17.9359 25.846 17.9897 26.0423 18.0212 26.2429C18.0523 26.4406 18.061 26.6418 18.0693 26.8363C18.0842 27.1808 18.0982 27.5062 18.2305 27.7662C18.3099 27.9222 18.2477 28.113 18.0918 28.1923C18.0457 28.2157 17.9966 28.2268 17.9482 28.2268Z" fill="#DC8758"/>
<path d="M20.4554 20.9336C20.3743 20.9336 20.2932 20.9027 20.2313 20.8408C20.1075 20.7171 20.1075 20.5164 20.2313 20.3926C20.3547 20.2692 20.4681 20.1282 20.588 19.9789C20.8344 19.6723 21.0892 19.3552 21.458 19.1676C21.8407 18.973 22.2511 18.9553 22.648 18.9382C22.8331 18.9302 23.008 18.9226 23.1703 18.8971C23.3358 18.8711 23.5067 18.8242 23.6877 18.7746C24.069 18.67 24.4633 18.5617 24.8818 18.6275C25.2973 18.6927 25.6395 18.9167 25.9705 19.1334C26.1281 19.2366 26.2768 19.334 26.428 19.4109C26.584 19.4903 26.6461 19.681 26.5667 19.837C26.4874 19.993 26.2965 20.0551 26.1406 19.9758C25.9586 19.8832 25.7882 19.7716 25.6233 19.6637C25.3358 19.4755 25.0643 19.2977 24.7835 19.2536C24.4994 19.2089 24.1867 19.2948 23.8553 19.3858C23.6655 19.4378 23.4693 19.4917 23.2687 19.5232C23.071 19.5542 22.8698 19.5629 22.6753 19.5713C22.3308 19.5862 22.0054 19.6002 21.7454 19.7325C21.4979 19.8584 21.2959 20.1098 21.0821 20.3759C20.9568 20.5318 20.8272 20.693 20.6795 20.8408C20.6176 20.9027 20.5365 20.9336 20.4554 20.9336Z" fill="#DC8758"/>
<path d="M19.4112 25.4026C19.3943 25.4026 19.3771 25.4012 19.3598 25.3984C19.1871 25.3702 19.0699 25.2073 19.0981 25.0346C19.1262 24.8623 19.1358 24.6816 19.146 24.4904C19.167 24.0976 19.1886 23.6915 19.3785 23.3238C19.5755 22.9423 19.8983 22.6883 20.2105 22.4426C20.3561 22.328 20.4936 22.2198 20.6106 22.1043C20.7297 21.9865 20.8411 21.8486 20.959 21.7027C21.2075 21.3951 21.4644 21.0769 21.8424 20.8859C22.2179 20.6963 22.6264 20.6783 23.0216 20.661C23.2098 20.6527 23.3874 20.6449 23.5551 20.619C23.7283 20.5922 23.8899 20.7109 23.9166 20.8839C23.9433 21.0569 23.8247 21.2187 23.6517 21.2454C23.4499 21.2765 23.2463 21.2855 23.0494 21.2942C22.7061 21.3093 22.3819 21.3235 22.1282 21.4517C21.8718 21.5812 21.6679 21.8337 21.452 22.101C21.3283 22.2541 21.2004 22.4125 21.056 22.5552C20.9137 22.6958 20.7554 22.8203 20.6024 22.9408C20.3314 23.154 20.0755 23.3554 19.9416 23.6146C19.8142 23.8613 19.7971 24.1833 19.7789 24.5242C19.7682 24.7239 19.7572 24.9304 19.7235 25.1367C19.6983 25.2921 19.5638 25.4026 19.4112 25.4026Z" fill="#DC8758"/>
<path d="M22.2873 30.8515C22.2007 30.8515 22.1132 30.8454 22.0245 30.8315C21.609 30.7662 21.2668 30.5422 20.9359 30.3255C20.7783 30.2224 20.6295 30.125 20.4784 30.0481C20.3224 29.9687 20.2603 29.7779 20.3396 29.622C20.419 29.466 20.6098 29.4038 20.7657 29.4832C20.9477 29.5758 21.1182 29.6874 21.283 29.7953C21.5705 29.9835 21.8421 30.1613 22.1229 30.2054C22.4068 30.25 22.7196 30.1641 23.051 30.0732C23.2408 30.0211 23.4371 29.9673 23.6377 29.9358C23.8354 29.9047 24.0365 29.896 24.2311 29.8877C24.5755 29.8728 24.9009 29.8588 25.161 29.7265C25.4084 29.6006 25.6104 29.3492 25.8242 29.0831C25.9495 28.9272 26.0791 28.7659 26.2268 28.6182C26.3506 28.4945 26.5512 28.4945 26.675 28.6182C26.7987 28.7419 26.7987 28.9426 26.675 29.0664C26.5516 29.1898 26.4383 29.3308 26.3183 29.4801C26.0719 29.7867 25.8172 30.1038 25.4483 30.2914C25.0656 30.486 24.6552 30.5037 24.2583 30.5208C24.0732 30.5288 23.8983 30.5364 23.736 30.5619C23.5705 30.5879 23.3996 30.6348 23.2186 30.6844C22.9181 30.7669 22.6094 30.8515 22.2873 30.8515Z" fill="#DC8758"/>
<path d="M24.943 29.9064C24.9831 29.9685 24.9638 30.0511 24.8991 30.0867C24.687 30.2033 24.562 30.3533 24.4451 30.512C24.7827 30.4938 25.1253 30.4556 25.4481 30.2914C25.817 30.1038 26.0717 29.7867 26.3181 29.4801C26.4381 29.3308 26.5514 29.1898 26.6748 29.0664C26.7985 28.9426 26.7985 28.742 26.6748 28.6182C26.551 28.4945 26.3504 28.4945 26.2266 28.6182C26.0789 28.766 25.9493 28.9272 25.824 29.0831C25.6102 29.3492 25.4082 29.6006 25.1608 29.7265C25.0773 29.769 24.987 29.7991 24.8915 29.8211C24.9081 29.85 24.9251 29.8786 24.943 29.9064Z" fill="#D77F4A"/>
<path d="M23.0651 29.0568C22.9114 29.0568 22.7765 28.9448 22.7523 28.7882C22.7256 28.6152 22.8443 28.4534 23.0172 28.4267C23.2191 28.3956 23.4226 28.3866 23.6195 28.3779C23.9628 28.3628 24.287 28.3486 24.5407 28.2204C24.7971 28.0909 25.001 27.8384 25.2169 27.5711C25.3406 27.418 25.4685 27.2596 25.6129 27.117C25.7553 26.9763 25.9135 26.8518 26.0666 26.7314C26.3375 26.5182 26.5935 26.3168 26.7273 26.0575C26.8547 25.8108 26.8719 25.4888 26.8901 25.1479C26.9007 24.9482 26.9117 24.7417 26.9454 24.5354C26.9735 24.3627 27.1362 24.2456 27.3092 24.2737C27.4819 24.3019 27.5991 24.4648 27.5709 24.6375C27.5428 24.8098 27.5331 24.9904 27.5229 25.1817C27.502 25.5744 27.4803 25.9805 27.2905 26.3483C27.0935 26.7298 26.7707 26.9838 26.4585 27.2295C26.3129 27.3441 26.1753 27.4523 26.0584 27.5678C25.9392 27.6855 25.8279 27.8234 25.7099 27.9694C25.4615 28.277 25.2045 28.5951 24.8265 28.7861C24.4511 28.9758 24.0425 28.9937 23.6473 29.0111C23.4592 29.0194 23.2815 29.0271 23.1139 29.053C23.0975 29.0556 23.0812 29.0568 23.0651 29.0568Z" fill="#DC8758"/>
<path d="M27.2712 24.2699C27.1065 24.2622 26.9681 24.3897 26.9425 24.5525C26.911 24.7531 26.9003 24.9537 26.8899 25.1479C26.8717 25.4888 26.8546 25.8108 26.7272 26.0576C26.5933 26.3168 26.3374 26.5182 26.0664 26.7314C25.9134 26.8518 25.7551 26.9764 25.6128 27.117C25.4684 27.2597 25.3405 27.4181 25.2168 27.5712C25.0434 27.7859 24.8776 27.9909 24.6863 28.1304C24.7036 28.1657 24.722 28.2005 24.7415 28.2345C24.7525 28.2539 24.7545 28.2767 24.747 28.2977C24.6829 28.477 24.6484 28.668 24.6453 28.8637C24.7063 28.8416 24.7668 28.8162 24.8264 28.7862C25.2044 28.5952 25.4614 28.2771 25.7098 27.9694C25.8278 27.8234 25.9391 27.6856 26.0583 27.5678C26.1752 27.4523 26.3127 27.3441 26.4584 27.2295C26.7706 26.9838 27.0934 26.7298 27.2904 26.3483C27.4802 25.9806 27.5019 25.5745 27.5228 25.1817C27.533 24.9905 27.5427 24.8098 27.5708 24.6376C27.601 24.4525 27.4643 24.2788 27.2712 24.2699Z" fill="#D77F4A"/>
<path d="M29.8822 19.0711C29.3671 19.5431 28.9433 19.803 28.5318 20.0552C28.0632 20.3425 27.6204 20.6142 27.0352 21.1994C26.458 21.7761 26.2366 22.1301 26.038 22.5242C25.8182 22.9603 25.6068 23.2979 24.9737 24.0287C24.3755 24.7189 23.8975 24.8991 23.4813 25.1163C23.0904 25.3208 22.7211 25.5134 22.144 26.0906C21.5668 26.6678 21.3741 27.0371 21.17 27.4279C20.9524 27.8441 20.7276 28.2743 20.082 28.9203C19.4415 29.5608 18.956 29.8435 18.4861 30.1173C18.0598 30.3657 17.6559 30.6015 17.1281 31.1086C17.1163 31.098 17.1053 31.087 17.0939 31.076C16.946 30.9281 16.84 30.7545 16.7758 30.5694C17.3174 30.0649 17.7488 29.8135 18.1672 29.5697C18.6218 29.3048 19.0515 29.0542 19.6338 28.472C20.2109 27.8948 20.404 27.5255 20.6081 27.1347C20.8253 26.7185 21.0501 26.2884 21.6957 25.6423C22.3418 24.9967 22.7719 24.7719 23.1881 24.5547C23.5789 24.3506 23.9482 24.1575 24.5254 23.5804C25.1026 23.0036 25.2952 22.6343 25.4993 22.2431C25.717 21.8273 25.9413 21.3967 26.5873 20.7511C27.225 20.1131 27.721 19.8089 28.2006 19.5148C28.6205 19.2575 29.0198 19.0124 29.5193 18.543C29.5383 18.5595 29.5569 18.5772 29.5751 18.5953C29.7144 18.7348 29.8171 18.8975 29.8822 19.0711Z" fill="#DC8758"/>
<path d="M36.0566 28.1875C36.3701 27.9927 36.5792 27.6462 36.5792 27.2503C36.5792 26.8344 36.3868 26.4734 36.0473 26.285C36.0038 26.2609 35.9901 26.2063 36.0166 26.1642C36.1077 26.0196 36.1608 25.8485 36.1608 25.6651C36.1608 25.2174 35.8614 24.8645 35.4426 24.7695C35.3825 24.7559 35.3561 24.6867 35.3922 24.6368C35.5487 24.4206 35.6 24.1655 35.5635 23.8708C35.5061 23.4039 35.1486 23.0203 34.6868 22.9285C34.5464 22.9006 34.4458 22.9274 34.3169 22.9498C34.2434 22.9625 34.1779 22.9052 34.1781 22.8307C34.1781 22.3004 33.7906 21.7972 33.2561 21.8149C32.7448 21.8323 32.3472 22.2687 32.3472 22.78V22.9292C32.3472 23.0483 32.3645 23.167 32.3988 23.2811C32.4731 23.5283 32.5099 23.7826 32.5099 24.0362C32.5099 24.4016 32.4334 24.7646 32.2839 25.1018C32.2475 25.1833 31.7904 24.7595 31.7904 24.7595C31.2977 24.4185 30.6428 24.4287 30.1607 24.7849C30.1607 24.7849 29.7631 25.1867 29.7276 25.1064C29.4735 24.5369 29.4288 23.8923 29.6077 23.2891C29.6419 23.174 29.6621 23.0552 29.6621 22.9351V22.78C29.6621 22.2688 29.2641 21.8323 28.7532 21.815C28.2187 21.7972 27.7797 22.2253 27.7797 22.7555V22.7571C27.7798 22.8315 27.7127 22.8868 27.6393 22.8742C27.511 22.8523 27.3751 22.8524 27.2351 22.8802C26.7737 22.9719 26.4162 23.3556 26.3584 23.8224C26.3219 24.1171 26.4026 24.3916 26.5591 24.6078C26.5953 24.6577 26.5689 24.7269 26.5088 24.7405C26.09 24.8356 25.777 25.2093 25.777 25.657C25.777 25.8405 25.8301 26.0116 25.9212 26.1562C25.9477 26.1982 25.934 26.2528 25.8905 26.2769C25.5511 26.4653 25.321 26.8264 25.321 27.2424C25.321 27.6383 25.5302 27.9848 25.8437 28.1795C25.7479 28.2549 25.823 28.3718 25.7624 28.4783C25.7168 28.5587 25.5273 28.6237 25.5071 28.7166C25.4923 28.7816 25.4841 28.8488 25.4841 28.9185C25.4841 29.3535 25.7792 29.719 26.1804 29.8265C26.2373 29.8418 26.262 29.9077 26.2286 29.9563C26.0969 30.1475 26.0336 30.3896 26.0765 30.6479C26.1437 31.0548 26.4623 31.3633 26.8708 31.4199C27.0493 31.4442 27.2198 31.4314 27.3701 31.3578C27.4091 31.3388 27.4546 31.3678 27.454 31.4112C27.454 31.4145 27.4539 31.4174 27.4539 31.4199C27.4539 32.0393 27.9639 32.4974 28.5871 32.4813C29.1892 32.4657 29.662 31.9552 29.662 31.3527V31.0548L30.0048 31.1763L30.2958 31.7283L30.388 31.8264C30.475 31.9189 30.5773 31.9873 30.6875 32.0313C30.789 32.0723 30.8966 31.8392 31.0044 31.8391C31.1121 31.8391 31.22 32.0722 31.3213 32.0313C31.4316 31.9873 31.5343 31.9189 31.6213 31.8264L31.7134 31.7283L31.9933 31.1763L32.3472 31.0548L32.4469 31.3368C32.4469 31.9393 32.8352 32.3631 33.4377 32.3788C34.0609 32.3948 34.5053 31.9963 34.5053 31.3769C34.5053 31.3745 34.5052 31.3715 34.5052 31.3681C34.5046 31.3248 34.6035 31.2712 34.6425 31.2903C34.793 31.3638 34.9711 31.3797 35.1495 31.3554C35.5581 31.2988 35.7551 31.0845 35.8228 30.6776C35.8657 30.4191 35.8282 30.1218 35.6964 29.9305C35.6632 29.8823 35.6555 29.8657 35.7445 29.8009C36.0802 29.5567 36.4151 29.3831 36.4151 28.9481C36.4151 28.8784 36.4075 28.8108 36.3927 28.7457C36.3459 28.5298 36.2247 28.3197 36.0566 28.1875Z" fill="#FEDBBD"/>
<path d="M36.5025 28.7166C36.5173 28.7816 36.5255 28.8488 36.5255 28.9185C36.5255 29.3533 36.2302 29.7192 35.8292 29.8265C35.7722 29.8418 35.7477 29.9077 35.7811 29.9563C35.9129 30.1477 35.9762 30.3894 35.9332 30.648C35.8656 31.0549 35.5474 31.3633 35.1388 31.4199C34.9606 31.4444 34.79 31.4313 34.6396 31.3579C34.6008 31.3389 34.5557 31.3679 34.5557 31.411V31.4199C34.5557 32.0393 34.0457 32.4974 33.4225 32.4813C32.82 32.4657 32.3476 31.9552 32.3476 31.3527V31.0548C32.3814 31.0591 32.4562 31.0688 32.4908 31.07C33.114 31.0861 33.5839 30.645 33.5839 30.0256V30.0167C33.5839 29.9735 33.629 29.9446 33.6678 29.9635C33.8182 30.037 33.9884 30.0496 34.167 30.0256C34.5756 29.969 34.8938 29.6605 34.9614 29.2536C35.004 28.995 34.9405 28.7637 34.8087 28.5727C34.7753 28.5241 34.8004 28.4474 34.8574 28.4322C35.2584 28.3245 35.5537 27.959 35.5537 27.5242C35.5537 27.4545 35.5462 27.3869 35.5314 27.3218C35.4922 27.1417 35.4008 26.9808 35.274 26.8556C35.2357 26.8178 35.2416 26.7556 35.2843 26.7229C35.5471 26.5212 35.7168 26.2047 35.7168 25.848C35.7168 25.4318 35.487 25.071 35.1472 24.8825C35.1037 24.8584 35.0902 24.8039 35.1168 24.7617C35.2077 24.6172 35.2609 24.4461 35.2609 24.2627C35.2609 23.7654 34.8747 23.3593 34.3863 23.3251L33.9926 23.3147C33.9505 23.3136 33.9181 23.2774 33.9222 23.2355C33.9472 22.9789 33.9683 22.151 33.2564 21.815C33.7909 21.7972 34.2295 22.2253 34.2295 22.7555V22.7572C34.2295 22.8318 34.297 22.8869 34.3705 22.8743C34.4597 22.859 34.5523 22.8545 34.6474 22.8624C34.6483 22.8624 34.6495 22.8624 34.6503 22.8628C34.6702 22.8645 34.6905 22.8667 34.7104 22.8696C34.7179 22.8705 34.7252 22.8717 34.7323 22.873C34.7463 22.8747 34.7602 22.8772 34.7742 22.8801C35.236 22.9719 35.5934 23.3555 35.6509 23.8224C35.6873 24.1169 35.607 24.3916 35.4506 24.6079C35.4143 24.6577 35.4409 24.727 35.5009 24.7406C35.9196 24.8356 36.2328 25.2091 36.2328 25.657C36.2328 25.8404 36.1795 26.0115 36.0887 26.156C36.062 26.1983 36.0756 26.2528 36.1191 26.2769C36.4588 26.4653 36.6887 26.8266 36.6887 27.2424C36.6887 27.6383 36.4795 27.9847 36.166 28.1795C36.2396 28.2374 36.235 28.4129 36.2884 28.4899C36.3572 28.5889 36.4761 28.5951 36.5025 28.7166Z" fill="#FECA9C"/>
<path d="M30.2959 31.2394V31.7282L29.6621 31.0547C29.6355 30.3195 29.4517 29.5835 29.1327 28.9214C29.0908 28.8343 29.0921 28.738 29.128 28.656C29.1365 28.6362 29.1475 28.6171 29.1601 28.599C29.1901 28.5571 29.2307 28.5221 29.2806 28.4984C29.4213 28.4303 29.5873 28.476 29.6752 28.599C29.6858 28.6138 29.6955 28.6294 29.7035 28.6463C30.091 29.4504 30.2959 30.347 30.2959 31.2394Z" fill="#FECA9C"/>
<path d="M32.8768 28.9213C32.5578 29.5834 32.374 30.3195 32.3474 31.0547L31.7136 31.7282V31.2393C31.7136 30.347 31.9185 29.4503 32.306 28.6463C32.314 28.6294 32.3237 28.6137 32.3343 28.5989C32.4222 28.476 32.5886 28.4304 32.7293 28.4984C32.7788 28.522 32.8193 28.5571 32.8493 28.5989C32.862 28.6167 32.8726 28.6357 32.8819 28.6555C32.8815 28.656 32.8815 28.656 32.8819 28.656C32.9174 28.7379 32.9186 28.8342 32.8768 28.9213Z" fill="#FECA9C"/>
<path d="M27.6794 27.5102C27.6794 28.2936 27.0418 28.9312 26.2585 28.9312C25.9931 28.9312 25.7318 28.856 25.5074 28.7166C25.5066 28.7162 25.5083 28.717 25.5074 28.7166C25.5543 28.5007 25.6758 28.3118 25.844 28.1795C25.9678 28.2568 26.1115 28.2974 26.2585 28.2974C26.6924 28.2974 27.0457 27.9442 27.0457 27.5102C27.0457 27.3353 27.1876 27.1934 27.3625 27.1934C27.5375 27.1933 27.6794 27.3353 27.6794 27.5102Z" fill="#FECA9C"/>
<path d="M35.7509 28.9312C34.9675 28.9312 34.3304 28.294 34.3304 27.5102C34.3304 27.3353 34.4719 27.1934 34.6472 27.1934C34.8222 27.1934 34.9641 27.3353 34.9641 27.5102C34.9641 27.9442 35.3169 28.2974 35.7509 28.2974C35.8984 28.2974 36.0167 28.9312 35.7509 28.9312Z" fill="#FECA9C"/>
<path d="M36.166 28.1786C36.0418 28.2559 35.8986 28.2965 35.7511 28.2965C35.5862 28.2965 35.4332 28.2452 35.3066 28.1582C35.1569 28.3262 35.0816 28.4018 34.9767 28.4785C34.8869 28.5442 34.8087 28.5718 34.8087 28.5718L34.8259 28.5863C35.0746 28.8004 35.3979 28.9303 35.7511 28.9303C36.0169 28.9303 36.2778 28.855 36.5026 28.7156C36.5017 28.716 36.5034 28.7152 36.5026 28.7156C36.4557 28.4997 36.3342 28.3108 36.166 28.1786Z" fill="#FDB97E"/>
<path d="M31.3215 27.7934V32.0306C31.1187 32.1125 30.8905 32.1125 30.6877 32.0306V27.7934C30.6877 27.7368 30.7025 27.6836 30.7291 27.638C30.7832 27.5416 30.8863 27.4766 31.0046 27.4766C31.1233 27.4766 31.2264 27.5417 31.2805 27.638C31.3067 27.6836 31.3215 27.7368 31.3215 27.7934Z" fill="#FECA9C"/>
<path d="M32.6934 25.4896C32.1617 25.4896 31.8799 25.2685 31.6534 25.0909C31.4582 24.9378 31.3173 24.8272 31.0045 24.8272C30.6918 24.8272 30.5509 24.9377 30.3557 25.0908C30.1293 25.2684 29.8475 25.4896 29.3158 25.4896C28.7841 25.4896 28.5023 25.2685 28.2758 25.0908C28.2268 25.0523 28.1804 25.016 28.1335 24.9832C27.99 24.8831 27.9547 24.6856 28.0549 24.542C28.155 24.3984 28.3525 24.3632 28.4961 24.4634C28.5577 24.5063 28.6133 24.5499 28.6671 24.5921C28.8622 24.7452 29.0031 24.8558 29.3158 24.8558C29.6285 24.8558 29.7694 24.7452 29.9646 24.5921C30.191 24.4145 30.4729 24.1934 31.0045 24.1934C31.5362 24.1934 31.8181 24.4145 32.0446 24.5921C32.2397 24.7452 32.3807 24.8558 32.6934 24.8558C33.0063 24.8558 33.1472 24.7452 33.3424 24.5921C33.3962 24.5499 33.4518 24.5063 33.5133 24.4634C33.6569 24.3632 33.8544 24.3985 33.9545 24.5421C34.0547 24.6857 34.0194 24.8832 33.8759 24.9833C33.829 25.016 33.7826 25.0524 33.7336 25.0909C33.507 25.2685 33.2251 25.4896 32.6934 25.4896Z" fill="#FECA9C"/>
</g>
<defs>
<clipPath id="clip0_1436_31100">
<rect x="0.688599" y="0.189453" width="51.6228" height="48.8105" rx="24.4053" fill="white"/>
</clipPath>
<clipPath id="clip1_1436_31100">
<rect width="42" height="39.7119" fill="white" transform="translate(3.6886 3.9707)"/>
</clipPath>
</defs>
</svg>
