<svg width="51" height="50" viewBox="0 0 51 50" fill="none" xmlns="http://www.w3.org/2000/svg">
<g clip-path="url(#clip0_1436_31148)">
<circle cx="24.6395" cy="24.4706" r="24.951" fill="#158466"/>
</g>
<g clip-path="url(#clip1_1436_31148)">
<path d="M30.479 41.8316L29.4335 42.2773L29 41.2603L30.1808 40.757C30.4689 40.6341 30.6029 40.301 30.4801 40.0129C30.3573 39.7248 30.0245 39.5907 29.7359 39.7136L28.0333 40.4393C27.895 40.4983 27.7858 40.6098 27.7296 40.7494C27.6735 40.8889 27.675 41.0451 27.734 41.1835L29.5248 45.384C29.6167 45.5996 29.8263 45.7289 30.0468 45.7289C30.1209 45.7289 30.1964 45.7143 30.269 45.6833C30.5571 45.5604 30.6911 45.2273 30.5683 44.9392L29.8784 43.3209L30.9239 42.8752C31.212 42.7523 31.346 42.4192 31.2232 42.1311C31.1003 41.8428 30.7674 41.7088 30.479 41.8316ZM40.6929 36.8095C40.4342 36.6326 40.0813 36.699 39.9045 36.9576L39.1406 38.0748L38.1957 37.4287L38.8797 36.4283C39.0565 36.1698 38.9901 35.8168 38.7316 35.64C38.473 35.4632 38.1201 35.5296 37.9433 35.7881L37.2593 36.7884L36.3144 36.1422L37.0783 35.025C37.2551 34.7665 37.1888 34.4136 36.9303 34.2368C36.6716 34.0598 36.3187 34.1263 36.1419 34.3848L35.0579 35.9702C34.8811 36.2287 34.9475 36.5817 35.206 36.7585L38.9685 39.3312C39.0635 39.3961 39.1752 39.4302 39.2886 39.4302C39.3235 39.4302 39.3586 39.427 39.3933 39.4204C39.5412 39.3927 39.6719 39.3073 39.7569 39.1831L40.8409 37.5978C41.0177 37.3391 40.9514 36.9862 40.6929 36.8095ZM43.2631 33.0506C43.0044 32.8738 42.6516 32.9401 42.4748 33.1987L41.7108 34.3159L40.7659 33.6698L41.4499 32.6694C41.6267 32.4109 41.5604 32.058 41.3018 31.8812C41.0431 31.7043 40.6903 31.7707 40.5135 32.0292L39.8295 33.0295L38.8847 32.3834L39.6486 31.2662C39.8254 31.0077 39.7591 30.6548 39.5006 30.478C39.242 30.3011 38.8891 30.3675 38.7122 30.626L37.6282 32.2114C37.5433 32.3356 37.5112 32.4884 37.5389 32.6362C37.5667 32.7841 37.6521 32.9148 37.7762 32.9997L41.5387 35.5724C41.6367 35.6394 41.7481 35.6715 41.8584 35.6715C42.0394 35.6715 42.2172 35.5851 42.3271 35.4245L43.4112 33.8391C43.588 33.5803 43.5216 33.2274 43.2631 33.0506ZM37.3416 41.3253C37.2903 41.5978 37.0522 41.7878 36.7849 41.7878C36.7501 41.7878 36.7148 41.7846 36.6794 41.778L34.4568 41.3602L35.2713 42.4027C35.4642 42.6495 35.4205 43.0059 35.1736 43.1987C35.07 43.2797 34.9469 43.319 34.8248 43.319C34.6562 43.319 34.4894 43.2442 34.3775 43.101L31.5453 39.4764C31.3524 39.2295 31.3961 38.8732 31.643 38.6803L31.6442 38.6794L32.6073 37.9268C33.4026 37.3054 34.5364 37.4228 35.1349 38.1888C35.428 38.5639 35.5483 39.0373 35.4735 39.5216C35.4276 39.8185 35.3117 40.0959 35.1374 40.3341L36.889 40.6634C37.1968 40.721 37.3993 41.0175 37.3416 41.3253ZM34.2411 38.8871C34.0314 38.6187 33.6031 38.5881 33.3058 38.8205L32.7909 39.2229C32.9424 39.4157 33.1021 39.6191 33.1788 39.7172C33.2689 39.8325 33.4238 40.0291 33.5688 40.2127C33.757 40.0641 33.96 39.9041 34.0796 39.8108C34.2252 39.6969 34.3247 39.5284 34.3525 39.3483C34.379 39.1767 34.3394 39.013 34.2411 38.8871Z" fill="white"/>
<path d="M19.2644 18.1009C18.7969 18.8994 18.4868 19.7801 18.3506 20.6953C18.2394 21.4798 17.829 22.1908 17.2051 22.6793C16.4806 23.2548 15.873 23.9638 15.4152 24.7679C13.9094 27.376 14.1813 30.352 16.0222 31.4149C17.8631 32.4777 20.5763 31.2252 22.0822 28.617C22.5496 27.8185 22.8598 26.9378 22.996 26.0226C23.1071 25.2381 23.5176 24.5271 24.1414 24.0387C24.8659 23.4631 25.4735 22.7542 25.9313 21.9501C27.4372 19.3419 27.1653 16.3659 25.3244 15.3031C23.4834 14.2402 20.7702 15.4927 19.2644 18.1009Z" fill="#F9DBAF"/>
<path d="M25.0981 21.4696C24.7014 22.1663 24.1756 22.7812 23.5488 23.2812C22.7285 23.9231 22.1888 24.8579 22.043 25.8893C21.9234 26.682 21.6539 27.4447 21.2489 28.1365C20.0318 30.2447 17.8585 31.3645 16.5035 30.5822C15.1484 29.7998 15.0316 27.3578 16.2487 25.2497C16.6454 24.5529 17.1712 23.9381 17.798 23.4381C18.2048 23.1206 18.5464 22.7274 18.8039 22.2803C19.0625 21.8336 19.2322 21.3411 19.3038 20.8299C19.4234 20.0372 19.6929 19.2746 20.0979 18.5827C21.315 16.4746 23.4883 15.3547 24.8433 16.1371C26.1984 16.9194 26.3152 19.3614 25.0981 21.4696Z" fill="#EDB88E"/>
<path d="M24.0049 14.9259C24.2469 16.0231 24.2537 17.1591 24.025 18.2591C24.0161 18.254 24.0082 18.2465 23.9985 18.2409C23.2279 17.796 21.7011 18.3708 20.8883 19.7787C20.0755 21.1865 20.341 22.7962 21.1116 23.2411C21.4373 23.402 21.8114 23.4351 22.1603 23.3339C22.0893 23.4633 22.0195 23.5931 21.945 23.7222C21.568 24.377 21.1534 25.0094 20.7033 25.6162C20.604 25.3242 20.4088 25.0745 20.1493 24.9078C19.3787 24.4629 17.8519 25.0378 17.0391 26.4456C16.7762 26.8692 16.614 27.3475 16.5652 27.8436C16.5163 28.3398 16.5821 28.8405 16.7574 29.3072C16.1567 29.6674 15.4927 29.9095 14.8011 30.0204C15.0491 30.6035 15.477 31.0919 16.0223 31.4144C17.8641 32.4777 20.5763 31.225 22.0823 28.6166C22.5504 27.8181 22.8604 26.937 22.9954 26.0214C23.1073 25.2374 23.5176 24.5269 24.1406 24.038C24.866 23.4632 25.4741 22.7542 25.9315 21.9496C27.4375 19.3411 27.1663 16.3659 25.3245 15.3026C24.9215 15.0723 24.4687 14.943 24.0049 14.9259Z" fill="#EDB88E"/>
<path d="M20.0979 18.5827C19.6928 19.2751 19.4231 20.0383 19.3033 20.8315C19.2314 21.342 19.0619 21.8339 18.8039 22.2803C18.5463 22.7269 18.2051 23.1196 17.7989 23.4371C17.1719 23.9375 16.6458 24.5526 16.2487 25.2497C15.0314 27.3581 15.1478 29.7995 16.5035 30.5822C17.8591 31.3648 20.0316 30.245 21.2489 28.1365C21.654 27.4441 21.9237 26.681 22.0435 25.8878C22.189 24.8573 22.7283 23.9234 23.5479 23.2821C24.1749 22.7817 24.701 22.1666 25.0981 21.4696C26.3154 19.3612 26.1989 16.9198 24.8433 16.1371C23.4877 15.3544 21.3152 16.4743 20.0979 18.5827ZM24.0246 18.2608C24.0135 18.2544 24.0068 18.2468 23.9984 18.242C23.229 17.7977 21.7014 18.3714 20.8883 19.7798C20.0751 21.1882 20.3421 22.798 21.1116 23.2422C21.4374 23.4028 21.8114 23.4365 22.1607 23.3368C22.0897 23.4662 22.0203 23.5928 21.9449 23.7234C21.5675 24.3779 21.1528 25.0104 20.7031 25.6176C20.6035 25.3258 20.4084 25.0761 20.1493 24.909C19.3798 24.4647 17.8522 25.0384 17.0391 26.4468C16.7759 26.87 16.6137 27.3481 16.565 27.8441C16.5162 28.3401 16.5824 28.8406 16.7582 29.307C16.5504 29.4241 16.3368 29.5307 16.1182 29.6264C15.7782 28.5152 15.996 26.9705 16.8043 25.5704C17.2014 24.8734 17.7275 24.2583 18.3545 23.7579C18.7607 23.4404 19.1019 23.0476 19.3595 22.601C19.6174 22.1547 19.787 21.6628 19.8589 21.1522C19.9787 20.359 20.2484 19.5959 20.6535 18.9035C21.5484 17.3534 22.9585 16.3415 24.1829 16.2225C24.1995 16.9055 24.1465 17.5885 24.0246 18.2608Z" fill="#DA9367"/>
<path d="M20.4155 27.6549C19.6027 29.0628 18.0759 29.6377 17.3053 29.1928C16.5347 28.7479 16.2692 27.1382 17.082 25.7304C17.8948 24.3225 19.4216 23.7476 20.1922 24.1925C20.9628 24.6374 21.2283 26.2471 20.4155 27.6549Z" fill="#FCF2AD"/>
<path d="M24.2647 20.9889C23.4519 22.3968 21.9251 22.9716 21.1545 22.5267C20.3839 22.0818 20.1184 20.4722 20.9312 19.0643C21.744 17.6565 23.2708 17.0816 24.0414 17.5265C24.812 17.9714 25.0775 19.5811 24.2647 20.9889Z" fill="#FCF2AD"/>
<path d="M20.1922 24.1924C20.9617 24.6366 21.2287 26.2464 20.4155 27.6548C19.6024 29.0632 18.0748 29.6369 17.3053 29.1926C17.1185 29.061 16.9618 28.8912 16.8455 28.6944C16.7292 28.4977 16.6561 28.2785 16.6309 28.0513C17.4287 28.3823 18.8505 27.7994 19.6251 26.4577C20.0397 25.7596 20.1992 24.9392 20.0763 24.1366C20.1163 24.1523 20.155 24.1709 20.1922 24.1924Z" fill="#F9DBAF"/>
<path d="M24.0414 17.5264C24.8108 17.9706 25.0778 19.5804 24.2647 20.9888C23.4515 22.3972 21.924 22.9709 21.1545 22.5266C20.9677 22.395 20.8109 22.2252 20.6946 22.0284C20.5784 21.8317 20.5052 21.6125 20.48 21.3853C21.2779 21.7163 22.6996 21.1334 23.4743 19.7917C23.8889 19.0935 24.0483 18.2732 23.9254 17.4706C23.9654 17.4863 24.0042 17.5049 24.0414 17.5264Z" fill="#F9DBAF"/>
<path d="M19.8307 26.576C19.7919 26.6435 19.7298 26.6946 19.6561 26.7197C19.5824 26.7448 19.5021 26.7422 19.4301 26.7125C19.3582 26.6827 19.2995 26.6278 19.265 26.558C19.2306 26.4881 19.2227 26.4082 19.2429 26.3329C19.3328 26.0509 19.3345 25.7482 19.2475 25.4652C19.2135 25.3888 19.2106 25.3022 19.2395 25.2237C19.2684 25.1452 19.3269 25.0811 19.4023 25.0451C19.4778 25.0091 19.5644 25.004 19.6436 25.0308C19.7228 25.0577 19.7883 25.1145 19.8263 25.189C19.983 25.6093 19.9958 26.0698 19.8627 26.4982C19.8556 26.5254 19.8448 26.5516 19.8307 26.576Z" fill="#EDB88E"/>
<path d="M23.6799 19.909C23.6411 19.9765 23.579 20.0276 23.5053 20.0527C23.4316 20.0778 23.3513 20.0752 23.2793 20.0455C23.2073 20.0157 23.1487 19.9608 23.1142 19.891C23.0798 19.8211 23.0719 19.7412 23.0921 19.6659C23.182 19.3839 23.1836 19.0812 23.0967 18.7982C23.0773 18.7601 23.0657 18.7184 23.0626 18.6757C23.0595 18.633 23.065 18.5901 23.0788 18.5495C23.0925 18.509 23.1143 18.4716 23.1427 18.4396C23.1712 18.4076 23.2057 18.3816 23.2444 18.3631C23.283 18.3447 23.325 18.3342 23.3677 18.3322C23.4105 18.3302 23.4532 18.3368 23.4934 18.3516C23.5336 18.3664 23.5704 18.3891 23.6017 18.4184C23.633 18.4477 23.658 18.4829 23.6755 18.522C23.8321 18.9423 23.8449 19.4028 23.7119 19.8312C23.7047 19.8585 23.694 19.8846 23.6799 19.909Z" fill="#EDB88E"/>
<path d="M26.4723 23.4511C26.2272 24.343 26.1551 25.2737 26.2599 26.1927C26.3557 26.9794 26.1432 27.7726 25.6669 28.406C25.116 29.1494 24.7126 29.9914 24.4784 30.8866C23.6991 33.7953 24.7329 36.6001 26.7858 37.1501C28.8387 37.7001 31.1354 35.7879 31.9149 32.8788C32.1597 31.9865 32.2314 31.0555 32.1261 30.1362C32.0303 29.3495 32.2428 28.5563 32.7191 27.9229C33.2695 27.1798 33.6727 26.3383 33.9068 25.4437C34.6862 22.5347 33.6533 19.7304 31.6001 19.1802C29.5469 18.63 27.2507 20.5415 26.4723 23.4511Z" fill="#EDB88E"/>
<path d="M33.9074 25.4432C33.6719 26.3379 33.2688 27.1798 32.7195 27.9242C32.2432 28.5572 32.0299 29.3496 32.124 30.1361C32.2315 31.0551 32.1604 31.9863 31.9148 32.8784C31.1352 35.7877 28.8389 37.6991 26.7852 37.1505C26.1499 36.9711 25.5919 36.5864 25.1982 36.0565C26.9239 35.8453 28.6082 34.1213 29.2543 31.7127C29.5 30.8206 29.571 29.8895 29.4635 28.9704C29.3694 28.1839 29.5828 27.3915 30.059 26.7586C30.6083 26.0141 31.0114 25.1723 31.2469 24.2776C31.7858 22.2664 31.4579 20.3067 30.5283 19.107C30.8874 19.0619 31.2519 19.0862 31.6018 19.1786C33.6539 19.73 34.687 22.534 33.9074 25.4432Z" fill="#DA9367"/>
<path d="M28.8861 35.8601C28.9513 35.906 28.997 35.9746 29.0144 36.0524C29.0318 36.1302 29.0196 36.2117 28.9801 36.281C28.9753 36.2894 28.9661 36.2989 28.9613 36.3072C28.7464 36.6155 28.499 36.8998 28.2235 37.1554C27.8782 37.2428 27.5196 37.2657 27.166 37.2227C27.1325 37.2212 27.0991 37.2168 27.0662 37.2095C27.0984 37.1413 27.1557 37.0881 27.226 37.061C27.7225 36.7992 28.1409 36.4109 28.439 35.9353C28.4883 35.866 28.5631 35.8192 28.647 35.8051C28.7308 35.791 28.8168 35.8108 28.8861 35.8601Z" fill="#EDB88E"/>
<path d="M29.8723 34.6638C29.8314 34.735 29.7648 34.7879 29.6861 34.8114C29.6075 34.835 29.5228 34.8275 29.4495 34.7905C29.3762 34.7535 29.3199 34.6898 29.2922 34.6125C29.2644 34.5353 29.2674 34.4503 29.3004 34.3751C29.539 33.8225 29.7366 33.2532 29.8917 32.6716C29.9026 32.6309 29.9215 32.5928 29.9472 32.5594C29.9729 32.526 30.0049 32.4979 30.0414 32.4769C30.0779 32.4559 30.1182 32.4422 30.16 32.4368C30.2018 32.4313 30.2442 32.4341 30.2849 32.4451C30.3256 32.456 30.3637 32.4749 30.3971 32.5006C30.4305 32.5262 30.4586 32.5583 30.4796 32.5948C30.5006 32.6313 30.5143 32.6716 30.5197 32.7134C30.5252 32.7551 30.5224 32.7976 30.5114 32.8383C30.348 33.4503 30.1398 34.0495 29.8886 34.631C29.8838 34.6423 29.8783 34.6532 29.8723 34.6638Z" fill="#EDB88E"/>
<path d="M30.832 31.0989C30.7953 31.163 30.7376 31.2125 30.6686 31.2389C30.5996 31.2654 30.5236 31.2672 30.4534 31.2441C30.3832 31.221 30.3232 31.1744 30.2834 31.1121C30.2436 31.0499 30.2265 30.9758 30.2351 30.9024C30.2693 30.6084 30.2909 30.3201 30.299 30.0455C30.3104 29.7029 30.3551 29.3621 30.4324 29.028C30.4513 28.9449 30.5025 28.8726 30.5747 28.8272C30.6469 28.7818 30.7342 28.7669 30.8174 28.7859C30.9006 28.8048 30.9728 28.856 31.0182 28.9282C31.0636 29.0004 31.0785 29.0877 31.0596 29.1709C30.9912 29.4646 30.9516 29.7642 30.9412 30.0656C30.9332 30.3572 30.91 30.665 30.8734 30.9772C30.868 31.0201 30.8539 31.0615 30.832 31.0989Z" fill="#EDB88E"/>
<path d="M31.719 27.55C31.6994 27.5874 31.6727 27.6205 31.6403 27.6474C31.6079 27.6744 31.5705 27.6948 31.5302 27.7073C31.49 27.7198 31.4476 27.7243 31.4057 27.7205C31.3637 27.7166 31.3229 27.7046 31.2855 27.685C31.2482 27.6654 31.2151 27.6386 31.1881 27.6062C31.1612 27.5738 31.1408 27.5364 31.1283 27.4962C31.1158 27.4559 31.1113 27.4136 31.1151 27.3716C31.1189 27.3296 31.131 27.2888 31.1506 27.2515C31.4062 26.7073 31.6197 26.1444 31.7894 25.5676C31.801 25.5268 31.8205 25.4886 31.847 25.4553C31.8734 25.422 31.9062 25.3943 31.9434 25.3738C31.9806 25.3533 32.0216 25.3404 32.0638 25.3359C32.1061 25.3314 32.1488 25.3352 32.1895 25.3474C32.2302 25.3595 32.2682 25.3795 32.3011 25.4064C32.334 25.4333 32.3612 25.4665 32.3812 25.504C32.4012 25.5415 32.4135 25.5826 32.4175 25.6249C32.4215 25.6672 32.417 25.7099 32.4043 25.7504C32.2252 26.3586 31.9997 26.9522 31.7299 27.526C31.7274 27.5349 31.7233 27.5425 31.719 27.55Z" fill="#EDB88E"/>
<path d="M25.7775 34.8803C25.7819 35.4546 25.9012 36.0223 26.1286 36.5497C26.1523 36.5969 26.1639 36.6493 26.1625 36.7021C26.1611 36.7549 26.1466 36.8065 26.1205 36.8524L26.1108 36.8691C25.8122 36.6933 25.5449 36.4689 25.3201 36.2051C25.2123 35.7801 25.1507 35.3447 25.1365 34.9065C25.133 34.8215 25.1634 34.7386 25.2211 34.676C25.2787 34.6134 25.3589 34.5763 25.4439 34.5728C25.5289 34.5694 25.6118 34.5998 25.6744 34.6575C25.737 34.7151 25.7741 34.7953 25.7775 34.8803Z" fill="#F9DBAF"/>
<path d="M32.7784 24.012C32.7411 24.0767 32.6824 24.1264 32.6124 24.1525C32.5424 24.1786 32.4655 24.1795 32.395 24.155C32.3244 24.1304 32.2646 24.082 32.226 24.0181C32.1873 23.9542 32.1721 23.8788 32.183 23.805C32.2739 23.2138 32.3093 22.6155 32.2889 22.0178C32.2853 21.9327 32.3157 21.8497 32.3734 21.787C32.431 21.7243 32.5112 21.687 32.5964 21.6835C32.6815 21.6799 32.7645 21.7103 32.8272 21.768C32.8899 21.8256 32.9271 21.9059 32.9307 21.991C32.9526 22.6287 32.9149 23.2671 32.818 23.8978C32.8121 23.938 32.7987 23.9768 32.7784 24.012Z" fill="#EDB88E"/>
<path d="M25.8404 33.2082C25.8031 33.273 25.7445 33.3228 25.6745 33.349C25.6045 33.3752 25.5276 33.3761 25.457 33.3516C25.3864 33.327 25.3265 33.2787 25.2878 33.2147C25.2491 33.1508 25.2339 33.0754 25.2449 33.0015C25.3198 32.4946 25.4242 31.9925 25.5574 31.4978C25.5889 31.3804 25.6217 31.2645 25.6556 31.15C25.6815 31.0705 25.7373 31.0042 25.8113 30.9653C25.8853 30.9264 25.9716 30.9179 26.0518 30.9416C26.1319 30.9653 26.1997 31.0194 26.2405 31.0924C26.2814 31.1653 26.2922 31.2513 26.2706 31.3321C26.2382 31.4416 26.207 31.5522 26.1771 31.664C26.0504 32.1349 25.9511 32.6127 25.8798 33.0951C25.8739 33.1349 25.8605 33.1734 25.8404 33.2082Z" fill="#F9DBAF"/>
<path d="M26.896 29.6703C26.8565 29.7457 26.7886 29.8023 26.7073 29.8277C26.6261 29.853 26.538 29.845 26.4626 29.8055C26.3872 29.7659 26.3306 29.698 26.3053 29.6168C26.2799 29.5355 26.2879 29.4475 26.3275 29.3721C26.4059 29.2062 26.486 29.0462 26.5677 28.8918C26.7626 28.5241 26.9086 28.1325 27.0021 27.727C27.0109 27.6852 27.0279 27.6456 27.0522 27.6105C27.0765 27.5755 27.1075 27.5456 27.1435 27.5226C27.1795 27.4997 27.2197 27.4841 27.2618 27.4769C27.3039 27.4697 27.3469 27.471 27.3885 27.4807C27.4301 27.4903 27.4693 27.5082 27.5039 27.5332C27.5385 27.5582 27.5677 27.5899 27.5899 27.6263C27.6121 27.6628 27.6268 27.7033 27.6331 27.7455C27.6395 27.7877 27.6373 27.8308 27.6268 27.8721C27.5206 28.3329 27.3545 28.7778 27.1328 29.1955C27.0552 29.3396 26.9797 29.4896 26.906 29.6453C26.9046 29.6549 26.9004 29.6628 26.896 29.6703Z" fill="#F9DBAF"/>
<path d="M27.8649 24.1445C27.9462 24.1664 28.0155 24.2194 28.0581 24.2919C28.1006 24.3645 28.113 24.4509 28.0924 24.5325C27.9746 25.0154 27.8865 25.5051 27.8285 25.9987C27.8177 26.0823 27.7744 26.1583 27.708 26.2103C27.6416 26.2622 27.5574 26.2859 27.4736 26.2763C27.3899 26.2666 27.3133 26.2244 27.2605 26.1587C27.2076 26.093 27.1827 26.0091 27.1913 25.9253C27.2523 25.404 27.3453 24.887 27.4698 24.3772C27.48 24.3358 27.4984 24.2968 27.5238 24.2626C27.5492 24.2284 27.5812 24.1995 27.6179 24.1778C27.6545 24.1561 27.6952 24.1419 27.7374 24.1361C27.7797 24.1302 27.8226 24.1329 27.8638 24.1438L27.8649 24.1445Z" fill="#F9DBAF"/>
<path d="M28.7538 22.5298C28.7129 22.601 28.6462 22.6538 28.5676 22.6773C28.4889 22.7008 28.4043 22.6932 28.331 22.6562C28.2578 22.6192 28.2015 22.5555 28.1738 22.4782C28.1461 22.401 28.149 22.316 28.1821 22.2409C28.4341 21.6522 28.7458 21.0908 29.1122 20.5656C29.1362 20.5301 29.1671 20.4998 29.203 20.4765C29.2388 20.4531 29.279 20.4372 29.3212 20.4296C29.3633 20.422 29.4065 20.4229 29.4483 20.4323C29.4901 20.4417 29.5296 20.4594 29.5644 20.4843C29.5993 20.5092 29.6288 20.5408 29.6512 20.5772C29.6736 20.6137 29.6885 20.6543 29.695 20.6966C29.7015 20.7389 29.6995 20.7821 29.689 20.8237C29.6785 20.8652 29.6599 20.9042 29.6341 20.9384C29.2939 21.4273 29.0047 21.9497 28.7709 22.4975C28.7658 22.5086 28.7601 22.5194 28.7538 22.5298Z" fill="#F9DBAF"/>
<path d="M28.1469 35.6226C28.1063 35.6931 28.0404 35.7456 27.9626 35.7693C27.8847 35.7931 27.8008 35.7864 27.7277 35.7505C27.6546 35.7147 27.5979 35.6524 27.569 35.5764C27.5402 35.5003 27.5413 35.4161 27.5722 35.3408C27.7842 34.8202 27.9989 34.2167 28.2107 33.5523C28.2227 33.5113 28.2428 33.4732 28.2698 33.4401C28.2968 33.4071 28.3301 33.3797 28.3678 33.3597C28.4055 33.3396 28.4468 33.3273 28.4894 33.3235C28.5319 33.3196 28.5747 33.3243 28.6154 33.3372C28.6561 33.3501 28.6938 33.371 28.7263 33.3987C28.7588 33.4264 28.7855 33.4602 28.8047 33.4983C28.8239 33.5364 28.8354 33.578 28.8383 33.6206C28.8413 33.6632 28.8358 33.7059 28.822 33.7463C28.6056 34.4285 28.3848 35.0462 28.1663 35.5827C28.1607 35.5964 28.1543 35.6097 28.1469 35.6226Z" fill="#F9DBAF"/>
<path d="M29.3261 31.9603C29.2878 32.0287 29.2259 32.0807 29.152 32.1065C29.0781 32.1324 28.9972 32.1303 28.9247 32.1006C28.8522 32.071 28.7931 32.0159 28.7585 31.9456C28.7238 31.8754 28.7161 31.7949 28.7367 31.7193C28.9033 31.0773 29.0463 30.4536 29.1642 29.862C29.1807 29.7785 29.2298 29.705 29.3005 29.6577C29.3712 29.6104 29.4579 29.5931 29.5413 29.6097C29.6248 29.6263 29.6983 29.6753 29.7456 29.746C29.7929 29.8167 29.8102 29.9034 29.7936 29.9868C29.6739 30.5893 29.5272 31.2264 29.3577 31.8805C29.3508 31.9084 29.3401 31.9352 29.3261 31.9603Z" fill="#F9DBAF"/>
<path d="M27.2532 33.7006C27.2151 33.7669 27.1546 33.8173 27.0826 33.843C27.0106 33.8686 26.9318 33.8676 26.8604 33.8403C26.7891 33.813 26.7298 33.7611 26.6933 33.694C26.6568 33.6268 26.6454 33.5489 26.6613 33.4741C26.7694 32.9661 26.8917 32.4393 27.0298 31.9057C27.0406 31.8646 27.0593 31.8261 27.085 31.7923C27.1106 31.7585 27.1427 31.7301 27.1793 31.7087C27.216 31.6873 27.2565 31.6734 27.2985 31.6676C27.3405 31.6619 27.3833 31.6645 27.4243 31.6753C27.506 31.6972 27.5757 31.7506 27.6183 31.8237C27.6608 31.8968 27.6728 31.9838 27.6515 32.0657C27.5157 32.5903 27.3946 33.1067 27.2896 33.6054C27.2827 33.6389 27.2704 33.671 27.2532 33.7006Z" fill="#F9DBAF"/>
<path d="M30.1787 28.2072C30.1395 28.275 30.0768 28.3261 30.0024 28.3509C29.9281 28.3756 29.8473 28.3723 29.7752 28.3415C29.7031 28.3108 29.6448 28.2547 29.6113 28.1839C29.5777 28.1131 29.5712 28.0325 29.593 27.9572C29.6754 27.6714 29.7658 27.3925 29.8607 27.1298C29.974 26.8156 30.0886 26.4784 30.2011 26.1226C30.2132 26.0817 30.2333 26.0435 30.2603 26.0105C30.2873 25.9774 30.3206 25.95 30.3583 25.93C30.396 25.91 30.4373 25.8977 30.4798 25.8938C30.5223 25.8899 30.5652 25.8946 30.6058 25.9075C30.6465 25.9204 30.6842 25.9413 30.7167 25.969C30.7492 25.9967 30.7759 26.0306 30.7951 26.0687C30.8144 26.1068 30.8258 26.1484 30.8288 26.1909C30.8318 26.2335 30.8262 26.2763 30.8124 26.3167C30.6967 26.6806 30.5802 27.0256 30.4644 27.3473C30.3743 27.5971 30.2884 27.8627 30.2093 28.1356C30.2021 28.1606 30.1918 28.1847 30.1787 28.2072Z" fill="#F9DBAF"/>
<path d="M28.2496 29.9846C28.2097 30.0531 28.1458 30.1044 28.0703 30.1286C27.9948 30.1528 27.913 30.1482 27.8408 30.1157C27.7685 30.0831 27.7108 30.025 27.6788 29.9524C27.6469 29.8799 27.6429 29.7981 27.6677 29.7228C27.7528 29.4645 27.8378 29.2172 27.9229 28.9812C28.0438 28.6435 28.1565 28.2841 28.2573 27.9086C28.2682 27.8679 28.287 27.8298 28.3127 27.7964C28.3383 27.7629 28.3703 27.7349 28.4068 27.7138C28.4433 27.6927 28.4835 27.6791 28.5253 27.6736C28.5671 27.6681 28.6095 27.6708 28.6502 27.6817C28.6909 27.6926 28.729 27.7114 28.7625 27.7371C28.7959 27.7627 28.824 27.7947 28.845 27.8312C28.8661 27.8677 28.8798 27.9079 28.8853 27.9497C28.8908 27.9915 28.888 28.0339 28.8771 28.0746C28.7718 28.4675 28.6542 28.8456 28.5267 29.1986C28.4438 29.4282 28.3609 29.67 28.2782 29.9222C28.2709 29.944 28.2613 29.9649 28.2496 29.9846Z" fill="#F9DBAF"/>
<path d="M31.1565 24.8091C31.1177 24.8764 31.0558 24.9272 30.9824 24.9523C30.9089 24.9774 30.8289 24.975 30.757 24.9456C30.6852 24.9161 30.6265 24.8617 30.5918 24.7922C30.5571 24.7228 30.5487 24.6431 30.5683 24.568C30.7344 23.928 30.8787 23.3028 30.9964 22.7103C31.013 22.6268 31.062 22.5534 31.1328 22.5061C31.2035 22.4589 31.2901 22.4416 31.3736 22.4582C31.457 22.4748 31.5304 22.5239 31.5777 22.5946C31.625 22.6654 31.6422 22.752 31.6256 22.8354C31.5054 23.4401 31.3585 24.0776 31.1893 24.7292C31.182 24.7572 31.171 24.7841 31.1565 24.8091Z" fill="#F9DBAF"/>
<path d="M32.4919 19.6009C32.3878 20.1149 32.2608 20.6491 32.1176 21.1923C32.1121 21.2201 32.1018 21.2468 32.087 21.271C32.0517 21.3316 31.9977 21.3792 31.9331 21.4067C31.8686 21.4342 31.7968 21.44 31.7286 21.4233C31.6878 21.4127 31.6495 21.3941 31.6159 21.3687C31.5823 21.3432 31.554 21.3114 31.5327 21.275C31.5114 21.2387 31.4975 21.1984 31.4917 21.1567C31.486 21.1149 31.4885 21.0724 31.4992 21.0316C31.6547 20.4287 31.7906 19.8405 31.9061 19.2812C32.1137 19.3634 32.3104 19.4708 32.4919 19.6009Z" fill="#EDB88E"/>
<path d="M29.2444 26.2711C29.2064 26.3374 29.1459 26.3879 29.0739 26.4136C29.0019 26.4393 28.9231 26.4384 28.8517 26.4111C28.7803 26.3838 28.7209 26.3319 28.6844 26.2648C28.6479 26.1976 28.6365 26.1196 28.6524 26.0448C28.7807 25.4377 28.9319 24.8017 29.1043 24.1575C29.1263 24.0753 29.18 24.0052 29.2537 23.9626C29.3274 23.9201 29.4149 23.9086 29.4971 23.9306C29.5793 23.9526 29.6494 24.0063 29.6919 24.08C29.7345 24.1537 29.746 24.2412 29.724 24.3234C29.5542 24.9576 29.4051 25.5816 29.2796 26.178C29.2727 26.2107 29.2609 26.242 29.2444 26.2711Z" fill="#F9DBAF"/>
<path d="M30.0575 23.1292C30.0184 23.1983 29.9552 23.2504 29.8799 23.2756C29.8046 23.3007 29.7227 23.297 29.6499 23.2653C29.5772 23.2335 29.5188 23.1759 29.4861 23.1036C29.4534 23.0313 29.4486 22.9494 29.4727 22.8738C29.68 22.2004 29.8929 21.5808 30.1061 21.032C30.1369 20.9526 30.1979 20.8888 30.2757 20.8544C30.3536 20.8201 30.4419 20.8181 30.5213 20.8489C30.6006 20.8796 30.6644 20.9407 30.6988 21.0185C30.7331 21.0964 30.7351 21.1847 30.7043 21.264C30.4968 21.7987 30.2886 22.4037 30.0861 23.0624C30.0792 23.0857 30.0696 23.1081 30.0575 23.1292Z" fill="#F9DBAF"/>
<path d="M28.8219 33.7447C28.6056 34.4272 28.386 35.0449 28.1656 35.5807C28.1605 35.5948 28.1539 35.6084 28.1459 35.6212C28.1048 35.6908 28.0388 35.7422 27.9613 35.7653C27.8838 35.7883 27.8005 35.7813 27.7279 35.7455C27.6554 35.7097 27.5991 35.6479 27.5702 35.5723C27.5414 35.4968 27.5421 35.4131 27.5723 35.3381C27.6954 35.0351 27.8186 34.7062 27.9419 34.3515L27.9435 34.3487C28.1969 34.0344 28.4202 33.6971 28.6104 33.3411L28.6132 33.3427C28.6941 33.3685 28.7615 33.4252 28.8006 33.5006C28.8397 33.5759 28.8474 33.6637 28.8219 33.7447Z" fill="#EDB88E"/>
<path d="M29.7963 29.9856C29.6738 30.589 29.5278 31.2269 29.3594 31.8779C29.3516 31.9061 29.3408 31.9334 29.3272 31.9593C29.2862 32.0312 29.2185 32.084 29.1387 32.1061C29.1795 31.9778 29.2191 31.845 29.2543 31.7135C29.4403 31.027 29.5269 30.3174 29.5115 29.6064C29.5221 29.606 29.5327 29.6071 29.5429 29.6097C29.6263 29.626 29.6999 29.6748 29.7474 29.7452C29.7949 29.8157 29.8125 29.9022 29.7963 29.9856Z" fill="#EDB88E"/>
<path d="M30.8114 26.3162C30.6976 26.6802 30.5791 27.0266 30.4634 27.3487C30.3752 27.5978 30.2889 27.8628 30.2093 28.1354C30.1832 28.2141 30.1277 28.2796 30.0543 28.3183C29.981 28.357 29.8955 28.3657 29.8158 28.3427C29.7362 28.3197 29.6685 28.2667 29.627 28.1949C29.5855 28.1231 29.5735 28.0381 29.5934 27.9576C29.6766 27.6723 29.7666 27.3946 29.8601 27.13C29.8806 27.0752 29.9011 27.0204 29.9189 26.964L29.9205 26.9612C29.965 26.8906 30.009 26.8271 30.0591 26.7597C30.2597 26.4909 30.4405 26.2078 30.5999 25.9126L30.6027 25.9143C30.643 25.9267 30.6804 25.947 30.7128 25.974C30.7451 26.001 30.7718 26.0342 30.7912 26.0716C30.8106 26.109 30.8224 26.1499 30.8259 26.1919C30.8293 26.2339 30.8244 26.2761 30.8114 26.3162Z" fill="#EDB88E"/>
<path d="M31.5035 22.5186C31.5515 22.5541 31.5885 22.6026 31.6101 22.6583C31.6317 22.7141 31.637 22.7748 31.6254 22.8335C31.5057 23.4385 31.3597 24.0764 31.1869 24.7285C31.1814 24.7564 31.1711 24.783 31.1563 24.8072C31.1278 24.8537 31.0897 24.8936 31.0444 24.924C31.1201 24.7159 31.1863 24.4986 31.247 24.278C31.4029 23.704 31.489 23.1133 31.5035 22.5186Z" fill="#EDB88E"/>
<path d="M25.9056 35.8834C25.8329 35.5535 25.7901 35.2178 25.7777 34.8802C25.7742 34.7952 25.7371 34.7151 25.6745 34.6574C25.612 34.5998 25.529 34.5693 25.444 34.5728C25.359 34.5763 25.2789 34.6134 25.2212 34.6759C25.1636 34.7385 25.1331 34.8214 25.1366 34.9064C25.1502 35.2886 25.1991 35.6687 25.2826 36.0419C25.4949 36.0096 25.7036 35.9565 25.9056 35.8834Z" fill="#F9DBAF"/>
<path d="M25.9057 35.8837C25.9523 36.1139 26.0272 36.3376 26.1287 36.5495C26.1524 36.5967 26.164 36.6491 26.1626 36.7019C26.1612 36.7547 26.1467 36.8063 26.1206 36.8522L26.1109 36.8689C25.8123 36.6931 25.545 36.4687 25.3202 36.2049C25.3061 36.1523 25.2936 36.097 25.2811 36.0416C25.4941 36.01 25.7033 35.9571 25.9057 35.8837Z" fill="#EDB88E"/>
<path d="M9.01534 29.7013L5.15538 29.5247C4.85469 29.5109 4.62782 29.2623 4.64159 28.9616L4.70847 27.5001C4.76192 26.3323 5.48652 25.6578 6.48647 25.7035L6.50046 25.7042C7.63327 25.756 8.18033 26.664 8.13009 27.7618L8.09264 28.58L9.06463 28.6244C9.36531 28.6382 9.59218 28.8868 9.57842 29.1875C9.56466 29.4882 9.31603 29.7151 9.01534 29.7013ZM7.13465 28.5361L7.17369 27.683C7.19833 27.1446 6.89107 26.8152 6.47151 26.796L6.45753 26.7953C5.97503 26.7733 5.70094 27.0971 5.6763 27.6355L5.63821 28.4676L7.13465 28.5361Z" fill="white"/>
<path d="M9.97337 24.6867C9.88331 24.9739 9.585 25.1298 9.29779 25.0398L5.65089 23.8962C5.36368 23.8061 5.2078 23.5078 5.29786 23.2206L6.11053 20.629C6.19013 20.3752 6.46211 20.2331 6.71593 20.3127C6.96974 20.3922 7.10519 20.6621 7.0256 20.9159L6.37211 22.9999L7.32057 23.2973L7.8798 21.5139C7.9594 21.2601 8.23138 21.118 8.4852 21.1976C8.73901 21.2772 8.87446 21.5471 8.79487 21.8009L8.23563 23.5843L9.21749 23.8922L9.88145 21.7748C9.96104 21.521 10.233 21.3789 10.4868 21.4585C10.7407 21.5381 10.8761 21.808 10.7965 22.0618L9.97337 24.6867Z" fill="white"/>
<path d="M10.6046 20.9689C10.5404 20.9265 10.4916 20.8607 10.4466 20.789L8.17114 17.2371C8.01488 16.9911 8.00025 16.7213 8.16239 16.4761L8.19713 16.4235C8.35927 16.1783 8.60939 16.0919 8.89691 16.1393L13.0563 16.8416C13.1398 16.8549 13.2098 16.876 13.2682 16.9146C13.5076 17.0729 13.5768 17.3871 13.4185 17.6265C13.2795 17.8368 13.0642 17.8958 12.8233 17.854L11.9996 17.7038L10.8106 19.5023L11.2929 20.2324C11.4179 20.4241 11.4226 20.6454 11.2991 20.8323C11.1447 21.0659 10.8382 21.1234 10.6046 20.9689ZM10.2365 18.6445L10.9854 17.5117L9.26205 17.1863L10.2365 18.6445Z" fill="white"/>
<path d="M13.9425 16.089L11.4881 13.0594C11.2987 12.8255 11.3338 12.4907 11.5677 12.3013L11.6547 12.2308C11.8559 12.0677 12.0549 12.0687 12.2881 12.123L15.622 12.9356L14.0313 10.9721C13.8462 10.7436 13.8813 10.4089 14.1098 10.2238C14.3382 10.0387 14.673 10.0739 14.858 10.3023L17.3124 13.3319C17.5019 13.5658 17.4667 13.9005 17.2329 14.09L17.2057 14.112C17.0044 14.2751 16.8054 14.2741 16.5723 14.2198L13.1168 13.3795L14.7692 15.4192C14.9543 15.6476 14.9192 15.9824 14.6907 16.1675C14.4623 16.3525 14.1275 16.3174 13.9425 16.089Z" fill="white"/>
<path d="M19.4435 12.2625L18.1193 9.12123L17.1646 9.52366C16.9131 9.6297 16.6196 9.5103 16.5136 9.25874C16.4076 9.00718 16.527 8.71376 16.7785 8.60771L19.6812 7.38412C19.9327 7.27808 20.2261 7.39748 20.3322 7.64904C20.4382 7.9006 20.3188 8.19403 20.0673 8.30007L19.1126 8.70249L20.4368 11.8438C20.5537 12.1212 20.4269 12.4329 20.1495 12.5498C19.8721 12.6668 19.5604 12.5399 19.4435 12.2625Z" fill="white"/>
<path d="M24.7546 11.2884C23.448 11.446 22.5608 10.8127 22.3881 9.38106L22.1124 7.09463C22.0763 6.7958 22.2841 6.53101 22.583 6.49497C22.8818 6.45893 23.1466 6.66671 23.1826 6.96555L23.455 9.22418C23.5506 10.0164 23.9962 10.3787 24.6494 10.2999C25.3027 10.2211 25.6511 9.7772 25.558 9.00579L25.2814 6.71241C25.2454 6.41358 25.4532 6.14879 25.752 6.11275C26.0508 6.0767 26.3156 6.28449 26.3516 6.58333L26.6232 8.83501C26.8009 10.3083 26.0611 11.1308 24.7546 11.2884Z" fill="white"/>
<path d="M29.9226 11.3246C29.2873 11.2192 28.6771 10.9194 28.2025 10.4434C28.0989 10.3411 28.0412 10.1754 28.0687 10.0097C28.1144 9.73345 28.3709 9.556 28.6471 9.60179C28.7853 9.62468 28.8739 9.68905 28.935 9.74884C29.2563 10.0788 29.6294 10.311 30.099 10.3888C30.534 10.4609 30.8251 10.3318 30.872 10.0486L30.8743 10.0348C30.919 9.76551 30.7761 9.59992 30.0025 9.25881C29.07 8.8488 28.4862 8.4753 28.6453 7.5154L28.6476 7.50159C28.793 6.62456 29.5935 6.16124 30.581 6.32493C31.168 6.42223 31.6539 6.65887 32.0432 7.00722C32.1491 7.09573 32.2425 7.26022 32.2081 7.46739C32.1623 7.74362 31.9059 7.92107 31.6296 7.87528C31.526 7.85811 31.4478 7.81675 31.3729 7.75467C31.055 7.48912 30.743 7.31677 30.4116 7.26183C30.0041 7.19429 29.7591 7.34526 29.7202 7.58005L29.7179 7.59386C29.6653 7.91153 29.8553 8.04946 30.6554 8.40205C31.5936 8.82011 32.0877 9.26388 31.9481 10.1064L31.9458 10.1202C31.7867 11.0801 30.9654 11.4974 29.9226 11.3246Z" fill="white"/>
</g>
<defs>
<clipPath id="clip0_1436_31148">
<rect width="51" height="49" rx="24.5" fill="white"/>
</clipPath>
<clipPath id="clip1_1436_31148">
<rect width="42" height="42" fill="white" transform="translate(2.6886 4.37891)"/>
</clipPath>
</defs>
</svg>
