<svg width="53" height="50" viewBox="0 0 53 50" fill="none" xmlns="http://www.w3.org/2000/svg">
<g clip-path="url(#clip0_1436_31267)">
<circle cx="25.6395" cy="24.4706" r="24.951" fill="#158466"/>
</g>
<g clip-path="url(#clip1_1436_31267)">
<path d="M35.0219 31.7122C35.0219 34.0108 34.1088 36.2152 32.4835 37.8405C30.8582 39.4658 28.6538 40.3789 26.3553 40.3789C24.0567 40.3789 21.8523 39.4658 20.227 37.8405C18.6017 36.2152 17.6886 34.0108 17.6886 31.7122C17.6886 25.7122 26.3553 16.3789 26.3553 16.3789C26.3553 16.3789 35.0219 25.7122 35.0219 31.7122Z" fill="#FFB051"/>
<path d="M26.3552 16.3789C26.3552 16.3789 25.6716 17.1152 24.6885 18.3067C27.2061 21.3582 31.6885 27.3972 31.6885 31.7122C31.688 33.7212 30.9896 35.6675 29.7128 37.2185C28.436 38.7695 26.66 39.8287 24.6885 40.215C25.9441 40.4629 27.239 40.4292 28.48 40.1165C29.721 39.8039 30.8773 39.2199 31.8655 38.4067C32.8538 37.5936 33.6494 36.5714 34.1952 35.4138C34.741 34.2562 35.0233 32.992 35.0219 31.7122C35.0219 25.7122 26.3552 16.3789 26.3552 16.3789Z" fill="#FC971E"/>
<path d="M9.86306 28.6557L5.9412 28.5724C5.63569 28.5659 5.39926 28.3192 5.40575 28.0137C5.41225 27.7082 5.65894 27.4718 5.96445 27.4783L9.4387 27.5521L9.48173 25.5272C9.48762 25.2501 9.71254 25.0346 9.98963 25.0405C10.2667 25.0463 10.4823 25.2713 10.4764 25.5484L10.4218 28.1203C10.4153 28.4258 10.1686 28.6622 9.86306 28.6557Z" fill="white"/>
<path d="M11.3316 22.1874C10.8699 23.6513 9.44742 24.3576 8.09874 23.9322L8.08518 23.9279C6.7365 23.5025 5.96742 22.0901 6.42915 20.6262C6.89089 19.1623 8.31337 18.456 9.66205 18.8814L9.6756 18.8856C11.0243 19.311 11.7934 20.7235 11.3316 22.1874ZM10.3735 21.8703C10.6386 21.0299 10.1583 20.2376 9.34499 19.981L9.33144 19.9768C8.51816 19.7203 7.65232 20.1029 7.38725 20.9433C7.12218 21.7837 7.60252 22.576 8.41579 22.8325L8.42935 22.8368C9.24262 23.0933 10.1085 22.7107 10.3735 21.8703Z" fill="white"/>
<path d="M12.3303 18.5848L8.39057 17.2827C8.327 17.2603 8.25223 17.2291 8.20176 17.1898C7.96064 17.0021 7.93837 16.6605 8.12609 16.4194C8.28325 16.2175 8.53883 16.1553 8.76192 16.2389L11.7743 17.3324L10.0024 14.6919C9.85288 14.4675 9.83057 14.207 10.0008 13.9883L10.0532 13.921C10.2235 13.7023 10.4759 13.6557 10.7358 13.7499L13.7301 14.8203L11.9314 12.168C11.8068 11.981 11.7801 11.726 11.946 11.5129C12.1294 11.2774 12.4572 11.2265 12.6927 11.4098C12.7432 11.4491 12.7974 11.5183 12.8348 11.5745L15.0632 15.0746C15.2207 15.3234 15.2287 15.5907 15.0672 15.7982L14.9973 15.8879C14.8358 16.0954 14.5846 16.152 14.2992 16.0559L11.4482 15.0791L13.0943 17.6035C13.2574 17.8566 13.2642 18.1141 13.1026 18.3215L13.0328 18.4112C12.8713 18.6187 12.6101 18.6766 12.3303 18.5848Z" fill="white"/>
<path d="M17.5784 12.9722L15.7808 9.48562C15.6407 9.21402 15.7448 8.88854 16.0164 8.74851L18.4924 7.47193C18.7387 7.34492 19.0354 7.43977 19.1625 7.68611C19.2895 7.93244 19.1946 8.2292 18.9483 8.35621L16.9586 9.38203L17.4439 10.3232L19.1493 9.44389C19.3956 9.31688 19.6924 9.41173 19.8194 9.65807C19.9464 9.90441 19.8515 10.2012 19.6052 10.3282L17.8998 11.2074L18.5511 12.4707C18.6911 12.7423 18.5871 13.0678 18.3155 13.2078C18.0439 13.3479 17.7184 13.2438 17.5784 12.9722Z" fill="white"/>
<path d="M21.1055 11.1408C21.0903 11.0641 21.1031 10.9819 21.1229 10.8983L22.0668 6.72124C22.1331 6.43293 22.3177 6.22997 22.6105 6.17224L22.6732 6.15987C22.9661 6.10215 23.2068 6.22128 23.3776 6.46286L25.8361 9.96924C25.8861 10.0391 25.9207 10.1047 25.9345 10.1744C25.9908 10.4602 25.8131 10.7343 25.5272 10.7907C25.2762 10.8401 25.08 10.7267 24.9384 10.5228L24.4595 9.82048L22.3121 10.2438L22.1285 11.1129C22.0791 11.34 21.9226 11.5012 21.6994 11.5452C21.4206 11.6001 21.1604 11.4196 21.1055 11.1408ZM22.5226 9.21721L23.8752 8.95059L22.8814 7.47331L22.5226 9.21721Z" fill="white"/>
<path d="M27.8403 10.2983L28.139 6.85037L27.0911 6.75961C26.815 6.7357 26.6081 6.48952 26.632 6.2134C26.6559 5.93728 26.9021 5.73035 27.1782 5.75427L30.3642 6.03022C30.6403 6.05414 30.8472 6.30032 30.8233 6.57644C30.7994 6.85255 30.5532 7.05949 30.2771 7.03557L29.2293 6.94481L28.9306 10.3927C28.9043 10.6972 28.6427 10.917 28.3382 10.8907C28.0338 10.8643 27.8139 10.6027 27.8403 10.2983Z" fill="white"/>
<g clip-path="url(#clip2_1436_31267)">
<path d="M33.8167 29.4141L32.746 29.5995L33.1886 30.7065C33.1976 30.7065 33.2065 30.7061 33.2154 30.7062C35.4901 30.7205 37.3461 32.5766 37.3605 34.8512C37.3653 35.6132 37.1647 36.3288 36.8109 36.946C36.7018 37.1364 36.4423 37.1723 36.2871 37.0171C36.1446 36.8746 32.9515 33.6815 32.8007 33.5306H32.2607L32.2653 34.6946L32.5105 35.1184C32.5789 35.1869 35.3405 37.9484 35.3535 37.9615C35.5081 38.116 35.4731 38.374 35.2843 38.4841C34.6681 38.8437 33.9521 39.0499 33.1887 39.0499L32.746 40.1565L33.8168 40.342C36.5584 40.0302 38.6886 37.7031 38.6886 34.878C38.6886 32.053 36.5584 29.7258 33.8167 29.4141Z" fill="#EF5350"/>
<path d="M33.7332 40.268C33.3868 39.9581 33.1887 39.5154 33.1887 39.0506C33.1589 39.0506 33.1291 39.0504 33.0992 39.0498C30.8731 39.0029 29.0646 37.1943 29.0177 34.9683C29.0009 34.1714 29.209 33.4233 29.5826 32.7831C29.6928 32.5944 29.9507 32.5594 30.1053 32.7139C30.2176 32.8263 32.4008 35.0094 32.5106 35.1192C32.4902 34.9894 32.4791 34.858 32.4791 34.7257C32.4791 34.2874 32.5947 33.8846 32.8008 33.5314C32.022 32.7527 31.8431 32.5738 31.0498 31.7804C30.895 31.6257 30.9297 31.3662 31.1196 31.2573C31.7297 30.9073 32.4363 30.7073 33.1887 30.7072V30.707C33.1887 30.2422 33.3868 29.7995 33.7332 29.4897L33.8168 29.4148C33.6107 29.3914 33.4012 29.3789 33.1887 29.3789C30.1512 29.3789 27.6888 31.8413 27.6888 34.8788C27.6888 38.1508 30.5345 40.7159 33.8168 40.3428L33.7332 40.268Z" fill="#EF5350"/>
</g>
</g>
<defs>
<clipPath id="clip0_1436_31267">
<rect x="0.688599" y="0.378906" width="51.6228" height="49.0293" rx="24.5146" fill="white"/>
</clipPath>
<clipPath id="clip1_1436_31267">
<rect width="41" height="39.8899" fill="white" transform="translate(4.6886 4.17773)"/>
</clipPath>
<clipPath id="clip2_1436_31267">
<rect width="11" height="11" fill="white" transform="translate(27.6886 29.3789)"/>
</clipPath>
</defs>
</svg>
