<svg width="51" height="50" viewBox="0 0 51 50" fill="none" xmlns="http://www.w3.org/2000/svg">
<g clip-path="url(#clip0_1436_31063)">
<circle cx="24.6395" cy="24.4706" r="24.951" fill="#158466"/>
</g>
<g clip-path="url(#clip1_1436_31063)">
<path d="M33.9857 22.2519V36.5222C33.9857 37.5456 33.1604 38.3792 32.137 38.3792H25.4681C26.4915 38.3792 27.3251 37.5456 27.3251 36.5222V22.2519C27.3251 22.1363 27.3251 22.029 27.3499 21.9135C27.3664 21.8062 27.3911 21.6906 27.4241 21.5916C27.4819 21.3852 27.5727 21.2036 27.6882 21.0303L30.6513 16.5156L33.6225 21.0303C33.7381 21.2036 33.8288 21.3852 33.8866 21.5916C33.9196 21.6906 33.9444 21.8061 33.9609 21.9135C33.9857 22.029 33.9857 22.1363 33.9857 22.2519Z" fill="#628DCD"/>
<path d="M29.1739 13.3789H20.5071C19.6887 13.3789 19.0253 14.0423 19.0253 14.8608V16.5151H30.6557V14.8608C30.6557 14.0423 29.9923 13.3789 29.1739 13.3789Z" fill="#F0F0FC"/>
<path opacity="0.09" d="M30.6593 14.8645V16.5153H27.0195C27.9728 15.8397 28.4028 14.5674 28.0975 13.3789H29.1737C29.9907 13.3789 30.6593 14.0392 30.6593 14.8645Z" fill="black"/>
<path d="M29.1771 14.3125C28.9496 14.3125 28.7639 14.4982 28.7639 14.7257V15.1667C28.7639 15.3942 28.9496 15.5799 29.1771 15.5799C29.4046 15.5799 29.5903 15.3942 29.5903 15.1667V14.7257C29.5903 14.4982 29.4046 14.3125 29.1771 14.3125ZM27.009 14.3125C26.7815 14.3125 26.5958 14.4982 26.5958 14.7257V15.1667C26.5958 15.3942 26.7815 15.5799 27.009 15.5799C27.2365 15.5799 27.4222 15.3942 27.4222 15.1667V14.7257C27.4222 14.4982 27.2365 14.3125 27.009 14.3125ZM24.8409 14.3125C24.6135 14.3125 24.4278 14.4982 24.4278 14.7257V15.1667C24.4278 15.3942 24.6135 15.5799 24.8409 15.5799C25.0684 15.5799 25.2541 15.3942 25.2541 15.1667V14.7257C25.2541 14.4982 25.0684 14.3125 24.8409 14.3125ZM22.6729 14.3125C22.4454 14.3125 22.2597 14.4982 22.2597 14.7257V15.1667C22.2597 15.3942 22.4454 15.5799 22.6729 15.5799C22.9004 15.5799 23.0861 15.3942 23.0861 15.1667V14.7257C23.0861 14.4982 22.9004 14.3125 22.6729 14.3125ZM20.5048 14.3125C20.2773 14.3125 20.0916 14.4982 20.0916 14.7257V15.1667C20.0916 15.3942 20.2773 15.5799 20.5048 15.5799C20.7323 15.5799 20.918 15.3942 20.918 15.1667V14.7257C20.918 14.4982 20.7323 14.3125 20.5048 14.3125ZM29.1771 14.3125C28.9496 14.3125 28.7639 14.4982 28.7639 14.7257V15.1667C28.7639 15.3942 28.9496 15.5799 29.1771 15.5799C29.4046 15.5799 29.5903 15.3942 29.5903 15.1667V14.7257C29.5903 14.4982 29.4046 14.3125 29.1771 14.3125ZM27.009 14.3125C26.7815 14.3125 26.5958 14.4982 26.5958 14.7257V15.1667C26.5958 15.3942 26.7815 15.5799 27.009 15.5799C27.2365 15.5799 27.4222 15.3942 27.4222 15.1667V14.7257C27.4222 14.4982 27.2365 14.3125 27.009 14.3125ZM24.8409 14.3125C24.6135 14.3125 24.4278 14.4982 24.4278 14.7257V15.1667C24.4278 15.3942 24.6135 15.5799 24.8409 15.5799C25.0684 15.5799 25.2541 15.3942 25.2541 15.1667V14.7257C25.2541 14.4982 25.0684 14.3125 24.8409 14.3125ZM22.6729 14.3125C22.4454 14.3125 22.2597 14.4982 22.2597 14.7257V15.1667C22.2597 15.3942 22.4454 15.5799 22.6729 15.5799C22.9004 15.5799 23.0861 15.3942 23.0861 15.1667V14.7257C23.0861 14.4982 22.9004 14.3125 22.6729 14.3125ZM20.5048 14.3125C20.2773 14.3125 20.0916 14.4982 20.0916 14.7257V15.1667C20.0916 15.3942 20.2773 15.5799 20.5048 15.5799C20.7323 15.5799 20.918 15.3942 20.918 15.1667V14.7257C20.918 14.4982 20.7323 14.3125 20.5048 14.3125ZM29.1771 14.3125C28.9496 14.3125 28.7639 14.4982 28.7639 14.7257V15.1667C28.7639 15.3942 28.9496 15.5799 29.1771 15.5799C29.4046 15.5799 29.5903 15.3942 29.5903 15.1667V14.7257C29.5903 14.4982 29.4046 14.3125 29.1771 14.3125ZM27.009 14.3125C26.7815 14.3125 26.5958 14.4982 26.5958 14.7257V15.1667C26.5958 15.3942 26.7815 15.5799 27.009 15.5799C27.2365 15.5799 27.4222 15.3942 27.4222 15.1667V14.7257C27.4222 14.4982 27.2365 14.3125 27.009 14.3125ZM24.8409 14.3125C24.6135 14.3125 24.4278 14.4982 24.4278 14.7257V15.1667C24.4278 15.3942 24.6135 15.5799 24.8409 15.5799C25.0684 15.5799 25.2541 15.3942 25.2541 15.1667V14.7257C25.2541 14.4982 25.0684 14.3125 24.8409 14.3125ZM22.6729 14.3125C22.4454 14.3125 22.2597 14.4982 22.2597 14.7257V15.1667C22.2597 15.3942 22.4454 15.5799 22.6729 15.5799C22.9004 15.5799 23.0861 15.3942 23.0861 15.1667V14.7257C23.0861 14.4982 22.9004 14.3125 22.6729 14.3125ZM20.5048 14.3125C20.2773 14.3125 20.0916 14.4982 20.0916 14.7257V15.1667C20.0916 15.3942 20.2773 15.5799 20.5048 15.5799C20.7323 15.5799 20.918 15.3942 20.918 15.1667V14.7257C20.918 14.4982 20.7323 14.3125 20.5048 14.3125Z" fill="#CBCBD7"/>
<path d="M30.6551 16.5117L27.684 21.0313C27.5729 21.2017 27.484 21.387 27.4247 21.587H15.7924C15.8516 21.387 15.9405 21.2017 16.0591 21.0313L19.0227 16.5117H30.6551Z" fill="#8EC8EE"/>
<path opacity="0.09" d="M30.6511 16.5137L27.6881 21.0284C27.5725 21.2017 27.4818 21.3833 27.424 21.5896H25.2946C26.2767 19.0392 27.8615 17.4711 29.0417 16.5137H30.6511Z" fill="black"/>
<path d="M23.7458 20.0165C24.3931 19.4278 24.5233 18.5168 24.0366 17.9816C23.5499 17.4465 22.6306 17.4899 21.9833 18.0786C21.336 18.6673 21.2058 19.5784 21.6925 20.1135C22.1792 20.6487 23.0985 20.6052 23.7458 20.0165Z" fill="#F0F0FC"/>
<path d="M27.4247 21.5879C27.3876 21.6916 27.3654 21.8027 27.3506 21.9139C27.3284 22.025 27.321 22.1362 27.321 22.2547V36.5248C27.321 37.5472 26.4912 38.377 25.4687 38.377H17.5409C16.5184 38.377 15.6886 37.5472 15.6886 36.5248V22.2547C15.6886 22.1362 15.696 22.025 15.7182 21.9139C15.7331 21.8027 15.7553 21.6916 15.7923 21.5879H27.4247Z" fill="#79B6EF"/>
<path d="M19.9478 27.6986C19.8261 27.6986 19.706 27.6454 19.6246 27.543L18.8226 26.5355C18.6807 26.357 18.7101 26.0975 18.8883 25.9556C19.0668 25.8125 19.3263 25.8428 19.4682 26.0213L20.2702 27.0288C20.412 27.2073 20.3826 27.4668 20.2045 27.6087C20.1284 27.6691 20.0377 27.6986 19.9478 27.6986ZM23.371 27.5252L24.1637 26.5105C24.3039 26.3311 24.2721 26.0716 24.0923 25.9314C23.9122 25.7907 23.6531 25.8229 23.5132 26.0027L22.7205 27.0174C22.5803 27.1968 22.6121 27.4563 22.7919 27.5966C22.8672 27.6554 22.9567 27.684 23.0453 27.684C23.1682 27.684 23.2895 27.6296 23.371 27.5252Z" fill="#DEDEEA"/>
<path d="M17.4093 29.0992C17.4151 30.3386 19.4366 29.6496 19.4366 29.6496L19.9772 27.3926C19.9772 27.3926 17.4044 28.0526 17.4093 29.0992Z" fill="#DEDEEA"/>
<path d="M25.601 29.0613C25.6068 30.3008 23.5789 29.6308 23.5789 29.6308L23.0172 27.3789C23.0172 27.3789 25.5961 28.0148 25.601 29.0613Z" fill="#DEDEEA"/>
<path d="M21.5337 33.7077C23.0392 33.7001 24.2516 32.1077 24.2418 30.1508C24.2321 28.1939 23.0037 26.6136 21.4983 26.6211C19.9929 26.6287 18.7804 28.2211 18.7902 30.178C18.8 32.1349 20.0283 33.7152 21.5337 33.7077Z" fill="#F0F0FC"/>
<path d="M22.4779 28.584C22.2504 28.5886 22.0647 28.7743 22.0647 29.0018C22.0694 29.2293 22.2551 29.4104 22.4825 29.4104C22.71 29.4104 22.891 29.2247 22.891 28.9972C22.891 28.7697 22.7054 28.584 22.4779 28.584ZM20.5281 28.5933C20.3006 28.5979 20.1149 28.779 20.1195 29.0111C20.1195 29.2386 20.3052 29.4197 20.5327 29.4197C20.7602 29.4197 20.9459 29.234 20.9413 29.0065C20.9413 28.779 20.7555 28.5933 20.5281 28.5933ZM22.4779 28.584C22.2504 28.5886 22.0647 28.7743 22.0647 29.0018C22.0694 29.2293 22.2551 29.4104 22.4825 29.4104C22.71 29.4104 22.891 29.2247 22.891 28.9972C22.891 28.7697 22.7054 28.584 22.4779 28.584ZM20.5281 28.5933C20.3006 28.5979 20.1149 28.779 20.1195 29.0111C20.1195 29.2386 20.3052 29.4197 20.5327 29.4197C20.7602 29.4197 20.9459 29.234 20.9413 29.0065C20.9413 28.779 20.7555 28.5933 20.5281 28.5933ZM22.4779 28.584C22.2504 28.5886 22.0647 28.7743 22.0647 29.0018C22.0694 29.2293 22.2551 29.4104 22.4825 29.4104C22.71 29.4104 22.891 29.2247 22.891 28.9972C22.891 28.7697 22.7054 28.584 22.4779 28.584ZM20.5281 28.5933C20.3006 28.5979 20.1149 28.779 20.1195 29.0111C20.1195 29.2386 20.3052 29.4197 20.5327 29.4197C20.7602 29.4197 20.9459 29.234 20.9413 29.0065C20.9413 28.779 20.7555 28.5933 20.5281 28.5933Z" fill="#B9B9C5"/>
<path d="M23.6028 32.4482C23.1028 33.2182 22.362 33.7068 21.5269 33.7107C20.6917 33.7146 19.9402 33.233 19.4391 32.4615C19.836 31.9684 20.6205 31.6331 21.5171 31.6289C22.4198 31.6247 23.2013 31.9527 23.6028 32.4482Z" fill="#F48D8A"/>
<path opacity="0.09" d="M27.4239 21.5898C27.3909 21.6889 27.3662 21.8044 27.3497 21.9118C27.3249 22.0273 27.3249 22.1346 27.3249 22.2502V36.5205C27.3249 37.5439 26.4913 38.3775 25.4679 38.3775H22.1169C24.1226 36.8919 24.7416 35.4145 25.0964 33.1943C25.699 29.3977 23.7016 27.6314 24.8159 23.125C24.9479 22.5803 25.113 22.0685 25.2946 21.5898H27.4239Z" fill="black"/>
<path d="M30.479 41.8316L29.4335 42.2773L29 41.2603L30.1808 40.757C30.4689 40.6341 30.6029 40.301 30.4801 40.0129C30.3573 39.7248 30.0245 39.5907 29.7359 39.7136L28.0333 40.4393C27.895 40.4983 27.7858 40.6098 27.7296 40.7494C27.6735 40.8889 27.675 41.0451 27.734 41.1835L29.5248 45.384C29.6167 45.5996 29.8263 45.7289 30.0468 45.7289C30.1209 45.7289 30.1964 45.7143 30.269 45.6833C30.5571 45.5604 30.6911 45.2273 30.5683 44.9392L29.8784 43.3209L30.9239 42.8752C31.212 42.7523 31.346 42.4192 31.2232 42.1311C31.1003 41.8428 30.7674 41.7088 30.479 41.8316ZM40.6929 36.8095C40.4342 36.6326 40.0813 36.699 39.9045 36.9576L39.1406 38.0748L38.1957 37.4287L38.8797 36.4283C39.0565 36.1698 38.9901 35.8168 38.7316 35.64C38.473 35.4632 38.1201 35.5296 37.9433 35.7881L37.2593 36.7884L36.3144 36.1422L37.0783 35.025C37.2551 34.7665 37.1888 34.4136 36.9303 34.2368C36.6716 34.0598 36.3187 34.1263 36.1419 34.3848L35.0579 35.9702C34.8811 36.2287 34.9475 36.5817 35.206 36.7585L38.9685 39.3312C39.0635 39.3961 39.1752 39.4302 39.2886 39.4302C39.3235 39.4302 39.3586 39.427 39.3933 39.4204C39.5412 39.3927 39.6719 39.3073 39.7569 39.1831L40.8409 37.5978C41.0177 37.3391 40.9514 36.9862 40.6929 36.8095ZM43.2631 33.0506C43.0044 32.8738 42.6516 32.9401 42.4748 33.1987L41.7108 34.3159L40.7659 33.6698L41.4499 32.6694C41.6267 32.4109 41.5604 32.058 41.3018 31.8812C41.0431 31.7043 40.6903 31.7707 40.5135 32.0292L39.8295 33.0295L38.8847 32.3834L39.6486 31.2662C39.8254 31.0077 39.7591 30.6548 39.5006 30.478C39.242 30.3011 38.8891 30.3675 38.7122 30.626L37.6282 32.2114C37.5433 32.3356 37.5112 32.4884 37.5389 32.6362C37.5667 32.7841 37.6521 32.9148 37.7762 32.9997L41.5387 35.5724C41.6367 35.6394 41.7481 35.6715 41.8584 35.6715C42.0394 35.6715 42.2172 35.5851 42.3271 35.4245L43.4112 33.8391C43.588 33.5803 43.5216 33.2274 43.2631 33.0506ZM37.3416 41.3253C37.2903 41.5978 37.0522 41.7878 36.7849 41.7878C36.7501 41.7878 36.7148 41.7846 36.6794 41.778L34.4568 41.3602L35.2713 42.4027C35.4642 42.6495 35.4205 43.0059 35.1736 43.1987C35.07 43.2797 34.9469 43.319 34.8248 43.319C34.6562 43.319 34.4894 43.2442 34.3775 43.101L31.5453 39.4764C31.3524 39.2295 31.3961 38.8732 31.643 38.6803L31.6442 38.6794L32.6073 37.9268C33.4026 37.3054 34.5364 37.4228 35.1349 38.1888C35.428 38.5639 35.5483 39.0373 35.4735 39.5216C35.4276 39.8185 35.3117 40.0959 35.1374 40.3341L36.889 40.6634C37.1968 40.721 37.3993 41.0175 37.3416 41.3253ZM34.2411 38.8871C34.0314 38.6187 33.6031 38.5881 33.3058 38.8205L32.7909 39.2229C32.9424 39.4157 33.1021 39.6191 33.1788 39.7172C33.2689 39.8325 33.4238 40.0291 33.5688 40.2127C33.757 40.0641 33.96 39.9041 34.0796 39.8108C34.2252 39.6969 34.3247 39.5284 34.3525 39.3483C34.379 39.1767 34.3394 39.013 34.2411 38.8871Z" fill="white"/>
<path d="M8.18855 27.3666L4.30316 26.6544C3.99716 26.5983 3.79956 26.312 3.85565 26.006L4.11131 24.6113C4.39827 23.0457 5.67107 22.1611 7.07294 22.418L7.08718 22.4206C8.48905 22.6776 9.37955 23.9588 9.09259 25.5243L8.83693 26.9191C8.78084 27.2251 8.49455 27.4227 8.18855 27.3666ZM7.94823 26.1899L8.10345 25.343C8.2678 24.4464 7.7738 23.7307 6.8914 23.5689L6.87717 23.5663C5.99477 23.4046 5.2648 23.896 5.10045 24.7926L4.94523 25.6394L7.94823 26.1899Z" fill="white"/>
<path d="M9.19438 22.34C9.12339 22.304 9.06547 22.2422 9.01083 22.174L6.25236 18.798C6.06269 18.564 6.01559 18.2888 6.15289 18.0177L6.18231 17.9596C6.31962 17.6885 6.56613 17.5701 6.86695 17.5846L11.2207 17.8111C11.3081 17.8148 11.3824 17.8281 11.447 17.8608C11.7116 17.9949 11.8199 18.3093 11.6859 18.5739C11.5682 18.8062 11.3542 18.8925 11.1019 18.8782L10.2384 18.822L9.23147 20.8098L9.81349 21.502C9.96461 21.6839 9.99579 21.9106 9.89118 22.1171C9.76041 22.3753 9.45254 22.4707 9.19438 22.34ZM8.54008 19.9973L9.17428 18.7452L7.36632 18.6161L8.54008 19.9973Z" fill="white"/>
<path d="M12.1054 17.0999L8.98191 14.5424C8.74121 14.3453 8.70673 13.9991 8.90381 13.7584C9.1009 13.5177 9.44705 13.4833 9.68775 13.6803L12.8112 16.2379C13.0519 16.4349 13.0864 16.7811 12.8893 17.0218C12.6922 17.2625 12.3461 17.297 12.1054 17.0999Z" fill="white"/>
<path d="M13.662 15.0903L11.1704 11.9694C10.9763 11.7262 11.0151 11.3805 11.2582 11.1864L12.6321 10.0896C13.1353 9.68787 13.6382 9.51777 14.106 9.57021C14.5025 9.61468 14.8695 9.83085 15.1674 10.204L15.1764 10.2153C15.6729 10.8372 15.6689 11.47 15.3463 12.0515L16.5381 12.3035C16.7086 12.3433 16.8374 12.3886 16.9457 12.5243C17.1398 12.7674 17.0627 13.0882 16.8535 13.2552C16.6556 13.4132 16.4488 13.4209 16.2432 13.3721L14.5375 12.9749L13.8421 13.5301L14.5327 14.3952C14.7268 14.6383 14.688 14.984 14.4449 15.1781C14.2018 15.3722 13.8561 15.3334 13.662 15.0903ZM13.2282 12.7612L14.1102 12.0571C14.5343 11.7185 14.5968 11.2983 14.3305 10.9647L14.3215 10.9534C14.0236 10.5802 13.61 10.5956 13.186 10.9342L12.321 11.6248L13.2282 12.7612Z" fill="white"/>
<path d="M19.2728 11.2637L18.6945 9.94523L16.305 8.56806C16.1885 8.50064 16.0832 8.40464 16.0193 8.25888C15.9001 7.98724 16.0295 7.6698 16.3144 7.54483C16.5463 7.44312 16.7472 7.50506 16.9545 7.63535L18.7928 8.7645L19.2211 6.62529C19.2657 6.38456 19.3657 6.19846 19.5777 6.10547C19.8891 5.96888 20.1705 6.10614 20.2926 6.3844C20.3536 6.52353 20.3426 6.67847 20.317 6.80029L19.7061 9.4778L20.2931 10.8161C20.4181 11.101 20.2916 11.4251 20.0068 11.55C19.7219 11.675 19.3978 11.5486 19.2728 11.2637Z" fill="white"/>
</g>
<defs>
<clipPath id="clip0_1436_31063">
<rect width="51" height="49" rx="24.5" fill="white"/>
</clipPath>
<clipPath id="clip1_1436_31063">
<rect width="42" height="42" fill="white" transform="translate(2.6886 4.37891)"/>
</clipPath>
</defs>
</svg>
