<svg width="53" height="50" viewBox="0 0 53 50" fill="none" xmlns="http://www.w3.org/2000/svg">
<g clip-path="url(#clip0_1436_31288)">
<circle cx="25.6395" cy="24.4706" r="24.951" fill="#158466"/>
</g>
<path d="M28.8341 15.3789H23.7141C22.6914 15.3789 21.9566 16.3629 22.2472 17.3435L22.9257 19.6334H29.6225L30.301 17.3435C30.5915 16.3629 29.8567 15.3789 28.8341 15.3789Z" fill="#FF810D"/>
<path d="M22.2472 17.344L22.9256 19.6339H29.6225L30.301 17.344C30.4012 17.006 30.3794 16.6675 30.266 16.3691H22.2822C22.1688 16.6675 22.147 17.006 22.2472 17.344Z" fill="#FF810D"/>
<path d="M28.834 15.3789H25.52V19.6334H29.6224L30.3009 17.3435C30.5914 16.3629 29.8566 15.3789 28.834 15.3789Z" fill="#FF810D"/>
<path d="M22.8859 20.2637H29.6615V24.1242H22.8859V20.2637Z" fill="url(#paint0_linear_1436_31288)"/>
<path d="M22.8859 20.2637H29.6615V24.1242H22.8859V20.2637Z" fill="url(#paint1_linear_1436_31288)"/>
<path d="M29.7404 20.9722H22.8072C22.2415 20.9722 21.783 20.5137 21.783 19.948C21.783 19.3824 22.2415 18.9238 22.8072 18.9238H29.7404C30.306 18.9238 30.7646 19.3824 30.7646 19.948C30.7646 20.5137 30.306 20.9722 29.7404 20.9722Z" fill="url(#paint2_linear_1436_31288)"/>
<path d="M29.7408 18.9238H26.6118V20.9723H29.7408C30.3064 20.9723 30.765 20.5137 30.765 19.9481C30.765 19.3824 30.3064 18.9238 29.7408 18.9238Z" fill="url(#paint3_linear_1436_31288)"/>
<path d="M29.2094 22.2012H23.3385C22.6723 22.2012 22.0842 22.6363 21.8894 23.2734L18.892 33.075C18.4354 34.5684 18.7589 36.1913 19.7532 37.3955L20.8413 38.7133C21.7127 39.7685 23.0097 40.3796 24.3782 40.3796H28.1697C29.5382 40.3796 30.8352 39.7685 31.7066 38.7133L32.7948 37.3955C33.7892 36.1913 34.1126 34.5684 33.6559 33.075L30.6586 23.2734C30.4637 22.6363 29.8756 22.2012 29.2094 22.2012Z" fill="url(#paint4_linear_1436_31288)"/>
<path d="M32.5821 32.9632C32.2841 31.9887 31.689 31.1318 30.8802 30.5121L27.9272 28.2498C26.9519 27.5027 25.5966 27.5027 24.6213 28.2498L21.6684 30.5121C20.8595 31.1318 20.2645 31.9888 19.9665 32.9632C19.5763 34.2393 19.8527 35.626 20.7024 36.655L21.6322 37.7811C22.3768 38.6827 23.485 39.2048 24.6543 39.2048H27.8942C29.0635 39.2048 30.1718 38.6827 30.9164 37.781L31.8462 36.655C32.6959 35.626 32.9723 34.2393 32.5821 32.9632Z" fill="url(#paint5_linear_1436_31288)"/>
<path d="M26.1192 29.9422C26.3173 29.9422 26.4779 29.7815 26.4779 29.5834C26.4779 29.3852 26.3173 29.2246 26.1192 29.2246C25.921 29.2246 25.7604 29.3852 25.7604 29.5834C25.7604 29.7815 25.921 29.9422 26.1192 29.9422Z" fill="url(#paint6_linear_1436_31288)"/>
<path d="M26.8999 34.7019C27.098 34.7019 27.2586 34.5413 27.2586 34.3431C27.2586 34.145 27.098 33.9844 26.8999 33.9844C26.7017 33.9844 26.5411 34.145 26.5411 34.3431C26.5411 34.5413 26.7017 34.7019 26.8999 34.7019Z" fill="url(#paint7_linear_1436_31288)"/>
<path d="M28.8997 32.29C29.2586 32.29 29.5496 31.9991 29.5496 31.6401C29.5496 31.2812 29.2586 30.9902 28.8997 30.9902C28.5408 30.9902 28.2498 31.2812 28.2498 31.6401C28.2498 31.9991 28.5408 32.29 28.8997 32.29Z" fill="url(#paint8_linear_1436_31288)"/>
<path d="M24.9462 33.2353C25.3051 33.2353 25.5961 32.9444 25.5961 32.5854C25.5961 32.2265 25.3051 31.9355 24.9462 31.9355C24.5873 31.9355 24.2963 32.2265 24.2963 32.5854C24.2963 32.9444 24.5873 33.2353 24.9462 33.2353Z" fill="url(#paint9_linear_1436_31288)"/>
<path d="M27.7057 31.1895C27.8551 31.1895 27.9762 31.0684 27.9762 30.919C27.9762 30.7696 27.8551 30.6484 27.7057 30.6484C27.5562 30.6484 27.4351 30.7696 27.4351 30.919C27.4351 31.0684 27.5562 31.1895 27.7057 31.1895Z" fill="url(#paint10_linear_1436_31288)"/>
<path d="M22.4236 33.9519C22.6217 33.9519 22.7824 33.7913 22.7824 33.5931C22.7824 33.395 22.6217 33.2344 22.4236 33.2344C22.2254 33.2344 22.0648 33.395 22.0648 33.5931C22.0648 33.7913 22.2254 33.9519 22.4236 33.9519Z" fill="url(#paint11_linear_1436_31288)"/>
<path d="M22.3354 35.3438C22.4848 35.3438 22.6059 35.2227 22.6059 35.0733C22.6059 34.9239 22.4848 34.8027 22.3354 34.8027C22.1859 34.8027 22.0648 34.9239 22.0648 35.0733C22.0648 35.2227 22.1859 35.3438 22.3354 35.3438Z" fill="url(#paint12_linear_1436_31288)"/>
<path d="M30.2126 35.0762C30.362 35.0762 30.4832 34.9551 30.4832 34.8057C30.4832 34.6563 30.362 34.5352 30.2126 34.5352C30.0632 34.5352 29.9421 34.6563 29.9421 34.8057C29.9421 34.9551 30.0632 35.0762 30.2126 35.0762Z" fill="url(#paint13_linear_1436_31288)"/>
<path d="M18.8922 33.0751C18.4355 34.5685 18.759 36.1914 19.7533 37.3956L20.8415 38.7134C21.7128 39.7686 23.0099 40.3797 24.3784 40.3797H28.1699C29.5383 40.3797 30.8354 39.7686 31.7067 38.7134L32.7949 37.3956C33.7893 36.1914 34.1127 34.5685 33.6561 33.0751L32.3758 28.8887H20.1724L18.8922 33.0751Z" fill="url(#paint14_linear_1436_31288)"/>
<path d="M18.8922 33.0751C18.4355 34.5685 18.759 36.1914 19.7533 37.3956L20.8415 38.7134C21.7128 39.7686 23.0099 40.3797 24.3784 40.3797H28.1699C29.5383 40.3797 30.8354 39.7686 31.7067 38.7134L32.7949 37.3956C33.7893 36.1914 34.1127 34.5685 33.6561 33.0751L32.3758 28.8887H20.1724L18.8922 33.0751Z" fill="url(#paint15_linear_1436_31288)"/>
<g clip-path="url(#clip1_1436_31288)">
<path d="M35.8167 29.4141L34.746 29.5995L35.1886 30.7065C35.1976 30.7065 35.2065 30.7061 35.2154 30.7062C37.4901 30.7205 39.3461 32.5766 39.3605 34.8512C39.3653 35.6132 39.1647 36.3288 38.8109 36.946C38.7018 37.1364 38.4423 37.1723 38.2871 37.0171C38.1446 36.8746 34.9515 33.6815 34.8007 33.5306H34.2607L34.2653 34.6946L34.5105 35.1184C34.5789 35.1869 37.3405 37.9484 37.3535 37.9615C37.5081 38.116 37.4731 38.374 37.2843 38.4841C36.6681 38.8437 35.9521 39.0499 35.1887 39.0499L34.746 40.1565L35.8168 40.342C38.5584 40.0302 40.6886 37.7031 40.6886 34.878C40.6886 32.053 38.5584 29.7258 35.8167 29.4141Z" fill="#EF5350"/>
<path d="M35.7332 40.268C35.3868 39.9581 35.1887 39.5154 35.1887 39.0506C35.1589 39.0506 35.1291 39.0504 35.0992 39.0498C32.8731 39.0029 31.0646 37.1943 31.0177 34.9683C31.0009 34.1714 31.209 33.4233 31.5826 32.7831C31.6928 32.5944 31.9507 32.5594 32.1053 32.7139C32.2176 32.8263 34.4008 35.0094 34.5106 35.1192C34.4902 34.9894 34.4791 34.858 34.4791 34.7257C34.4791 34.2874 34.5947 33.8846 34.8008 33.5314C34.022 32.7527 33.8431 32.5738 33.0498 31.7804C32.895 31.6257 32.9297 31.3662 33.1196 31.2573C33.7297 30.9073 34.4363 30.7073 35.1887 30.7072V30.707C35.1887 30.2422 35.3868 29.7995 35.7332 29.4897L35.8168 29.4148C35.6107 29.3914 35.4012 29.3789 35.1887 29.3789C32.1512 29.3789 29.6888 31.8413 29.6888 34.8788C29.6888 38.1508 32.5345 40.7159 35.8168 40.3428L35.7332 40.268Z" fill="#EF5350"/>
</g>
<path d="M10.8519 34.5303L7.13412 35.5831C6.84451 35.6651 6.55067 35.501 6.46866 35.2114C6.38665 34.9217 6.55079 34.6279 6.84041 34.5459L10.1339 33.6132L9.59034 31.6937C9.51595 31.4311 9.66562 31.1631 9.92829 31.0888C10.191 31.0144 10.4589 31.164 10.5333 31.4267L11.2237 33.8648C11.3057 34.1545 11.1415 34.4483 10.8519 34.5303Z" fill="white"/>
<path d="M10.2736 27.6649C10.261 29.1768 9.12496 30.2524 7.73201 30.2408L7.71801 30.2407C6.32506 30.229 5.19327 29.1206 5.20588 27.6086C5.21849 26.0967 6.3545 25.0211 7.74745 25.0327L7.76145 25.0328C9.15441 25.0445 10.2862 26.1529 10.2736 27.6649ZM9.27974 27.6426C9.28698 26.7746 8.60602 26.1669 7.76605 26.1599L7.75205 26.1598C6.91208 26.1528 6.20697 26.7629 6.19973 27.6309C6.19249 28.4989 6.87344 29.1066 7.71341 29.1136L7.72741 29.1137C8.56738 29.1207 9.2725 28.5106 9.27974 27.6426Z" fill="white"/>
<path d="M10.1795 23.5506L6.09337 23.4607C6.02702 23.4579 5.9476 23.4501 5.88873 23.4276C5.60749 23.3204 5.48798 23.0051 5.59524 22.7238C5.68503 22.4884 5.9078 22.3561 6.14204 22.3705L9.29463 22.5314L6.8641 20.5557C6.65857 20.3874 6.5624 20.1484 6.65967 19.8933L6.68961 19.8149C6.78688 19.5598 7.0112 19.443 7.28313 19.4568L10.4121 19.6012L7.95287 17.6221C7.78159 17.4818 7.68293 17.2494 7.77771 17.0009C7.88247 16.7262 8.17657 16.5836 8.45128 16.6884C8.51014 16.7108 8.58114 16.7604 8.63253 16.8024L11.7409 19.4562C11.9611 19.6451 12.0458 19.8946 11.9535 20.1366L11.9136 20.2413C11.8213 20.4833 11.601 20.609 11.3045 20.6008L8.33749 20.5032L10.616 22.406C10.8427 22.5973 10.9233 22.8379 10.831 23.0799L10.7911 23.1845C10.6989 23.4265 10.4695 23.5563 10.1795 23.5506Z" fill="white"/>
<path d="M15.4495 15.3195C14.9887 15.7693 14.3859 16.0837 13.7213 16.1845C13.5775 16.2075 13.4098 16.156 13.2925 16.0357C13.0969 15.8353 13.1057 15.5236 13.306 15.328C13.4062 15.2302 13.5106 15.1969 13.5949 15.183C14.0511 15.1193 14.459 14.9559 14.7997 14.6235C15.1153 14.3155 15.1834 14.0044 14.9829 13.799L14.9732 13.789C14.7825 13.5937 14.5645 13.6108 13.8317 14.0325C12.9493 14.5416 12.3028 14.7911 11.6232 14.0948L11.6134 14.0848C10.9925 13.4485 11.0927 12.529 11.8091 11.8299C12.2349 11.4143 12.7132 11.1627 13.2244 11.0551C13.3584 11.0221 13.5463 11.0442 13.6929 11.1944C13.8885 11.3948 13.8798 11.7066 13.6794 11.9021C13.6042 11.9755 13.5246 12.0141 13.4302 12.0377C13.0281 12.1368 12.7045 12.2863 12.464 12.521C12.1685 12.8094 12.1452 13.0963 12.3114 13.2666L12.3212 13.2766C12.5461 13.507 12.7697 13.4355 13.5274 12.9992C14.4197 12.4903 15.0698 12.3547 15.6663 12.9658L15.6761 12.9759C16.3557 13.6722 16.206 14.5812 15.4495 15.3195Z" fill="white"/>
<path d="M19.5094 12.3383C18.1766 13.0523 16.688 12.5712 16.0302 11.3433L16.0236 11.331C15.3658 10.1031 15.7957 8.57835 17.1285 7.86434C18.4613 7.15033 19.9499 7.63139 20.6077 8.85928L20.6143 8.87162C21.2721 10.0995 20.8422 11.6243 19.5094 12.3383ZM19.0524 11.4555C19.8175 11.0456 20.0242 10.1566 19.6275 9.41617L19.6209 9.40382C19.2242 8.66339 18.3507 8.33725 17.5855 8.74714C16.8204 9.15704 16.6137 10.046 17.0104 10.7865L17.017 10.7988C17.4137 11.5392 18.2872 11.8654 19.0524 11.4555Z" fill="white"/>
<path d="M22.1628 10.3666L21.4633 6.60916C21.4082 6.31324 21.5986 6.0357 21.8945 5.98061L23.2433 5.72948C24.7573 5.44761 25.9968 6.292 26.2492 7.64771L26.2518 7.66147C26.5042 9.01717 25.6542 10.2648 24.1402 10.5467L22.7914 10.7978C22.4955 10.8529 22.2179 10.6625 22.1628 10.3666ZM23.1432 9.74261L23.9621 9.59014C24.8292 9.4287 25.3052 8.73485 25.1464 7.88151L25.1438 7.86775C24.9849 7.01441 24.2885 6.52461 23.4214 6.68604L22.6025 6.83851L23.1432 9.74261Z" fill="white"/>
<path d="M27.8104 9.65131L27.9883 5.74936C28.002 5.44867 28.2506 5.22176 28.5513 5.23548C28.852 5.24919 29.0789 5.49779 29.0652 5.79847L28.8873 9.70042C28.8735 10.0011 28.6249 10.228 28.3243 10.2143C28.0236 10.2006 27.7967 9.95199 27.8104 9.65131Z" fill="white"/>
<path d="M32.2493 10.8191C30.9835 10.4591 30.4102 9.53198 30.8046 8.14496L31.4345 5.92977C31.5168 5.64025 31.8108 5.47642 32.1004 5.55875C32.3899 5.64107 32.5537 5.93509 32.4714 6.22462L31.8491 8.41287C31.6309 9.18044 31.9017 9.68682 32.5346 9.86679C33.1675 10.0468 33.6605 9.7721 33.873 9.02473L34.5048 6.80281C34.5871 6.51329 34.8811 6.34946 35.1706 6.43178C35.4602 6.51411 35.624 6.80813 35.5417 7.09765L34.9214 9.27917C34.5155 10.7066 33.5151 11.179 32.2493 10.8191Z" fill="white"/>
<path d="M35.7375 11.2729L37.9587 8.05993C38.1299 7.81234 38.461 7.7519 38.7086 7.92307L38.8065 7.99073C38.9965 8.12209 39.0612 8.31153 39.0503 8.4997L38.9152 10.9848L41.202 9.97869C41.3976 9.89267 41.5761 9.90539 41.7546 10.0288L41.8525 10.0965C42.1001 10.2676 42.1605 10.5987 41.9893 10.8463L39.7761 14.0478C39.605 14.2954 39.2739 14.3558 39.0263 14.1847C38.7844 14.0175 38.728 13.6806 38.8951 13.4388L40.2844 11.4292L38.6791 12.0895C38.4914 12.164 38.3165 12.1708 38.1553 12.0593C37.9941 11.9479 37.9386 11.7819 37.942 11.58L37.9922 9.87019L36.607 11.874C36.4398 12.1158 36.1127 12.1705 35.8708 12.0033C35.629 11.8361 35.5704 11.5148 35.7375 11.2729Z" fill="white"/>
<defs>
<linearGradient id="paint0_linear_1436_31288" x1="24.4656" y1="22.194" x2="27.8123" y2="22.194" gradientUnits="userSpaceOnUse">
<stop stop-color="#EAF9FA"/>
<stop offset="1" stop-color="#B3DAFE"/>
</linearGradient>
<linearGradient id="paint1_linear_1436_31288" x1="26.2737" y1="22.0852" x2="26.2737" y2="20.8173" gradientUnits="userSpaceOnUse">
<stop stop-color="#B3DAFE" stop-opacity="0"/>
<stop offset="1" stop-color="#7BACDF"/>
</linearGradient>
<linearGradient id="paint2_linear_1436_31288" x1="26.2737" y1="19.2615" x2="26.2737" y2="20.695" gradientUnits="userSpaceOnUse">
<stop stop-color="#EAF9FA"/>
<stop offset="1" stop-color="#B3DAFE"/>
</linearGradient>
<linearGradient id="paint3_linear_1436_31288" x1="29.0209" y1="19.948" x2="30.6237" y2="19.948" gradientUnits="userSpaceOnUse">
<stop stop-color="#B3DAFE" stop-opacity="0"/>
<stop offset="1" stop-color="#7BACDF"/>
</linearGradient>
<linearGradient id="paint4_linear_1436_31288" x1="23.6493" y1="31.2903" x2="29.7085" y2="31.2903" gradientUnits="userSpaceOnUse">
<stop stop-color="#EAF9FA"/>
<stop offset="1" stop-color="#B3DAFE"/>
</linearGradient>
<linearGradient id="paint5_linear_1436_31288" x1="23.0026" y1="30.8756" x2="28.7503" y2="36.6233" gradientUnits="userSpaceOnUse">
<stop stop-color="white"/>
<stop offset="1" stop-color="#EAF9FA"/>
</linearGradient>
<linearGradient id="paint6_linear_1436_31288" x1="20.1844" y1="24.5986" x2="39.8315" y2="41.1006" gradientUnits="userSpaceOnUse">
<stop stop-color="#B3DAFE" stop-opacity="0"/>
<stop offset="1" stop-color="#7BACDF"/>
</linearGradient>
<linearGradient id="paint7_linear_1436_31288" x1="19.0734" y1="27.7695" x2="38.7205" y2="44.2715" gradientUnits="userSpaceOnUse">
<stop stop-color="#B3DAFE" stop-opacity="0"/>
<stop offset="1" stop-color="#7BACDF"/>
</linearGradient>
<linearGradient id="paint8_linear_1436_31288" x1="21.2315" y1="25.1994" x2="40.8786" y2="41.7014" gradientUnits="userSpaceOnUse">
<stop stop-color="#B3DAFE" stop-opacity="0"/>
<stop offset="1" stop-color="#7BACDF"/>
</linearGradient>
<linearGradient id="paint9_linear_1436_31288" x1="19.1317" y1="27.7016" x2="38.7788" y2="44.2036" gradientUnits="userSpaceOnUse">
<stop stop-color="#B3DAFE" stop-opacity="0"/>
<stop offset="1" stop-color="#7BACDF"/>
</linearGradient>
<linearGradient id="paint10_linear_1436_31288" x1="21.0929" y1="25.3648" x2="40.74" y2="41.8668" gradientUnits="userSpaceOnUse">
<stop stop-color="#B3DAFE" stop-opacity="0"/>
<stop offset="1" stop-color="#7BACDF"/>
</linearGradient>
<linearGradient id="paint11_linear_1436_31288" x1="16.4888" y1="28.6084" x2="36.1359" y2="45.1104" gradientUnits="userSpaceOnUse">
<stop stop-color="#B3DAFE" stop-opacity="0"/>
<stop offset="1" stop-color="#7BACDF"/>
</linearGradient>
<linearGradient id="paint12_linear_1436_31288" x1="15.7226" y1="29.5191" x2="35.3697" y2="46.0211" gradientUnits="userSpaceOnUse">
<stop stop-color="#B3DAFE" stop-opacity="0"/>
<stop offset="1" stop-color="#7BACDF"/>
</linearGradient>
<linearGradient id="paint13_linear_1436_31288" x1="20.2157" y1="26.4091" x2="39.8628" y2="42.9112" gradientUnits="userSpaceOnUse">
<stop stop-color="#B3DAFE" stop-opacity="0"/>
<stop offset="1" stop-color="#7BACDF"/>
</linearGradient>
<linearGradient id="paint14_linear_1436_31288" x1="26.2741" y1="37.5292" x2="26.2741" y2="40.6164" gradientUnits="userSpaceOnUse">
<stop stop-color="#B3DAFE" stop-opacity="0"/>
<stop offset="1" stop-color="#7BACDF"/>
</linearGradient>
<linearGradient id="paint15_linear_1436_31288" x1="28.7954" y1="35.5213" x2="32.057" y2="37.9675" gradientUnits="userSpaceOnUse">
<stop stop-color="#B3DAFE" stop-opacity="0"/>
<stop offset="1" stop-color="#7BACDF"/>
</linearGradient>
<clipPath id="clip0_1436_31288">
<rect x="0.688599" y="0.378906" width="51.6228" height="49.0293" rx="24.5146" fill="white"/>
</clipPath>
<clipPath id="clip1_1436_31288">
<rect width="11" height="11" fill="white" transform="translate(29.6886 29.3789)"/>
</clipPath>
</defs>
</svg>
