<svg width="53" height="50" viewBox="0 0 53 50" fill="none" xmlns="http://www.w3.org/2000/svg">
<g clip-path="url(#clip0_1436_31242)">
<circle cx="25.6395" cy="24.4706" r="24.951" fill="#158466"/>
</g>
<g clip-path="url(#clip1_1436_31242)">
<path d="M10.3335 32.8186L6.61324 33.5977C6.32344 33.6584 6.0463 33.4772 5.98561 33.1874C5.92492 32.8976 6.10608 32.6205 6.39588 32.5598L9.69154 31.8696L9.28929 29.9488C9.23425 29.686 9.39942 29.4333 9.66227 29.3782C9.92511 29.3232 10.1778 29.4884 10.2328 29.7512L10.7438 32.191C10.8045 32.4808 10.6233 32.7579 10.3335 32.8186Z" fill="white"/>
<path d="M10.2367 26.0702C10.121 27.553 8.93271 28.5309 7.56659 28.4243L7.55286 28.4232C6.18674 28.3166 5.15184 27.1515 5.26752 25.6687C5.38321 24.1859 6.57148 23.208 7.9376 23.3146L7.95133 23.3157C9.31745 23.4223 10.3523 24.5874 10.2367 26.0702ZM9.26291 25.9804C9.32932 25.1292 8.70262 24.4863 7.87883 24.422L7.8651 24.4209C7.04131 24.3567 6.30768 24.9072 6.24127 25.7585C6.17486 26.6097 6.80156 27.2526 7.62536 27.3169L7.63909 27.3179C8.46288 27.3822 9.1965 26.8317 9.26291 25.9804Z" fill="white"/>
<path d="M10.4168 22.0593L6.41315 21.6919C6.34823 21.6846 6.27082 21.6715 6.21459 21.6454C5.94593 21.5209 5.8502 21.2034 5.97467 20.9347C6.07887 20.7098 6.30652 20.5952 6.53539 20.6254L9.61806 20.9987L7.36796 18.8938C7.17777 18.7146 7.09973 18.4735 7.21261 18.2299L7.24735 18.1549C7.36023 17.9112 7.58834 17.812 7.85424 17.8441L10.9148 18.1996L8.63682 16.0894C8.47833 15.9401 8.3974 15.7053 8.50739 15.4679C8.62896 15.2055 8.9273 15.0857 9.18971 15.2072C9.24594 15.2333 9.31224 15.2868 9.35978 15.3315L12.2288 18.1481C12.4319 18.3485 12.4979 18.5991 12.3908 18.8303L12.3445 18.9303C12.2374 19.1614 12.0127 19.2698 11.7222 19.2415L8.8174 18.943L10.9233 20.9659C11.1327 21.1692 11.1954 21.4107 11.0883 21.6418L11.042 21.7418C10.9349 21.973 10.701 22.0847 10.4168 22.0593Z" fill="white"/>
<path d="M16.5086 14.0725C15.4034 14.9616 13.8962 14.7689 13.0287 13.6905L13.0201 13.6798C12.1612 12.6121 12.2624 11.0902 13.4159 10.1622C13.9793 9.70902 14.4811 9.5528 14.9778 9.53317C15.1155 9.5285 15.2855 9.5861 15.4021 9.73097C15.5834 9.9563 15.5434 10.2801 15.318 10.4614C15.2054 10.552 15.0957 10.5695 15.0065 10.5794C14.6377 10.5933 14.3185 10.691 14.0235 10.9284C13.3904 11.4377 13.3573 12.3303 13.8752 12.9742L13.8839 12.9849C14.4018 13.6287 15.2787 13.807 15.9225 13.2891C16.2713 13.0085 16.4157 12.7156 16.5007 12.3379C16.5219 12.2325 16.5775 12.1259 16.6741 12.0482C16.8833 11.8799 17.1985 11.9091 17.3668 12.1184C17.4704 12.2471 17.488 12.4009 17.4647 12.5257C17.3641 13.0927 17.1095 13.5891 16.5086 14.0725Z" fill="white"/>
<path d="M18.4137 11.8765C18.3862 11.8059 18.3843 11.7253 18.3888 11.6422L18.5741 7.49696C18.588 7.21064 18.7293 6.98548 18.9987 6.88031L19.0564 6.85777C19.3258 6.7526 19.5758 6.825 19.78 7.02618L22.7249 9.94945C22.7845 10.0075 22.8288 10.0641 22.8538 10.1283C22.9565 10.3912 22.8339 10.6831 22.5709 10.7857C22.34 10.8759 22.1335 10.8013 21.9635 10.6311L21.3866 10.0432L19.411 10.8145L19.3847 11.6748C19.3764 11.8998 19.2547 12.0804 19.0494 12.1605C18.7929 12.2607 18.5139 12.133 18.4137 11.8765ZM19.436 9.79938L20.6804 9.31358L19.4798 8.07478L19.436 9.79938Z" fill="white"/>
<path d="M23.8899 9.83249L23.657 6.03868C23.6388 5.74315 23.8582 5.49512 24.1537 5.47698L25.8238 5.37444C26.4355 5.33688 26.9203 5.47959 27.2558 5.77632C27.5403 6.02791 27.7079 6.39705 27.7357 6.85066L27.7365 6.86441C27.783 7.62042 27.4337 8.11098 26.8642 8.3874L27.6545 9.23572C27.7656 9.35997 27.8411 9.46572 27.8512 9.63067C27.8693 9.9262 27.6337 10.1338 27.3794 10.1494C27.1389 10.1642 26.9736 10.0571 26.8402 9.9066L25.7291 8.66406L24.8838 8.71596L24.9483 9.76751C24.9665 10.063 24.7471 10.3111 24.4516 10.3292C24.1561 10.3474 23.9081 10.128 23.8899 9.83249ZM24.8264 7.78125L25.8985 7.71542C26.414 7.68378 26.6927 7.39072 26.6678 6.98522L26.6669 6.97147C26.6391 6.51787 26.3086 6.3036 25.7931 6.33525L24.7416 6.39981L24.8264 7.78125Z" fill="white"/>
<path d="M29.3356 9.57428L30.2447 5.92622C30.3163 5.63892 30.6001 5.46837 30.8874 5.53997L32.197 5.86634C33.6669 6.23268 34.431 7.49467 34.103 8.81091L34.0997 8.82428C33.7716 10.1405 32.5013 10.9097 31.0314 10.5433L29.7218 10.217C29.4345 10.1454 29.264 9.86158 29.3356 9.57428ZM30.4677 9.41646L31.2628 9.61462C32.1047 9.82443 32.8141 9.39804 33.0206 8.56955L33.0239 8.55619C33.2304 7.72769 32.8074 7.00487 31.9655 6.79506L31.1704 6.59691L30.4677 9.41646Z" fill="white"/>
<g clip-path="url(#clip2_1436_31242)">
<path d="M41.0522 29.8484C41.0522 37.7093 15.3245 37.7093 15.3245 29.8484C15.3245 24.1364 21.0838 19.5059 28.1884 19.5059C35.2929 19.5059 41.0522 24.1364 41.0522 29.8484Z" fill="#DC7C0A"/>
<path d="M36.6766 21.0975C36.4351 20.9403 36.0995 21.0039 35.9568 21.2539C34.4276 23.9321 32.0425 28.9334 29.9242 28.5811C28.5266 28.3487 30.8568 21.7725 31.6838 19.6696C31.802 19.3689 31.6181 19.0339 31.3001 18.9736C30.3816 18.7993 29.427 18.7004 28.4468 18.6855C28.2828 18.7782 28.1527 18.8516 27.9887 18.9442C26.1702 22.0821 22.9191 28.3989 21.0727 27.7288C20.2185 27.4189 21.0487 23.1097 21.8381 20.9272C21.9964 20.4895 21.5395 20.0816 21.1218 20.2883C17.2621 22.1985 14.6886 25.6262 14.6886 29.5375C14.6886 39.8937 41.8039 39.2738 41.6882 29.5375C41.6477 26.129 39.7336 23.0874 36.6766 21.0975Z" fill="#FFB051"/>
<path d="M29.1271 18.9736C29.4451 19.034 29.629 19.3689 29.5108 19.6696C28.6838 21.7726 28.4868 25.1696 28.7138 26.3043C28.9311 27.3908 29.4967 27.8523 29.4967 27.8523C29.3477 26.0393 31.0119 21.3781 31.6838 19.6696C31.802 19.3689 31.6181 19.0339 31.3 18.9736C30.3816 18.7993 29.427 18.7004 28.4468 18.6855C28.3576 18.7359 28.2784 18.7806 28.1984 18.8258C28.5116 18.8668 28.8215 18.9157 29.1271 18.9736Z" fill="#FC971E"/>
<path d="M20.7228 26.8667C20.624 25.4297 21.2425 22.5732 21.838 20.9267C21.9963 20.489 21.5395 20.081 21.1217 20.2877C20.5803 20.5557 20.0643 20.8535 19.5771 21.1783C18.9713 24.855 20.601 26.847 20.7228 26.8667Z" fill="#FC971E"/>
<path d="M36.6766 21.0973C36.4351 20.9401 36.0995 21.0037 35.9568 21.2536C35.8418 21.4549 35.722 21.6696 35.5979 21.8938C38.011 23.8555 39.4798 26.556 39.5152 29.5372C39.5708 34.2192 33.3293 36.7926 26.8341 37.0516C34.0327 37.3403 41.7501 34.7412 41.6882 29.5372C41.6477 26.1288 39.7335 23.0871 36.6766 21.0973Z" fill="#FC971E"/>
<path d="M39.2136 35.8632V30.5781H33.3636V35.8632H30.8886L36.2886 41.3781L41.6886 35.8632H39.2136Z" fill="#EF5350"/>
</g>
</g>
<defs>
<clipPath id="clip0_1436_31242">
<rect x="0.688599" y="0.378906" width="51.6228" height="48.6211" rx="24.3105" fill="white"/>
</clipPath>
<clipPath id="clip1_1436_31242">
<rect width="41" height="39.5578" fill="white" transform="translate(4.6886 4.14648)"/>
</clipPath>
<clipPath id="clip2_1436_31242">
<rect width="27" height="27" fill="white" transform="translate(14.6886 14.3789)"/>
</clipPath>
</defs>
</svg>
