<svg width="51" height="49" viewBox="0 0 51 49" fill="none" xmlns="http://www.w3.org/2000/svg">
<g clip-path="url(#clip0_1436_31339)">
<circle cx="24.6395" cy="24.2811" r="24.951" fill="#158466"/>
<path d="M11.506 36.2112C10.8025 36.1888 10.3417 35.466 10.6183 34.8187L11.1499 33.5748C11.3803 33.0356 11.0995 32.4147 10.5424 32.2317L9.25724 31.8096C8.58851 31.5899 8.34997 30.7665 8.79773 30.2234L9.65827 29.1796C10.0313 28.7272 9.93676 28.0524 9.45379 27.7198L8.33955 26.9527C7.75979 26.5535 7.7629 25.6962 8.34554 25.3013L9.46527 24.5423C9.95064 24.2132 10.0501 23.5391 9.68034 23.084L8.82738 22.034C8.38357 21.4877 8.62807 20.666 9.29837 20.4512L10.5866 20.0383C11.145 19.8594 11.4303 19.2406 11.2038 18.6997L10.6812 17.452C10.4093 16.8027 10.8754 16.0832 11.579 16.066L12.9314 16.0328C13.5176 16.0184 13.9657 15.5051 13.9007 14.9223L13.7508 13.5779C13.6728 12.8783 14.3228 12.3193 15.0028 12.5009L16.3098 12.8501C16.8763 13.0015 17.4508 12.6351 17.5527 12.0577L17.7876 10.7255C17.9099 10.0323 18.691 9.67898 19.2922 10.0449L20.4479 10.7481C20.9488 11.0529 21.6033 10.8633 21.8637 10.338L22.4645 9.12592C22.7771 8.49527 23.6261 8.37634 24.0999 8.89683L25.0106 9.89714C25.4054 10.3307 26.0868 10.3332 26.4846 9.90248L27.4025 8.9088C27.8801 8.39176 28.7282 8.51683 29.0363 9.14973L29.6282 10.3661C29.8848 10.8933 30.5379 11.0877 31.0411 10.7865L32.2017 10.0916C32.8056 9.7301 33.5842 10.089 33.7014 10.7831L33.9267 12.117C34.0244 12.6952 34.5963 13.0657 35.1639 12.9184L36.4733 12.5787C37.1546 12.402 37.8005 12.9657 37.7174 13.6647L37.5578 15.008C37.4886 15.5902 37.933 16.1068 38.519 16.1255L39.8712 16.1685C40.5747 16.1908 41.0355 16.9137 40.7589 17.5609L40.2273 18.8049C39.9969 19.3441 40.2777 19.9649 40.8348 20.1479L42.12 20.5701C42.7887 20.7897 43.0272 21.6132 42.5795 22.1563L41.7189 23.2C41.3459 23.6525 41.4404 24.3273 41.9234 24.6598L43.0377 25.427C43.6174 25.8261 43.6143 26.6834 43.0317 27.0784L41.9119 27.8374C41.4266 28.1664 41.3271 28.8405 41.6969 29.2957L42.5498 30.3457C42.9936 30.892 42.7491 31.7137 42.0788 31.9285L40.7906 32.3413C40.2322 32.5203 39.9469 33.1391 40.1734 33.6799L40.696 34.9277C40.9679 35.5769 40.5018 36.2964 39.7982 36.3137L38.4458 36.3469C37.8596 36.3612 37.4115 36.8746 37.4765 37.4574L37.6264 38.8018C37.7044 39.5013 37.0544 40.0604 36.3744 39.8787L35.0674 39.5295C34.5009 39.3782 33.9264 39.7445 33.8245 40.322L33.5896 41.6542C33.4673 42.3474 32.6862 42.7007 32.0849 42.3348L30.9293 41.6315C30.4284 41.3267 29.7739 41.5163 29.5135 42.0417L28.9127 43.2537C28.6001 43.8844 27.7511 44.0033 27.2773 43.4828L26.3666 42.4825C25.9718 42.0489 25.2904 42.0464 24.8926 42.4772L23.9747 43.4709C23.4971 43.9879 22.649 43.8628 22.3409 43.2299L21.749 42.0136C21.4924 41.4863 20.8393 41.292 20.3361 41.5932L19.1755 42.288C18.5716 42.6496 17.793 42.2906 17.6758 41.5966L17.4505 40.2626C17.3528 39.6844 16.7809 39.314 16.2133 39.4612L14.9039 39.8009C14.2226 39.9777 13.5767 39.4139 13.6598 38.7149L13.8194 37.3717C13.8886 36.7894 13.4442 36.2728 12.8582 36.2542L11.506 36.2112Z" fill="#FF810D"/>
<path d="M16.6961 23.4555L19.3882 27.5292V23.4175C19.3882 23.1506 19.4456 22.9502 19.5603 22.8163C19.6176 22.7501 19.6892 22.6977 19.7696 22.663C19.8499 22.6283 19.9371 22.6122 20.0246 22.6159C20.1139 22.6117 20.203 22.6275 20.2854 22.6622C20.3679 22.6969 20.4415 22.7495 20.5009 22.8163C20.6171 22.9499 20.6752 23.1503 20.6754 23.4175V28.8546C20.6754 29.4609 20.424 29.7641 19.9211 29.7641C19.8056 29.7659 19.6908 29.7476 19.5816 29.71C19.477 29.6716 19.3809 29.6131 19.2988 29.5378C19.2071 29.4554 19.125 29.363 19.0538 29.2624C18.9784 29.157 18.9029 29.0496 18.8275 28.9393L16.2012 24.9126V28.9628C16.2012 29.2268 16.14 29.4266 16.0175 29.562C15.9583 29.6279 15.8854 29.6801 15.804 29.715C15.7226 29.7499 15.6345 29.7667 15.546 29.7641C15.4563 29.7677 15.367 29.7511 15.2846 29.7156C15.2022 29.6801 15.1288 29.6267 15.0697 29.5591C14.9502 29.4225 14.8904 29.2237 14.8905 28.9628V23.6296C14.8835 23.449 14.9091 23.2687 14.9659 23.0972C15.027 22.954 15.1307 22.833 15.2628 22.7507C15.3955 22.6626 15.5514 22.6158 15.7106 22.6161C15.8145 22.6121 15.918 22.6302 16.0143 22.6692C16.1106 22.7082 16.1975 22.7673 16.2693 22.8424C16.3475 22.9249 16.4171 23.015 16.4771 23.1114C16.5477 23.2213 16.6207 23.336 16.6961 23.4555Z" fill="white"/>
<path d="M26.6174 23.8144H23.4631V25.5118H26.3675C26.5814 25.5118 26.7409 25.5597 26.8461 25.6556C26.8985 25.7035 26.9397 25.7623 26.967 25.8278C26.9943 25.8933 27.007 25.964 27.0041 26.0349C27.0067 26.1063 26.9942 26.1774 26.9674 26.2436C26.9406 26.3099 26.9001 26.3697 26.8486 26.4192C26.7447 26.5182 26.5844 26.5676 26.3675 26.5676H23.4631V28.5333H26.7258C26.9458 28.5333 27.1116 28.5846 27.2231 28.687C27.2789 28.7388 27.3227 28.8021 27.3516 28.8725C27.3806 28.9429 27.3938 29.0188 27.3905 29.0948C27.3931 29.1693 27.3795 29.2434 27.3506 29.3121C27.3216 29.3808 27.2781 29.4424 27.2231 29.4926C27.1115 29.5951 26.9457 29.6463 26.7258 29.6464H22.921C22.616 29.6464 22.3967 29.5788 22.2632 29.4435C22.1296 29.3083 22.0628 29.0898 22.0628 28.788V23.5927C22.0566 23.424 22.0872 23.256 22.1524 23.1002C22.2087 22.9763 22.3085 22.8773 22.4328 22.822C22.5875 22.7587 22.7539 22.7291 22.9209 22.7351H26.617C26.8401 22.7351 27.0059 22.7845 27.1143 22.8831C27.1658 22.9345 27.2067 22.9955 27.2346 23.0626C27.2625 23.1298 27.2769 23.2018 27.2769 23.2746C27.2769 23.3473 27.2625 23.4193 27.2346 23.4865C27.2067 23.5537 27.1658 23.6147 27.1143 23.666C27.0061 23.7647 26.8405 23.8142 26.6174 23.8144Z" fill="white"/>
<path d="M33.2526 28.5571L32.1351 24.413L31.0035 28.5571C30.9156 28.8716 30.8457 29.0972 30.7938 29.2339C30.7366 29.3778 30.6432 29.5045 30.5228 29.6019C30.3764 29.7158 30.194 29.7734 30.0088 29.7641C29.8606 29.7698 29.7135 29.7365 29.5821 29.6676C29.4692 29.6018 29.3756 29.5073 29.3109 29.3937C29.2361 29.2621 29.179 29.1211 29.1412 28.9745C29.0971 28.8122 29.0578 28.662 29.0233 28.524L27.8729 23.8705C27.8146 23.6693 27.7798 23.462 27.769 23.2528C27.7673 23.1683 27.7832 23.0845 27.8157 23.0066C27.8482 22.9286 27.8965 22.8583 27.9576 22.8C28.0191 22.7397 28.0921 22.6923 28.1723 22.6608C28.2524 22.6293 28.3381 22.6142 28.4243 22.6164C28.6789 22.6164 28.8503 22.698 28.9383 22.8613C29.047 23.0873 29.1247 23.327 29.1693 23.5738L30.0747 27.6098L31.0885 23.8329C31.1435 23.6094 31.2112 23.3891 31.2912 23.1732C31.3527 23.0194 31.4535 22.8845 31.5834 22.7818C31.7424 22.664 31.9375 22.6056 32.135 22.6166C32.3709 22.6166 32.554 22.674 32.6843 22.7889C32.8043 22.8892 32.8975 23.0178 32.9555 23.1632C33.0056 23.2984 33.0732 23.5216 33.1581 23.8329L34.1813 27.6098L35.0868 23.5738C35.1196 23.4066 35.1613 23.2413 35.2117 23.0785C35.2522 22.9568 35.3217 22.8469 35.4143 22.7582C35.471 22.7081 35.5371 22.6698 35.6087 22.6455C35.6803 22.6211 35.7561 22.6113 35.8316 22.6166C35.9171 22.6148 36.0022 22.6299 36.082 22.661C36.1617 22.6922 36.2345 22.7387 36.2961 22.7981C36.3583 22.8561 36.4074 22.9266 36.4403 23.005C36.4732 23.0834 36.4891 23.1679 36.487 23.2529C36.4743 23.4619 36.4395 23.669 36.3831 23.8706L35.2327 28.5241C35.154 28.8387 35.089 29.0685 35.037 29.2152C34.9833 29.3638 34.8924 29.4961 34.7729 29.5995C34.6487 29.709 34.4735 29.7638 34.2472 29.7639C34.0624 29.7732 33.8802 29.7164 33.7333 29.6037C33.6135 29.5093 33.5208 29.3848 33.4647 29.243C33.4145 29.11 33.3438 28.8814 33.2526 28.5571Z" fill="white"/>
</g>
<defs>
<clipPath id="clip0_1436_31339">
<rect width="51" height="49" rx="24.5" fill="white"/>
</clipPath>
</defs>
</svg>
