<svg width="51" height="49" viewBox="0 0 51 49" fill="none" xmlns="http://www.w3.org/2000/svg">
<g clip-path="url(#clip0_1436_30916)">
<circle cx="24.6396" cy="24.0917" r="24.951" fill="#158466"/>
<g clip-path="url(#clip1_1436_30916)">
<path d="M38.6559 25.5955L38.6509 28.003L26.5903 35.0334L14.4541 28.003V25.6208L14.4591 25.6157L15.402 23.4763L20.4894 20.5124L21.0289 20.8259L21.4222 19.9358L26.5097 16.9668L31.6374 19.9358L32.0257 20.8158L32.5853 20.4871L37.708 23.456L38.6559 25.5955Z" fill="#914D24"/>
<path d="M38.6563 25.5957L38.6502 28.0027L26.5903 35.0332L26.5935 32.6475L38.6563 25.5957Z" fill="#D28557"/>
<path d="M26.5935 32.6475L26.5903 35.0332L14.4515 28.0029L14.4547 25.6172L26.5935 32.6475Z" fill="#984D20"/>
<path d="M38.6565 25.5968L26.5937 32.6486L14.455 25.6183L26.5148 18.5879L38.6565 25.5968Z" fill="#DBA660"/>
<path d="M31.6361 19.9363L26.5456 22.9038L21.4218 19.9363L26.5123 16.9688L31.6361 19.9363Z" fill="#D28557"/>
<path d="M32.5829 22.0783L31.6361 19.9355L26.5455 22.9031L26.5486 25.5961L32.5829 22.0783Z" fill="#914D24"/>
<path d="M26.5456 22.9031L21.4218 19.9355L20.475 22.0783L26.5487 25.596L26.5456 22.9031Z" fill="#A65E32"/>
<path d="M37.71 23.4538L32.6194 26.4214L27.4956 23.4539L32.5861 20.4863L37.71 23.4538Z" fill="#D28557"/>
<path d="M38.6567 25.5959L37.7099 23.4531L32.6194 26.4207L32.6274 29.1206L38.6567 25.5959Z" fill="#914D24"/>
<path d="M32.6195 26.4206L27.4956 23.4531L26.5488 25.5959L32.6275 29.1205L32.6195 26.4206Z" fill="#A65E32"/>
<path d="M25.6141 23.4792L20.5236 26.4468L15.3998 23.4793L20.4903 20.5117L25.6141 23.4792Z" fill="#D28557"/>
<path d="M26.561 25.6213L25.6142 23.4785L20.5237 26.4461L20.5268 29.139L26.561 25.6213Z" fill="#914D24"/>
<path d="M20.5237 26.446L15.3998 23.4785L14.453 25.6213L20.5267 29.139L20.5237 26.446Z" fill="#A65E32"/>
<path d="M31.6879 26.9968L26.5973 29.9644L21.4735 26.9969L26.564 24.0293L31.6879 26.9968Z" fill="#D28557"/>
<path d="M32.627 29.1216L31.6878 26.9961L26.5973 29.9637L26.6004 32.6566L32.627 29.1216Z" fill="#914D24"/>
<path d="M26.5974 29.9636L21.4735 26.9961L20.5267 29.1389L26.6005 32.6566L26.5974 29.9636Z" fill="#A65E32"/>
<path d="M25.38 25.3709C25.4412 25.331 26.6192 24.5628 26.567 24.5968C26.7057 24.6878 27.81 25.412 27.7474 25.3709L26.5291 24.753L26.6045 24.7531L25.38 25.3709Z" fill="#914D24"/>
<path d="M27.7474 28.4547C27.6861 28.4947 26.5082 29.2629 26.5604 29.2289C26.4224 29.1384 25.319 28.4147 25.38 28.4547L26.5983 29.0727L26.5229 29.0726L27.7474 28.4547Z" fill="#914D24"/>
<path d="M19.291 21.8738L20.4402 21.1243L20.478 21.0996L20.5157 21.1244L21.6584 21.8738L20.4401 21.2558L20.5155 21.2559L19.291 21.8738Z" fill="#914D24"/>
<path d="M21.6587 24.959L20.5096 25.7085L20.4718 25.7331L20.434 25.7084L19.2914 24.959L20.5096 25.577L20.4343 25.5769L21.6587 24.959Z" fill="#914D24"/>
<path d="M25.3451 18.2127C25.4063 18.1728 26.5843 17.4046 26.5321 17.4386C26.6708 17.5296 27.7751 18.2538 27.7125 18.2127L26.4942 17.5948L26.5696 17.5949L25.3451 18.2127Z" fill="#914D24"/>
<path d="M27.7125 21.2965C27.6512 21.3365 26.4733 22.1047 26.5255 22.0707C26.3875 21.9802 25.284 21.2565 25.3451 21.2965L26.5634 21.9145L26.488 21.9144L27.7125 21.2965Z" fill="#914D24"/>
<path d="M31.4432 21.7596C31.5045 21.7197 32.6824 20.9514 32.6302 20.9855C32.769 21.0765 33.8732 21.8007 33.8106 21.7596L32.5923 21.1416L32.6677 21.1417L31.4432 21.7596Z" fill="#914D24"/>
<path d="M33.8104 24.8454C33.7491 24.8853 32.5712 25.6535 32.6234 25.6195C32.4854 25.529 31.3819 24.8053 31.443 24.8454L32.6613 25.4633L32.5859 25.4632L33.8104 24.8454Z" fill="#914D24"/>
</g>
<path d="M33.479 40.4527L32.4335 40.8984L32 39.8814L33.1808 39.3781C33.4689 39.2552 33.6029 38.9221 33.4801 38.634C33.3573 38.3459 33.0245 38.2118 32.7359 38.3347L31.0333 39.0604C30.895 39.1194 30.7858 39.2309 30.7296 39.3705C30.6735 39.51 30.675 39.6662 30.734 39.8046L32.5248 44.0051C32.6167 44.2207 32.8263 44.3501 33.0468 44.3501C33.1209 44.3501 33.1964 44.3354 33.269 44.3045C33.5571 44.1816 33.6911 43.8485 33.5683 43.5604L32.8784 41.942L33.9239 41.4963C34.212 41.3734 34.346 41.0403 34.2232 40.7522C34.1003 40.464 33.7674 40.3299 33.479 40.4527ZM43.6929 35.4306C43.4342 35.2536 43.0813 35.3201 42.9045 35.5787L42.1406 36.6959L41.1957 36.0498L41.8797 35.0494C42.0565 34.7909 41.9901 34.4379 41.7316 34.2611C41.473 34.0843 41.1201 34.1507 40.9433 34.4092L40.2593 35.4095L39.3144 34.7633L40.0783 33.6461C40.2551 33.3876 40.1888 33.0347 39.9303 32.8579C39.6716 32.6809 39.3187 32.7474 39.1419 33.0059L38.0579 34.5913C37.8811 34.8498 37.9475 35.2028 38.206 35.3796L41.9685 37.9523C42.0635 38.0172 42.1752 38.0513 42.2886 38.0513C42.3235 38.0513 42.3586 38.0481 42.3933 38.0415C42.5412 38.0138 42.6719 37.9284 42.7569 37.8042L43.8409 36.2189C44.0177 35.9602 43.9514 35.6073 43.6929 35.4306ZM46.2631 31.6717C46.0044 31.4949 45.6516 31.5612 45.4748 31.8198L44.7108 32.937L43.7659 32.2909L44.4499 31.2905C44.6267 31.032 44.5604 30.6791 44.3018 30.5023C44.0431 30.3254 43.6903 30.3918 43.5135 30.6503L42.8295 31.6506L41.8847 31.0045L42.6486 29.8873C42.8254 29.6288 42.7591 29.2759 42.5006 29.0991C42.242 28.9222 41.8891 28.9886 41.7122 29.2471L40.6282 30.8325C40.5433 30.9567 40.5112 31.1095 40.5389 31.2573C40.5667 31.4051 40.6521 31.5359 40.7762 31.6208L44.5387 34.1935C44.6367 34.2605 44.7481 34.2926 44.8584 34.2926C45.0394 34.2926 45.2172 34.2062 45.3271 34.0455L46.4112 32.4602C46.588 32.2014 46.5216 31.8485 46.2631 31.6717ZM40.3416 39.9464C40.2903 40.2189 40.0522 40.4089 39.7849 40.4089C39.7501 40.4089 39.7148 40.4057 39.6794 40.3991L37.4568 39.9814L38.2713 41.0238C38.4642 41.2706 38.4205 41.627 38.1736 41.8198C38.07 41.9008 37.9469 41.9401 37.8248 41.9401C37.6562 41.9401 37.4894 41.8653 37.3775 41.7221L34.5453 38.0975C34.3524 37.8506 34.3961 37.4942 34.643 37.3014L34.6442 37.3005L35.6073 36.5479C36.4026 35.9265 37.5364 36.0439 38.1349 36.8099C38.428 37.185 38.5483 37.6584 38.4735 38.1427C38.4276 38.4396 38.3117 38.717 38.1374 38.9552L39.889 39.2845C40.1968 39.3422 40.3993 39.6386 40.3416 39.9464ZM37.2411 37.5082C37.0314 37.2398 36.6031 37.2092 36.3058 37.4416L35.7909 37.844C35.9424 38.0368 36.1021 38.2402 36.1788 38.3383C36.2689 38.4536 36.4238 38.6502 36.5688 38.8338C36.757 38.6852 36.96 38.5252 37.0796 38.4319C37.2252 38.318 37.3247 38.1495 37.3525 37.9694C37.379 37.7978 37.3394 37.6341 37.2411 37.5082Z" fill="white"/>
<path d="M11.0943 32.9725C11.5987 34.26 10.9797 35.6056 9.72341 36.0978L9.71091 36.1027C8.46717 36.5899 7.08112 36.0516 6.55465 34.7078C6.29753 34.0516 6.29868 33.5393 6.4254 33.0715C6.46122 32.9421 6.56444 32.8007 6.73319 32.7346C6.99568 32.6318 7.28519 32.7635 7.38803 33.026C7.43946 33.1572 7.42374 33.2643 7.40693 33.3502C7.31222 33.6973 7.30991 34.0226 7.44459 34.3664C7.73354 35.1039 8.55417 35.3951 9.30417 35.1013L9.31667 35.0964C10.0667 34.8026 10.4884 34.0389 10.1946 33.289C10.0354 32.8827 9.80512 32.6629 9.47862 32.4736C9.38674 32.4231 9.30381 32.3403 9.25973 32.2278C9.16424 31.984 9.28343 31.6994 9.52718 31.6039C9.67717 31.5451 9.82531 31.5736 9.93459 31.6317C10.4326 31.8908 10.8201 32.2725 11.0943 32.9725Z" fill="white"/>
<path d="M9.5479 30.2701L5.80995 30.5093C5.5219 30.5277 5.27957 30.3146 5.26113 30.0265C5.2427 29.7385 5.45589 29.4961 5.74394 29.4777L7.1239 29.3894L7.00215 27.4869L5.62219 27.5752C5.33414 27.5937 5.0918 27.3805 5.07337 27.0924C5.05494 26.8044 5.26812 26.562 5.55617 26.5436L9.29412 26.3044C9.58217 26.286 9.82451 26.4991 9.84294 26.7872C9.86137 27.0752 9.64819 27.3176 9.36014 27.336L7.95338 27.426L8.07513 29.3285L9.48189 29.2385C9.76993 29.22 10.0123 29.4332 10.0307 29.7213C10.0491 30.0093 9.83595 30.2517 9.5479 30.2701Z" fill="white"/>
<path d="M10.3966 22.9328C10.052 24.3411 8.75494 25.0949 7.45743 24.7773L7.44439 24.7741C6.14688 24.4566 5.3346 23.1729 5.67925 21.7645C6.02389 20.3562 7.32095 19.6024 8.61846 19.92L8.6315 19.9232C9.92901 20.2407 10.7413 21.5244 10.3966 22.9328ZM9.47397 22.6932C9.67182 21.8847 9.17007 21.1676 8.38765 20.9761L8.37461 20.9729C7.5922 20.7814 6.79977 21.1956 6.60192 22.0041C6.40406 22.8126 6.90582 23.5297 7.68824 23.7212L7.70128 23.7244C8.48369 23.9159 9.27612 23.5017 9.47397 22.6932Z" fill="white"/>
<path d="M12.2852 18.3295C11.5706 19.5133 10.1261 19.8409 8.97106 19.1437L8.95957 19.1367C7.81598 18.4464 7.39963 17.019 8.14546 15.7834C8.50971 15.18 8.91691 14.8691 9.36522 14.685C9.48969 14.6347 9.66468 14.6305 9.81984 14.7242C10.0612 14.8699 10.1329 15.1798 9.9872 15.4211C9.91435 15.5418 9.81981 15.5945 9.74142 15.6334C9.40836 15.7695 9.14882 15.9657 8.95802 16.2818C8.54868 16.9599 8.81699 17.7883 9.50659 18.2046L9.51808 18.2115C10.2077 18.6278 11.0703 18.4977 11.4866 17.8081C11.712 17.4346 11.7463 17.1181 11.6978 16.7438C11.6819 16.6402 11.6972 16.524 11.7597 16.4205C11.8949 16.1964 12.1933 16.1178 12.4174 16.2531C12.5554 16.3363 12.6229 16.4712 12.6433 16.5933C12.7408 17.1461 12.6738 17.6858 12.2852 18.3295Z" fill="white"/>
<path d="M15.5743 14.3957C14.484 15.3514 12.9892 15.2246 12.1087 14.22L12.0998 14.2099C11.2193 13.2054 11.2906 11.688 12.3809 10.7322C13.4712 9.7765 14.966 9.90337 15.8465 10.9079L15.8554 10.918C16.7359 11.9225 16.6646 13.44 15.5743 14.3957ZM14.9561 13.67C15.582 13.1214 15.5825 12.2462 15.0515 11.6404L15.0427 11.6303C14.5117 11.0246 13.625 10.9092 12.9991 11.4579C12.3732 12.0065 12.3727 12.8817 12.9037 13.4875L12.9125 13.4976C13.4435 14.1033 14.3301 14.2187 14.9561 13.67Z" fill="white"/>
<path d="M17.6244 12.0555L16.0632 8.69507C15.9416 8.4333 16.0525 8.13017 16.3142 8.00856C16.576 7.88695 16.8791 7.99777 17.0008 8.25954L18.3837 11.2364L20.1187 10.4304C20.3561 10.3201 20.6325 10.4212 20.7428 10.6586C20.8531 10.896 20.752 11.1724 20.5146 11.2827L18.3109 12.3065C18.0491 12.4281 17.746 12.3172 17.6244 12.0555Z" fill="white"/>
<path d="M21.282 10.3708C21.2707 10.2979 21.286 10.2208 21.3079 10.1427L22.3614 6.23727C22.4352 5.96775 22.6173 5.78338 22.8959 5.74031L22.9556 5.73108C23.2342 5.68801 23.4568 5.80982 23.6086 6.04446L25.7923 9.44941C25.8367 9.51726 25.8669 9.58052 25.8772 9.64686C25.9192 9.91884 25.7408 10.1706 25.4688 10.2126C25.23 10.2495 25.0492 10.1348 24.9235 9.93692L24.4989 9.25541L22.4557 9.57128L22.2486 10.3844C22.1932 10.5968 22.0391 10.7428 21.8269 10.7756C21.5615 10.8167 21.3231 10.6362 21.282 10.3708ZM22.6944 8.61064L23.9813 8.41168L23.101 6.97877L22.6944 8.61064Z" fill="white"/>
<path d="M27.9277 9.78872L28.3424 6.54612L27.357 6.4201C27.0973 6.38689 26.9115 6.14658 26.9447 5.8869C26.9779 5.62723 27.2182 5.44141 27.4779 5.47462L30.4741 5.85779C30.7338 5.891 30.9196 6.13131 30.8864 6.39098C30.8532 6.65066 30.6129 6.83648 30.3532 6.80327L29.3678 6.67725L28.9531 9.91985C28.9165 10.2062 28.6612 10.4036 28.3748 10.367C28.0885 10.3304 27.8911 10.075 27.9277 9.78872Z" fill="white"/>
<path d="M31.4758 10.9335C31.208 10.826 31.0812 10.5291 31.1888 10.2613L32.5544 6.86015C32.662 6.5923 32.9588 6.46555 33.2267 6.5731L35.6436 7.54355C35.8803 7.6386 35.9958 7.90924 35.9008 8.14594C35.8058 8.38265 35.5376 8.49199 35.3009 8.39695L33.3574 7.61658L33.0022 8.50112L34.6654 9.16893C34.9021 9.26398 35.0177 9.53462 34.9227 9.77132C34.8276 10.008 34.5595 10.1174 34.3228 10.0223L32.6596 9.35451L32.2919 10.2702L34.2666 11.0631C34.5033 11.1581 34.6188 11.4288 34.5238 11.6655C34.4287 11.9022 34.1606 12.0115 33.9239 11.9165L31.4758 10.9335Z" fill="white"/>
</g>
<defs>
<clipPath id="clip0_1436_30916">
<rect width="51" height="49" rx="24.5" fill="white"/>
</clipPath>
<clipPath id="clip1_1436_30916">
<rect width="26.1" height="18" fill="white" transform="translate(12.6886 17)"/>
</clipPath>
</defs>
</svg>
