<svg width="51" height="50" viewBox="0 0 51 50" fill="none" xmlns="http://www.w3.org/2000/svg">
<g clip-path="url(#clip0_1436_31206)">
<circle cx="24.6395" cy="24.4706" r="24.951" fill="#158466"/>
</g>
<g clip-path="url(#clip1_1436_31206)">
<path d="M30.479 41.8316L29.4335 42.2773L29 41.2603L30.1808 40.757C30.4689 40.6341 30.6029 40.301 30.4801 40.0129C30.3573 39.7248 30.0245 39.5907 29.7359 39.7136L28.0333 40.4393C27.895 40.4983 27.7858 40.6098 27.7296 40.7494C27.6735 40.8889 27.675 41.0451 27.734 41.1835L29.5248 45.384C29.6167 45.5996 29.8263 45.7289 30.0468 45.7289C30.1209 45.7289 30.1964 45.7143 30.269 45.6833C30.5571 45.5604 30.6911 45.2273 30.5683 44.9392L29.8784 43.3209L30.9239 42.8752C31.212 42.7523 31.346 42.4192 31.2232 42.1311C31.1003 41.8428 30.7674 41.7088 30.479 41.8316ZM40.6929 36.8095C40.4342 36.6326 40.0813 36.699 39.9045 36.9576L39.1406 38.0748L38.1957 37.4287L38.8797 36.4283C39.0565 36.1698 38.9901 35.8168 38.7316 35.64C38.473 35.4632 38.1201 35.5296 37.9433 35.7881L37.2593 36.7884L36.3144 36.1422L37.0783 35.025C37.2551 34.7665 37.1888 34.4136 36.9303 34.2368C36.6716 34.0598 36.3187 34.1263 36.1419 34.3848L35.0579 35.9702C34.8811 36.2287 34.9475 36.5817 35.206 36.7585L38.9685 39.3312C39.0635 39.3961 39.1752 39.4302 39.2886 39.4302C39.3235 39.4302 39.3586 39.427 39.3933 39.4204C39.5412 39.3927 39.6719 39.3073 39.7569 39.1831L40.8409 37.5978C41.0177 37.3391 40.9514 36.9862 40.6929 36.8095ZM43.2631 33.0506C43.0044 32.8738 42.6516 32.9401 42.4748 33.1987L41.7108 34.3159L40.7659 33.6698L41.4499 32.6694C41.6267 32.4109 41.5604 32.058 41.3018 31.8812C41.0431 31.7043 40.6903 31.7707 40.5135 32.0292L39.8295 33.0295L38.8847 32.3834L39.6486 31.2662C39.8254 31.0077 39.7591 30.6548 39.5006 30.478C39.242 30.3011 38.8891 30.3675 38.7122 30.626L37.6282 32.2114C37.5433 32.3356 37.5112 32.4884 37.5389 32.6362C37.5667 32.7841 37.6521 32.9148 37.7762 32.9997L41.5387 35.5724C41.6367 35.6394 41.7481 35.6715 41.8584 35.6715C42.0394 35.6715 42.2172 35.5851 42.3271 35.4245L43.4112 33.8391C43.588 33.5803 43.5216 33.2274 43.2631 33.0506ZM37.3416 41.3253C37.2903 41.5978 37.0522 41.7878 36.7849 41.7878C36.7501 41.7878 36.7148 41.7846 36.6794 41.778L34.4568 41.3602L35.2713 42.4027C35.4642 42.6495 35.4205 43.0059 35.1736 43.1987C35.07 43.2797 34.9469 43.319 34.8248 43.319C34.6562 43.319 34.4894 43.2442 34.3775 43.101L31.5453 39.4764C31.3524 39.2295 31.3961 38.8732 31.643 38.6803L31.6442 38.6794L32.6073 37.9268C33.4026 37.3054 34.5364 37.4228 35.1349 38.1888C35.428 38.5639 35.5483 39.0373 35.4735 39.5216C35.4276 39.8185 35.3117 40.0959 35.1374 40.3341L36.889 40.6634C37.1968 40.721 37.3993 41.0175 37.3416 41.3253ZM34.2411 38.8871C34.0314 38.6187 33.6031 38.5881 33.3058 38.8205L32.7909 39.2229C32.9424 39.4157 33.1021 39.6191 33.1788 39.7172C33.2689 39.8325 33.4238 40.0291 33.5688 40.2127C33.757 40.0641 33.96 39.9041 34.0796 39.8108C34.2252 39.6969 34.3247 39.5284 34.3525 39.3483C34.379 39.1767 34.3394 39.013 34.2411 38.8871Z" fill="white"/>
<g clip-path="url(#clip2_1436_31206)">
<path d="M35.3637 26.207V32.4283C33.6116 33.1961 31.8616 33.9661 30.1137 34.7383V28.5105C31.8659 27.7427 33.6148 26.9748 35.3605 26.207H35.3637Z" fill="#D8E0EB"/>
<path d="M35.3605 26.2066C33.6116 26.9744 31.8626 27.7422 30.1137 28.51H30.1105C29.0703 28.0244 28.0367 27.5387 26.9966 27.0498C28.145 26.5445 29.2912 26.0403 30.4353 25.5372V24.0508C32.0792 24.7694 33.7209 25.488 35.3605 26.2066Z" fill="#CAD1E1"/>
<path d="M30.1137 28.5109V34.7388C28.4731 33.9709 26.8325 33.2053 25.1919 32.4419L25.1853 32.4288V27.8481C25.7891 27.5823 26.3917 27.3166 26.9933 27.0508H26.9966C28.0367 27.5397 29.0703 28.0253 30.1105 28.5109H30.1137Z" fill="#E6ECF4"/>
<path d="M30.4353 24.0512V25.5377C29.2901 26.043 28.1439 26.5472 26.9966 27.0503H26.9933C26.3928 27.3161 25.7901 27.5819 25.1853 27.8477V21.6231C26.9375 20.852 28.6875 20.0831 30.4353 19.3164V24.0512Z" fill="#D8E0EB"/>
<path d="M25.1853 21.6231V27.8477L23.3741 27.0011C22.3372 26.5187 21.3003 26.0353 20.2634 25.5508V19.3164C21.9041 20.0842 23.5447 20.8531 25.1853 21.6231Z" fill="#E6ECF4"/>
<path d="M30.4353 19.3164C28.6864 20.0842 26.9364 20.8531 25.1853 21.6231C23.5447 20.852 21.9041 20.0831 20.2634 19.3164C21.9041 18.5519 23.5447 17.7862 25.1853 17.0195C26.9375 17.7841 28.6875 18.5497 30.4353 19.3164Z" fill="#CAD1E1"/>
<path d="M25.1853 27.8485V32.4291C23.4364 33.2002 21.6864 33.9702 19.9353 34.7391V28.5146C21.0805 28.0093 22.2267 27.5051 23.3741 27.002L25.1853 27.8485Z" fill="#D8E0EB"/>
<path d="M23.3741 27.0011C22.2289 27.5064 21.0826 28.0106 19.9353 28.5137C18.2947 27.7427 16.6541 26.9737 15.0134 26.207C16.6541 25.4425 18.2947 24.6769 19.9353 23.9102C20.0436 23.9594 20.1551 24.0053 20.2634 24.0545V25.5508C21.3003 26.0331 22.3372 26.5166 23.3741 27.0011Z" fill="#CAD1E1"/>
<path d="M19.9353 28.5137V34.7383C18.2947 33.9738 16.6541 33.2081 15.0134 32.4414V26.207C16.6541 26.9748 18.2947 27.7437 19.9353 28.5137Z" fill="#E6ECF4"/>
<path d="M21.2556 29.8164C21.1685 29.8168 21.0849 29.7827 21.0231 29.7214C20.9612 29.6602 20.9263 29.5769 20.9258 29.4899C20.9254 29.4029 20.9596 29.3192 21.0208 29.2574C21.0821 29.1956 21.1653 29.1606 21.2524 29.1602H21.2556C21.3426 29.1602 21.4261 29.1947 21.4876 29.2563C21.5491 29.3178 21.5837 29.4013 21.5837 29.4883C21.5837 29.5753 21.5491 29.6588 21.4876 29.7203C21.4261 29.7818 21.3426 29.8164 21.2556 29.8164Z" fill="#CAD1E1"/>
<path d="M22.2399 32.1133C22.1529 32.1137 22.0693 32.0795 22.0075 32.0183C21.9456 31.9571 21.9106 31.8738 21.9102 31.7868C21.9098 31.6997 21.944 31.6161 22.0052 31.5543C22.0664 31.4924 22.1497 31.4575 22.2367 31.457H22.2399C22.327 31.457 22.4104 31.4916 22.472 31.5531C22.5335 31.6147 22.5681 31.6981 22.5681 31.7852C22.5681 31.8722 22.5335 31.9556 22.472 32.0172C22.4104 32.0787 22.327 32.1133 22.2399 32.1133Z" fill="#CAD1E1"/>
<path d="M23.5524 29.4883C23.4654 29.4887 23.3818 29.4545 23.32 29.3933C23.2581 29.3321 23.2231 29.2488 23.2227 29.1618C23.2223 29.0747 23.2565 28.9911 23.3177 28.9293C23.3789 28.8674 23.4622 28.8325 23.5492 28.832H23.5524C23.6395 28.832 23.7229 28.8666 23.7845 28.9281C23.846 28.9897 23.8806 29.0731 23.8806 29.1602C23.8806 29.2472 23.846 29.3306 23.7845 29.3922C23.7229 29.4537 23.6395 29.4883 23.5524 29.4883Z" fill="#CAD1E1"/>
<path d="M26.5056 22.9258C26.4185 22.9262 26.3349 22.892 26.2731 22.8308C26.2112 22.7696 26.1763 22.6863 26.1758 22.5993C26.1754 22.5122 26.2096 22.4286 26.2708 22.3668C26.3321 22.3049 26.4153 22.27 26.5024 22.2695H26.5056C26.5926 22.2695 26.6761 22.3041 26.7376 22.3656C26.7991 22.4272 26.8337 22.5106 26.8337 22.5977C26.8337 22.6847 26.7991 22.7681 26.7376 22.8297C26.6761 22.8912 26.5926 22.9258 26.5056 22.9258Z" fill="#CAD1E1"/>
<path d="M27.4899 25.2227C27.4469 25.2229 27.4041 25.2146 27.3643 25.1983C27.3244 25.182 27.2881 25.158 27.2575 25.1277C27.2268 25.0974 27.2025 25.0613 27.1858 25.0216C27.1691 24.9818 27.1604 24.9392 27.1602 24.8961C27.16 24.853 27.1683 24.8103 27.1846 24.7704C27.2009 24.7306 27.2249 24.6943 27.2552 24.6636C27.2855 24.633 27.3216 24.6087 27.3613 24.592C27.401 24.5753 27.4437 24.5666 27.4867 24.5664H27.4899C27.577 24.5664 27.6604 24.601 27.722 24.6625C27.7835 24.724 27.8181 24.8075 27.8181 24.8945C27.8181 24.9816 27.7835 25.065 27.722 25.1266C27.6604 25.1881 27.577 25.2227 27.4899 25.2227Z" fill="#CAD1E1"/>
<path d="M28.8024 22.5977C28.7594 22.5979 28.7166 22.5896 28.6768 22.5733C28.6369 22.557 28.6006 22.533 28.57 22.5027C28.5393 22.4724 28.515 22.4363 28.4983 22.3966C28.4816 22.3568 28.4729 22.3142 28.4727 22.2711C28.4725 22.228 28.4808 22.1853 28.4971 22.1454C28.5134 22.1056 28.5374 22.0693 28.5677 22.0386C28.598 22.008 28.6341 21.9837 28.6738 21.967C28.7135 21.9503 28.7562 21.9416 28.7992 21.9414H28.8024C28.8895 21.9414 28.9729 21.976 29.0345 22.0375C29.096 22.099 29.1306 22.1825 29.1306 22.2695C29.1306 22.3566 29.096 22.44 29.0345 22.5016C28.9729 22.5631 28.8895 22.5977 28.8024 22.5977Z" fill="#CAD1E1"/>
<path d="M17.9743 26.5352C17.8873 26.5356 17.8037 26.5014 17.7418 26.4402C17.68 26.3789 17.645 26.2957 17.6446 26.2086C17.6442 26.1216 17.6783 26.038 17.7396 25.9761C17.8008 25.9143 17.8841 25.8793 17.9711 25.8789H17.9743C18.0613 25.8789 18.1448 25.9135 18.2063 25.975C18.2679 26.0365 18.3024 26.12 18.3024 26.207C18.3024 26.2941 18.2679 26.3775 18.2063 26.4391C18.1448 26.5006 18.0613 26.5352 17.9743 26.5352Z" fill="#B7C3D5"/>
<path d="M20.2712 27.1914C20.1842 27.1918 20.1005 27.1577 20.0387 27.0964C19.9769 27.0352 19.9419 26.9519 19.9415 26.8649C19.941 26.7779 19.9752 26.6942 20.0364 26.6324C20.0977 26.5706 20.181 26.5356 20.268 26.5352H20.2712C20.3582 26.5352 20.4417 26.5697 20.5032 26.6313C20.5648 26.6928 20.5993 26.7763 20.5993 26.8633C20.5993 26.9503 20.5648 27.0338 20.5032 27.0953C20.4417 27.1568 20.3582 27.1914 20.2712 27.1914Z" fill="#B7C3D5"/>
</g>
<path d="M9.99923 25.9919C9.92001 26.631 9.64543 27.253 9.18924 27.7466C9.09124 27.8544 8.92808 27.9188 8.76135 27.8981C8.48348 27.8637 8.29568 27.6147 8.33012 27.3368C8.34734 27.1979 8.40803 27.1067 8.46526 27.0432C8.78183 26.7086 8.99849 26.3264 9.05704 25.854C9.11128 25.4163 8.97033 25.1308 8.68551 25.0955L8.67162 25.0938C8.40069 25.0602 8.24109 25.2097 7.93194 25.9967C7.56045 26.9452 7.21117 27.5438 6.24556 27.4241L6.23167 27.4224C5.34942 27.313 4.85371 26.5321 4.97684 25.5387C5.05002 24.9482 5.26657 24.4531 5.59869 24.0499C5.68279 23.9404 5.84332 23.8404 6.05172 23.8662C6.32959 23.9007 6.51739 24.1497 6.48295 24.4275C6.47004 24.5317 6.43192 24.6117 6.37296 24.689C6.12064 25.0174 5.96121 25.3363 5.91988 25.6697C5.86908 26.0796 6.02996 26.3182 6.26615 26.3474L6.28004 26.3492C6.5996 26.3888 6.72963 26.1933 7.04917 25.3794C7.42847 24.4248 7.85164 23.913 8.69915 24.018L8.71305 24.0197C9.67866 24.1394 10.1292 24.943 9.99923 25.9919Z" fill="white"/>
<path d="M11.1766 21.4028C10.6549 22.611 9.66098 23.0587 8.33712 22.487L6.2228 21.5741C5.94647 21.4548 5.82231 21.1419 5.94163 20.8656C6.06096 20.5893 6.3738 20.4651 6.65014 20.5844L8.73875 21.4863C9.47137 21.8026 10.0087 21.6 10.2695 20.9959C10.5304 20.3918 10.3223 19.8674 9.60891 19.5593L7.48817 18.6436C7.21183 18.5243 7.08768 18.2114 7.207 17.9351C7.32632 17.6588 7.63917 17.5346 7.91551 17.6539L9.99769 18.553C11.3601 19.1413 11.6982 20.1946 11.1766 21.4028Z" fill="white"/>
<path d="M14.1377 16.5864C13.1398 17.741 11.6429 17.8351 10.5466 16.8876L10.536 16.8785C9.48211 15.9676 9.3283 14.4006 10.2987 13.2778C10.7838 12.7165 11.2314 12.4556 11.7527 12.3233C11.8797 12.2942 12.0687 12.3003 12.2276 12.4376C12.45 12.6299 12.4745 12.9656 12.2822 13.188C12.1815 13.3045 12.0751 13.342 11.9824 13.3637C11.6312 13.4488 11.3299 13.6047 11.0278 13.9543C10.5152 14.5475 10.6321 15.472 11.2624 16.0166L11.273 16.0258C11.9509 16.6117 12.8515 16.5759 13.4191 15.9191C13.6754 15.6226 13.8301 15.2937 13.8603 14.959L13.3307 14.5012L12.8547 15.052C12.6853 15.248 12.3944 15.2741 12.1985 15.1048C12.0025 14.9354 11.9809 14.6392 12.1503 14.4433L12.9559 13.5111C13.1527 13.2834 13.4884 13.259 13.7161 13.4558L14.6165 14.2339C14.8548 14.4399 14.9412 14.6718 14.8883 14.9685C14.8128 15.4305 14.6183 16.0303 14.1377 16.5864Z" fill="white"/>
<path d="M15.6245 14.0561C15.5841 13.9905 15.5676 13.9103 15.557 13.8263L14.9889 9.64652C14.9507 9.35763 15.0511 9.10675 15.3014 8.95258L15.3551 8.91955C15.6054 8.76539 15.8686 8.79236 16.1094 8.95646L19.5863 11.345C19.6565 11.3923 19.711 11.4408 19.7478 11.5004C19.8982 11.7448 19.8286 12.059 19.5843 12.2095C19.3697 12.3416 19.1496 12.3045 18.9486 12.1652L18.2647 11.6821L16.4289 12.8126L16.559 13.6779C16.5916 13.9044 16.5027 14.1072 16.312 14.2246C16.0736 14.3714 15.7713 14.2945 15.6245 14.0561ZM16.2695 11.7928L17.4258 11.0807L15.9997 10.0598L16.2695 11.7928Z" fill="white"/>
<path d="M20.6927 11.0327L19.753 7.28469C19.6798 6.99273 19.8528 6.70399 20.1447 6.63079L21.7947 6.21713C22.399 6.06562 22.91 6.11791 23.3007 6.35194C23.6319 6.55035 23.8681 6.88804 23.9804 7.33617L23.9838 7.34975C24.1711 8.09664 23.9134 8.65197 23.3958 9.03432L24.3437 9.73485C24.4779 9.83832 24.573 9.92994 24.6138 10.0929C24.687 10.3849 24.4903 10.6363 24.239 10.6992C24.0014 10.7588 23.8163 10.6825 23.6549 10.557L22.313 9.5223L21.4779 9.73169L21.7383 10.7705C21.8115 11.0625 21.6385 11.3512 21.3466 11.4244C21.0546 11.4976 20.7659 11.3247 20.6927 11.0327ZM21.2463 8.80826L22.3056 8.5427C22.8148 8.41503 23.0387 8.07023 22.9382 7.66963L22.9348 7.65605C22.8225 7.20792 22.4523 7.05538 21.943 7.18305L20.9042 7.4435L21.2463 8.80826Z" fill="white"/>
</g>
<defs>
<clipPath id="clip0_1436_31206">
<rect width="51" height="49" rx="24.5" fill="white"/>
</clipPath>
<clipPath id="clip1_1436_31206">
<rect width="42" height="42" fill="white" transform="translate(2.6886 4.37891)"/>
</clipPath>
<clipPath id="clip2_1436_31206">
<rect width="21" height="21" fill="white" transform="translate(14.6886 15.3789)"/>
</clipPath>
</defs>
</svg>
