<svg width="53" height="50" viewBox="0 0 53 50" fill="none" xmlns="http://www.w3.org/2000/svg">
<g clip-path="url(#clip0_1436_32335)">
<circle cx="25.6395" cy="24.4706" r="24.951" fill="#158466"/>
</g>
<g clip-path="url(#clip1_1436_32335)">
<path d="M32.5921 19.0804C32.4905 19.0887 32.3854 19.0698 32.2879 19.0199C32.0091 18.8773 31.8987 18.5355 32.0414 18.2566L36.6537 10.2073C36.7963 9.92853 37.1381 9.81813 37.4169 9.96082C37.6957 10.1034 37.8062 10.4452 37.6635 10.724L33.0511 18.7734C32.9583 18.9547 32.7813 19.0648 32.5921 19.0804ZM37.185 18.6632L40.5123 13.2942C40.6773 13.0279 40.5952 12.6783 40.329 12.5134C40.0627 12.3484 39.713 12.4304 39.5481 12.6967L36.2209 18.0656C36.0559 18.3319 36.1379 18.6815 36.4042 18.8465C36.4972 18.9042 36.6005 18.9316 36.7024 18.9316C36.8922 18.9316 37.0777 18.8364 37.185 18.6632Z" fill="#FFC143"/>
<path d="M24.3788 12.2014C24.4167 12.5124 24.1952 12.7951 23.8844 12.833C23.8611 12.8358 23.8379 12.8372 23.815 12.8372C23.5324 12.8372 23.2878 12.6262 23.2527 12.3386L22.6975 7.78086C22.6676 7.53449 22.8012 7.2972 23.0275 7.19519C23.2536 7.09325 23.5202 7.15027 23.6847 7.33592L26.2234 10.198L25.8542 7.39308C25.8133 7.08252 26.0319 6.79766 26.3425 6.75675C26.653 6.71599 26.9378 6.93445 26.9787 7.24502L27.5589 11.6522C27.5968 11.9617 27.4546 12.2333 27.1974 12.3494C26.9454 12.4631 26.6567 12.3951 26.4617 12.1758L24.0436 9.44963L24.3788 12.2014ZM12.2081 21.6805C11.9141 21.5716 11.5879 21.7213 11.479 22.0148C11.3545 22.3502 11.2205 22.7094 11.1151 22.9897L7.34217 21.5657C7.04937 21.455 6.72187 21.6029 6.61131 21.896C6.50068 22.189 6.64859 22.5163 6.94162 22.6268L11.2416 24.2499C11.3072 24.2747 11.375 24.2865 11.4417 24.2865C11.638 24.2865 11.8265 24.1841 11.9309 24.0065C11.9618 23.9537 11.9824 23.9189 12.5424 22.4095C12.6514 22.1159 12.5017 21.7895 12.2081 21.6805ZM21.3183 12.3472L20.0324 12.7695L19.6753 11.6818L20.8266 11.3038C21.1243 11.2061 21.2862 10.8856 21.1885 10.5881C21.0908 10.2905 20.7707 10.1285 20.4727 10.2262L19.3214 10.6042L18.9643 9.51663L20.2502 9.09437C20.5478 8.99667 20.7098 8.67619 20.6121 8.37856C20.5144 8.08092 20.1938 7.91902 19.8963 8.01664L18.0716 8.61585C17.7739 8.71355 17.612 9.03402 17.7097 9.33159L18.4197 11.4942L18.4206 11.4969L18.4217 11.5002L19.1316 13.6622C19.1786 13.8051 19.2804 13.9235 19.4146 13.9914C19.4947 14.0319 19.5824 14.0524 19.6705 14.0524C19.7301 14.0524 19.7897 14.0431 19.8474 14.0241L21.6722 13.425C21.9698 13.3273 22.1318 13.0068 22.0341 12.7093C21.9364 12.4117 21.6161 12.2495 21.3183 12.3472ZM11.1762 26.0151C10.6997 25.5609 10.0157 25.277 9.25028 25.2157C9.10047 25.2036 8.95188 25.2517 8.83724 25.3492C8.72276 25.4468 8.65167 25.5857 8.63973 25.7357L8.52985 27.1074C8.50482 27.4196 8.73765 27.693 9.04989 27.718C9.36219 27.7428 9.63541 27.5101 9.66044 27.198L9.7201 26.4539C9.98764 26.5391 10.2182 26.6689 10.3936 26.8362C10.6805 27.1096 10.8083 27.467 10.7738 27.8985C10.7368 28.3599 10.5223 28.7792 10.17 29.0794C9.81757 29.3795 9.3693 29.5244 8.90802 29.4874C8.44667 29.4504 8.02736 29.236 7.72723 28.8837C7.42709 28.5313 7.28221 28.0831 7.31918 27.6217C7.34694 27.2755 7.47557 26.9498 7.69123 26.68C7.88678 26.4353 7.84693 26.0783 7.60215 25.8829C7.35752 25.6873 7.0006 25.7272 6.80505 25.9719C6.4476 26.4193 6.23442 26.9585 6.1886 27.5311C6.12735 28.2945 6.36714 29.036 6.86373 29.6191C7.36032 30.2021 8.05413 30.5569 8.81758 30.6181C8.8957 30.6243 8.97366 30.6274 9.05125 30.6274C9.73114 30.6274 10.3822 30.3886 10.9055 29.9429C11.4886 29.4464 11.8433 28.7525 11.9045 27.9891C11.9659 27.2223 11.7072 26.5212 11.1762 26.0151ZM14.0062 16.4239L11.4455 14.5689C11.1918 14.3852 10.8372 14.4418 10.6535 14.6955C10.4697 14.9491 10.5264 15.3037 10.7801 15.4875L13.3408 17.3425C13.5211 17.4731 13.7168 17.6927 13.6288 18.2362C13.6016 18.4041 13.5349 18.5593 13.4248 18.7108C13.3046 18.8763 13.1597 18.9909 12.9819 19.0609C12.5607 19.2269 12.3381 19.1624 12.1338 19.0143L9.57037 17.1574C9.31667 16.9736 8.96209 17.0302 8.77834 17.2839C8.59458 17.5376 8.6513 17.8922 8.90492 18.0759L11.4684 19.9329C11.8867 20.2359 12.3548 20.3469 12.8652 20.2653C13.038 20.2377 13.2157 20.188 13.3978 20.1162C13.7772 19.9668 14.0951 19.7182 14.3427 19.3774C14.5566 19.0829 14.6932 18.7598 14.7486 18.4173C14.9228 17.3404 14.441 16.7389 14.0062 16.4239ZM14.8827 11.9799L15.3835 11.4791C15.605 11.2576 15.605 10.8986 15.3835 10.6771C15.1619 10.4556 14.8029 10.4556 14.5814 10.6771L12.785 12.4734C12.5635 12.6949 12.5635 13.054 12.785 13.2754C12.8958 13.3862 13.041 13.4416 13.1861 13.4416C13.3312 13.4416 13.4764 13.3862 13.5872 13.2754L14.0807 12.7819L16.9323 15.6336C17.0431 15.7443 17.1883 15.7997 17.3334 15.7997C17.4785 15.7997 17.6237 15.7443 17.7345 15.6336C17.956 15.4121 17.956 15.053 17.7345 14.8315L14.8827 11.9799ZM30.6304 40.5782L29.5849 41.0239L29.1514 40.0069L30.3322 39.5036C30.6203 39.3807 30.7543 39.0476 30.6315 38.7595C30.5087 38.4714 30.1759 38.3373 29.8873 38.4602L28.1847 39.1859C28.0464 39.2449 27.9372 39.3565 27.881 39.496C27.8249 39.6356 27.8264 39.7917 27.8854 39.9301L29.6762 44.1307C29.7681 44.3463 29.9777 44.4756 30.1982 44.4756C30.2723 44.4756 30.3477 44.4609 30.4203 44.43C30.7085 44.3071 30.8424 43.974 30.7196 43.6859L30.0298 42.0675L31.0753 41.6218C31.3634 41.499 31.4974 41.1659 31.3746 40.8778C31.2517 40.5895 30.9188 40.4554 30.6304 40.5782ZM40.8442 35.5561C40.5856 35.3792 40.2327 35.4457 40.0559 35.7042L39.292 36.8214L38.3471 36.1753L39.031 35.1749C39.2078 34.9164 39.1415 34.5635 38.883 34.3867C38.6244 34.2099 38.2715 34.2762 38.0947 34.5348L37.4107 35.535L36.4657 34.8889L37.2297 33.7717C37.4065 33.5131 37.3402 33.1602 37.0817 32.9834C36.823 32.8065 36.4701 32.8729 36.2933 33.1315L35.2093 34.7168C35.0325 34.9754 35.0988 35.3283 35.3574 35.5051L39.1199 38.0778C39.2149 38.1428 39.3266 38.1768 39.44 38.1768C39.4749 38.1768 39.5099 38.1736 39.5447 38.1671C39.6926 38.1393 39.8233 38.0539 39.9082 37.9298L40.9922 36.3444C41.1691 36.0858 41.1028 35.7329 40.8442 35.5561ZM43.4145 31.7973C43.1558 31.6205 42.8029 31.6868 42.6261 31.9453L41.8622 33.0625L40.9173 32.4164L41.6013 31.4161C41.7781 31.1575 41.7118 30.8046 41.4532 30.6278C41.1945 30.4509 40.8417 30.5173 40.6649 30.7759L39.9809 31.7762L39.036 31.1301L39.8 30.0129C39.9768 29.7543 39.9105 29.4014 39.652 29.2246C39.3933 29.0477 39.0405 29.1141 38.8636 29.3727L37.7795 30.958C37.6947 31.0822 37.6626 31.235 37.6903 31.3829C37.7181 31.5307 37.8034 31.6614 37.9276 31.7464L41.6901 34.3191C41.7881 34.386 41.8995 34.4181 42.0098 34.4181C42.1908 34.4181 42.3686 34.3317 42.4785 34.1711L43.5625 32.5857C43.7393 32.327 43.673 31.9741 43.4145 31.7973ZM37.4929 40.072C37.4417 40.3444 37.2036 40.5344 36.9362 40.5344C36.9015 40.5344 36.8662 40.5313 36.8307 40.5246L34.6082 40.1069L35.4227 41.1493C35.6155 41.3961 35.5718 41.7525 35.325 41.9453C35.2213 42.0263 35.0983 42.0657 34.9762 42.0657C34.8076 42.0657 34.6407 41.9908 34.5289 41.8476L31.6966 38.223C31.5038 37.9762 31.5475 37.6198 31.7943 37.427L31.7956 37.4261L32.7587 36.6734C33.5539 36.0521 34.6878 36.1695 35.2863 36.9354C35.5794 37.3106 35.6997 37.784 35.6249 38.2682C35.579 38.5652 35.4631 38.8425 35.2888 39.0807L37.0404 39.41C37.3481 39.4677 37.5507 39.7641 37.4929 40.072ZM34.3925 37.6337C34.1828 37.3653 33.7545 37.3348 33.4571 37.5672L32.9422 37.9695C33.0938 38.1624 33.2535 38.3658 33.3302 38.4639C33.4202 38.5792 33.5752 38.7757 33.7201 38.9593C33.9084 38.8107 34.1114 38.6508 34.231 38.5574C34.3766 38.4436 34.476 38.275 34.5039 38.095C34.5304 37.9233 34.4908 37.7596 34.3925 37.6337Z" fill="white"/>
<path d="M37.1676 19.1602C36.0864 21.0566 34.1882 22.1954 32.1684 22.3864C31.3039 20.551 31.3172 18.3375 32.3984 16.4411C33.4796 14.5447 35.3777 13.4059 37.3976 13.2148C38.2619 15.0503 38.2487 17.2638 37.1676 19.1602Z" fill="#FFF261"/>
<path d="M41.2165 8.56331L37.7316 14.0792C38.2331 15.7184 38.0838 17.5529 37.1677 19.1596C36.2214 20.8193 34.6492 21.8988 32.9174 22.2704C32.6998 20.6511 32.992 18.9502 33.8637 17.4213C34.4025 16.4763 35.9316 14.8067 36.0061 14.6864L40.2523 7.96569C40.4173 7.69943 40.767 7.61746 41.0332 7.78239C41.2993 7.94731 41.3814 8.29698 41.2165 8.56331Z" fill="#FFF587"/>
<path d="M34.8679 12.2337L30.9877 16.665C31.9496 17.9867 32.4124 19.6725 32.1502 21.4167C31.8258 23.5753 30.4661 25.3222 28.6512 26.2288C27.183 24.8287 26.3968 22.7594 26.7213 20.6007C26.9393 19.15 27.6249 17.8854 28.6019 16.9367C29.0787 16.4736 32.7831 12.8928 32.7831 12.8928L34.0146 11.4865C34.221 11.2509 34.5793 11.227 34.8149 11.4335C35.0505 11.6398 35.0743 11.998 34.8679 12.2337Z" fill="#FFB509"/>
<path d="M30.7533 24.5548C29.7936 23.2338 29.332 21.5497 29.5939 19.8075C29.7739 18.6098 30.2725 17.539 30.9908 16.668C31.9506 17.989 32.4122 19.6731 32.1503 21.4154C31.9703 22.613 31.4716 23.6839 30.7533 24.5548Z" fill="#FFC143"/>
<path d="M39.3156 21.8C38.9933 23.8031 37.7331 25.6229 35.7702 26.5781C33.8073 27.5334 31.5977 27.4022 29.8225 26.4199C30.1448 24.4168 31.4051 22.5969 33.3679 21.6417C35.3308 20.6865 37.5405 20.8177 39.3156 21.8Z" fill="#FFC143"/>
<path d="M29.156 25.5852C28.8315 27.7439 27.4719 29.4907 25.6569 30.3973C24.1887 28.9972 23.4026 26.9279 23.727 24.7691C24.0515 22.6104 25.4112 20.8636 27.2261 19.957C28.6943 21.3571 29.4805 23.4264 29.156 25.5852Z" fill="#FFF261"/>
<path d="M27.6961 28.8016C26.7209 27.476 26.25 25.7791 26.5139 24.0231C26.6991 22.7908 27.2217 21.6928 27.9736 20.8086C28.9488 22.1342 29.4198 23.8311 29.1559 25.5871C28.9707 26.8194 28.4481 27.9173 27.6961 28.8016Z" fill="#FFF587"/>
<path d="M41.3837 16.4248L40.5974 18.4956C40.5974 18.4956 38.9961 23.0953 38.7305 23.6344C38.12 24.8733 37.1085 25.9263 35.7704 26.5774C33.8076 27.5327 31.5979 27.4015 29.8228 26.4192C29.9576 25.581 30.2567 24.775 30.7028 24.0509C32.2637 24.5914 34.0308 24.5358 35.6334 23.7559C36.7749 23.2004 38.3005 21.3466 38.3014 21.3469L40.3234 16.0222C40.4346 15.7293 40.7625 15.5822 41.055 15.6933C41.3477 15.8045 41.4949 16.132 41.3837 16.4248Z" fill="#FFB509"/>
<path d="M36.1357 27.1994C35.5132 29.1303 33.9914 30.7378 31.9063 31.3841C29.8213 32.0305 27.6571 31.5654 26.0515 30.3252C26.674 28.3942 28.1959 26.7866 30.2809 26.1404C32.366 25.4941 34.5302 25.9591 36.1357 27.1994Z" fill="#FFF587"/>
<path d="M35.1487 26.5705C34.3625 27.6167 33.2517 28.434 31.9063 28.851C30.2235 29.3726 28.4892 29.1703 27.0386 28.4208C27.8247 27.3747 28.9355 26.5574 30.2809 26.1403C31.9637 25.6187 33.6981 25.8211 35.1487 26.5705Z" fill="#FFF69A"/>
<path d="M32.4733 31.6925C31.6691 33.5551 30.0007 35.01 27.8635 35.4542C25.7263 35.8983 23.6163 35.2287 22.1366 33.8407C22.161 33.7841 22.1863 33.7278 22.2124 33.672C22.0568 33.7467 21.8982 33.8153 21.7368 33.8774C20.409 32.3435 19.8242 30.2084 20.3534 28.0906C20.8826 25.9728 22.4029 24.3639 24.2962 23.6348C25.624 25.1687 26.2088 27.3037 25.6796 29.4215C25.5787 29.8255 25.4416 30.2109 25.2728 30.5753C25.7323 30.3557 26.2254 30.1873 26.7465 30.079C28.8836 29.6349 30.9935 30.3045 32.4733 31.6925Z" fill="#FFC143"/>
<path d="M32.4733 31.6925C31.6691 33.5551 30.0007 35.01 27.8635 35.4542C25.7263 35.8983 23.6163 35.2287 22.1366 33.8407C22.161 33.7841 22.1864 33.7278 22.2124 33.672C22.0568 33.7467 21.8982 33.8153 21.7368 33.8774C20.409 32.3435 19.8242 30.2084 20.3534 28.0906C20.8826 25.9728 22.4029 24.3639 24.2962 23.6348C24.5239 23.8978 24.7298 24.1787 24.9119 24.4741C24.1082 25.274 23.5053 26.2964 23.2103 27.4768C22.8407 28.9558 23.0145 30.4431 23.6051 31.7282C23.6412 31.6937 23.6777 31.6595 23.7147 31.6257C25.1562 32.7498 27.0637 33.2568 28.9936 32.8557C30.1674 32.6118 31.1998 32.0629 32.0252 31.3092C32.1801 31.4299 32.3297 31.5578 32.4733 31.6925Z" fill="#FFB509"/>
<path d="M22.2827 32.9043C21.7418 34.7432 20.3497 36.0998 18.6624 36.6709C17.553 35.277 17.1172 33.3828 17.6581 31.5439C18.199 29.7051 19.5911 28.3485 21.2784 27.7773C22.3878 29.1712 22.8236 31.0655 22.2827 32.9043Z" fill="#FFF261"/>
<path d="M27.84 35.0351C27.0671 36.6401 25.5507 37.8561 23.6595 38.1685C21.7684 38.4808 19.9416 37.817 18.6936 36.5457C18.9875 35.9352 19.3891 35.381 19.8779 34.9115C19.5296 33.8569 19.4873 32.6894 19.8244 31.5434C20.1802 30.3338 20.9043 29.3329 21.8385 28.627C22.5187 29.8927 22.7203 31.4163 22.2827 32.9038C22.2096 33.1524 22.1208 33.3922 22.018 33.6224C22.2933 33.5317 22.5792 33.461 22.8741 33.4123C24.7652 33.0999 26.592 33.7638 27.84 35.0351Z" fill="#FFF587"/>
<path d="M27.0351 34.3548C26.1989 35.3313 25.0272 36.0299 23.6595 36.2558C22.1426 36.5063 20.667 36.1288 19.4984 35.3134C20.3346 34.3369 21.5063 33.6383 22.874 33.4124C24.3909 33.162 25.8665 33.5395 27.0351 34.3548Z" fill="#FFF69A"/>
<path d="M35.5324 17.7718C33.5766 21.9662 30.116 26.6597 25.7881 30.9876C21.5162 35.2596 16.8882 38.6864 12.7354 40.6552C12.4548 40.3885 12.1823 40.1135 11.9181 39.8306C11.9663 39.779 12.0249 39.7356 12.0929 39.7039C20.5209 35.7741 30.5746 25.7203 34.5044 17.2924C34.6368 17.0085 34.9744 16.8858 35.2582 17.0181C35.542 17.1504 35.6648 17.4879 35.5324 17.7718Z" fill="#FFB509"/>
</g>
<defs>
<clipPath id="clip0_1436_32335">
<rect x="0.688599" y="0.378906" width="51.6228" height="48.6211" rx="24.3105" fill="white"/>
</clipPath>
<clipPath id="clip1_1436_32335">
<rect width="40" height="38.616" fill="white" transform="translate(5.6886 5.08789)"/>
</clipPath>
</defs>
</svg>
