<svg width="24" height="24" viewBox="0 0 24 24" fill="none" xmlns="http://www.w3.org/2000/svg">
<path fill-rule="evenodd" clip-rule="evenodd" d="M21.9754 16.4324H2.02441C1.86926 16.4324 1.74316 16.3068 1.74316 16.1511C1.74316 14.3277 2.22832 12.5366 3.14613 10.9715C3.21035 10.8618 3.3402 10.8088 3.46254 10.8421C3.58488 10.8754 3.6702 10.9869 3.6702 11.1135V12.5765C3.6702 12.8188 3.86707 13.0157 4.10895 13.0157H5.07035C5.31223 13.0157 5.5091 12.8188 5.5091 12.5765V9.10115C5.5091 8.97318 5.45285 8.85177 5.35395 8.7674C5.2916 8.71396 5.25551 8.63568 5.25551 8.55365C5.25551 8.47115 5.2916 8.39287 5.35441 8.33943C6.84504 7.07005 8.65348 6.25818 10.5847 5.99146C10.6649 5.98021 10.7464 6.00459 10.8079 6.05802C10.8688 6.11146 10.9039 6.1888 10.9039 6.27037V9.58537C10.9039 9.88583 11.1486 10.1305 11.4491 10.1305H12.5507C12.8511 10.1305 13.0958 9.88583 13.0958 9.58537V6.27037C13.0958 6.1888 13.131 6.11146 13.1924 6.05802C13.2533 6.00505 13.3349 5.98068 13.4155 5.99146C15.3468 6.25818 17.1552 7.07005 18.6458 8.33943C18.7082 8.39287 18.7443 8.47115 18.7443 8.55365C18.7447 8.63568 18.7086 8.71396 18.6458 8.7674C18.5469 8.85177 18.4907 8.97365 18.4907 9.10115V12.5765C18.4907 12.8188 18.6875 13.0157 18.9294 13.0157H19.8904C20.1327 13.0157 20.3296 12.8188 20.3296 12.5765V11.1135C20.3296 10.9865 20.4149 10.8754 20.5372 10.8421C20.66 10.8088 20.7894 10.8618 20.8536 10.971C21.7714 12.5371 22.2566 14.3282 22.2566 16.1511C22.2566 16.3068 22.131 16.4324 21.9754 16.4324Z" fill="#FFCE06"/>
<path fill-rule="evenodd" clip-rule="evenodd" d="M22.1799 19.5071H1.82023C0.817578 19.5071 0.00195312 18.691 0.00195312 17.6884C0.00195312 16.6857 0.817578 15.8696 1.82023 15.8696H22.1799C23.1826 15.8696 23.9987 16.6857 23.9987 17.6884C23.9987 18.691 23.1826 19.5071 22.1799 19.5071Z" fill="#FCAF17"/>
<path fill-rule="evenodd" clip-rule="evenodd" d="M12.551 10.6929H11.4495C10.8387 10.6929 10.3423 10.196 10.3423 9.5852V5.60082C10.3423 4.99004 10.8387 4.49316 11.4495 4.49316H12.551C13.1618 4.49316 13.6587 4.99004 13.6587 5.60082V9.5852C13.6587 10.196 13.1618 10.6929 12.551 10.6929Z" fill="#FCAF17"/>
<path fill-rule="evenodd" clip-rule="evenodd" d="M5.0701 13.5779H4.10963C3.55697 13.5779 3.10791 13.1284 3.10791 12.5762V9.10133C3.10791 8.54867 3.55744 8.09961 4.10963 8.09961H5.0701C5.62275 8.09961 6.07182 8.54867 6.07182 9.10133V12.5762C6.07182 13.1284 5.62275 13.5779 5.0701 13.5779Z" fill="#FCAF17"/>
<path fill-rule="evenodd" clip-rule="evenodd" d="M19.8904 13.5779H18.9299C18.3773 13.5779 17.9282 13.1284 17.9282 12.5762V9.10133C17.9282 8.54867 18.3773 8.09961 18.9299 8.09961H19.8904C20.4431 8.09961 20.8921 8.54867 20.8921 9.10133V12.5762C20.8921 13.1284 20.4431 13.5779 19.8904 13.5779Z" fill="#FCAF17"/>
</svg>
