<svg width="34" height="34" viewBox="0 0 34 34" fill="none" xmlns="http://www.w3.org/2000/svg">
<g clip-path="url(#clip0_1228_11668)">
<path d="M20.1262 4.67969H13.8461C11.6377 9.18382 11.111 10.2583 10.1857 12.1453C9.5056 13.5322 9.15039 15.0728 9.15039 16.6361V31.7791C9.15039 33.0053 10.0877 33.9994 11.244 33.9994H22.7556C23.9118 33.9994 24.8492 33.0053 24.8492 31.7791V16.6479C24.8492 15.077 24.4906 13.5294 23.8042 12.1373C23.3183 11.1516 22.8224 10.1464 20.1262 4.67969Z" fill="#CDE2FF"/>
<path d="M13.6381 33.9997H11.2438C10.0876 33.9997 9.15039 33.0057 9.15039 31.7791V16.6365C9.15039 15.0733 9.50547 13.5327 10.1855 12.1453C11.111 10.2586 11.6378 9.18382 13.8461 4.67969H16.2405C14.0322 9.18382 13.5054 10.2585 12.5798 12.1453C11.8998 13.5327 11.5447 15.0733 11.5447 16.6365V31.7791C11.5447 33.0057 12.482 33.9997 13.6381 33.9997Z" fill="#C0DBFF"/>
<path d="M22.7973 16.6478V31.7823C22.7967 31.8747 22.7166 31.9472 22.6243 31.9472H11.3762C11.2838 31.9472 11.2038 31.8747 11.2031 31.7823V16.6362C11.2031 15.3912 11.4884 14.1509 12.0288 13.0487L13.9298 9.17155C14.0025 9.02313 14.1532 8.9285 14.3184 8.92658C15.3432 8.91476 16.1823 8.87073 17.046 9.63573C17.5434 10.0774 18.2047 10.3424 18.9102 10.3424H20.3597C20.5259 10.3424 20.6779 10.4369 20.7519 10.5857C22.0268 13.1492 22.7973 14.3878 22.7973 16.6478Z" fill="#FFF5F4"/>
<path d="M20.2897 4.74858H13.7098C13.0292 4.74858 12.4775 4.19687 12.4775 3.51628V1.2323C12.4776 0.551703 13.0293 0 13.7099 0H20.2898C20.9704 0 21.5221 0.551703 21.5221 1.2323V3.51628C21.522 4.19687 20.9703 4.74858 20.2897 4.74858Z" fill="white"/>
<path d="M16.1049 4.74838H13.7106C13.0299 4.74838 12.4785 4.19701 12.4785 3.51628V1.2321C12.4784 0.551371 13.0298 0 13.7105 0H16.1048C15.4242 0 14.8728 0.551371 14.8728 1.2321V3.51634C14.8728 4.19701 15.4242 4.74838 16.1049 4.74838Z" fill="#D9DBDF"/>
<path d="M22.7973 16.6479V31.7824C22.7967 31.8747 22.7166 31.9473 22.6243 31.9473H11.3762C11.2838 31.9473 11.2038 31.8747 11.2031 31.7824V16.6363C11.2031 15.3913 11.4884 14.151 12.0288 13.0488L13.93 9.17132C14.0025 9.0229 14.153 8.92847 14.3185 8.92641C15.058 8.91818 15.7011 8.89288 16.3264 9.16793C16.5672 9.27259 16.8059 9.42313 17.046 9.63583C17.5433 10.0778 18.2049 10.3425 18.9102 10.3425H20.3597C20.526 10.3425 20.6778 10.437 20.7517 10.586C22.027 13.1494 22.7973 14.3877 22.7973 16.6479Z" fill="#D9DBDF"/>
<path d="M22.7975 16.648V31.7824C22.7968 31.8748 22.7168 31.9473 22.6245 31.9473H13.7707C13.6783 31.9473 13.5983 31.8748 13.5977 31.7824V16.6363C13.5977 15.3913 13.8829 14.151 14.4234 13.0489L16.3245 9.17136C16.3252 9.16996 16.3259 9.1693 16.3266 9.16797C16.5673 9.27262 16.8061 9.42317 17.0462 9.63587C17.5435 10.0778 18.2051 10.3426 18.9104 10.3426H20.3599C20.5262 10.3426 20.678 10.437 20.7519 10.5861C22.0272 13.1494 22.7975 14.3877 22.7975 16.648Z" fill="#FFF5F4"/>
<path d="M25 7C21.6916 7 19 9.6916 19 13C19 16.3084 21.6916 19 25 19C28.3084 19 31 16.3084 31 13C31 9.6916 28.3084 7 25 7ZM25 17.4348C22.5547 17.4348 20.5652 15.4453 20.5652 13C20.5652 12.0594 20.8604 11.187 21.3618 10.4686L27.5314 16.6382C26.813 17.1396 25.9406 17.4348 25 17.4348ZM28.6382 15.5314L22.4686 9.36181C23.187 8.86042 24.0594 8.56522 25 8.56522C27.4453 8.56522 29.4348 10.5547 29.4348 13C29.4348 13.9406 29.1396 14.813 28.6382 15.5314Z" fill="#FF810D"/>
</g>
<defs>
<clipPath id="clip0_1228_11668">
<rect width="34" height="34" fill="white"/>
</clipPath>
</defs>
</svg>
