<svg width="25" height="25" viewBox="0 0 25 25" fill="none" xmlns="http://www.w3.org/2000/svg">
<g clip-path="url(#clip0_72_3415)">
<path d="M12.5 0C5.60446 0 0 5.60446 0 12.5C0 19.3955 5.60446 25 12.5 25C19.3955 25 25 19.3955 25 12.5C25 5.60446 19.3955 0 12.5 0ZM12.5 23.7383C6.30868 23.7383 1.26174 18.6913 1.26174 12.5C1.26174 6.30868 6.30868 1.26174 12.5 1.26174C18.6913 1.26174 23.7383 6.30868 23.7383 12.5C23.7383 18.6913 18.6913 23.7383 12.5 23.7383Z" fill="#158466"/>
<path d="M13.3799 12.4413L17.0477 8.77347C17.2824 8.53873 17.2824 8.12793 17.0477 7.89319C16.813 7.65845 16.4022 7.65845 16.1674 7.89319L12.4996 11.561L8.83173 7.89319C8.59699 7.65845 8.18619 7.65845 7.95145 7.89319C7.71671 8.12793 7.71671 8.53873 7.95145 8.77347L11.6193 12.4413L7.95145 16.0798C7.71671 16.3146 7.71671 16.7253 7.95145 16.9601C8.06882 17.0775 8.24487 17.1361 8.39159 17.1361C8.5383 17.1361 8.71436 17.0775 8.83173 16.9601L12.4996 13.2922L16.1674 16.9601C16.2848 17.0775 16.4608 17.1361 16.6076 17.1361C16.7543 17.1361 16.9303 17.0775 17.0477 16.9601C17.2824 16.7253 17.2824 16.3146 17.0477 16.0798L13.3799 12.4413Z" fill="#158466"/>
</g>
<defs>
<clipPath id="clip0_72_3415">
<rect width="25" height="25" fill="white"/>
</clipPath>
</defs>
</svg>
