<svg width="25" height="25" viewBox="0 0 25 25" fill="none" xmlns="http://www.w3.org/2000/svg">
<path d="M21.9385 5.92917C21.1745 4.92539 20.0953 4.20755 18.8742 3.89097C17.6531 3.57438 16.361 3.67743 15.2056 4.18357C14.1714 4.62985 13.249 5.3823 12.501 6.38083C11.7529 5.37985 10.8306 4.62741 9.79639 4.18357C8.64092 3.67743 7.34887 3.57438 6.12778 3.89097C4.9067 4.20755 3.82747 4.92539 3.06348 5.92917C2.25781 6.98484 1.83203 8.30417 1.83203 9.74411C1.83203 11.8164 3.06787 14.0898 5.50488 16.5039C7.49072 18.4702 9.8374 20.0805 11.0591 20.8652C11.4895 21.1407 11.9899 21.2871 12.501 21.2871C13.012 21.2871 13.5124 21.1407 13.9429 20.8652C15.1636 20.0805 17.5112 18.4702 19.4971 16.5039C21.9341 14.0908 23.1699 11.8164 23.1699 9.74411C23.1699 8.30417 22.7441 6.98484 21.9385 5.92917Z" fill="#158466"/>
</svg>
