<svg width="103" height="24" viewBox="0 0 103 24" fill="none" xmlns="http://www.w3.org/2000/svg">
<path d="M5.11025 10.8398H16.5572V15.1492H5.11025V10.8398ZM5.51907 23.6022H0V0.397789H18.0221V4.70718H5.51907V23.6022Z" fill="#158466"/>
<path d="M33.1088 24C31.2237 24 29.4749 23.7017 27.8623 23.105C26.2724 22.5083 24.887 21.6685 23.706 20.5856C22.5476 19.5028 21.6392 18.232 20.9805 16.7735C20.3446 15.3149 20.0266 13.7238 20.0266 12C20.0266 10.2762 20.3446 8.68508 20.9805 7.22652C21.6392 5.76796 22.559 4.49724 23.74 3.41436C24.9211 2.33149 26.3065 1.49171 27.8964 0.895026C29.4862 0.298342 31.2124 0 33.0748 0C34.9599 0 36.686 0.298342 38.2531 0.895026C39.843 1.49171 41.2171 2.33149 42.3754 3.41436C43.5564 4.49724 44.4763 5.76796 45.1349 7.22652C45.7936 8.66298 46.1229 10.2541 46.1229 12C46.1229 13.7238 45.7936 15.326 45.1349 16.8066C44.4763 18.2652 43.5564 19.5359 42.3754 20.6188C41.2171 21.6796 39.843 22.5083 38.2531 23.105C36.686 23.7017 34.9712 24 33.1088 24ZM33.0748 19.4254C34.1422 19.4254 35.1189 19.2486 36.0046 18.895C36.9131 18.5414 37.708 18.0331 38.3894 17.3702C39.0708 16.7072 39.5932 15.9227 39.9566 15.0166C40.3427 14.1105 40.5357 13.105 40.5357 12C40.5357 10.895 40.3427 9.8895 39.9566 8.98343C39.5932 8.07735 39.0708 7.29282 38.3894 6.62983C37.7308 5.96685 36.9472 5.45856 36.0387 5.10497C35.1302 4.75138 34.1422 4.57459 33.0748 4.57459C32.0073 4.57459 31.0193 4.75138 30.1108 5.10497C29.225 5.45856 28.4415 5.96685 27.7601 6.62983C27.0787 7.29282 26.545 8.07735 26.1589 8.98343C25.7955 9.8895 25.6138 10.895 25.6138 12C25.6138 13.0829 25.7955 14.0884 26.1589 15.0166C26.545 15.9227 27.0674 16.7072 27.726 17.3702C28.4074 18.0331 29.2023 18.5414 30.1108 18.895C31.0193 19.2486 32.0073 19.4254 33.0748 19.4254Z" fill="#158466"/>
<path d="M61.854 24C59.9689 24 58.22 23.7017 56.6075 23.105C55.0176 22.5083 53.6322 21.6685 52.4511 20.5856C51.2928 19.5028 50.3843 18.232 49.7257 16.7735C49.0897 15.3149 48.7717 13.7238 48.7717 12C48.7717 10.2762 49.0897 8.68508 49.7257 7.22652C50.3843 5.76796 51.3041 4.49724 52.4852 3.41436C53.6662 2.33149 55.0517 1.49171 56.6415 0.895026C58.2314 0.298342 59.9575 0 61.8199 0C63.705 0 65.4312 0.298342 66.9983 0.895026C68.5882 1.49171 69.9622 2.33149 71.1206 3.41436C72.3016 4.49724 73.2214 5.76796 73.8801 7.22652C74.5387 8.66298 74.8681 10.2541 74.8681 12C74.8681 13.7238 74.5387 15.326 73.8801 16.8066C73.2214 18.2652 72.3016 19.5359 71.1206 20.6188C69.9622 21.6796 68.5882 22.5083 66.9983 23.105C65.4312 23.7017 63.7164 24 61.854 24ZM61.8199 19.4254C62.8874 19.4254 63.864 19.2486 64.7498 18.895C65.6583 18.5414 66.4532 18.0331 67.1346 17.3702C67.8159 16.7072 68.3383 15.9227 68.7017 15.0166C69.0878 14.1105 69.2809 13.105 69.2809 12C69.2809 10.895 69.0878 9.8895 68.7017 8.98343C68.3383 8.07735 67.8159 7.29282 67.1346 6.62983C66.4759 5.96685 65.6923 5.45856 64.7839 5.10497C63.8754 4.75138 62.8874 4.57459 61.8199 4.57459C60.7524 4.57459 59.7645 4.75138 58.856 5.10497C57.9702 5.45856 57.1866 5.96685 56.5052 6.62983C55.8239 7.29282 55.2901 8.07735 54.904 8.98343C54.5406 9.8895 54.3589 10.895 54.3589 12C54.3589 13.0829 54.5406 14.0884 54.904 15.0166C55.2901 15.9227 55.8125 16.7072 56.4712 17.3702C57.1525 18.0331 57.9475 18.5414 58.856 18.895C59.7645 19.2486 60.7524 19.4254 61.8199 19.4254Z" fill="#158466"/>
<path d="M79.0159 23.6022V0.397789H89.8496C92.4388 0.397789 94.7214 0.883977 96.6974 1.85635C98.6733 2.80663 100.218 4.14365 101.331 5.8674C102.444 7.59116 103 9.63536 103 12C103 14.3425 102.444 16.3867 101.331 18.1326C100.218 19.8564 98.6733 21.2044 96.6974 22.1768C94.7214 23.1271 92.4388 23.6022 89.8496 23.6022H79.0159ZM84.535 19.1934H89.5771C91.1669 19.1934 92.541 18.9061 93.6993 18.3315C94.8804 17.7348 95.7889 16.895 96.4248 15.8122C97.0835 14.7293 97.4128 13.4586 97.4128 12C97.4128 10.5193 97.0835 9.24862 96.4248 8.18784C95.7889 7.10497 94.8804 6.27624 93.6993 5.70166C92.541 5.10497 91.1669 4.80663 89.5771 4.80663H84.535V19.1934Z" fill="#158466"/>
</svg>
