<svg width="9" height="10" viewBox="0 0 9 10" fill="none" xmlns="http://www.w3.org/2000/svg">
<path d="M8.09122 5.64269H5.35862V8.37529C5.35862 8.73024 5.07065 9.01821 4.7157 9.01821C4.36075 9.01821 4.07278 8.73024 4.07278 8.37529V5.64269H1.34018C0.98523 5.64269 0.697266 5.35473 0.697266 4.99977C0.697266 4.64482 0.98523 4.35686 1.34018 4.35686H4.07278V1.62426C4.07278 1.2693 4.36075 0.981339 4.7157 0.981339C5.07065 0.981339 5.35862 1.2693 5.35862 1.62426V4.35686H8.09122C8.44617 4.35686 8.73413 4.64482 8.73413 4.99977C8.73413 5.35473 8.44617 5.64269 8.09122 5.64269Z" fill="#FAFAFA"/>
</svg>
