<svg width="23" height="23" viewBox="0 0 23 23" fill="none" xmlns="http://www.w3.org/2000/svg">
<path fill-rule="evenodd" clip-rule="evenodd" d="M14.2651 6.26217C12.0138 4.01078 8.3635 4.01078 6.1121 6.26217C3.86071 8.51357 3.86071 12.1638 6.1121 14.4152C8.3635 16.6666 12.0138 16.6666 14.2651 14.4152C16.5165 12.1638 16.5165 8.51357 14.2651 6.26217ZM5.18905 5.33912C7.95023 2.57794 12.427 2.57794 15.1882 5.33912C17.7938 7.9447 17.9406 12.0779 15.6287 14.8557L18.5917 17.8187C18.8466 18.0736 18.8466 18.4869 18.5917 18.7418C18.3368 18.9966 17.9235 18.9966 17.6687 18.7418L14.7056 15.7787C11.9279 18.0906 7.79463 17.9438 5.18905 15.3382C2.42787 12.5771 2.42787 8.1003 5.18905 5.33912Z" fill="white"/>
</svg>
