<svg width="142" height="33" viewBox="0 0 142 33" fill="none" xmlns="http://www.w3.org/2000/svg">
<path d="M7.0452 14.9047H22.8264V20.8301H7.0452V14.9047ZM7.60881 32.453H0V0.54696H24.8461V6.47237H7.60881V32.453Z" fill="white"/>
<path d="M45.6452 33C43.0463 33 40.6353 32.5898 38.4121 31.7693C36.2203 30.9489 34.3102 29.7942 32.682 28.3052C31.0851 26.8163 29.8326 25.0691 28.9246 23.0635C28.0478 21.058 27.6095 18.8702 27.6095 16.5C27.6095 14.1298 28.0478 11.942 28.9246 9.93646C29.8326 7.93094 31.1008 6.1837 32.729 4.69475C34.3572 3.2058 36.2672 2.0511 38.4591 1.23066C40.6509 0.41022 43.0306 0 45.5982 0C48.1971 0 50.5768 0.41022 52.7373 1.23066C54.9292 2.0511 56.8236 3.2058 58.4205 4.69475C60.0487 6.1837 61.3168 7.93094 62.2249 9.93646C63.1329 11.9116 63.5869 14.0994 63.5869 16.5C63.5869 18.8702 63.1329 21.0732 62.2249 23.1091C61.3168 25.1146 60.0487 26.8619 58.4205 28.3508C56.8236 29.8094 54.9292 30.9489 52.7373 31.7693C50.5768 32.5898 48.2128 33 45.6452 33ZM45.5982 26.7099C47.0699 26.7099 48.4163 26.4669 49.6375 25.9807C50.8899 25.4945 51.9859 24.7956 52.9252 23.884C53.8646 22.9724 54.5847 21.8936 55.0857 20.6478C55.618 19.4019 55.8842 18.0193 55.8842 16.5C55.8842 14.9807 55.618 13.5981 55.0857 12.3522C54.5847 11.1064 53.8646 10.0276 52.9252 9.11602C52.0172 8.20442 50.9369 7.50552 49.6844 7.01934C48.4319 6.53315 47.0699 6.29006 45.5982 6.29006C44.1265 6.29006 42.7645 6.53315 41.512 7.01934C40.2908 7.50552 39.2106 8.20442 38.2712 9.11602C37.3318 10.0276 36.596 11.1064 36.0637 12.3522C35.5627 13.5981 35.3122 14.9807 35.3122 16.5C35.3122 17.989 35.5627 19.3715 36.0637 20.6478C36.596 21.8936 37.3162 22.9724 38.2242 23.884C39.1636 24.7956 40.2595 25.4945 41.512 25.9807C42.7645 26.4669 44.1265 26.7099 45.5982 26.7099Z" fill="white"/>
<path d="M85.2744 33C82.6755 33 80.2645 32.5898 78.0413 31.7693C75.8495 30.9489 73.9395 29.7942 72.3112 28.3052C70.7143 26.8163 69.4619 25.0691 68.5538 23.0635C67.6771 21.058 67.2387 18.8702 67.2387 16.5C67.2387 14.1298 67.6771 11.942 68.5538 9.93646C69.4619 7.93094 70.73 6.1837 72.3582 4.69475C73.9864 3.2058 75.8965 2.0511 78.0883 1.23066C80.2802 0.41022 82.6599 0 85.2274 0C87.8263 0 90.206 0.41022 92.3666 1.23066C94.5584 2.0511 96.4528 3.2058 98.0497 4.69475C99.6779 6.1837 100.946 7.93094 101.854 9.93646C102.762 11.9116 103.216 14.0994 103.216 16.5C103.216 18.8702 102.762 21.0732 101.854 23.1091C100.946 25.1146 99.6779 26.8619 98.0497 28.3508C96.4528 29.8094 94.5584 30.9489 92.3666 31.7693C90.206 32.5898 87.842 33 85.2744 33ZM85.2274 26.7099C86.6991 26.7099 88.0455 26.4669 89.2667 25.9807C90.5192 25.4945 91.6151 24.7956 92.5545 23.884C93.4938 22.9724 94.214 21.8936 94.715 20.6478C95.2473 19.4019 95.5134 18.0193 95.5134 16.5C95.5134 14.9807 95.2473 13.5981 94.715 12.3522C94.214 11.1064 93.4938 10.0276 92.5545 9.11602C91.6464 8.20442 90.5661 7.50552 89.3137 7.01934C88.0612 6.53315 86.6991 6.29006 85.2274 6.29006C83.7558 6.29006 82.3937 6.53315 81.1412 7.01934C79.9201 7.50552 78.8398 8.20442 77.9004 9.11602C76.9611 10.0276 76.2253 11.1064 75.6929 12.3522C75.192 13.5981 74.9415 14.9807 74.9415 16.5C74.9415 17.989 75.192 19.3715 75.6929 20.6478C76.2253 21.8936 76.9454 22.9724 77.8535 23.884C78.7928 24.7956 79.8887 25.4945 81.1412 25.9807C82.3937 26.4669 83.7558 26.7099 85.2274 26.7099Z" fill="white"/>
<path d="M108.935 32.453V0.54696H123.87C127.44 0.54696 130.587 1.21547 133.311 2.55249C136.035 3.85912 138.164 5.69751 139.699 8.06768C141.233 10.4378 142 13.2486 142 16.5C142 19.721 141.233 22.5318 139.699 24.9323C138.164 27.3025 136.035 29.1561 133.311 30.4931C130.587 31.7997 127.44 32.453 123.87 32.453H108.935ZM116.543 26.3909H123.495C125.686 26.3909 127.581 25.9959 129.178 25.2058C130.806 24.3854 132.058 23.2307 132.935 21.7417C133.843 20.2528 134.297 18.5055 134.297 16.5C134.297 14.4641 133.843 12.7168 132.935 11.2583C132.058 9.76934 130.806 8.62984 129.178 7.83978C127.581 7.01934 125.686 6.60912 123.495 6.60912H116.543V26.3909Z" fill="white"/>
</svg>
