<svg width="20" height="20" viewBox="0 0 20 20" fill="none" xmlns="http://www.w3.org/2000/svg">
<path d="M9.99375 0C4.54875 0 0.09375 4.455 0.09375 9.9C0.09375 15.345 4.54875 19.8 9.99375 19.8C15.4388 19.8 19.8938 15.345 19.8938 9.9C19.8938 4.455 15.4388 0 9.99375 0ZM14.2508 7.524L9.69675 13.464C9.49875 13.662 9.20175 13.86 8.90475 13.86C8.60775 13.86 8.31075 13.761 8.11275 13.464L5.73675 10.395C5.43975 9.999 5.43975 9.306 5.93475 9.009C6.42975 8.712 7.02375 8.712 7.32075 9.207L8.90475 11.286L12.6668 6.336C12.9638 5.94 13.6568 5.841 14.0528 6.138C14.5478 6.435 14.5478 7.029 14.2508 7.524Z" fill="#158466"/>
</svg>
