<svg width="17" height="17" viewBox="0 0 17 17" fill="none" xmlns="http://www.w3.org/2000/svg">
<g clip-path="url(#clip0_2062_5735)">
<path d="M12.3885 4.05891H14.5966L11.2236 0.519531V2.89861C11.2236 3.54179 11.7407 4.05891 12.3885 4.05891Z" fill="#158466"/>
<path d="M10.504 2.89905V-0.0332031H3.59605C2.701 -0.0332031 1.95898 0.704399 1.95898 1.59933V15.3343C1.95898 16.2293 2.701 16.9668 3.59605 16.9668H13.4543C14.3492 16.9668 15.0912 16.2292 15.0912 15.3343V4.77892H12.3883C11.345 4.77892 10.504 3.93794 10.504 2.89905ZM5.64687 8.75914C5.7907 8.62425 6.02014 8.6332 6.15503 8.77717L8.16538 10.9359V5.79991C8.16538 5.60199 8.32724 5.44012 8.52516 5.44012C8.72308 5.44012 8.88495 5.60199 8.88495 5.79991V10.9403L10.8953 8.78158C11.0302 8.63774 11.2596 8.62866 11.4035 8.76355C11.5474 8.89857 11.5564 9.12788 11.4215 9.27184L8.78599 12.1007C8.71854 12.1726 8.62412 12.213 8.52062 12.213C8.41725 12.213 8.32724 12.1726 8.25539 12.1007L5.61989 9.27184C5.49395 9.12334 5.5029 8.89857 5.64687 8.75914ZM12.5862 14.2234C12.5862 14.4213 12.4243 14.5832 12.2264 14.5832H4.82379C4.62587 14.5832 4.464 14.4213 4.464 14.2234C4.464 14.0255 4.62587 13.8636 4.82379 13.8636H12.2309C12.4289 13.8636 12.5862 14.0256 12.5862 14.2234Z" fill="#158466"/>
</g>
<defs>
<clipPath id="clip0_2062_5735">
<rect width="17" height="17" fill="white"/>
</clipPath>
</defs>
</svg>
