<svg width="25" height="25" viewBox="0 0 25 25" fill="none" xmlns="http://www.w3.org/2000/svg">
<g clip-path="url(#clip0_2089_21493)">
<path d="M21.8418 7.57617L16.3828 13L21.8418 18.4239C21.9405 18.2177 22.0004 17.9896 22.0004 17.7461V8.25395C22.0004 8.01042 21.9405 7.78243 21.8418 7.57617Z" fill="#158466"/>
<path d="M20.418 6.66992H5.58207C5.33855 6.66992 5.11056 6.72979 4.9043 6.82848L11.8815 13.7705C12.4984 14.3875 13.5017 14.3875 14.1186 13.7705L21.0958 6.82848C20.8895 6.72979 20.6615 6.66992 20.418 6.66992Z" fill="#158466"/>
<path d="M4.15855 7.57617C4.05987 7.78243 4 8.01042 4 8.25395V17.7461C4 17.9897 4.05987 18.2177 4.15855 18.4239L9.61758 13L4.15855 7.57617Z" fill="#158466"/>
<path d="M15.6368 13.7461L14.8643 14.5186C13.8363 15.5465 12.1637 15.5465 11.1358 14.5186L10.3633 13.7461L4.9043 19.17C5.11056 19.2686 5.33855 19.3285 5.58207 19.3285H20.418C20.6615 19.3285 20.8895 19.2686 21.0958 19.17L15.6368 13.7461Z" fill="#158466"/>
</g>
<defs>
<clipPath id="clip0_2089_21493">
<rect width="18" height="18" fill="white" transform="translate(4 4)"/>
</clipPath>
</defs>
</svg>
