<svg width="25" height="25" viewBox="0 0 25 25" fill="none" xmlns="http://www.w3.org/2000/svg">
<g clip-path="url(#clip0_2089_21510)">
<path d="M19.5092 16.5281C18.4218 15.5981 17.3183 15.0347 16.2442 15.9633L15.6029 16.5246C15.1337 16.932 14.2613 18.8356 10.8882 14.9553C7.51574 11.08 9.52261 10.4766 9.99254 10.0727L10.6374 9.51074C11.7058 8.58 11.3026 7.40834 10.532 6.20225L10.067 5.47171C9.29291 4.26843 8.44999 3.47819 7.37877 4.40752L6.79996 4.91327C6.32651 5.25817 5.00312 6.37926 4.6821 8.50906C4.29576 11.0645 5.51449 13.9909 8.30669 17.2017C11.0954 20.414 13.8258 22.0275 16.4121 21.9994C18.5616 21.9762 19.8597 20.8228 20.2657 20.4035L20.8466 19.897C21.915 18.9684 21.2512 18.0229 20.1632 17.0908L19.5092 16.5281Z" fill="#158466"/>
</g>
<defs>
<clipPath id="clip0_2089_21510">
<rect width="18" height="18" fill="white" transform="translate(4 4)"/>
</clipPath>
</defs>
</svg>
